<svg width="19" height="19" viewBox="0 0 19 19" fill="none" xmlns="http://www.w3.org/2000/svg">
<g id="&#229;&#164;&#141;&#229;&#136;&#182; (1) 1" clip-path="url(#clip0_7193_28859)">
<path id="Vector" d="M13.0505 16.6109C13.0503 16.7666 13.0195 16.9207 12.9597 17.0645C12.9 17.2083 12.8125 17.3389 12.7023 17.4489C12.5921 17.5589 12.4613 17.6461 12.3174 17.7055C12.1735 17.7649 12.0193 17.7954 11.8636 17.7952H2.37373C2.21804 17.7954 2.06383 17.7649 1.91993 17.7055C1.77602 17.6461 1.64523 17.5589 1.53502 17.4489C1.42481 17.3389 1.33734 17.2083 1.2776 17.0645C1.21786 16.9207 1.18703 16.7666 1.18687 16.6109V7.12991C1.18687 6.47505 1.71887 5.94558 2.37373 5.94558H3.55933V4.75998H2.37373C2.06213 4.75965 1.75352 4.82073 1.46554 4.93975C1.17756 5.05876 0.915859 5.23337 0.695404 5.45359C0.474949 5.67381 0.300062 5.93532 0.180739 6.22317C0.0614169 6.51103 1.62512e-07 6.81957 3.40348e-07 7.13118V16.6122C-0.000166631 16.9237 0.0611035 17.2321 0.180303 17.5199C0.299503 17.8077 0.474291 18.0691 0.694661 18.2892C0.915032 18.5094 1.17666 18.6839 1.46456 18.8028C1.75246 18.9217 2.06098 18.9826 2.37247 18.9821H11.8611C12.1724 18.9826 12.4809 18.9217 12.7687 18.8029C13.0565 18.6841 13.3181 18.5097 13.5384 18.2897C13.7588 18.0697 13.9336 17.8084 14.0529 17.5208C14.1721 17.2331 14.2335 16.9248 14.2335 16.6134V15.4278H13.0479V16.6122L13.0505 16.6109ZM16.6085 0.0175785H7.11867C6.80717 0.0174121 6.49869 0.0786222 6.21086 0.197712C5.92303 0.316801 5.66148 0.491436 5.44116 0.711639C5.22084 0.931842 5.04606 1.1933 4.92682 1.48107C4.80758 1.76884 4.7462 2.07728 4.7462 2.38878V11.8685C4.7462 13.177 5.80767 14.2372 7.11867 14.2372H16.6098C17.9208 14.2372 18.981 13.1757 18.981 11.8685V2.38878C18.9808 2.07739 18.9193 1.76908 18.8 1.48146C18.6807 1.19383 18.5059 0.932526 18.2856 0.712458C18.0653 0.492389 17.8038 0.317867 17.516 0.198857C17.2283 0.0798469 16.9199 0.0186788 16.6085 0.0188451V0.0175785ZM17.7954 11.8698C17.7954 12.0254 17.7647 12.1795 17.7051 12.3233C17.6455 12.4671 17.5582 12.5977 17.4481 12.7077C17.338 12.8177 17.2072 12.9049 17.0634 12.9643C16.9196 13.0238 16.7654 13.0543 16.6098 13.0541H7.11867C6.80445 13.0541 6.50308 12.9294 6.28077 12.7073C6.05846 12.4852 5.9334 12.184 5.93307 11.8698V2.38878C5.93307 1.73518 6.46507 1.20445 7.11867 1.20445H16.6098C17.2647 1.20445 17.7954 1.73518 17.7954 2.38878V11.8698Z" fill="white"/>
</g>
<defs>
<clipPath id="clip0_7193_28859">
<rect width="19" height="19" fill="white"/>
</clipPath>
</defs>
</svg>
