<svg width="24" height="30" viewBox="0 0 24 30" fill="none" xmlns="http://www.w3.org/2000/svg">
<g id="Group 1321316658">
<g id="Group 1321316657">
<circle id="Ellipse 2877" cx="11.5" cy="11.5" r="10.5" fill="#F7E5FF"/>
<g id="coin-hand">
<path id="Icon" d="M7.72937 25.512C7.20498 25.6853 6.92036 26.2509 7.09367 26.7753C7.26697 27.2997 7.83256 27.5843 8.35695 27.411L7.72937 25.512ZM13.8622 26.8462L13.7722 25.8502L13.8622 26.8462ZM17.3536 26.0769L17.7891 26.9771H17.7891L17.3536 26.0769ZM20.6897 23.0681L19.9153 22.4354L20.6897 23.0681ZM18.408 21.1854L19.1121 21.8955L18.408 21.1854ZM16.8715 22.7087L17.5756 23.4188L16.8715 22.7087ZM12.6984 22.3846C12.1461 22.3846 11.6984 22.8323 11.6984 23.3846C11.6984 23.9369 12.1461 24.3846 12.6984 24.3846V22.3846ZM20.335 20.9962L19.7836 21.8305L20.335 20.9962ZM9.22402 20.4915L9.66816 21.3875H9.66816L9.22402 20.4915ZM13.4001 20.1128L13.6611 19.1475H13.6611L13.4001 20.1128ZM15.0309 20.5538L14.7699 21.5191H14.7699L15.0309 20.5538ZM15.5476 22.4829L14.8435 21.7727L15.5476 22.4829ZM13.934 22.6745C13.5418 23.0633 13.5391 23.6965 13.9279 24.0887C14.3168 24.4809 14.9499 24.4836 15.3421 24.0948L13.934 22.6745ZM8.35695 27.411C8.4545 27.3788 8.67974 27.3518 9.10006 27.3815C9.50005 27.4098 9.96832 27.4794 10.5079 27.5634C11.5286 27.7224 12.8321 27.9433 13.9521 27.8421L13.7722 25.8502C12.9526 25.9242 11.9284 25.7605 10.8156 25.5872C10.2883 25.5051 9.73824 25.4216 9.24113 25.3865C8.76435 25.3528 8.21371 25.352 7.72937 25.512L8.35695 27.411ZM13.9521 27.8421C15.4538 27.7065 16.2079 27.7421 17.7891 26.9771L16.9181 25.1767C15.7223 25.7553 15.3478 25.7079 13.7722 25.8502L13.9521 27.8421ZM17.7891 26.9771C19.219 26.2853 20.6284 24.7238 21.4642 23.7007L19.9153 22.4354C19.0698 23.4704 17.9056 24.699 16.9181 25.1767L17.7891 26.9771ZM17.7039 20.4753L16.1675 21.9986L17.5756 23.4188L19.1121 21.8955L17.7039 20.4753ZM15.2257 22.3846H12.6984V24.3846H15.2257V22.3846ZM16.1675 21.9986C15.9191 22.2448 15.5805 22.3846 15.2257 22.3846V24.3846C16.1054 24.3846 16.9509 24.0382 17.5756 23.4188L16.1675 21.9986ZM20.8864 20.162C19.8866 19.5011 18.5558 19.6307 17.7039 20.4753L19.1121 21.8955C19.2897 21.7194 19.572 21.6906 19.7836 21.8305L20.8864 20.162ZM21.4642 23.7007C22.4053 22.5487 22.046 20.9284 20.8864 20.162L19.7836 21.8305C20.0394 21.9995 20.0448 22.2769 19.9153 22.4354L21.4642 23.7007ZM3.77587 20.5385H6.87935V18.5385H3.77587V20.5385ZM6.65522 20.3077V27.2308H8.65522V20.3077H6.65522ZM6.87935 27H3.77587V29H6.87935V27ZM4 27.2308V20.3077H2V27.2308H4ZM3.77587 27C3.89153 27 4 27.0952 4 27.2308H2C2 28.216 2.80321 29 3.77587 29V27ZM6.65522 27.2308C6.65522 27.0952 6.76369 27 6.87935 27V29C7.85201 29 8.65522 28.216 8.65522 27.2308H6.65522ZM6.87935 20.5385C6.76369 20.5385 6.65522 20.4432 6.65522 20.3077H8.65522C8.65522 19.3225 7.85202 18.5385 6.87935 18.5385V20.5385ZM3.77587 18.5385C2.8032 18.5385 2 19.3225 2 20.3077H4C4 20.4432 3.89153 20.5385 3.77587 20.5385V18.5385ZM8.4873 21.9729L9.66816 21.3875L8.77987 19.5956L7.59901 20.181L8.4873 21.9729ZM11.6529 20.9231H11.9711V18.9231H11.6529V20.9231ZM13.1391 21.0781L14.7699 21.5191L15.2919 19.5884L13.6611 19.1475L13.1391 21.0781ZM14.8435 21.7727L13.934 22.6745L15.3421 24.0948L16.2517 23.193L14.8435 21.7727ZM14.7699 21.5191C14.8963 21.5533 14.922 21.6949 14.8435 21.7727L16.2517 23.193C17.4369 22.0179 16.8897 20.0205 15.2919 19.5884L14.7699 21.5191ZM11.9711 20.9231C12.3657 20.9231 12.7585 20.9752 13.1391 21.0781L13.6611 19.1475C13.1102 18.9985 12.5419 18.9231 11.9711 18.9231V20.9231ZM9.66816 21.3875C10.284 21.0822 10.9635 20.9231 11.6529 20.9231V18.9231C10.6559 18.9231 9.67231 19.1532 8.77987 19.5956L9.66816 21.3875ZM16.7415 14.1538C16.7415 15.2928 15.8079 16.2308 14.6381 16.2308V18.2308C16.8962 18.2308 18.7415 16.4136 18.7415 14.1538H16.7415ZM14.6381 16.2308C13.4682 16.2308 12.5346 15.2928 12.5346 14.1538H10.5346C10.5346 16.4136 12.3799 18.2308 14.6381 18.2308V16.2308ZM12.5346 14.1538C12.5346 13.0149 13.4682 12.0769 14.6381 12.0769V10.0769C12.3799 10.0769 10.5346 11.8941 10.5346 14.1538H12.5346ZM14.6381 12.0769C15.8079 12.0769 16.7415 13.0149 16.7415 14.1538H18.7415C18.7415 11.8941 16.8962 10.0769 14.6381 10.0769V12.0769ZM11.5346 13.1538C10.3647 13.1538 9.43109 12.2159 9.43109 11.0769H7.43109C7.43109 13.3366 9.2764 15.1538 11.5346 15.1538V13.1538ZM9.43109 11.0769C9.43109 9.93796 10.3647 9 11.5346 9V7C9.2764 7 7.43109 8.81722 7.43109 11.0769H9.43109ZM11.5346 9C12.7044 9 13.6381 9.93796 13.6381 11.0769H15.6381C15.6381 8.81722 13.7927 7 11.5346 7V9Z" fill="black"/>
</g>
</g>
</g>
</svg>
