<svg width="23" height="29" viewBox="0 0 23 29" fill="none" xmlns="http://www.w3.org/2000/svg">
<g id="Group 1321316646">
<g id="Group 1321316643">
<circle id="Ellipse 2877" cx="11.5" cy="11.5" r="10.5" fill="#F7E5FF"/>
<g id="data-04">
<path id="Icon" d="M11.9999 21.3999V15.3999M19.6799 21.7599C18.6195 21.7599 17.7599 22.6195 17.7599 23.6799C17.7599 24.7403 18.6195 25.5999 19.6799 25.5999C20.7403 25.5999 21.5999 24.7403 21.5999 23.6799C21.5999 22.6195 20.7403 21.7599 19.6799 21.7599ZM19.6799 21.7599L19.6799 16.2399C19.6799 15.7097 19.2501 15.2799 18.7199 15.2799H5.2799C4.74971 15.2799 4.3199 15.7097 4.3199 16.2399L4.3199 21.7599M4.3199 21.7599C3.25951 21.7599 2.3999 22.6195 2.3999 23.6799C2.3999 24.7403 3.25951 25.5999 4.3199 25.5999C5.38029 25.5999 6.2399 24.7403 6.2399 23.6799C6.2399 22.6195 5.38029 21.7599 4.3199 21.7599ZM11.9999 25.5999C10.9395 25.5999 10.0799 24.7403 10.0799 23.6799C10.0799 22.6195 10.9395 21.7599 11.9999 21.7599C13.0603 21.7599 13.9199 22.6195 13.9199 23.6799C13.9199 24.7403 13.0603 25.5999 11.9999 25.5999ZM5.9999 11.1999H17.9999C18.6626 11.1999 19.1999 10.6626 19.1999 9.9999V7.5999C19.1999 6.93716 18.6626 6.3999 17.9999 6.3999H5.9999C5.33716 6.3999 4.7999 6.93716 4.7999 7.5999V9.9999C4.7999 10.6626 5.33716 11.1999 5.9999 11.1999Z" stroke="black" stroke-width="2" stroke-linecap="round"/>
</g>
</g>
</g>
</svg>
