<svg width="24" height="30" viewBox="0 0 24 30" fill="none" xmlns="http://www.w3.org/2000/svg">
<g id="Group 1321316650">
<g id="Group 1321316649">
<circle id="Ellipse 2877" cx="11.5" cy="11.5" r="10.5" fill="#D8F0FF"/>
<g id="play-01">
<path id="Icon" d="M15.5993 18.8093L15.0538 17.9713L15.0398 17.9803L15.0262 17.9899L15.5993 18.8093ZM15.5993 17.4332L15.0064 18.2384L15.051 18.2712L15.099 18.299L15.5993 17.4332ZM10.0839 13.3719L10.6769 12.5666L10.6487 12.5458L10.6191 12.5271L10.0839 13.3719ZM8.92766 13.9785L9.92765 13.9756L9.92763 13.9668L9.92745 13.9581L8.92766 13.9785ZM8.95078 21.9562L7.95079 21.9591L7.95087 21.9874L7.95255 22.0156L8.95078 21.9562ZM10.1494 22.621L10.6337 23.4959L10.6796 23.4705L10.7226 23.4405L10.1494 22.621ZM5.9999 9.3999H17.9999V7.3999H5.9999V9.3999ZM20.5999 11.9999V23.9999H22.5999V11.9999H20.5999ZM17.9999 26.5999H5.9999V28.5999H17.9999V26.5999ZM3.3999 23.9999V11.9999H1.3999V23.9999H3.3999ZM5.9999 26.5999C4.56396 26.5999 3.3999 25.4358 3.3999 23.9999H1.3999C1.3999 26.5404 3.45939 28.5999 5.9999 28.5999V26.5999ZM20.5999 23.9999C20.5999 25.4358 19.4358 26.5999 17.9999 26.5999V28.5999C20.5404 28.5999 22.5999 26.5404 22.5999 23.9999H20.5999ZM17.9999 9.3999C19.4358 9.3999 20.5999 10.564 20.5999 11.9999H22.5999C22.5999 9.45939 20.5404 7.3999 17.9999 7.3999V9.3999ZM5.9999 7.3999C3.45939 7.3999 1.3999 9.45939 1.3999 11.9999H3.3999C3.3999 10.564 4.56396 9.3999 5.9999 9.3999V7.3999ZM16.1449 19.6474C16.5793 19.3646 17.1284 18.8602 17.1274 18.1C17.1263 17.3173 16.5491 16.827 16.0997 16.5673L15.099 18.299C15.2036 18.3595 15.2229 18.3909 15.2083 18.3723C15.1867 18.3448 15.1276 18.2501 15.1274 18.1027C15.1272 17.9591 15.1833 17.8745 15.192 17.8627C15.1963 17.8569 15.1655 17.8985 15.0538 17.9713L16.1449 19.6474ZM16.1923 16.6279L10.6769 12.5666L9.49098 14.1771L15.0064 18.2384L16.1923 16.6279ZM10.6191 12.5271C10.1484 12.229 9.48756 12.0582 8.86255 12.35C8.1823 12.6676 7.91466 13.3519 7.92786 13.9989L9.92745 13.9581C9.92625 13.8995 9.93844 13.9184 9.90768 13.9773C9.87303 14.0436 9.80534 14.1171 9.70869 14.1622C9.52273 14.249 9.4477 14.1526 9.5488 14.2166L10.6191 12.5271ZM7.92766 13.9814L7.95079 21.9591L9.95078 21.9533L9.92765 13.9756L7.92766 13.9814ZM7.95255 22.0156C7.98436 22.5499 8.17011 23.2622 8.84054 23.6203C9.50063 23.9728 10.1879 23.7426 10.6337 23.4959L9.66523 21.746C9.56611 21.8009 9.52715 21.804 9.5428 21.8018C9.56646 21.7985 9.66412 21.7928 9.78273 21.8561C9.90301 21.9204 9.95507 22.0077 9.96769 22.0346C9.976 22.0523 9.95623 22.018 9.94901 21.8968L7.95255 22.0156ZM10.7226 23.4405L16.1725 19.6288L15.0262 17.9899L9.57631 21.8015L10.7226 23.4405Z" fill="black"/>
</g>
</g>
</g>
</svg>
