<svg width="24" height="29" viewBox="0 0 24 29" fill="none" xmlns="http://www.w3.org/2000/svg">
<g id="Group 2085667078">
<path id="Ellipse 2877" d="M22.5 10.5C22.5 16.299 17.799 21 12 21C6.20101 21 1.5 16.299 1.5 10.5C1.5 4.70101 6.20101 0 12 0C17.799 0 22.5 4.70101 22.5 10.5Z" fill="#D8F0FF"/>
<path id="Vector" d="M13.6002 5.42518L20.7628 9.49795C21.8362 10.1112 22.5016 11.2773 22.5 12.5425V20.4578C22.5019 21.723 21.8365 22.8894 20.7628 23.5021L13.6002 27.5748C12.6041 28.1417 11.3956 28.1417 10.3998 27.5748L3.23721 23.5021C2.16378 22.8888 1.49837 21.7227 1.50001 20.4578V12.5425C1.4981 11.2773 2.16324 10.1109 3.23721 9.49795L10.3995 5.42518C11.3953 4.85827 12.6044 4.85827 13.6002 5.42518ZM11.3414 7.21798L4.17771 11.2894C3.7351 11.5418 3.46082 12.0225 3.46164 12.5436V20.4589C3.46164 20.9798 3.73565 21.4599 4.17771 21.7123L11.3414 25.7823C11.7511 26.0162 12.2484 26.0162 12.6578 25.7823L19.8215 21.7109C20.2641 21.4585 20.5384 20.9778 20.5375 20.4567V12.5416C20.5381 12.0202 20.2638 11.5401 19.8215 11.2874L12.6578 7.21742C12.2481 6.98465 11.7511 6.98521 11.3414 7.21798Z" fill="black"/>
<g id="AI">
<path id="Vector_2" d="M10.5938 11.9502L10.6064 11.9814L14.2207 21.042L14.248 21.1113H12.3711L12.3594 21.0781L11.6553 19.1348H8.25488L7.52539 21.0781L7.51367 21.1113H5.63672L5.66406 21.042L9.29199 11.9814L9.30371 11.9502H10.5938ZM17.0469 11.9502V21.1113H15.3223V11.9502H17.0469ZM8.79883 17.6436H11.0986L9.94824 14.5352L8.79883 17.6436Z" fill="black" stroke="black" stroke-width="0.1"/>
</g>
</g>
</svg>
