<svg width="14" height="14" viewBox="0 0 14 14" fill="none" xmlns="http://www.w3.org/2000/svg">
<g id="no-credit-card_10922313 1" clip-path="url(#clip0_21332_47712)">
<path id="Vector" d="M2.1875 6.5625C2.1875 6.32087 2.38337 6.125 2.625 6.125H4.375C4.61663 6.125 4.8125 6.32087 4.8125 6.5625C4.8125 6.80413 4.61663 7 4.375 7H2.625C2.38337 7 2.1875 6.80413 2.1875 6.5625Z" fill="#565656"/>
<path id="Vector_2" fill-rule="evenodd" clip-rule="evenodd" d="M1.18436 0.565641C1.0135 0.394786 0.736494 0.394786 0.565642 0.565641C0.394787 0.736494 0.394787 1.0135 0.565642 1.18436L1.70918 2.32789C0.938842 2.88411 0.4375 3.78976 0.4375 4.8125V9.1875C0.4375 10.8789 1.80863 12.25 3.5 12.25H10.5C10.8403 12.25 11.1676 12.1945 11.4734 12.0921L12.8156 13.4344C12.9865 13.6052 13.2635 13.6052 13.4344 13.4344C13.6052 13.2635 13.6052 12.9865 13.4344 12.8156L1.18436 0.565641ZM10.7429 11.3617L4.63129 5.25H1.3125V9.1875C1.3125 10.3956 2.29189 11.375 3.5 11.375H10.5C10.5821 11.375 10.6632 11.3705 10.7429 11.3617ZM3.75629 4.375L2.33929 2.958C1.84075 3.27068 1.47728 3.77882 1.35626 4.375H3.75629Z" fill="#565656"/>
<path id="Vector_3" d="M12.642 4.375H6.08572L6.96072 5.25H12.6858V9.1875C12.6858 9.68962 12.5166 10.1522 12.2321 10.5214L12.8546 11.1438C13.2956 10.6132 13.5608 9.93134 13.5608 9.1875V4.8125C13.5608 3.12113 12.1896 1.75 10.4983 1.75H3.49826C3.48581 1.75 3.47336 1.75007 3.46094 1.75022L4.33572 2.625H10.4983C11.5565 2.625 12.4393 3.37652 12.642 4.375Z" fill="#A59CB2"/>
</g>
<defs>
<clipPath id="clip0_21332_47712">
<rect width="14" height="14" fill="white"/>
</clipPath>
</defs>
</svg>
