<svg width="65" height="16" viewBox="0 0 65 16" fill="none" xmlns="http://www.w3.org/2000/svg">
<path d="M0 0H65V16H0V0Z" fill="url(#paint0_linear_21008_47294)"/>
<path d="M9.504 9.612C9.504 10.956 8.508 11.868 7.2 12.06V13.392L6.084 13.404V12.048C4.848 11.856 3.78 11.052 3.564 9.684L4.824 9.372C4.956 10.452 5.724 10.956 6.684 10.956C7.668 10.956 8.232 10.416 8.232 9.72C8.232 7.836 4.104 8.46 4.104 5.772C4.104 4.56 4.956 3.768 6.06 3.576V2.304H7.188V3.576C7.98 3.708 8.664 4.14 9.108 4.944L8.052 5.604C7.728 4.98 7.212 4.656 6.588 4.656C5.892 4.656 5.376 5.088 5.376 5.712C5.376 7.428 9.504 6.84 9.504 9.612ZM13.6298 12.108C11.1578 12.108 10.7978 9.66 10.7978 7.824C10.7978 5.964 11.1338 3.516 13.5458 3.516C15.7298 3.516 16.3538 5.676 16.3538 7.836C16.3538 9.972 15.7538 12.108 13.6298 12.108ZM13.5938 10.944C14.9018 10.944 15.0338 9.348 15.0338 7.812C15.0338 6.216 14.8898 4.68 13.5458 4.68C12.1778 4.68 12.0578 6.276 12.0578 7.824C12.0578 9.324 12.1778 10.944 13.5938 10.944ZM18.2871 12V10.524H19.5231V12H18.2871ZM21.2456 3.636H27.2576V4.308L23.4176 12H22.0136L25.7336 4.8H21.2456V3.636ZM31.1948 12.108C29.6468 12.108 28.1948 11.28 28.1948 9.576C28.1948 8.616 28.6748 7.836 29.5268 7.452C28.9748 7.068 28.6148 6.468 28.6148 5.736C28.6148 4.344 29.8748 3.528 31.1948 3.528C32.5508 3.528 33.7628 4.368 33.7628 5.748C33.7628 6.468 33.4148 7.08 32.8508 7.452C33.7028 7.836 34.1828 8.616 34.1828 9.576C34.1828 11.28 32.7428 12.108 31.1948 12.108ZM31.1948 7.104C31.9988 7.104 32.5508 6.636 32.5508 5.844C32.5508 5.16 31.9868 4.692 31.1948 4.692C30.4268 4.692 29.8388 5.136 29.8388 5.832C29.8388 6.636 30.3908 7.104 31.1948 7.104ZM31.1948 10.944C32.1788 10.944 32.9708 10.452 32.9708 9.492C32.9708 8.508 32.2268 7.944 31.1948 7.944C30.1388 7.944 29.4068 8.508 29.4068 9.492C29.4068 10.452 30.2108 10.944 31.1948 10.944ZM34.5321 14.544L38.8641 3.636H40.0281L35.6721 14.544H34.5321ZM43.899 12.108C41.223 12.108 39.927 10.164 39.927 7.812C39.927 5.46 41.223 3.516 43.923 3.516C45.807 3.516 46.983 4.464 47.535 5.856L46.359 6.312C45.999 5.34 45.219 4.728 43.923 4.728C42.039 4.728 41.199 6.036 41.199 7.752C41.199 9.54 42.003 10.896 43.899 10.896C45.279 10.896 46.323 10.188 46.323 8.64L46.359 8.58H44.415V7.548H47.607V12H46.599L46.491 10.644C46.059 11.568 45.075 12.108 43.899 12.108ZM49.5736 12V3.636H52.3696C54.0136 3.636 54.9616 4.404 54.9616 5.736C54.9616 6.624 54.5176 7.224 53.9656 7.512C55.0336 7.848 55.3936 8.676 55.3936 9.588C55.3936 11.112 54.4096 12 52.6936 12H49.5736ZM50.8456 7.104H52.4296C53.2336 7.104 53.6896 6.696 53.6896 5.976C53.6896 5.208 53.2096 4.8 52.3696 4.8H50.8456V7.104ZM50.8456 10.824H52.5976C53.5696 10.824 54.1336 10.356 54.1336 9.468C54.1336 8.328 53.1736 8.208 52.6816 8.208H50.8456V10.824Z" fill="#C910A4"/>
<line x1="0.5" x2="0.5" y2="16" stroke="#F9D4E6"/>
<defs>
<linearGradient id="paint0_linear_21008_47294" x1="0" y1="8" x2="65" y2="8" gradientUnits="userSpaceOnUse">
<stop stop-color="#F9E4EE"/>
<stop offset="1" stop-color="white"/>
</linearGradient>
</defs>
</svg>
