<svg width="22" height="22" viewBox="0 0 22 22" fill="none" xmlns="http://www.w3.org/2000/svg">
<g id="Group 2085668313">
<g id="&#232;&#129;&#148;&#231;&#155;&#159;&#231;&#174;&#161;&#231;&#144;&#134;">
<path id="Vector" d="M15.7034 6.6657H10.9154C10.6166 6.6657 10.3754 6.42403 10.3754 6.12465C10.3754 5.82526 10.6166 5.58359 10.9154 5.58359H15.2822C14.9402 3.5348 13.1654 1.97656 11.0234 1.97656C8.63664 1.97656 6.70344 3.91354 6.70344 6.305V11.1024C6.70344 11.4017 6.46224 11.6434 6.16344 11.6434C5.86464 11.6434 5.62344 11.4017 5.62344 11.1024V6.72702C3.57864 7.06969 2.02344 8.84796 2.02344 10.9941C2.02344 13.3856 3.95664 15.3226 6.34344 15.3226H11.1314C11.4302 15.3226 11.6714 15.5642 11.6714 15.8636C11.6714 16.163 11.4302 16.4047 11.1314 16.4047H6.76464C7.10664 18.4535 8.88504 20.0117 11.0234 20.0117C13.4102 20.0117 15.3434 18.0747 15.3434 15.6833V15.3226H15.3614V10.8859C15.3614 10.5865 15.6026 10.3449 15.9014 10.3449C16.2002 10.3449 16.4414 10.5865 16.4414 10.8859V15.2577C18.4754 14.9078 20.0234 13.1295 20.0234 10.9941C20.0234 8.60268 18.0902 6.6657 15.7034 6.6657Z" fill="black"/>
</g>
</g>
</svg>
