<svg width="22" height="22" viewBox="0 0 22 22" fill="none" xmlns="http://www.w3.org/2000/svg">
<g id="Group 2085666599">
<circle id="Ellipse 4254981" cx="11" cy="11" r="10" fill="#F7F8FC"/>
<g id="Layer_1" clip-path="url(#clip0_7727_16349)">
<g id="Group">
<path id="Vector" d="M7.85156 11.2402C7.85156 10.6555 7.99559 10.1556 8.28365 9.74048C8.57171 9.32534 8.96569 9.01191 9.46559 8.80007C9.92305 8.60519 10.4865 8.46548 11.156 8.38061C11.3846 8.35524 11.7574 8.32134 12.2743 8.2789V8.06286C12.2743 7.52064 12.215 7.15636 12.0964 6.96989C11.9184 6.71562 11.6389 6.58865 11.2575 6.58865H11.156C10.8763 6.61402 10.6348 6.70299 10.4315 6.85544C10.2282 7.008 10.0968 7.21972 10.0375 7.49095C10.0036 7.66035 9.91895 7.75773 9.78334 7.78322L8.32176 7.60528C8.17773 7.57138 8.10572 7.49516 8.10572 7.3765C8.10572 7.35113 8.10993 7.32143 8.11835 7.28764C8.26238 6.53359 8.61608 5.97442 9.17957 5.61002C9.74295 5.24585 10.4018 5.04244 11.156 5H11.4737C12.4394 5 13.1935 5.24995 13.736 5.74984C13.8208 5.83494 13.8996 5.92618 13.971 6.023C14.0428 6.12039 14.1001 6.2073 14.1424 6.28353C14.1848 6.35975 14.223 6.46999 14.2568 6.61391C14.2908 6.75805 14.3161 6.8576 14.3333 6.91255C14.3501 6.96762 14.3628 7.08628 14.3713 7.26853C14.3797 7.45067 14.3839 7.55864 14.3839 7.59254V10.6681C14.3839 10.8884 14.4156 11.0897 14.4792 11.2718C14.5428 11.4541 14.6044 11.5853 14.6634 11.6658C14.7227 11.7462 14.8203 11.8756 14.9558 12.0533C15.0067 12.1297 15.032 12.1975 15.032 12.2568C15.032 12.3246 14.9982 12.3836 14.9302 12.4346C14.2271 13.0448 13.8459 13.3752 13.7865 13.4261C13.6849 13.5023 13.562 13.5107 13.4179 13.4515C13.2995 13.3497 13.1957 13.2524 13.1066 13.1591C13.0178 13.066 12.9542 12.9982 12.9159 12.9558C12.8779 12.9136 12.8164 12.8309 12.7317 12.708C12.6471 12.5851 12.5875 12.5024 12.5538 12.4602C12.0794 12.9771 11.6134 13.299 11.156 13.4261C10.8678 13.5107 10.5119 13.5532 10.0884 13.5532C9.43589 13.5532 8.90005 13.3518 8.4807 12.9494C8.06124 12.5469 7.85156 11.9772 7.85156 11.2402ZM10.0375 10.9859C10.0375 11.3164 10.1202 11.5811 10.2853 11.7802C10.4506 11.9793 10.6729 12.0789 10.9525 12.0789C10.978 12.0789 11.014 12.0747 11.0606 12.0662C11.107 12.0576 11.1389 12.0534 11.156 12.0534C11.5117 11.9603 11.787 11.7316 11.9819 11.3672C12.0752 11.2063 12.145 11.0305 12.1917 10.8398C12.2383 10.6493 12.2637 10.4945 12.2679 10.3759C12.2721 10.2573 12.2744 10.0624 12.2744 9.79133V9.47358C11.7829 9.47358 11.4102 9.50748 11.1561 9.57529C10.4102 9.78701 10.0375 10.2572 10.0375 10.9859Z" fill="black"/>
<path id="Vector_2" d="M15.3744 15.0781C15.3915 15.0441 15.4168 15.0103 15.4508 14.9763C15.6626 14.8323 15.8659 14.735 16.0608 14.6842C16.3827 14.5995 16.6963 14.5529 17.0012 14.5443C17.086 14.5357 17.1665 14.5401 17.2427 14.557C17.624 14.5908 17.8526 14.6545 17.9291 14.7477C17.9628 14.7985 17.9797 14.8747 17.9797 14.9763V15.0654C17.9797 15.3618 17.8992 15.7114 17.7384 16.1138C17.5773 16.5162 17.3528 16.8404 17.0646 17.0862C17.0224 17.1199 16.9842 17.1368 16.9504 17.1368C16.9334 17.1368 16.9164 17.1326 16.8996 17.1241C16.8487 17.0988 16.836 17.0521 16.8613 16.9843C17.1749 16.2472 17.3315 15.7347 17.3315 15.4464C17.3315 15.3534 17.3147 15.2855 17.2809 15.2431C17.196 15.1415 16.959 15.0907 16.5692 15.0907C16.4249 15.0907 16.2556 15.0991 16.0608 15.116C15.849 15.1416 15.6542 15.1669 15.4761 15.1925C15.4253 15.1925 15.3915 15.1838 15.3743 15.1669C15.3574 15.15 15.3531 15.1331 15.3617 15.116C15.3617 15.1077 15.3659 15.095 15.3744 15.0781ZM4.02537 14.8622C4.06781 14.7944 4.1355 14.7902 4.22879 14.8494C6.34692 16.0779 8.65151 16.6923 11.1423 16.6923C12.8031 16.6923 14.4425 16.383 16.0608 15.7644C16.103 15.7476 16.1645 15.7222 16.2449 15.6882C16.3256 15.6544 16.3827 15.6289 16.4165 15.6119C16.5436 15.5611 16.6431 15.5866 16.7152 15.6882C16.7874 15.79 16.7641 15.8831 16.6454 15.9677C16.4927 16.0779 16.2979 16.205 16.0608 16.349C15.3322 16.7813 14.5186 17.1158 13.6206 17.3532C12.7226 17.5905 11.8455 17.7089 10.9899 17.7089C9.66814 17.7089 8.4184 17.4781 7.24079 17.0163C6.06307 16.5545 5.00821 15.9041 4.07622 15.0655C4.02537 15.0231 4 14.9806 4 14.9383C4 14.9128 4.00842 14.8875 4.02537 14.8622Z" fill="#FF9900"/>
</g>
</g>
</g>
<defs>
<clipPath id="clip0_7727_16349">
<rect width="13.9797" height="12.7089" fill="white" transform="translate(4 5)"/>
</clipPath>
</defs>
</svg>
