<svg width="22" height="22" viewBox="0 0 22 22" fill="none" xmlns="http://www.w3.org/2000/svg">
<path d="M11 1C5.5 1 1 5.5 1 11C1 16.5 5.5 21 11 21C16.5 21 21 16.5 21 11C21 5.5 16.5 1 11 1ZM8.11111 16.8889L6.72222 16.5556L6.77778 16.2778C7.27778 14.3333 8.27778 12.6111 9.66667 11.2222C9.22222 10.5 9.27778 9.55556 9.83333 8.88889C10.5 8.16667 11.5556 8 12.3889 8.55556C13.2222 9.11111 13.5 10.1667 13.0556 11.0556C12.6667 11.8889 11.7222 12.2778 10.8333 12.1111C9.5 13.3333 8.55556 14.8889 8.11111 16.6667V16.8889ZM16 12.8333C15.0556 14.5 13.2778 15.5 11.3889 15.5C11.1111 15.5 10.8333 15.5 10.5 15.4444L10.2222 15.3889L10.4444 14L10.7222 14.0556C12.3889 14.3333 14.0556 13.5 14.8333 12C15.6111 10.5 15.3333 8.66667 14.1111 7.5C12.8333 6.22222 10.7778 6 9.22222 7C7.66667 8 7.05556 10 7.77778 11.7222L7.88889 12L6.55556 12.5556L6.44444 12.2778C6.16667 11.6667 6.05556 10.9444 6.05556 10.2778C6.05556 8.05556 7.44444 6.05556 9.55556 5.27778C11.6667 4.5 14 5.11111 15.4444 6.83333C16.8889 8.44444 17.1111 10.8889 16 12.8333Z" fill="black"/>
</svg>
