<svg width="22" height="22" viewBox="0 0 22 22" fill="none" xmlns="http://www.w3.org/2000/svg">
<path d="M18.2223 17.8912C19.9452 16.0984 21.0078 13.6719 21.0078 10.99C21.0078 5.47671 16.5307 1.00684 11.0078 1.00684C5.48492 1.00684 1.00781 5.47431 1.00781 10.99C1.00781 16.4502 5.40058 20.8791 10.8488 20.9659L10.8415 20.9731H18.0126C18.0199 20.9707 19.5042 20.9924 20.0994 21.002C20.203 21.0044 20.2656 20.8888 20.2078 20.8044C19.8319 20.2406 18.7596 18.6261 18.2223 17.8912ZM11.0994 17.4864C10.2825 17.4864 9.65842 16.9273 9.65842 16.0791C9.65842 15.2309 10.2825 14.6864 11.0994 14.6864C11.9162 14.6864 12.5548 15.2309 12.5548 16.0791C12.5548 16.9249 11.9162 17.4864 11.0994 17.4864ZM11.8994 13.4044H10.2681C9.83432 10.7635 12.9548 10.0912 12.9548 8.349C12.9548 7.38997 12.362 6.71768 11.1958 6.71768C10.3476 6.71768 9.59576 7.11768 8.87528 7.90081L7.81986 6.92491C8.74757 5.90081 9.88492 5.1972 11.403 5.1972C13.3861 5.1972 14.7307 6.30081 14.7307 8.20443C14.7307 10.6358 11.5644 11.0526 11.8994 13.4044Z" fill="black"/>
</svg>
