<svg width="22" height="22" viewBox="0 0 22 22" fill="none" xmlns="http://www.w3.org/2000/svg">
<g id="Group 2085666599">
<circle id="Ellipse 4254981" cx="11" cy="11" r="10" fill="#F7F8FC"/>
<g id="Social" clip-path="url(#clip0_7728_17087)">
<path id="Vector" fill-rule="evenodd" clip-rule="evenodd" d="M11.0066 3C6.57917 3 3 6.60555 3 11.0661C3 14.6317 5.29329 17.6498 8.4747 18.7181C8.87246 18.7984 9.01816 18.5445 9.01816 18.331C9.01816 18.144 9.00505 17.503 9.00505 16.8352C6.7778 17.316 6.31399 15.8736 6.31399 15.8736C5.95606 14.9388 5.42572 14.6985 5.42572 14.6985C4.69674 14.2044 5.47882 14.2044 5.47882 14.2044C6.28744 14.2578 6.71175 15.0324 6.71175 15.0324C7.42745 16.2609 8.58074 15.9138 9.04471 15.7001C9.11092 15.1792 9.32315 14.8187 9.5485 14.6184C7.77211 14.4314 5.90312 13.737 5.90312 10.6387C5.90312 9.7573 6.22107 9.03619 6.72486 8.47536C6.64538 8.27509 6.36693 7.44696 6.80451 6.33858C6.80451 6.33858 7.48055 6.12487 9.00488 7.16654C9.6575 6.98998 10.3305 6.90016 11.0066 6.8994C11.6827 6.8994 12.3718 6.99298 13.0082 7.16654C14.5327 6.12487 15.2087 6.33858 15.2087 6.33858C15.6463 7.44696 15.3677 8.27509 15.2882 8.47536C15.8053 9.03619 16.1101 9.7573 16.1101 10.6387C16.1101 13.737 14.2411 14.418 12.4515 14.6184C12.7432 14.8721 12.9949 15.3528 12.9949 16.114C12.9949 17.1957 12.9818 18.0638 12.9818 18.3308C12.9818 18.5445 13.1277 18.7984 13.5253 18.7182C16.7067 17.6497 19 14.6317 19 11.0661C19.0131 6.60555 15.4208 3 11.0066 3Z" fill="#24292F"/>
</g>
</g>
<defs>
<clipPath id="clip0_7728_17087">
<rect width="16" height="16" fill="white" transform="translate(3 3)"/>
</clipPath>
</defs>
</svg>
