<svg width="165" height="34" viewBox="0 0 165 34" fill="none" xmlns="http://www.w3.org/2000/svg">
<g id="Frame 2085664859">
<g id="Group 2085666663">
<g id="Group 2085666280">
<path id="Vector" d="M0.826308 22.0853L0.655536 22.3844H1H9.04591H9.15869L9.21705 22.2879L16.7519 9.82933L20.5448 16.0005L20.7152 15.8958L20.5448 16.0005C20.6494 16.1707 20.8964 16.1715 21.0021 16.002L25.1712 9.31615C25.225 9.23 25.2256 9.12093 25.1729 9.03417L25.0019 9.13804L25.1729 9.03417L21.7235 3.35851C19.338 -0.567013 13.7118 -0.486564 11.4335 3.50391L11.4335 3.50392L0.826308 22.0853Z" fill="#8458FF" stroke="#8458FF" stroke-width="0.4"/>
<path id="Vector_2" d="M38.018 11.523L38.1888 11.2238H37.8443H29.7984H29.6856L29.6272 11.3203L22.0924 23.7789L18.2995 17.6078C18.1949 17.4376 17.9478 17.4368 17.8422 17.6063L13.6731 24.2921C13.6193 24.3783 13.6187 24.4873 13.6714 24.5741L17.1208 30.2497C19.5063 34.1753 25.1325 34.0948 27.4108 30.1043L27.2371 30.0052L27.4108 30.1043L38.018 11.523Z" fill="#8458FF" stroke="#8458FF" stroke-width="0.4"/>
</g>
<g id="Group">
<path id="Vector_3" d="M92.0687 27.1765L92.0941 27.2388H92.1613H92.1689H96.2914H96.3585L96.3839 27.1768L103.598 9.58677L103.655 9.44883H103.506H99.012H98.9422L98.9181 9.51434L94.2527 22.2104L89.5649 9.51419L89.5408 9.44883H89.4711H85H84.8513L84.9074 9.58654L92.0687 27.1765Z" fill="white" stroke="white" stroke-width="0.2"/>
<path id="Vector_4" d="M51.1967 14.8168L51.1967 14.8168L51.1987 14.8138C51.5895 14.2119 52.1281 13.752 52.8179 13.419C53.5072 13.0862 54.2953 12.9186 55.1843 12.9186C56.5401 12.9186 57.4567 13.2852 57.9756 13.991C58.2318 14.3445 58.4309 14.8879 58.5652 15.6314C58.6992 16.3735 58.7673 17.3065 58.7673 18.4319V27.254V27.354H58.8673H62.7548H62.8548V27.254V16.8314C62.8548 15.2616 62.7868 14.1548 62.6558 13.51L62.6558 13.5098C62.5249 12.8735 62.3087 12.3131 62.006 11.8299L62.0059 11.8299C61.4952 11.0167 60.7905 10.4006 59.894 9.99058C58.999 9.58121 57.9156 9.3707 56.6469 9.3707C55.1421 9.3707 53.8599 9.64347 52.7967 10.1937C51.8149 10.7019 50.9611 11.4897 50.2221 12.5462V9.67946V9.57946H50.1221H46.4922H46.3922V9.67946V27.2462V27.3462H46.4922H50.3495V27.2617H50.4495V27.2462V27.1462V19.4371C50.4495 18.0226 50.5026 17.0018 50.6147 16.3616C50.7266 15.7219 50.9195 15.2112 51.1967 14.8168Z" fill="white" stroke="white" stroke-width="0.2"/>
<path id="Vector_5" d="M78.4299 14.7105L78.4299 14.7106C79.3825 15.8039 79.8527 17.133 79.8527 18.7118C79.8527 20.2903 79.3751 21.6195 78.4223 22.7131C77.4703 23.8059 76.315 24.3411 74.9587 24.3411C73.6029 24.3411 72.4475 23.7985 71.4951 22.7131C70.5424 21.6194 70.0648 20.2903 70.0648 18.7118C70.0648 17.1334 70.5424 15.8042 71.4952 14.7106C72.4472 13.6177 73.6025 13.0825 74.9587 13.0825C76.3151 13.0825 77.4855 13.6255 78.4299 14.7105ZM71.509 27.386L71.5092 27.3861C72.6048 27.8551 73.7397 28.0978 74.9284 28.0978C76.1161 28.0978 77.2892 27.8633 78.3784 27.3859C79.4751 26.9163 80.4633 26.2203 81.3581 25.2995C82.2087 24.4316 82.8525 23.4306 83.2968 22.2972C83.7412 21.1714 83.963 19.9605 83.963 18.6732C83.963 17.3849 83.7409 16.2511 83.289 15.1256C82.8372 14.0006 82.1861 12.9845 81.3206 12.0936C80.4557 11.1878 79.4825 10.4994 78.3933 10.0299C77.3039 9.56022 76.146 9.33359 74.9133 9.33359C73.6795 9.33359 72.575 9.56838 71.4795 10.0296L71.4789 10.0298C70.383 10.499 69.417 11.1638 68.5817 12.0317C67.7316 12.9147 67.0804 13.9231 66.6284 15.0563C66.1765 16.1895 65.9469 17.3928 65.9469 18.6654C65.9469 19.9376 66.1688 21.141 66.621 22.2671L66.6207 22.2672L66.624 22.2738L66.6299 22.286C67.0816 23.4096 67.7322 24.4321 68.5964 25.3373C69.4467 26.2361 70.4202 26.9166 71.509 27.386Z" fill="white" stroke="white" stroke-width="0.2"/>
<path id="Vector_6" d="M122.818 10.0831V9.98307H122.718H118.86H118.76V10.0831V12.4253C118.301 11.5039 117.627 10.7498 116.712 10.2282C115.664 9.63027 114.411 9.33359 112.957 9.33359C110.566 9.33359 108.62 10.1875 107.13 11.9041C105.64 13.6194 104.9 15.8635 104.9 18.6345C104.9 21.5503 105.624 23.8569 107.084 25.5502C108.546 27.2454 110.545 28.0901 113.071 28.0901C114.327 28.0901 115.449 27.8478 116.428 27.3525C117.323 26.8991 118.101 26.2165 118.76 25.3377V27.2555V27.3555H118.86H122.718H122.818V27.2555V10.0831ZM117.584 22.7939L117.584 22.7937L117.579 22.7992C116.682 23.8583 115.528 24.3798 114.101 24.3798C112.579 24.3798 111.419 23.8937 110.593 22.9227C109.765 21.9494 109.344 20.5685 109.344 18.7505C109.344 16.9338 109.779 15.5524 110.638 14.5475C111.496 13.5446 112.671 13.0439 114.177 13.0439C115.684 13.0439 116.844 13.5298 117.678 14.5012C118.512 15.473 118.874 16.8523 118.874 18.6113C118.874 20.3651 118.477 21.7303 117.589 22.7889L117.584 22.7939Z" fill="white" stroke="white" stroke-width="0.2"/>
<path id="Vector_7" d="M138.587 22.7985L138.563 22.8264V22.8339C137.677 23.8664 136.523 24.379 135.094 24.379C133.571 24.379 132.412 23.8929 131.585 22.9219C130.757 21.9486 130.336 20.5677 130.336 18.7497C130.336 16.933 130.772 15.5516 131.631 14.5467C132.488 13.5438 133.663 13.0431 135.17 13.0431C136.677 13.0431 137.836 13.529 138.671 14.5005C139.504 15.4709 139.821 16.8489 139.821 18.6105C139.821 20.3691 139.475 21.749 138.587 22.7985ZM139.715 12.4202C139.266 11.5023 138.627 10.7489 137.712 10.2274C136.664 9.62948 135.411 9.33281 133.957 9.33281C131.566 9.33281 129.62 10.1867 128.13 11.9033C126.64 13.6186 125.9 15.8627 125.9 18.6337C125.9 21.5495 126.624 23.8562 128.084 25.5494C129.546 27.2447 131.545 28.0893 134.071 28.0893C135.327 28.0893 136.449 27.847 137.428 27.3517C138.324 26.8979 139.063 26.215 139.715 25.3381V27.2547V27.3547H139.815H143.672H143.772V27.2547V1.49219V1.39219H143.672H139.815H139.715V1.49219V12.4202Z" fill="#8458FF" stroke="#8458FF" stroke-width="0.2"/>
<path id="Vector_8" d="M164.727 10.0831V9.98307H164.627H160.769H160.669V10.0831V12.4464C160.16 11.5086 159.289 10.7496 158.403 10.2288C157.384 9.63043 156.161 9.33359 154.745 9.33359C152.413 9.33359 150.52 10.1883 149.068 11.9051C147.617 13.6205 146.9 15.8643 146.9 18.6345C146.9 21.5496 147.601 23.8559 149.023 25.5492C150.446 27.2447 152.393 28.0901 154.851 28.0901C156.077 28.0901 157.169 27.8476 158.125 27.352C158.994 26.9014 159.972 26.219 160.669 25.3315V27.2555V27.3555H160.769H164.627H164.727V27.2555V10.0831ZM152.45 22.9241L152.45 22.9238C151.644 21.9505 151.238 20.5692 151.238 18.7505C151.238 16.933 151.658 15.5513 152.495 14.5465C153.33 13.5438 154.468 13.0439 155.935 13.0439C157.403 13.0439 158.532 13.5292 159.336 14.4999C160.149 15.4812 160.783 16.8662 160.783 18.6113C160.783 20.3544 160.127 21.7243 159.245 22.7924L159.222 22.8201V22.8279C158.358 23.8679 157.235 24.3798 155.859 24.3798C154.382 24.3798 153.246 23.8942 152.45 22.9241Z" fill="#8458FF" stroke="#8458FF" stroke-width="0.2"/>
</g>
</g>
</g>
</svg>
