<svg width="20" height="20" viewBox="0 0 20 20" fill="none" xmlns="http://www.w3.org/2000/svg">
<circle cx="10" cy="10" r="10" fill="#F7F8FC"/>
<path d="M7.93043 2.27387C10.0612 1.70294 12.2236 2.05075 13.9967 3.07437C15.7715 4.09907 17.1549 5.79885 17.7261 7.93043C18.2971 10.0611 17.9493 12.2235 16.9255 13.9966C15.9009 15.7714 14.2012 17.1549 12.0696 17.7261C9.93882 18.2971 7.77645 17.9493 6.00332 16.9255C4.22854 15.9009 2.84506 14.2012 2.27387 12.0696C1.70294 9.93882 2.05075 7.77645 3.07437 6.00332C4.09907 4.22854 5.79885 2.84506 7.93043 2.27387Z" fill="#0A66C2"/>
<path fill-rule="evenodd" clip-rule="evenodd" d="M8.07445 6.98645C8.07445 7.49368 7.6636 7.90453 7.15637 7.90453C6.64913 7.90453 6.23828 7.49368 6.23828 6.98645C6.23828 6.47921 6.64913 6.06836 7.15637 6.06836C7.6636 6.06836 8.07445 6.47921 8.07445 6.98645ZM8.87008 8.70016H10.2543V9.40577H10.2695C10.4805 9.02528 11.1037 8.63902 11.8745 8.63902C13.3537 8.63902 13.7667 9.4245 13.7667 10.879V13.5967H12.2976V11.147C12.2976 10.4958 12.0376 9.9243 11.4295 9.9243C10.6911 9.9243 10.3391 10.4242 10.3391 11.245V13.5967H8.87008V8.70016ZM6.4218 13.5967H7.89085V8.70016H6.4218V13.5967Z" fill="white"/>
</svg>
