<svg width="20" height="20" viewBox="0 0 20 20" fill="none" xmlns="http://www.w3.org/2000/svg">
<g id="Group 2085666598">
<circle id="Ellipse 4254981" cx="10" cy="10" r="10" fill="white"/>
<g id="Social Icons" clip-path="url(#clip0_11348_153115)">
<g id="Vector">
<path id="Vector_2" d="M10 8.49805V11.6973H14.4458C14.2506 12.7261 13.6648 13.5973 12.7861 14.1831L15.4671 16.2633C17.0292 14.8215 17.9304 12.7037 17.9304 10.1879C17.9304 9.60209 17.8778 9.0388 17.7802 8.49814L10 8.49805Z" fill="#4285F4"/>
<path id="Vector_3" d="M5.37002 11.5723L4.76535 12.0351L2.625 13.7023C3.98428 16.3983 6.77024 18.2608 9.99947 18.2608C12.2298 18.2608 14.0998 17.5248 15.4666 16.2632L12.7856 14.1829C12.0496 14.6786 11.1109 14.979 9.99947 14.979C7.85165 14.979 6.02681 13.5296 5.3734 11.577L5.37002 11.5723Z" fill="#34A853"/>
<path id="Vector_4" d="M2.62438 6.29688C2.06117 7.40829 1.73828 8.66246 1.73828 9.99919C1.73828 11.3359 2.06117 12.5901 2.62438 13.7015C2.62438 13.709 5.37305 11.5687 5.37305 11.5687C5.20783 11.0731 5.11017 10.5474 5.11017 9.99911C5.11017 9.45082 5.20783 8.92516 5.37305 8.42951L2.62438 6.29688Z" fill="#FBBC05"/>
<path id="Vector_5" d="M9.99964 5.02761C11.2163 5.02761 12.2977 5.44815 13.1613 6.25923L15.5269 3.89365C14.0925 2.55691 12.2301 1.73828 9.99964 1.73828C6.77041 1.73828 3.98428 3.59322 2.625 6.29678L5.37358 8.42959C6.0269 6.477 7.85182 5.02761 9.99964 5.02761Z" fill="#EA4335"/>
</g>
</g>
</g>
<defs>
<clipPath id="clip0_11348_153115">
<rect width="16.5217" height="16.5217" fill="white" transform="translate(1.73828 1.73828)"/>
</clipPath>
</defs>
</svg>
