<svg width="20" height="20" viewBox="0 0 20 20" fill="none" xmlns="http://www.w3.org/2000/svg">
<g id="Group 2085666598">
<circle id="Ellipse 4254981" cx="10" cy="10" r="10" fill="#F7F8FC"/>
<g id="Group 2085666695">
<path id="Vector" d="M9.99686 2C9.39917 2 8.92527 2.34072 8.92527 2.75431L9.28891 6.93944C9.3276 7.19153 9.63128 7.38651 9.9988 7.38651C10.3663 7.38651 10.6681 7.18956 10.7087 6.93944L11.0743 2.75431C11.0743 2.34072 10.5965 2.00197 9.9988 2.00197L9.99686 2ZM4.08181 5.3481C3.89387 5.37332 3.71487 5.44503 3.56043 5.55695C3.406 5.66887 3.28085 5.81761 3.1959 5.99015C2.89609 6.51797 2.94832 7.10684 3.29842 7.31364L7.03934 9.08616C7.27338 9.17479 7.59061 9.00542 7.77437 8.69227C7.96779 8.36731 7.94458 8.00295 7.75115 7.84146L4.37195 5.43082C4.28363 5.37989 4.18326 5.35468 4.08181 5.35795V5.3481ZM15.9139 5.3481C15.8124 5.34483 15.712 5.37004 15.6237 5.42097L12.2445 7.84343C12.0511 8.00492 12.0375 8.36928 12.2213 8.69424C12.4051 9.01723 12.7223 9.18661 12.9563 9.08813L16.6972 7.31561C17.0512 7.10881 17.1015 6.52782 16.8036 5.99212C16.717 5.82004 16.5902 5.67223 16.4344 5.56166C16.2786 5.45109 16.0985 5.38114 15.91 5.35795L15.9139 5.3481ZM7.18054 10.8626C7.13299 10.8603 7.08551 10.8684 7.04127 10.8863L3.30036 12.6706C2.94832 12.8794 2.89609 13.4584 3.1959 13.9961C3.49572 14.5337 4.02185 14.772 4.37195 14.5652L7.75115 12.1585C7.94458 11.9951 7.96006 11.6307 7.7763 11.3077C7.71995 11.1915 7.63591 11.0915 7.53184 11.0168C7.42777 10.9422 7.307 10.8953 7.18054 10.8804V10.8626ZM12.8171 10.8626C12.6906 10.8775 12.5698 10.9245 12.4658 10.9991C12.3617 11.0738 12.2776 11.1738 12.2213 11.29C12.0279 11.613 12.053 11.9774 12.2464 12.1408L15.6256 14.5692C15.9757 14.7661 16.5019 14.5258 16.8036 14C17.1054 13.4742 17.0512 12.8833 16.6972 12.6745L12.9563 10.8981C12.912 10.8804 12.8646 10.8723 12.8171 10.8744V10.8626ZM9.99686 12.6155C9.63128 12.6155 9.3276 12.8124 9.28891 13.0606L8.92527 17.2457C8.92527 17.6593 9.4011 18 9.9988 18C10.5965 18 11.0743 17.6593 11.0743 17.2457L10.7087 13.0645C10.6681 12.8124 10.3663 12.6194 9.9988 12.6194L9.99686 12.6155Z" fill="#FFC220"/>
</g>
</g>
</svg>
