<svg width="20" height="20" viewBox="0 0 20 20" fill="none" xmlns="http://www.w3.org/2000/svg">
<g id="Group 2085666598">
<circle id="Ellipse 4254981" cx="10" cy="10" r="10" fill="#F7F8FC"/>
<g id="Group 16">
<path id="Vector" fill-rule="evenodd" clip-rule="evenodd" d="M10.9168 7.63511C10.646 7.6667 10.4394 7.8866 10.4201 8.16401C10.4119 8.28344 10.4144 8.29165 10.6855 8.98896C11.3019 10.575 11.4514 10.957 11.4763 11.0107C11.5373 11.1409 11.6226 11.2632 11.7297 11.3731C11.8119 11.4575 11.8659 11.5027 11.9572 11.564C12.118 11.6714 12.198 11.7011 12.8236 11.8862C13.433 12.0666 13.7661 12.1867 14.0533 12.3292C14.4251 12.5137 14.6845 12.7235 14.8485 12.9728C14.9664 13.1516 15.0706 13.472 15.1158 13.7946C15.1335 13.9206 15.1338 14.1993 15.1161 14.3134C15.0779 14.5607 15.0014 14.768 14.8845 14.9415C14.8223 15.0337 14.8441 15.0182 14.9345 14.9058C15.1904 14.5876 15.4511 14.0439 15.5841 13.5507C15.7449 12.9538 15.767 12.3131 15.6469 11.7064C15.4135 10.5251 14.6678 9.50585 13.6176 8.9324C13.5515 8.89638 13.3003 8.76463 12.9594 8.58738C12.9076 8.56053 12.8371 8.52356 12.8027 8.50555C12.7683 8.48754 12.6978 8.45058 12.646 8.42372C12.5942 8.39686 12.4454 8.31914 12.3152 8.25153C12.185 8.1836 12.0394 8.10777 11.9913 8.08281C11.8454 8.00667 11.7474 7.95548 11.6744 7.91725C11.3367 7.74063 11.1939 7.66891 11.1531 7.65659C11.1104 7.64364 11.0018 7.62689 10.9746 7.6291C10.9689 7.6291 10.943 7.63226 10.9168 7.63511Z" fill="url(#paint0_radial_11348_153104)"/>
<path id="Vector_2" d="M11.6555 13.555C11.6368 13.5661 11.6106 13.5822 11.597 13.5907C11.5837 13.5993 11.5537 13.6179 11.531 13.6318C11.4466 13.6836 11.2223 13.8217 11.0296 13.9408C10.9029 14.0188 10.8842 14.0305 10.7231 14.1304C10.6656 14.1661 10.6046 14.2037 10.5872 14.2138C10.5698 14.2242 10.4962 14.2694 10.4235 14.3146C10.3509 14.3598 10.2239 14.4381 10.1414 14.4887C10.0589 14.5392 9.9117 14.6302 9.81407 14.6906C9.71644 14.7509 9.58784 14.8302 9.52844 14.8665C9.46904 14.9029 9.41438 14.9379 9.40648 14.9446C9.39511 14.9544 8.86715 15.2814 8.60206 15.4428C8.40079 15.5654 8.16793 15.6473 7.9297 15.6795C7.8188 15.6943 7.60869 15.6947 7.49811 15.6795C7.19826 15.639 6.9218 15.5272 6.68515 15.3506C6.59226 15.2814 6.41754 15.1067 6.35087 15.0163C6.19352 14.8037 6.09147 14.5759 6.03871 14.3177C6.0267 14.2583 6.01501 14.2081 6.01311 14.2062C6.00806 14.2012 6.01722 14.2909 6.03302 14.4081C6.04976 14.5301 6.08547 14.7064 6.1237 14.8574C6.42038 16.0248 7.26462 16.9743 8.40775 17.4261C8.73697 17.5562 9.06904 17.6381 9.4305 17.6782C9.56636 17.6934 9.95056 17.6994 10.0924 17.6886C10.7423 17.6393 11.3082 17.4482 11.8886 17.0814C11.9405 17.0488 12.0375 16.9875 12.1044 16.9452C12.1714 16.9028 12.2561 16.8495 12.2924 16.8261C12.3288 16.8027 12.3727 16.7752 12.3901 16.7648C12.4074 16.7543 12.4419 16.7329 12.4665 16.7168C12.4915 16.7006 12.598 16.6333 12.7032 16.567L13.1243 16.301L13.269 16.2097L13.2741 16.2065L13.2899 16.1964L13.2975 16.1916L13.404 16.1243L13.772 15.8918C14.2409 15.5973 14.3806 15.4937 14.5986 15.2804C14.6893 15.1917 14.8264 15.0397 14.833 15.0204C14.8343 15.0166 14.8586 14.979 14.8871 14.937C15.0024 14.7664 15.0792 14.5575 15.1174 14.3111C15.1351 14.197 15.1348 13.9184 15.1171 13.7923C15.0826 13.5484 15.0049 13.2719 14.9209 13.096C14.7831 12.8072 14.4899 12.5449 14.0684 12.3336C13.9521 12.2751 13.8318 12.2217 13.8185 12.2227C13.8122 12.223 13.4201 12.4628 12.9468 12.7554C12.4738 13.0479 12.0634 13.302 12.0346 13.32C12.0059 13.3377 11.9566 13.368 11.925 13.3869L11.6555 13.555Z" fill="url(#paint1_radial_11348_153104)"/>
<path id="Vector_3" d="M6.00284 12.1513L6.00474 14.1898L6.03128 14.3083C6.11374 14.6783 6.25687 14.9452 6.50521 15.1933C6.62212 15.3098 6.71153 15.38 6.83823 15.4552C7.10616 15.6138 7.39463 15.6921 7.71059 15.6918C8.04139 15.6915 8.32796 15.609 8.62275 15.4286C8.67267 15.3983 8.86762 15.2782 9.05624 15.1617L9.39906 14.95V12.5314V10.1128V7.90017C9.39906 6.4885 9.39653 5.65028 9.39179 5.58425C9.36367 5.17098 9.19084 4.7909 8.90016 4.5037C8.81106 4.41555 8.7346 4.35646 8.50774 4.20038C8.39463 4.12266 8.188 3.98017 8.04803 3.8838C7.90838 3.78744 7.67804 3.62883 7.53618 3.5312C7.39431 3.43357 7.19242 3.29424 7.08689 3.22157C6.86762 3.07023 6.85024 3.0598 6.78389 3.03611C6.69763 3.00514 6.60632 2.99377 6.51912 3.00325C6.26572 3.03073 6.06288 3.21367 6.01011 3.46232C6.0019 3.50087 6.00032 4.01587 6.00032 6.81045V10.1131H6L6.00284 12.1513Z" fill="url(#paint2_linear_11348_153104)"/>
</g>
</g>
<defs>
<radialGradient id="paint0_radial_11348_153104" cx="0" cy="0" r="1" gradientUnits="userSpaceOnUse" gradientTransform="translate(15.3906 13.3664) rotate(-130.909) scale(7.59238 5.46307)">
<stop stop-color="#00CACC"/>
<stop offset="1" stop-color="#048FCE"/>
</radialGradient>
<radialGradient id="paint1_radial_11348_153104" cx="0" cy="0" r="1" gradientUnits="userSpaceOnUse" gradientTransform="translate(7.27871 16.1315) rotate(-23.195) scale(8.21233 13.6859)">
<stop stop-color="#00BBEC"/>
<stop offset="1" stop-color="#2756A9"/>
</radialGradient>
<linearGradient id="paint2_linear_11348_153104" x1="7.70016" y1="2.99966" x2="7.70016" y2="15.6915" gradientUnits="userSpaceOnUse">
<stop stop-color="#00BBEC"/>
<stop offset="1" stop-color="#2756A9"/>
</linearGradient>
</defs>
</svg>
