<svg width="20" height="20" viewBox="0 0 20 20" fill="none" xmlns="http://www.w3.org/2000/svg">
<g id="Group 2085666598">
<circle id="Ellipse 4254981" cx="10" cy="10" r="10" fill="#F7F8FC"/>
<g id="Group 2085666709">
<path id="youtube" d="M16.65 6.3952C16.475 5.7612 16.0375 5.30833 15.425 5.12719C14.375 4.85547 9.91249 4.85547 9.91249 4.85547C9.91249 4.85547 5.53751 4.85547 4.40001 5.12719C3.78751 5.30833 3.35 5.7612 3.175 6.3952C3 7.57265 3 9.92754 3 9.92754C3 9.92754 3 12.2824 3.2625 13.4599C3.4375 14.0939 3.875 14.5467 4.4875 14.7279C5.5375 14.9996 10 14.9996 10 14.9996C10 14.9996 14.375 14.9996 15.5125 14.7279C16.125 14.5467 16.5625 14.0939 16.7375 13.4599C17 12.2824 17 9.92754 17 9.92754C17 9.92754 17 7.57265 16.65 6.3952ZM8.59999 12.1013V7.75379L12.275 9.92754L8.59999 12.1013Z" fill="#FF0000"/>
</g>
</g>
</svg>
