<svg width="20" height="20" viewBox="0 0 20 20" fill="none" xmlns="http://www.w3.org/2000/svg">
<g id="Group 2085666598">
<circle id="Ellipse 4254981" cx="10" cy="10" r="10" fill="#F7F8FC"/>
<g id="Group 2085666694">
<path id="Vector" d="M18 10C18 8.41775 17.5308 6.87103 16.6518 5.55544C15.7727 4.23985 14.5233 3.21447 13.0615 2.60897C11.5997 2.00347 9.99113 1.84504 8.43928 2.15372C6.88743 2.4624 5.46197 3.22433 4.34315 4.34315C3.22433 5.46197 2.4624 6.88743 2.15372 8.43928C1.84504 9.99113 2.00347 11.5997 2.60897 13.0615C3.21447 14.5233 4.23985 15.7727 5.55544 16.6518C6.87103 17.5308 8.41775 18 10 18C12.1217 18 14.1566 17.1571 15.6569 15.6569C17.1571 14.1566 18 12.1217 18 10Z" fill="#DD5533"/>
<path id="Vector_2" d="M16.8888 10.0013C16.8885 8.40718 16.3355 6.86247 15.324 5.63036C14.3125 4.39824 12.9051 3.55496 11.3416 3.24418C9.77802 2.93339 8.15509 3.17434 6.74928 3.92597C5.34347 4.6776 4.24176 5.8934 3.63185 7.36624C3.02194 8.83908 2.94156 10.4778 3.40442 12.0033C3.86727 13.5287 4.84472 14.8465 6.17023 15.7321C7.49574 16.6177 9.08729 17.0163 10.6737 16.86C12.2602 16.7037 13.7434 16.0022 14.8706 14.875C15.5115 14.2357 16.0198 13.476 16.3661 12.6396C16.7125 11.8032 16.8901 10.9066 16.8888 10.0013ZM15.1805 4.81902C16.3794 6.01812 17.1255 7.59582 17.2916 9.28332C17.4577 10.9708 17.0336 12.6637 16.0914 14.0736C15.1493 15.4834 13.7475 16.523 12.1249 17.0152C10.5022 17.5074 8.75911 17.4217 7.19253 16.7728C5.62595 16.1239 4.33283 14.9519 3.53348 13.4565C2.73413 11.961 2.47801 10.2347 2.80877 8.57164C3.13952 6.90856 4.03667 5.4116 5.34738 4.33582C6.65808 3.26004 8.30124 2.672 9.9969 2.67188C10.9598 2.67061 11.9134 2.85964 12.803 3.22812C13.6926 3.5966 14.5005 4.13726 15.1805 4.81902Z" fill="white"/>
<path id="Vector_3" d="M7.63551 5.92643C5.41285 6.44466 6.22796 9.55273 6.22796 9.55273L7.63551 16.4408L8.15634 16.6634L7.63551 5.92253V5.92643ZM7.11468 4.5931H6.52353L7.34384 4.88997C7.34384 4.88997 6.52874 4.88997 6.52874 5.41081C8.30218 5.33398 9.11598 5.77669 9.11598 5.77669L7.11598 4.5918L7.11468 4.5931Z" fill="#DDDDDD"/>
<path id="Vector_4" d="M11.852 17.0363C11.852 17.0363 10.0734 14.2225 10.0734 12.3696C10.0734 8.88917 12.369 11.8488 12.369 9.11443C12.369 6.38006 10.0734 5.70297 10.0734 5.70297C8.96271 4.29672 6.81818 4.5923 6.81818 4.5923L7.33901 4.88917C7.33901 4.88917 6.81818 5.03631 6.67235 5.18474C6.52651 5.33318 8.0799 4.96339 8.74656 5.55584C6.00047 5.77589 6.44448 7.99985 6.44448 7.99985L8.00047 16.8892L11.852 17.0363Z" fill="white"/>
<path id="Vector_5" d="M11.8487 9.92448L14.6638 9.18359C17.182 9.55078 12.5154 10.9622 12.2198 10.888C9.99712 10.5169 10.6573 12.3685 13.3305 11.776C16.0036 11.1836 13.9971 13.2578 11.5531 12.4427C8.07134 11.4805 9.9229 9.77604 11.8487 9.92448Z" fill="#FFCC00"/>
<path id="Vector_6" d="M11.1192 15.7765L11.2677 15.5551C12.8979 16.1476 12.9721 16.3689 12.8979 14.8884C12.8237 13.408 12.8979 13.4067 11.1935 14.6658C11.1935 14.296 10.2312 14.4431 10.0828 14.6658C8.5268 13.9991 8.37836 13.7765 8.45258 14.8142C8.60102 16.9627 8.5268 16.5916 10.0086 15.8559L11.1192 15.7817V15.7765Z" fill="#66BB55"/>
<path id="Vector_7" d="M9.9349 14.9629V15.8509C10.0091 15.9993 11.194 15.9993 11.194 15.7025C11.194 15.4056 10.6016 15.9251 10.2318 15.7767C9.86198 15.6283 10.082 14.8145 10.082 14.8145L9.93359 14.9629H9.9349Z" fill="#44AA44"/>
<path id="Vector_8" d="M8.30091 7.62783C7.92981 7.18252 6.96757 7.55362 7.18893 8.14867C7.26315 7.85179 7.78138 7.40778 8.30091 7.62783ZM10.6707 7.62783C10.7449 7.18252 11.4858 7.107 11.7124 7.55361C11.5476 7.47321 11.3645 7.43773 11.1816 7.45076C10.9987 7.46379 10.8224 7.52487 10.6707 7.62783ZM8.22669 8.81273C8.23572 8.77775 8.2572 8.74726 8.2871 8.72698C8.317 8.70671 8.35327 8.69803 8.38912 8.70258C8.42496 8.70714 8.45791 8.7246 8.48179 8.75171C8.50567 8.77882 8.51885 8.81371 8.51885 8.84984C8.51885 8.88597 8.50567 8.92086 8.48179 8.94796C8.45791 8.97507 8.42496 8.99254 8.38912 8.99709C8.35327 9.00165 8.317 8.99297 8.2871 8.97269C8.2572 8.95242 8.23572 8.92193 8.22669 8.88695V8.81273ZM7.63424 9.1083C7.64385 9.24288 7.70531 9.36847 7.80568 9.45864C7.90604 9.5488 8.03748 9.5965 8.17232 9.59169C8.30715 9.58689 8.43485 9.52994 8.52854 9.43285C8.62223 9.33577 8.67458 9.20611 8.67458 9.07119C8.67458 8.93627 8.62223 8.80662 8.52854 8.70953C8.43485 8.61244 8.30715 8.5555 8.17232 8.55069C8.03748 8.54588 7.90604 8.59358 7.80568 8.68375C7.70531 8.77391 7.64385 8.89951 7.63424 9.03408V9.1083ZM11.4858 8.58747C11.4948 8.55249 11.5163 8.522 11.5462 8.50172C11.5761 8.48145 11.6124 8.47277 11.6482 8.47732C11.6841 8.48188 11.717 8.49934 11.7409 8.52645C11.7648 8.55356 11.778 8.58845 11.778 8.62458C11.778 8.66071 11.7648 8.6956 11.7409 8.7227C11.717 8.74981 11.6841 8.76728 11.6482 8.77183C11.6124 8.77638 11.5761 8.76771 11.5462 8.74743C11.5163 8.72716 11.4948 8.69667 11.4858 8.66169V8.58747ZM11.0405 8.88695C11.0501 9.00144 11.1035 9.1078 11.1897 9.1838C11.2758 9.2598 11.388 9.29956 11.5028 9.29476C11.6176 9.28997 11.7261 9.241 11.8056 9.15809C11.8852 9.07517 11.9296 8.96473 11.9296 8.84984C11.9296 8.73495 11.8852 8.62451 11.8056 8.54159C11.7261 8.45868 11.6176 8.4097 11.5028 8.40491C11.388 8.40012 11.2758 8.43988 11.1897 8.51588C11.1035 8.59188 11.0501 8.69824 11.0405 8.81273V8.88695Z" fill="#114488"/>
</g>
</g>
</svg>
