<svg width="13" height="14" viewBox="0 0 13 14" fill="none" xmlns="http://www.w3.org/2000/svg">
<path id="Vector" d="M12.0587 0.956377C11.7297 0.608291 11.1704 0.608291 10.8413 0.956377L6.1692 5.8992L1.46416 0.956377C1.13513 0.608291 0.575792 0.608291 0.246768 0.956377C-0.082256 1.30446 -0.082256 1.89621 0.246768 2.24429L4.91891 7.22192L0.246768 12.1647C-0.082256 12.5128 -0.082256 13.1046 0.246768 13.4527C0.575792 13.8007 1.13513 13.8007 1.46416 13.4527L6.1363 8.50984L10.8413 13.4527C11.1704 13.8007 11.7297 13.8007 12.0587 13.4527C12.3878 13.1046 12.3878 12.5128 12.0587 12.1647L7.38659 7.22192L12.0587 2.2791C12.4207 1.89621 12.4207 1.30446 12.0587 0.956377Z" fill="white"/>
</svg>
