<svg width="22" height="22" viewBox="0 0 22 22" fill="none" xmlns="http://www.w3.org/2000/svg">
<g id="Group 2085666599">
<circle id="Ellipse 4254981" cx="11" cy="11" r="10" fill="#F7F8FC"/>
<g id="Clip path group">
<mask id="mask0_7727_16490" style="mask-type:luminance" maskUnits="userSpaceOnUse" x="3" y="3" width="16" height="16">
<g id="clip0_12194_213134">
<path id="Vector" d="M19 3H3V19H19V3Z" fill="white"/>
</g>
</mask>
<g mask="url(#mask0_7727_16490)">
<g id="Group">
<path id="Vector_2" d="M11.0012 3.3335C7.80057 3.3335 6.86443 3.33675 6.68257 3.35181C6.02589 3.40634 5.61701 3.50971 5.17152 3.7315C4.82855 3.90202 4.55759 4.09939 4.2907 4.37653C3.80411 4.88197 3.50955 5.50339 3.40255 6.24202C3.35089 6.60056 3.33583 6.67336 3.33257 8.5051C3.33135 9.11596 3.33257 9.9193 3.33257 10.9969C3.33257 14.196 3.33624 15.1312 3.35129 15.3131C3.40418 15.9524 3.50467 16.3545 3.71705 16.7948C4.12267 17.6372 4.89731 18.2692 5.81027 18.5053C6.12639 18.5866 6.47543 18.6314 6.92337 18.6526C7.11337 18.6607 9.04837 18.6668 10.985 18.6668C12.9215 18.6668 14.8577 18.6644 15.0428 18.655C15.5616 18.6306 15.863 18.5903 16.1962 18.504C17.1149 18.2668 17.8753 17.6442 18.2894 16.79C18.4978 16.3606 18.6031 15.9431 18.6507 15.3371C18.6613 15.2048 18.6654 13.0984 18.6654 10.9953C18.6654 8.8921 18.6605 6.78896 18.6503 6.6567C18.6019 6.04098 18.4965 5.62711 18.2817 5.18922C18.1056 4.8311 17.9098 4.56332 17.6255 4.28984C17.1181 3.80516 16.4981 3.51052 15.7588 3.4039C15.4008 3.35222 15.3292 3.33675 13.4968 3.3335H11.0012Z" fill="url(#paint0_radial_7727_16490)"/>
<path id="Vector_3" d="M11.0012 3.3335C7.80057 3.3335 6.86443 3.33675 6.68257 3.35181C6.02589 3.40634 5.61701 3.50971 5.17152 3.7315C4.82855 3.90202 4.55759 4.09939 4.2907 4.37653C3.80411 4.88197 3.50955 5.50339 3.40255 6.24202C3.35089 6.60056 3.33583 6.67336 3.33257 8.5051C3.33135 9.11596 3.33257 9.9193 3.33257 10.9969C3.33257 14.196 3.33624 15.1312 3.35129 15.3131C3.40418 15.9524 3.50467 16.3545 3.71705 16.7948C4.12267 17.6372 4.89731 18.2692 5.81027 18.5053C6.12639 18.5866 6.47543 18.6314 6.92337 18.6526C7.11337 18.6607 9.04837 18.6668 10.985 18.6668C12.9215 18.6668 14.8577 18.6644 15.0428 18.655C15.5616 18.6306 15.863 18.5903 16.1962 18.504C17.1149 18.2668 17.8753 17.6442 18.2894 16.79C18.4978 16.3606 18.6031 15.9431 18.6507 15.3371C18.6613 15.2048 18.6654 13.0984 18.6654 10.9953C18.6654 8.8921 18.6605 6.78896 18.6503 6.6567C18.6019 6.04098 18.4965 5.62711 18.2817 5.18922C18.1056 4.8311 17.9098 4.56332 17.6255 4.28984C17.1181 3.80516 16.4981 3.51052 15.7588 3.4039C15.4008 3.35222 15.3292 3.33675 13.4968 3.3335H11.0012Z" fill="url(#paint1_radial_7727_16490)"/>
<path id="Vector_4" d="M11.0011 5.3383C9.46364 5.3383 9.27078 5.34521 8.66704 5.37248C8.06451 5.40015 7.65318 5.49538 7.29311 5.63537C6.92084 5.77984 6.60511 5.97356 6.29024 6.28813C5.97534 6.60273 5.78209 6.91893 5.63684 7.29086C5.49648 7.65106 5.40087 8.06246 5.37402 8.6652C5.34717 9.26906 5.33984 9.4624 5.33984 10.9999C5.33984 12.5374 5.34676 12.7299 5.37402 13.3338C5.40168 13.9365 5.4973 14.3479 5.63684 14.7081C5.78168 15.0805 5.97493 15.3963 6.28983 15.7112C6.60431 16.0262 6.92004 16.2199 7.29231 16.3648C7.65238 16.5048 8.06411 16.6004 8.66624 16.6277C9.26998 16.6554 9.46284 16.6619 10.9999 16.6619C12.537 16.6619 12.7298 16.6549 13.3336 16.6277C13.9361 16.6 14.3478 16.5048 14.7083 16.3648C15.0805 16.2203 15.3958 16.0262 15.7103 15.7112C16.0252 15.3967 16.2185 15.0805 16.3637 14.7085C16.5028 14.3483 16.5985 13.9369 16.6266 13.3342C16.6538 12.7303 16.6607 12.5378 16.6607 10.9999C16.6607 9.462 16.6538 9.26906 16.6266 8.6652C16.598 8.06246 16.5028 7.65106 16.3637 7.29086C16.2185 6.91853 16.0252 6.60273 15.7103 6.28772C15.3954 5.97274 15.0805 5.77944 14.7078 5.63496C14.347 5.49497 13.9352 5.39934 13.3327 5.37207C12.729 5.3444 12.5365 5.33789 10.999 5.33789L11.0011 5.3383ZM10.4934 6.35893C10.6439 6.35893 10.8123 6.35893 11.0011 6.35893C12.5125 6.35893 12.6916 6.36426 13.2884 6.39153C13.8405 6.41673 14.1399 6.50913 14.3392 6.58646C14.6033 6.689 14.7917 6.81186 14.9898 7.01006C15.188 7.20826 15.3104 7.39706 15.4133 7.6612C15.4906 7.8606 15.583 8.16013 15.6082 8.7124C15.6355 9.3094 15.6412 9.48846 15.6412 10.9995C15.6412 12.5105 15.6355 12.69 15.6082 13.2866C15.583 13.8388 15.4906 14.1383 15.4133 14.3377C15.3108 14.6019 15.188 14.7903 14.9898 14.9881C14.7917 15.1863 14.6037 15.3087 14.3392 15.4117C14.1399 15.4895 13.84 15.5814 13.2884 15.6067C12.6916 15.6339 12.5125 15.6396 11.0011 15.6396C9.48964 15.6396 9.31064 15.6339 8.71384 15.6067C8.16171 15.581 7.86231 15.489 7.66291 15.4113C7.39891 15.3087 7.21011 15.1859 7.01198 14.9877C6.81384 14.7895 6.69138 14.6011 6.58844 14.3369C6.51118 14.1375 6.41878 13.838 6.39358 13.2857C6.36631 12.6887 6.36104 12.5097 6.36104 10.9975C6.36104 9.4852 6.36631 9.30693 6.39358 8.71033C6.41878 8.15813 6.51118 7.8586 6.58844 7.6592C6.69098 7.39506 6.81384 7.2062 7.01198 7.00806C7.21011 6.80986 7.39891 6.68733 7.66291 6.5844C7.86231 6.50666 8.16211 6.41466 8.71384 6.38906C9.23578 6.36546 9.43838 6.35853 10.4934 6.35733V6.35893ZM14.0228 7.299C13.6476 7.299 13.3433 7.603 13.3433 7.9782C13.3433 8.35346 13.6476 8.65786 14.0228 8.65786C14.3978 8.65786 14.7022 8.35346 14.7022 7.9782C14.7022 7.603 14.3978 7.299 14.0228 7.299ZM11.0011 8.093C9.39571 8.093 8.09418 9.39486 8.09418 11.0007C8.09418 12.6065 9.39571 13.9076 11.0011 13.9076C12.6065 13.9076 13.9076 12.6061 13.9076 11.0007C13.9076 9.39526 12.6065 8.093 11.0011 8.093ZM11.0011 9.1132C12.043 9.1132 12.888 9.95806 12.888 11.0007C12.888 12.0433 12.043 12.8882 11.0011 12.8882C9.95918 12.8882 9.11418 12.0429 9.11418 11.0007C9.11418 9.95846 9.95878 9.1132 11.0011 9.1132Z" fill="white"/>
</g>
</g>
</g>
</g>
<defs>
<radialGradient id="paint0_radial_7727_16490" cx="0" cy="0" r="1" gradientUnits="userSpaceOnUse" gradientTransform="translate(7.40743 19.8262) rotate(-90) scale(15.195 14.1342)">
<stop stop-color="#FFDD55"/>
<stop offset="0.1" stop-color="#FFDD55"/>
<stop offset="0.5" stop-color="#FF543E"/>
<stop offset="1" stop-color="#C837AB"/>
</radialGradient>
<radialGradient id="paint1_radial_7727_16490" cx="0" cy="0" r="1" gradientTransform="matrix(1.33241 6.65779 27.4546 -5.49745 0.741028 4.48314)" gradientUnits="userSpaceOnUse">
<stop stop-color="#3771C8"/>
<stop offset="0.13" stop-color="#3771C8"/>
<stop offset="1" stop-color="#6600FF" stop-opacity="0"/>
</radialGradient>
</defs>
</svg>
