<svg width="22" height="23" viewBox="0 0 22 23" fill="none" xmlns="http://www.w3.org/2000/svg">
<path d="M9.50927 12.3298C9.5272 12.3276 9.54499 12.3253 9.5628 12.323C9.60936 12.3169 9.6557 12.3103 9.70176 12.3028C9.725 12.299 9.7482 12.2946 9.77137 12.2904C9.81275 12.283 9.85414 12.2757 9.89503 12.2671C9.95722 12.2541 10.0191 12.2399 10.0807 12.2243C10.0973 12.22 10.1135 12.2151 10.13 12.2107C10.1817 12.1971 10.2332 12.1825 10.2844 12.1669C10.3002 12.1621 10.3159 12.1568 10.3316 12.1517C10.3849 12.1348 10.4379 12.1169 10.4906 12.0979C10.5015 12.0941 10.5122 12.09 10.523 12.0861C10.585 12.0632 10.6465 12.039 10.7074 12.0134L10.7092 12.0126C12.3069 11.3364 13.4279 9.75432 13.4279 7.91032C13.4279 6.30015 12.5732 4.88986 11.2928 4.10794C11.2307 4.07008 11.1677 4.03368 11.1038 3.99877L11.0832 3.98784C10.911 3.89534 10.7328 3.81431 10.5499 3.74529C10.5287 3.7373 10.5075 3.72899 10.4861 3.72119C10.4062 3.69258 10.3255 3.66629 10.2441 3.64236C10.1954 3.62789 10.1466 3.61342 10.0971 3.60057C10.0562 3.59006 10.0147 3.58105 9.97346 3.57154C9.90422 3.5557 9.8346 3.54153 9.76468 3.52904C9.71642 3.52043 9.66815 3.51182 9.61949 3.50485C9.58123 3.49927 9.54257 3.49472 9.50391 3.49017C9.45085 3.48394 9.39769 3.47865 9.34444 3.47428C9.31053 3.47155 9.27676 3.46863 9.24275 3.46659C9.15983 3.46157 9.07679 3.45884 8.99372 3.45841C8.98836 3.45841 8.98319 3.45801 8.97783 3.45801C6.51959 3.45912 4.52734 5.45197 4.52734 7.91032C4.52734 10.2465 6.32692 12.1611 8.61525 12.3466L8.61302 12.3468C8.73274 12.3564 8.85336 12.3627 8.97551 12.3627C9.10391 12.3627 9.23079 12.356 9.35649 12.3454C9.4075 12.3411 9.45844 12.3359 9.50927 12.3298Z" fill="black"/>
<path d="M11.4864 11.7507C11.3773 11.7152 11.2674 11.682 11.1568 11.6513C11.0705 11.627 10.9838 11.6042 10.8968 11.5828C10.8755 11.5776 10.854 11.573 10.8326 11.568C10.6747 11.5309 10.5158 11.4985 10.3559 11.471C10.3223 11.4652 10.289 11.4584 10.2553 11.4531C10.1952 11.4435 10.1344 11.4357 10.0738 11.4274C10.009 11.4184 9.94403 11.4101 9.87901 11.4027C9.74667 11.3881 9.614 11.3767 9.48111 11.3685C9.43731 11.3657 9.39369 11.3626 9.34977 11.3606C9.22512 11.3549 9.09994 11.3511 8.97386 11.3511C8.84778 11.3511 8.72261 11.3549 8.59793 11.3606C8.554 11.3626 8.51029 11.3657 8.46658 11.3685C8.33369 11.3765 8.20101 11.3879 8.06869 11.4027C8.00342 11.41 7.93867 11.4186 7.8739 11.4275C7.81328 11.4358 7.75257 11.4434 7.69238 11.4531C7.65868 11.4584 7.62538 11.4652 7.59179 11.471C7.43195 11.4985 7.27298 11.5309 7.11509 11.568C7.09372 11.5731 7.07226 11.5776 7.05091 11.5828C6.94372 11.6091 6.83708 11.6376 6.73104 11.6683C6.64065 11.6942 6.55071 11.7216 6.46127 11.7507C3.61578 12.6791 1.46385 15.1401 0.981474 18.1596C0.972248 18.2183 0.964161 18.2773 0.956168 18.3364C0.937416 18.4734 0.922162 18.6109 0.910419 18.7486L0.908901 18.7689C0.891531 18.9858 0.882828 19.2034 0.882812 19.4211C0.882813 19.4296 0.883405 19.4379 0.883405 19.4464H0.882812V19.6132C0.888449 19.8958 0.90881 20.1778 0.943812 20.4583H17.004C17.0454 20.1266 17.0692 19.7893 17.0692 19.4464C17.0692 15.8529 14.7269 12.808 11.4864 11.7507Z" fill="black"/>
<path d="M21.1109 17.7263V17.7263C21.098 14.3697 18.5315 11.6176 15.2533 11.3069C15.0505 11.3416 14.8452 11.3592 14.6395 11.3594C14.4293 11.3594 14.2236 11.3406 14.0231 11.3064C13.7698 11.3303 13.5212 11.3693 13.2772 11.4213C13.7355 11.6681 14.1718 11.9536 14.5814 12.2748C14.6587 12.3353 14.735 12.3971 14.8104 12.46C14.8309 12.4773 14.8516 12.4941 14.8721 12.5113C14.9632 12.5889 15.0528 12.6683 15.1407 12.7494C15.1595 12.7667 15.1778 12.7844 15.1964 12.8018C15.27 12.8707 15.3424 12.9409 15.4138 13.0122C15.4336 13.0321 15.4535 13.0517 15.4733 13.0718C15.5586 13.1586 15.6422 13.2471 15.724 13.3372C15.7338 13.348 15.7433 13.3592 15.753 13.3701C15.8264 13.452 15.8984 13.5353 15.9688 13.6198C15.9859 13.6404 16.003 13.6608 16.0199 13.6814C16.3534 14.0883 16.651 14.5233 16.9095 14.9815L16.936 15.0293C16.996 15.137 17.0538 15.2459 17.1094 15.356L17.1155 15.3677C17.1748 15.4859 17.2314 15.6054 17.2854 15.7261L17.2992 15.7576C17.3498 15.8715 17.398 15.9864 17.4438 16.1023L17.4537 16.1271C17.503 16.2529 17.5495 16.3798 17.5931 16.5076L17.5946 16.5123C17.6367 16.6363 17.6761 16.7612 17.7127 16.887L17.7228 16.9212C17.7971 17.1791 17.8598 17.4403 17.9109 17.7039C17.9775 18.0457 18.0245 18.391 18.0515 18.7382H21.1114V17.7262H21.1109V17.7263ZM12.7583 10.8364L12.7578 10.8369C12.7901 10.8563 12.8231 10.8743 12.856 10.8926C12.8233 10.8742 12.7904 10.8558 12.7583 10.8364Z" fill="black"/>
<path d="M14.7116 12.3697C14.8948 12.3664 15.0774 12.3493 15.2579 12.3187C15.2453 12.3175 15.2329 12.3156 15.2201 12.3145C16.9501 12.0314 18.2704 10.5304 18.2704 8.72027C18.2704 7.2778 17.4319 6.03132 16.2158 5.44118C15.7253 5.20631 15.1881 5.08474 14.6442 5.08545C14.3333 5.0853 14.0237 5.12489 13.7229 5.20325C13.8927 5.5 14.0343 5.81207 14.1457 6.13532H14.1453C14.2173 6.34504 14.2765 6.55891 14.3227 6.77577L14.3234 6.7789C14.3539 6.92318 14.3786 7.06865 14.3973 7.21493C14.3985 7.22434 14.3995 7.23385 14.4007 7.24327C14.4167 7.37429 14.4279 7.50586 14.4343 7.6377C14.4354 7.65774 14.4366 7.67757 14.4374 7.69761C14.4401 7.76833 14.4419 7.83939 14.4419 7.91073C14.4419 7.99805 14.4391 8.08488 14.4351 8.17119C14.4339 8.19708 14.432 8.22289 14.4304 8.24881C14.4266 8.31125 14.4217 8.37363 14.4158 8.43591C14.4133 8.46243 14.4109 8.48882 14.4079 8.51524C14.3997 8.59022 14.3899 8.66501 14.3786 8.73958C14.3772 8.74909 14.3761 8.75879 14.3747 8.76832C14.3614 8.8514 14.3462 8.93417 14.3291 9.01654C14.3243 9.04012 14.3188 9.0635 14.3136 9.08698C14.3005 9.1472 14.2862 9.20718 14.271 9.2669C14.2645 9.29227 14.258 9.31767 14.2511 9.34289C14.233 9.40936 14.2137 9.47548 14.1931 9.5412C14.1888 9.5552 14.1849 9.56924 14.1805 9.58311C14.1551 9.66173 14.1279 9.73977 14.099 9.81717C14.0916 9.83709 14.0835 9.85673 14.0758 9.87656C14.0202 10.0204 13.9585 10.1618 13.891 10.3004C13.8839 10.3149 13.8771 10.3298 13.8698 10.3444C13.8328 10.4184 13.7942 10.4916 13.7538 10.5638C13.7462 10.5775 13.7382 10.5908 13.7305 10.6043C13.697 10.6632 13.6625 10.7214 13.6268 10.779C13.6153 10.7977 13.6036 10.8162 13.5918 10.8349C13.5551 10.8927 13.5172 10.9498 13.4783 11.0062C13.4703 11.0177 13.4626 11.0294 13.4546 11.041C13.3738 11.1553 13.2886 11.2666 13.1992 11.3744C13.7351 11.6552 14.2417 11.9887 14.7116 12.3697Z" fill="black"/>
</svg>
