<svg width="22" height="23" viewBox="0 0 22 23" fill="none" xmlns="http://www.w3.org/2000/svg">
<path d="M16.5849 10.548L15.0938 9.05685L10.5078 13.6396L10.6814 14.9572L11.999 15.1308L16.5849 10.548ZM17.443 9.20147L16.4917 8.25021C16.462 8.22048 16.4383 8.18516 16.4222 8.14629C16.4061 8.10741 16.3978 8.06573 16.3978 8.02364C16.3978 7.98156 16.4061 7.93988 16.4222 7.901C16.4383 7.86212 16.462 7.82681 16.4917 7.79708L17.0991 7.18969C17.1289 7.15989 17.1642 7.13626 17.2031 7.12013C17.2419 7.104 17.2836 7.0957 17.3257 7.0957C17.3678 7.0957 17.4095 7.104 17.4483 7.12013C17.4872 7.13626 17.5225 7.15989 17.5523 7.18969L18.5035 8.14094C18.6289 8.26628 18.6289 8.46874 18.5035 8.59408L17.8961 9.20147C17.8664 9.23126 17.8311 9.2549 17.7922 9.27103C17.7533 9.28715 17.7117 9.29545 17.6696 9.29545C17.6275 9.29545 17.5858 9.28715 17.5469 9.27103C17.5081 9.2549 17.4727 9.23126 17.443 9.20147Z" fill="black"/>
<path d="M17.7631 3.85403C17.7631 3.10523 17.1557 2.49463 16.4037 2.49463H5.71487C4.96607 2.49463 4.35547 3.10202 4.35547 3.85403V19.1352C4.35547 19.884 4.96286 20.4946 5.71487 20.4946H16.4037C17.1525 20.4946 17.7631 19.8872 17.7631 19.1352V10.8728L11.6731 16.9628L9.02178 16.6157L8.6747 13.9644L17.7631 4.8792V3.85403ZM9.64202 9.52302H7.5274C7.17389 9.52302 6.88466 9.23378 6.88466 8.88027C6.88466 8.52677 7.17389 8.23753 7.5274 8.23753H9.64202C9.81249 8.23753 9.97597 8.30525 10.0965 8.42579C10.217 8.54632 10.2848 8.70981 10.2848 8.88027C10.2848 9.05074 10.217 9.21422 10.0965 9.33476C9.97597 9.4553 9.81249 9.52302 9.64202 9.52302ZM11.7566 7.53694H7.53062C7.17711 7.53694 6.88787 7.24771 6.88787 6.8942C6.88787 6.54069 7.17711 6.25146 7.53062 6.25146H11.7566C12.1102 6.25146 12.3994 6.54069 12.3994 6.8942C12.3994 7.24771 12.1102 7.53694 11.7566 7.53694Z" fill="black"/>
</svg>
