<svg width="22" height="22" viewBox="0 0 22 22" fill="none" xmlns="http://www.w3.org/2000/svg">
<path d="M20.7239 11.8031C20.321 16.7004 16.3147 20.5776 11.3344 20.8394C11.2492 20.853 11.164 20.8643 11.0765 20.8643C11.0466 20.8643 11.0166 20.8575 10.9867 20.8552C10.9245 20.8575 10.8624 20.8643 10.8002 20.8643C10.7611 20.8643 10.7242 20.8597 10.6851 20.8575V20.8078C10.0058 20.6363 9.50391 20.036 9.50391 19.3183C9.50391 18.6007 10.0082 18.0003 10.6851 17.8288L10.7357 17.7476C10.7772 17.7476 10.8555 17.7092 10.8969 17.707C14.3 17.4316 17.1597 14.9965 17.4866 11.6338C17.4129 11.442 17.3669 11.2366 17.3669 11.02C17.3669 10.0608 18.1635 9.28223 19.1444 9.28223C20.1276 9.28223 20.9219 10.0608 20.9219 11.02C20.9196 11.3066 20.8459 11.5684 20.7239 11.8031Z" fill="#6A6D76"/>
<path d="M20.9189 11.0832C20.9189 12.0423 20.1269 12.8187 19.1483 12.8187C18.1698 12.8187 17.3777 12.0423 17.3777 11.0832C17.3777 10.8462 17.4261 10.6228 17.5136 10.4174C17.3501 6.90127 14.4328 4.09829 10.8479 4.09829C7.31357 4.09829 4.43086 6.82679 4.19601 10.2752C4.21212 10.3655 4.22364 10.4558 4.22364 10.5506C4.22364 11.4578 3.48454 12.1935 2.57276 12.1935C1.66097 12.1935 0.921875 11.4578 0.921875 10.5506C0.921875 10.4896 0.933387 10.4309 0.940295 10.37C1.1337 5.08904 5.4877 0.864258 10.8433 0.864258C16.1919 0.864258 20.539 5.0755 20.744 10.3429C20.8522 10.5686 20.9189 10.8169 20.9189 11.0832Z" fill="black"/>
<path d="M4.70392 14.3579C5.9795 14.3579 7.01331 15.3735 7.01331 16.626C7.01331 17.8786 5.9795 18.8941 4.70392 18.8941C3.42835 18.8941 2.39453 17.8786 2.39453 16.626C2.39453 15.3735 3.42835 14.3579 4.70392 14.3579Z" fill="black"/>
</svg>
