<svg width="15" height="15" viewBox="0 0 15 15" fill="none" xmlns="http://www.w3.org/2000/svg">
<path d="M7.5 0C3.35826 0 0 3.35826 0 7.5C0 11.6417 3.35826 15 7.5 15C11.6417 15 15 11.6417 15 7.5C15 3.35826 11.6417 0 7.5 0ZM11.3555 5.65513L7.01786 9.99442C6.75167 10.2606 6.31975 10.2606 6.05357 9.99442L3.64286 7.58371C3.37667 7.31752 3.37667 6.8856 3.64286 6.61942C3.90904 6.35324 4.34096 6.35324 4.60714 6.61942L6.53571 8.54799L10.3912 4.69085C10.6574 4.42467 11.0893 4.42467 11.3555 4.69085C11.6217 4.95703 11.6217 5.38895 11.3555 5.65513Z" fill="#7E5AF3"/>
</svg>
