<svg width="22" height="22" viewBox="0 0 22 22" fill="none" xmlns="http://www.w3.org/2000/svg">
<g id="Group 2085666599">
<circle id="Ellipse 4254981" cx="11" cy="11" r="10" fill="#F7F8FC"/>
<g id="Social">
<path id="Vector" d="M14.4528 8.77581C15.4817 9.51392 16.7421 9.94822 18.1035 9.94822V7.31924C17.8458 7.31929 17.5889 7.29233 17.3368 7.23874V9.30812C15.9756 9.30812 14.7153 8.87382 13.6861 8.13576V13.5007C13.6861 16.1846 11.5181 18.3601 8.84401 18.3601C7.84623 18.3601 6.91883 18.0574 6.14844 17.5382C7.02771 18.4404 8.25393 19.0001 9.61052 19.0001C12.2848 19.0001 14.4529 16.8246 14.4529 14.1407V8.77581H14.4528V8.77581ZM15.3985 6.12349C14.8727 5.54698 14.5275 4.80195 14.4528 3.97828V3.64014H13.7262C13.9091 4.68702 14.5329 5.58141 15.3985 6.12349ZM7.83983 15.4787C7.54605 15.0921 7.38729 14.6192 7.388 14.133C7.388 12.9055 8.3796 11.9102 9.60297 11.9102C9.83097 11.9102 10.0576 11.9452 10.2749 12.0144V9.32668C10.021 9.29175 9.76469 9.27693 9.50853 9.28236V11.3744C9.29109 11.3052 9.06435 11.27 8.8363 11.2703C7.61293 11.2703 6.62138 12.2654 6.62138 13.4931C6.62138 14.3611 7.11702 15.1126 7.83983 15.4787Z" fill="#FF004F"/>
<path id="Vector_2" d="M13.6833 8.13571C14.7125 8.87377 15.9728 9.30806 17.334 9.30806V7.23868C16.5742 7.07625 15.9015 6.67776 15.3958 6.12349C14.5301 5.58135 13.9064 4.68696 13.7235 3.64014H11.8151V14.1406C11.8108 15.3647 10.8209 16.3559 9.6001 16.3559C8.88074 16.3559 8.24165 16.0118 7.83691 15.4787C7.11415 15.1126 6.61851 14.361 6.61851 13.4931C6.61851 12.2656 7.61006 11.2703 8.83343 11.2703C9.06783 11.2703 9.29374 11.3069 9.50566 11.3744V9.28242C6.8785 9.33689 4.76562 11.4912 4.76562 14.1406C4.76562 15.4632 5.29178 16.6622 6.14573 17.5382C6.91612 18.0574 7.84352 18.3602 8.84131 18.3602C11.5155 18.3602 13.6834 16.1845 13.6834 13.5007V8.13571H13.6833Z" fill="black"/>
<path id="Vector_3" d="M17.335 7.23853V6.67899C16.6498 6.68003 15.9781 6.48746 15.3968 6.12329C15.9114 6.68871 16.589 7.07858 17.335 7.23853ZM13.7245 3.63999C13.707 3.53994 13.6936 3.43923 13.6843 3.33814V3H11.0493V13.5005C11.0451 14.7245 10.0553 15.7157 8.83442 15.7157C8.476 15.7157 8.13759 15.6303 7.8379 15.4786C8.24264 16.0116 8.88173 16.3557 9.6011 16.3557C10.8217 16.3557 11.8118 15.3646 11.8161 14.1405V3.63999H13.7245ZM9.50676 9.28227V8.68659C9.28658 8.65639 9.06461 8.64124 8.84235 8.64135C6.16794 8.64129 4 10.8169 4 13.5005C4 15.183 4.85204 16.6658 6.14678 17.538C5.29283 16.662 4.76667 15.463 4.76667 14.1404C4.76667 11.491 6.87949 9.33674 9.50676 9.28227Z" fill="#00F2EA"/>
</g>
</g>
</svg>
