<svg width="50" height="50" viewBox="0 0 50 50" fill="none" xmlns="http://www.w3.org/2000/svg">
<g id="Group 2085664340">
<g id="Group 2085664416">
<path id="Union" fill-rule="evenodd" clip-rule="evenodd" d="M7 7C5.34315 7 4 8.34315 4 10V35C4 36.6569 5.34315 38 7 38H20.2927L16.2886 42.3202C15.6953 42.9603 16.1493 44 17.022 44H30.978C31.8507 44 32.3047 42.9603 31.7114 42.3202L27.7073 38H29.5711C31.1152 38 32.407 36.828 32.5569 35.2913L33.004 30.7087C33.154 29.172 34.4458 28 35.9899 28H41C42.6569 28 44 26.6569 44 25V22.5V10C44 8.34315 42.6569 7 41 7H7Z" fill="url(#paint0_linear_76_5945)"/>
<rect id="Rectangle 161125114" x="10" y="14" width="28" height="3" rx="1.5" fill="white"/>
<rect id="Rectangle 161125115" x="10" y="21" width="14" height="3" rx="1.5" fill="white"/>
<path id="Vector" d="M46.5398 33.5011L46.4846 33.4303L46.4177 33.3705L46.2159 33.1901C45.8685 32.8439 45.6672 32.3808 45.6511 31.8946C45.643 31.419 45.818 30.9573 46.1417 30.6041L46.3266 30.4301L46.3382 30.4191L46.3495 30.4078C46.6356 30.1208 46.8367 29.76 46.9298 29.3651C47.0229 28.9701 47.0042 28.5573 46.8757 28.1724L46.8588 28.1218L46.8366 28.0732C46.6507 27.6667 46.4404 27.2718 46.207 26.8905C45.9806 26.4874 45.723 26.1026 45.4366 25.7394L45.4097 25.7052L45.3799 25.6734C45.1072 25.3835 44.7604 25.1743 44.3775 25.0676C43.9947 24.961 43.5898 24.9609 43.2069 25.0672L43.1946 25.0707L43.1823 25.0744L42.9294 25.1517C42.451 25.2585 41.9494 25.1837 41.524 24.942C41.0998 24.701 40.7836 24.3126 40.6346 23.8547L40.5774 23.6083L40.5675 23.5658L40.5539 23.5243C40.4346 23.1587 40.2219 22.831 39.9375 22.5729C39.6531 22.3148 39.3068 22.135 38.9326 22.0506L38.8644 22.0352L38.7948 22.0295C38.3452 21.9923 37.8934 21.9903 37.4435 22.0234C37.0029 21.9945 36.5607 21.9963 36.1203 22.0288L36.0367 22.035L35.9552 22.055C35.5777 22.1478 35.2307 22.3378 34.9494 22.6068C34.668 22.8758 34.4623 23.2144 34.3537 23.5886L34.345 23.6186L34.3382 23.6491L34.2791 23.9134C34.1426 24.3697 33.8372 24.7603 33.4212 25.0049L33.421 25.0051C32.9796 25.2649 32.4536 25.3461 31.9528 25.231L31.9382 25.2276L31.9236 25.2247L31.6639 25.1731C31.2911 25.0885 30.9025 25.1016 30.5361 25.2115C30.1629 25.3235 29.8255 25.5319 29.5586 25.8164L29.5153 25.8626L29.4781 25.914C29.2043 26.292 28.9565 26.6879 28.7363 27.099C28.5057 27.4825 28.3017 27.8812 28.1258 28.2925L28.1002 28.3521L28.0826 28.4146C27.9764 28.7918 27.9725 29.1903 28.0715 29.5695C28.1704 29.9487 28.3685 30.2943 28.6447 30.5716L28.6651 30.592L28.6866 30.6112L28.8731 30.778C29.198 31.133 29.3775 31.5946 29.3775 32.0728C29.3775 32.5548 29.1952 33.02 28.8653 33.3761L28.6788 33.5517L28.662 33.5675L28.646 33.584C28.3713 33.8675 28.1784 34.2203 28.0887 34.6053C27.999 34.9902 28.016 35.3922 28.1379 35.7682L28.1525 35.8132L28.1712 35.8567C28.3515 36.2736 28.5647 36.6756 28.8088 37.0588C29.0342 37.4776 29.2931 37.8775 29.5833 38.2548L29.6201 38.3027L29.6625 38.3459C29.9356 38.6238 30.2769 38.8248 30.6517 38.9292C31.0266 39.0336 31.4224 39.038 31.7995 38.942L31.8336 38.9333L31.8671 38.9222L32.0909 38.8481C32.5659 38.7391 33.065 38.8105 33.4896 39.0483C33.9191 39.2889 34.239 39.6811 34.3871 40.1441L34.4588 40.4088L34.4628 40.4234L34.4673 40.438C34.5806 40.811 34.7907 41.147 35.0755 41.4125C35.3603 41.678 35.7099 41.8637 36.0887 41.9517L36.1654 41.9695L36.244 41.975C36.6954 42.0071 37.1484 42.0083 37.5999 41.9785C38.0636 41.9899 38.5274 41.9601 38.9859 41.8894L39.0237 41.8836L39.0609 41.8749C39.4448 41.7852 39.7975 41.5932 40.081 41.3186L39.3854 40.6002L40.081 41.3186C40.3646 41.0441 40.5682 40.6973 40.6691 40.3152L40.6729 40.3006L40.6763 40.286L40.7359 40.0296C40.8748 39.5668 41.1846 39.1708 41.6061 38.9222C42.0251 38.6762 42.5233 38.5975 42.999 38.7025L43.2506 38.7724L43.264 38.7762L43.2775 38.7795C43.6595 38.8744 44.0602 38.8648 44.4373 38.7518C44.8144 38.6387 45.1545 38.426 45.4211 38.1356L45.4566 38.0969L45.488 38.0546C45.768 37.6765 46.0181 37.2775 46.2363 36.8611C46.4741 36.4736 46.6779 36.0663 46.8453 35.6438C46.9859 35.2913 47.0318 34.9082 46.9783 34.5323L45.9883 34.6734L46.9783 34.5323C46.9247 34.156 46.7733 33.8006 46.5398 33.5011ZM38.927 34.2772L38.618 34.4558C38.2486 34.6098 37.8472 34.6807 37.4432 34.6607C36.9109 34.6344 36.3991 34.4518 35.9725 34.1367C35.546 33.8216 35.2243 33.3886 35.0469 32.8932C34.8696 32.3978 34.8444 31.8616 34.9742 31.3522C35.1041 30.8427 35.3836 30.382 35.7783 30.029C36.173 29.6759 36.6652 29.4465 37.1926 29.371C37.7201 29.2954 38.2581 29.3771 38.7381 29.6054C39.2177 29.8335 39.6173 30.1972 39.8873 30.6496C40.0648 30.9499 40.1807 31.2817 40.2287 31.6259C40.2768 31.9707 40.2558 32.3216 40.167 32.6584C40.0781 32.9953 39.9231 33.3118 39.7104 33.5896C39.4978 33.8674 39.2316 34.1012 38.927 34.2772Z" fill="#6270FC" stroke="white" stroke-width="2"/>
</g>
</g>
<defs>
<linearGradient id="paint0_linear_76_5945" x1="11.3178" y1="25.9423" x2="39.2469" y2="30.4862" gradientUnits="userSpaceOnUse">
<stop stop-color="#8690F5" stop-opacity="0.87"/>
<stop offset="1" stop-color="#D3D7FF" stop-opacity="0.74"/>
</linearGradient>
</defs>
</svg>
