<svg width="50" height="50" viewBox="0 0 50 50" fill="none" xmlns="http://www.w3.org/2000/svg">
<g id="Group 2085664340">
<g id="Group 2085664339">
<path id="Vector" d="M32.9375 38.1005L31.6625 37.6755L31.5 35.5C29.8 34.9688 29.6063 33.7 29.5 32C29.3937 30.1938 36.6562 23.9692 38.25 23.2255V19.188H2.125V40.438C2.125 41.6067 3.08125 42.563 4.25 42.563H33.0437C32.9375 42.2442 32.9375 41.8192 32.9375 41.5005V38.1005ZM38.25 8.56299C38.25 7.39424 37.2937 6.43799 36.125 6.43799H4.25C3.08125 6.43799 2.125 7.39424 2.125 8.56299V16.0005H38.25V8.56299ZM11.1562 12.813H6.90625C6.05625 12.813 5.3125 12.0692 5.3125 11.2192C5.3125 10.3692 6.05625 9.62549 6.90625 9.62549H11.1562C12.0062 9.62549 12.75 10.3692 12.75 11.2192C12.75 12.0692 12.0062 12.813 11.1562 12.813ZM33.4687 12.813H17.5312C16.6812 12.813 15.9375 12.0692 15.9375 11.2192C15.9375 10.3692 16.6812 9.62549 17.5312 9.62549H33.4687C34.3187 9.62549 35.0625 10.3692 35.0625 11.2192C35.0625 12.0692 34.3187 12.813 33.4687 12.813Z" fill="url(#paint0_linear_76_5938)"/>
</g>
<path id="Vector_2" d="M36.4616 43.8089C35.7175 44.4771 35.7174 44.4769 35.7172 44.4768L35.7168 44.4763L35.7155 44.4748L35.7112 44.47L35.6956 44.4525L35.638 44.3873C35.5883 44.3308 35.5163 44.2483 35.4253 44.1423C35.2433 43.9305 34.9849 43.6243 34.6755 43.2432C34.0576 42.4819 33.2319 41.4161 32.4042 40.2005C31.5786 38.988 30.7381 37.6079 30.1008 36.2196C29.4708 34.8472 29 33.3835 29 32.0262C29 31.9313 29.0093 31.8513 29.0147 31.8077L29.0148 31.8072C29.0088 31.7133 29 31.5703 29 31.4525C29 26.8442 32.5236 23 36.9999 23C41.4764 23 44.9999 26.8442 44.9999 31.4525C44.9999 31.5698 44.9912 31.7133 44.9852 31.807L44.9853 31.8077C44.9907 31.8513 45 31.9313 45 32.0262C45 33.3697 44.5715 34.7985 43.982 36.1433C43.3872 37.5003 42.5969 38.8424 41.8028 40.0316C41.007 41.2234 40.1955 42.2796 39.5472 43.067C39.223 43.4608 38.9369 43.7907 38.711 44.0394C38.5076 44.2635 38.3032 44.4778 38.1628 44.5901L38.1623 44.5904C37.5915 45.0462 36.9759 45.0523 36.5409 44.9365C36.3362 44.882 36.1716 44.8024 36.0587 44.7381C36.0011 44.7052 35.9533 44.6742 35.9167 44.6489C35.8984 44.6362 35.8825 44.6247 35.8693 44.6149L35.8515 44.6013L35.8441 44.5955L35.8407 44.5929L35.8392 44.5916L35.8384 44.591C35.838 44.5907 35.8376 44.5904 36.4616 43.8089ZM36.4616 43.8089L35.7175 44.4771L35.7729 44.5387L35.8376 44.5904L36.4616 43.8089ZM36.9999 33.3196C36.1235 33.3196 35.3077 32.5442 35.3077 31.4525C35.3077 30.3622 36.1232 29.5865 36.9999 29.5865C37.8767 29.5865 38.6923 30.3623 38.6923 31.4525C38.6923 32.5441 37.8765 33.3196 36.9999 33.3196Z" fill="#6270FC" stroke="white" stroke-width="2"/>
</g>
<defs>
<linearGradient id="paint0_linear_76_5938" x1="8.73392" y1="24.9323" x2="34.0516" y2="28.7424" gradientUnits="userSpaceOnUse">
<stop stop-color="#8690F5" stop-opacity="0.87"/>
<stop offset="1" stop-color="#D3D7FF" stop-opacity="0.74"/>
</linearGradient>
</defs>
</svg>
