<svg width="19" height="19" viewBox="0 0 19 19" fill="none" xmlns="http://www.w3.org/2000/svg">
<g id="Check icon">
<g clip-path="url(#clip0_76_6251)">
<g id="check-circle" clip-path="url(#clip1_76_6251)">
<path id="Icon" d="M5.93742 9.50004L8.31242 11.875L13.0624 7.12504M17.4166 9.50004C17.4166 13.8723 13.8722 17.4167 9.49992 17.4167C5.12766 17.4167 1.58325 13.8723 1.58325 9.50004C1.58325 5.12779 5.12766 1.58337 9.49992 1.58337C13.8722 1.58337 17.4166 5.12779 17.4166 9.50004Z" stroke="#7F56D9" stroke-width="1.58333" stroke-linecap="round" stroke-linejoin="round"/>
</g>
</g>
</g>
<defs>
<clipPath id="clip0_76_6251">
<path d="M0 9.5C0 4.25329 4.25329 0 9.5 0C14.7467 0 19 4.25329 19 9.5C19 14.7467 14.7467 19 9.5 19C4.25329 19 0 14.7467 0 9.5Z" fill="white"/>
</clipPath>
<clipPath id="clip1_76_6251">
<rect width="19" height="19" fill="white"/>
</clipPath>
</defs>
</svg>
