<svg width="21" height="21" viewBox="0 0 21 21" fill="none" xmlns="http://www.w3.org/2000/svg">
<g id="Group 2085666598">
<circle id="Ellipse 4254981" cx="10.5" cy="10.5" r="10" fill="white"/>
<g id="Social Icons" clip-path="url(#clip0_11465_133860)">
<g id="Vector">
<path id="Vector_2" d="M10.5703 9.09961V12.2237H14.9118C14.7211 13.2284 14.149 14.0791 13.291 14.6511L15.9091 16.6825C17.4345 15.2745 18.3145 13.2065 18.3145 10.7497C18.3145 10.1777 18.2632 9.62766 18.1678 9.0997L10.5703 9.09961Z" fill="#4285F4"/>
<path id="Vector_3" d="M6.04775 12.1016L5.45728 12.5536L3.36719 14.1816C4.69456 16.8143 7.4151 18.633 10.5685 18.633C12.7465 18.633 14.5725 17.9144 15.9073 16.6823L13.2892 14.6509C12.5705 15.135 11.6538 15.4283 10.5685 15.4283C8.47111 15.4283 6.68912 14.013 6.05105 12.1062L6.04775 12.1016Z" fill="#34A853"/>
<path id="Vector_4" d="M3.36529 6.95117C2.81531 8.03649 2.5 9.26121 2.5 10.5666C2.5 11.8719 2.81531 13.0966 3.36529 14.1819C3.36529 14.1892 6.04942 12.0992 6.04942 12.0992C5.88808 11.6152 5.79272 11.1019 5.79272 10.5665C5.79272 10.0311 5.88808 9.51774 6.04942 9.03373L3.36529 6.95117Z" fill="#FBBC05"/>
<path id="Vector_5" d="M10.5687 5.71209C11.7567 5.71209 12.8127 6.12276 13.6561 6.91479L15.9661 4.60475C14.5654 3.29941 12.7468 2.5 10.5687 2.5C7.41526 2.5 4.69456 4.31138 3.36719 6.95147L6.05123 9.03419C6.68921 7.12745 8.47128 5.71209 10.5687 5.71209Z" fill="#EA4335"/>
</g>
</g>
</g>
<defs>
<clipPath id="clip0_11465_133860">
<rect width="16.1338" height="16.1338" fill="white" transform="translate(2.5 2.5)"/>
</clipPath>
</defs>
</svg>
