<svg width="81" height="81" viewBox="0 0 81 81" fill="none" xmlns="http://www.w3.org/2000/svg">
<g id="Group 2085665462">
<g id="Group 2085664519">
<circle id="Ellipse 2883" cx="40.5" cy="40.5" r="40.5" fill="white"/>
<path id="Vector" d="M37.1143 65C36.9602 65 36.8054 64.9756 36.654 64.9247C36.0589 64.7245 35.6581 64.1622 35.6574 63.5296V44.0855H25.4573C24.9058 44.0855 24.4005 43.7709 24.1538 43.2721C23.9071 42.7741 23.9603 42.1777 24.2913 41.7319L43.7197 15.5886C44.0964 15.0822 44.7516 14.875 45.3467 15.0759C45.9418 15.2761 46.3426 15.8376 46.3433 16.471V35.9151H56.5427C57.0942 35.9151 57.5995 36.2297 57.8462 36.7284C58.0929 37.2265 58.0397 37.8229 57.7087 38.2686L38.2803 64.4127C38.0045 64.7824 37.5726 65 37.1143 65ZM28.3719 41.1439H37.115C37.9195 41.1439 38.572 41.8024 38.572 42.6143V59.1176L53.6288 38.8559H44.8857C44.0812 38.8559 43.4287 38.1975 43.4287 37.3855V20.883L28.3719 41.1439Z" fill="black"/>
</g>
</g>
</svg>
