<svg width="81" height="81" viewBox="0 0 81 81" fill="none" xmlns="http://www.w3.org/2000/svg">
<g id="Group 2085664519">
<circle id="Ellipse 2883" cx="40.5" cy="40.5" r="40.5" fill="white"/>
<g id="Group 2085664779">
<path id="Vector" d="M31.3003 52.7092H27.5299C26.273 52.7092 25.2676 51.7037 25.2676 50.4469V38.13C25.2676 36.8732 26.273 35.8677 27.5299 35.8677H31.5517C32.8085 35.8677 33.814 36.8732 33.814 38.13V50.4469C33.814 51.7037 32.5572 52.7092 31.3003 52.7092ZM28.284 49.6928H30.7976V38.6327H28.284V49.6928ZM42.6118 52.7092H38.5899C37.3331 52.7092 36.3276 51.7037 36.3276 50.4469V24.2623C36.3276 23.0055 37.3331 22 38.5899 22H42.6118C43.8686 22 44.8741 23.0055 44.8741 24.2623V50.1955C44.8741 51.7037 43.8686 52.7092 42.6118 52.7092ZM39.344 49.6928H41.8577V25.0164H39.344V49.6928Z" fill="black" stroke="white"/>
<path id="Vector_2" d="M53.0328 52.7096H49.2623C48.0055 52.7096 47 51.7042 47 50.4473V32.1305C47 30.8736 48.0055 29.8682 49.2623 29.8682H53.2841C54.541 29.8682 55.5464 30.8736 55.5464 32.1305V50.4473C55.5464 51.7042 54.2896 52.7096 53.0328 52.7096ZM50.0164 49.6933H52.53V32.6332H50.0164V49.6933Z" fill="black" stroke="white"/>
<path id="Vector_3" d="M57.6939 58.7424H23.2568C22.5027 58.7424 22 58.2396 22 57.4855V56.7314C22 55.9773 22.5027 55.4746 23.2568 55.4746H57.6939C58.448 55.4746 58.9507 55.9773 58.9507 56.7314V57.4855C59.2021 58.2396 58.448 58.7424 57.6939 58.7424Z" fill="black" stroke="white"/>
</g>
</g>
</svg>
