<svg width="81" height="81" viewBox="0 0 81 81" fill="none" xmlns="http://www.w3.org/2000/svg">
<g id="Group 2085664519">
<circle id="Ellipse 2883" cx="40.5" cy="40.5" r="40.5" fill="white"/>
<path id="Vector" d="M40.7998 21.2129C49.3692 21.2129 56.3867 28.416 56.3867 37.3896C56.3867 37.6571 56.3628 37.8483 56.3438 38.2256L56.3398 38.3135L56.3477 38.4004C56.3532 38.4591 56.3597 38.5126 56.3652 38.5547C56.3725 38.6102 56.3749 38.6212 56.3799 38.6602C56.3859 38.7073 56.3866 38.7243 56.3867 38.7275C56.3867 43.6041 53.1068 48.7656 49.418 52.9785C45.7791 57.1343 41.9738 60.1091 41.3477 60.5957C41.0654 60.8146 40.8303 60.8105 40.6191 60.7559C40.5 60.725 40.3946 60.676 40.3184 60.6338L40.2432 60.5889C40.2369 60.5839 40.2278 60.5771 40.2168 60.5684C40.1897 60.5469 40.149 60.5134 40.0947 60.4697C39.9858 60.3821 39.824 60.251 39.6172 60.0791C39.2034 59.7352 38.6087 59.2303 37.8945 58.5898C36.4644 57.3073 34.5608 55.4902 32.6611 53.3496C30.7582 51.2052 28.882 48.7606 27.4863 46.2246C26.0854 43.6792 25.2129 41.1212 25.2129 38.7275C25.213 38.7244 25.2147 38.7075 25.2207 38.6602C25.2257 38.6212 25.2271 38.6102 25.2344 38.5547C25.2399 38.5126 25.2465 38.4591 25.252 38.4004L25.2607 38.3125L25.2559 38.2256C25.2367 37.8492 25.2129 37.6565 25.2129 37.3896C25.2129 28.416 32.2307 21.2129 40.7998 21.2129Z" stroke="black" stroke-width="2.42667"/>
<g id="Group 2085667245">
<path id="Vector_2" d="M47.818 40.7109C48.073 40.7104 48.3273 40.7385 48.5761 40.7948L48.701 40.8275V41.5374C48.4656 41.4591 48.2198 41.4176 47.972 41.4144C47.664 41.4144 47.4281 41.5015 47.2677 41.6757C47.1083 41.8499 46.9995 42.0818 46.9435 42.3726C47.1943 42.2186 47.4826 42.1387 47.776 42.1417C48.1863 42.1417 48.4932 42.2637 48.6946 42.5054C48.8981 42.7482 48.9994 43.0934 48.9994 43.5399C48.9994 44.0135 48.869 44.3859 48.6074 44.6581C48.3478 44.9304 47.9849 45.0665 47.5207 45.0665C46.9457 45.0665 46.5408 44.8781 46.3081 44.5024C46.0755 44.1268 45.9592 43.6422 45.9592 43.0499C45.9592 42.6274 46.0249 42.2408 46.1574 41.8891C46.2784 41.5518 46.4912 41.2559 46.7712 41.0354C47.0491 40.8187 47.398 40.7109 47.818 40.7109ZM42.5497 40.773L43.5706 44.3337H43.5943L44.6152 40.773H45.704L44.3902 45.0044H42.7726L41.4609 40.773H42.5486H42.5497ZM47.5175 42.7646C47.4324 42.7611 47.3478 42.7787 47.271 42.8159C47.1943 42.8531 47.1277 42.9088 47.0771 42.978C46.9715 43.1196 46.9198 43.3156 46.9198 43.5693C46.9198 43.8262 46.9737 44.0222 47.0814 44.1583C47.1331 44.2246 47.1996 44.2777 47.2753 44.3133C47.3511 44.3488 47.434 44.3659 47.5175 44.3631C47.6005 44.3658 47.683 44.3487 47.7582 44.3131C47.8334 44.2775 47.8993 44.2245 47.9504 44.1583C48.0581 44.0222 48.112 43.8262 48.112 43.5693C48.112 43.3166 48.0581 43.1196 47.9504 42.978C47.9007 42.9097 47.8353 42.8546 47.7599 42.8174C47.6845 42.7803 47.6014 42.7621 47.5175 42.7646Z" fill="black"/>
<path id="Vector_3" d="M36.6152 32.0996C36.7176 32.0996 36.8166 32.1367 36.8955 32.2031C36.9547 32.253 36.9998 32.3172 37.0264 32.3896L37.0469 32.4639L37.0537 32.5449V44.5225C37.0537 44.6267 37.0179 44.7278 36.9521 44.8076C36.8877 44.8858 36.7984 44.9384 36.7002 44.958L36.6064 44.9668H35.5381C35.4359 44.9668 35.3366 44.9306 35.2578 44.8643C35.1985 44.8143 35.1535 44.7494 35.127 44.6768L35.1074 44.6025L35.0996 44.5137V32.5439C35.0997 32.4399 35.1365 32.3395 35.2021 32.2598C35.2678 32.1801 35.3586 32.1262 35.459 32.1074L35.5479 32.0996H36.6152ZM43.0771 32.0996C44.0334 32.0982 44.9525 32.4754 45.6387 33.1494C46.3247 33.8234 46.7237 34.7417 46.75 35.709C46.7763 36.6764 46.4279 37.616 45.7793 38.3271C45.1713 38.9937 44.3447 39.4108 43.457 39.5029L43.2783 39.5166L43.0742 39.5225H40.2842V44.5225C40.2841 44.6267 40.2484 44.7278 40.1826 44.8076C40.1179 44.8861 40.0283 44.9386 39.9297 44.958L39.8369 44.9668H38.7695C38.6672 44.9668 38.5671 44.9307 38.4883 44.8643C38.4291 44.8144 38.385 44.7492 38.3584 44.6768L38.3379 44.6025L38.3311 44.5225V32.5117C38.3312 32.4151 38.3647 32.3219 38.4258 32.248C38.4863 32.1748 38.5698 32.125 38.6621 32.1074L38.7471 32.0996H43.0771ZM40.2842 37.5439H43.0771C43.3024 37.5439 43.5253 37.4992 43.7334 37.4121C43.9416 37.3249 44.1308 37.1971 44.29 37.0361C44.4493 36.8751 44.576 36.6838 44.6621 36.4736C44.748 36.2637 44.7919 36.0387 44.792 35.8115C44.792 35.5842 44.7481 35.3586 44.6621 35.1484C44.576 34.9382 44.4493 34.7469 44.29 34.5859C44.1308 34.425 43.9416 34.2972 43.7334 34.21C43.5253 34.1229 43.3024 34.0782 43.0771 34.0781H40.2842V37.5439Z" fill="black" stroke="white" stroke-width="0.2"/>
</g>
</g>
</svg>
