<svg width="81" height="81" viewBox="0 0 81 81" fill="none" xmlns="http://www.w3.org/2000/svg">
<g id="Group 2085664519">
<circle id="Ellipse 2883" cx="40.5" cy="40.5" r="40.5" fill="white"/>
<g id="Group 2085664670">
<path id="Vector" d="M59.5671 27.7871C59.3717 26.8537 58.5903 26.1591 57.6352 26.1157C50.2986 25.9203 44.2643 22.1869 41.8332 20.407C41.0952 19.8643 40.1184 19.8643 39.3804 20.407C36.8842 22.1869 30.915 25.9203 23.5784 26.1157C22.645 26.1591 21.8202 26.8537 21.6466 27.7871C20.4744 33.6477 18.4558 53.5087 40.6394 62.7338C62.7579 53.487 60.6958 33.6477 59.5671 27.7871ZM40.6177 59.3911C21.7117 51.5118 23.6218 34.4725 24.5769 29.6972C24.7288 28.9592 25.3583 28.4599 26.1397 28.4165C32.4779 28.308 37.6656 25.0087 39.6843 23.5327C40.227 23.142 41.0084 23.142 41.551 23.5327C43.6131 25.0087 48.7791 28.308 55.0956 28.4165C55.8336 28.4165 56.4848 28.9592 56.6584 29.6972C57.5918 34.4942 59.5454 51.5118 40.6177 59.3911Z" fill="black" stroke="white" stroke-width="0.581943"/>
<path id="ISP" d="M31.4319 46.2998V35.3894H33.0912V46.2998H31.4319ZM39.0848 46.425C37.1751 46.425 35.375 45.3449 35.0306 43.2787L36.6742 42.8717C36.8464 44.2805 37.8482 44.938 39.1161 44.938C40.3841 44.938 41.1198 44.2336 41.1198 43.3257C41.1198 42.1986 40.0084 41.7603 38.7874 41.2907C37.3473 40.7272 35.735 40.1011 35.735 38.1757C35.735 36.3286 37.2377 35.2485 39.0379 35.2485C40.3684 35.2485 41.5581 35.812 42.2781 37.0956L40.9006 37.9565C40.478 37.1426 39.7892 36.7199 38.9752 36.7199C38.083 36.7199 37.3943 37.2834 37.3943 38.0974C37.3943 39.0992 38.4743 39.4906 39.664 39.9445C41.1354 40.5237 42.779 41.1811 42.779 43.1848C42.779 45.1728 41.1354 46.425 39.0848 46.425ZM44.8076 46.2998V35.3894H48.2044C50.7402 35.3894 51.8829 36.5634 51.8829 38.5044C51.8829 40.5863 50.5681 41.6977 48.2044 41.6977H46.4512V46.2998H44.8076ZM46.4512 40.1637H48.0479C49.4567 40.1637 50.2237 39.7097 50.2237 38.5357C50.2237 37.3461 49.441 36.9078 48.0479 36.9078H46.4512V40.1637Z" fill="black"/>
</g>
</g>
</svg>
