<svg width="49" height="49" viewBox="0 0 49 49" fill="none" xmlns="http://www.w3.org/2000/svg">
<g id="Group 1321316558">
<circle id="Ellipse 2875" cx="24.5" cy="24.5" r="24.5" fill="#7F5AF4"/>
<g id="home-02">
<path id="Icon" d="M20.8246 34.3001V25.2351C20.8246 24.5491 20.8246 24.206 20.9581 23.944C21.0756 23.7135 21.263 23.5261 21.4935 23.4087C21.7555 23.2751 22.0985 23.2751 22.7846 23.2751H26.2146C26.9007 23.2751 27.2437 23.2751 27.5057 23.4087C27.7362 23.5261 27.9236 23.7135 28.0411 23.944C28.1746 24.206 28.1746 24.5491 28.1746 25.2351V34.3001M23.2963 11.9611L14.988 18.4231C14.4326 18.8551 14.1549 19.071 13.9548 19.3415C13.7776 19.5811 13.6456 19.851 13.5653 20.138C13.4746 20.462 13.4746 20.8138 13.4746 21.5174V30.3801C13.4746 31.7523 13.4746 32.4383 13.7416 32.9624C13.9765 33.4234 14.3513 33.7982 14.8123 34.0331C15.3364 34.3001 16.0225 34.3001 17.3946 34.3001H31.6046C32.9767 34.3001 33.6628 34.3001 34.1869 34.0331C34.6479 33.7982 35.0227 33.4234 35.2576 32.9624C35.5246 32.4383 35.5246 31.7523 35.5246 30.3801V21.5174C35.5246 20.8138 35.5246 20.462 35.4339 20.138C35.3536 19.851 35.2216 19.5811 35.0444 19.3415C34.8443 19.071 34.5666 18.8551 34.0113 18.4231L25.7029 11.9611C25.2726 11.6263 25.0574 11.459 24.8198 11.3946C24.6101 11.3379 24.3891 11.3379 24.1795 11.3946C23.9418 11.459 23.7267 11.6263 23.2963 11.9611Z" stroke="white" stroke-width="2.45" stroke-linecap="round" stroke-linejoin="round"/>
</g>
</g>
</svg>
