<svg width="49" height="49" viewBox="0 0 49 49" fill="none" xmlns="http://www.w3.org/2000/svg">
<g id="Group 2085665478">
<g id="Group 1321316558">
<circle id="Ellipse 2875" cx="24.5" cy="24.5" r="24.5" fill="#565FFF"/>
<g id="remix-icons/line/business/global-line" clip-path="url(#clip0_1882_1322)">
<g id="Group">
<path id="Vector" d="M24.4993 36.5834C17.8257 36.5834 12.416 31.1737 12.416 24.5001C12.416 17.8265 17.8257 12.4167 24.4993 12.4167C31.173 12.4167 36.5827 17.8265 36.5827 24.5001C36.5827 31.1737 31.173 36.5834 24.4993 36.5834ZM21.7323 33.7644C20.5401 31.2357 19.8495 28.4999 19.6986 25.7084H14.9076C15.1427 27.5679 15.9128 29.3191 17.1244 30.7492C18.3359 32.1793 19.9367 33.2268 21.7323 33.7644ZM22.1189 25.7084C22.3014 28.6555 23.1436 31.4238 24.4993 33.8671C25.8917 31.3592 26.7051 28.5715 26.8798 25.7084H22.1189ZM34.0911 25.7084H29.3001C29.1492 28.4999 28.4586 31.2357 27.2664 33.7644C29.062 33.2268 30.6628 32.1793 31.8743 30.7492C33.0859 29.3191 33.856 27.5679 34.0911 25.7084ZM14.9076 23.2917H19.6986C19.8495 20.5002 20.5401 17.7645 21.7323 15.2358C19.9367 15.7734 18.3359 16.8208 17.1244 18.2509C15.9128 19.6811 15.1427 21.4322 14.9076 23.2917ZM22.1201 23.2917H26.8786C26.7043 20.4287 25.8913 17.641 24.4993 15.1331C23.107 17.6409 22.2936 20.4286 22.1189 23.2917H22.1201ZM27.2664 15.2358C28.4586 17.7645 29.1492 20.5002 29.3001 23.2917H34.0911C33.856 21.4322 33.0859 19.6811 31.8743 18.2509C30.6628 16.8208 29.062 15.7734 27.2664 15.2358Z" fill="white"/>
</g>
</g>
</g>
</g>
<defs>
<clipPath id="clip0_1882_1322">
<rect width="29" height="29" fill="white" transform="translate(10 10)"/>
</clipPath>
</defs>
</svg>
