<svg width="28" height="28" viewBox="0 0 28 28" fill="none" xmlns="http://www.w3.org/2000/svg">
<g id="Group 2085666727">
<g id="Group 2085666706">
<path id="Vector" d="M14.0767 4.3462C17.1501 4.3462 19.8011 6.5282 20.3993 9.54278L20.7511 11.3023L22.5458 11.4313C24.3757 11.5485 25.8068 13.0852 25.8068 14.9036C25.8068 16.8391 24.2231 18.4226 22.2878 18.4226H7.03833C4.44596 18.4226 2.3462 16.3228 2.3462 13.7305C2.3462 11.3257 4.14092 9.31971 6.52233 9.07354L7.7774 8.94454L8.36381 7.83002C9.47832 5.68351 11.6603 4.3462 14.0767 4.3462ZM14.0767 2C10.6866 2 7.74219 3.92372 6.27588 6.73916C2.74503 7.11461 0 10.1058 0 13.7305C0 17.6134 3.15541 20.7688 7.03833 20.7688H22.2881C25.5257 20.7688 28.1533 18.1412 28.1533 14.9036C28.1533 11.8067 25.7485 9.29633 22.6987 9.08536C21.9008 5.03823 18.3466 2 14.0767 2Z" fill="black"/>
<path id="Vector_2" d="M16.0868 12.088H12.065V10.4121L9.71875 12.7583L12.065 15.1045V13.4286H16.0868V15.1045L18.433 12.7583L16.0868 10.4121V12.088Z" fill="black"/>
</g>
</g>
</svg>
