<svg width="28" height="28" viewBox="0 0 28 28" fill="none" xmlns="http://www.w3.org/2000/svg">
<g id="Group 2085666724">
<path id="Vector" d="M5.73732 14.9944V11.3198L8.20604 13.5798V18.9492C8.00769 22.0695 10.5488 24.599 13.6832 24.599C15.1203 24.6006 16.5041 24.0584 17.5537 23.0816L19.16 24.6809C17.6816 26.0826 15.7209 26.8623 13.6836 26.8585C12.307 26.8603 10.9535 26.5046 9.75565 25.8262C8.55778 25.1478 7.55658 24.17 6.85005 22.9885L6.84423 22.9773C6.42301 23.0297 6.15563 23.1145 5.88618 23.2405C5.4924 23.4235 5.19925 23.6792 4.98884 24.0222C4.75432 24.4031 4.64413 24.779 4.61253 25.7283H2.34298C2.39454 24.2368 2.62158 23.5989 3.00538 22.9565C3.44532 22.2197 4.09067 21.6417 4.91233 21.2479C5.18262 21.1157 5.46454 21.0071 5.75478 20.9248L5.94772 20.8745L5.97267 20.8687L5.96436 20.8333C5.81305 20.2167 5.73668 19.5841 5.7369 18.9492V17.2539H3.05902C2.80621 17.2539 2.71473 17.2282 2.62241 17.1783C2.53093 17.1304 2.45609 17.056 2.40743 16.9649C2.35754 16.8726 2.33176 16.782 2.33176 16.53V15.7183C2.33176 15.4663 2.35754 15.3753 2.40743 15.283C2.45609 15.1923 2.53093 15.1179 2.622 15.0696C2.71473 15.0197 2.80621 14.994 3.05902 14.994H5.7369L5.73732 14.9944ZM3.77049 2.96429H3.77132L8.01102 7.18486V7.18029L8.48256 7.64975H8.47757L9.61276 8.77953H9.61775L11.8881 11.0395H11.8831L19.3592 18.4802L19.3596 18.4769L21.4632 20.5701L21.4615 20.5734L25.4434 24.537C25.6651 24.7578 25.6651 25.1154 25.4434 25.3362L24.6409 26.1346C24.5342 26.2405 24.39 26.2999 24.2396 26.2999C24.0893 26.2999 23.9451 26.2405 23.8384 26.1346L20.5758 22.8887L20.5738 22.892L18.8864 21.2113L18.8876 21.2071L8.67176 11.0395H8.66635L6.46958 8.85313L6.47374 8.85147L2.16626 4.5627C2.11357 4.5103 2.07175 4.44801 2.04322 4.37939C2.01469 4.31078 2 4.2372 2 4.16289C2 4.08858 2.01469 4.015 2.04322 3.94639C2.07175 3.87778 2.11357 3.81548 2.16626 3.76308L2.96754 2.96429C3.07418 2.85795 3.21863 2.79823 3.36923 2.79823C3.51982 2.79823 3.66427 2.85795 3.77091 2.96429H3.77049ZM6.01883 21.0396L5.98806 20.9248L6.00885 21.0063L6.01883 21.0396ZM22.509 7.64975V7.64892L25.0318 7.65016C25.0068 8.46725 24.8488 8.98702 24.5719 9.44942C24.2696 9.95672 23.8263 10.3534 23.2608 10.6249C22.8196 10.8362 22.3319 10.9705 21.6308 11.0191L21.6299 14.9944H24.3078C24.5606 14.9944 24.6521 15.0202 24.7444 15.0701C24.8372 15.1191 24.9099 15.1915 24.959 15.2834C25.0089 15.3757 25.0351 15.4663 25.0351 15.7187V16.5296C25.0351 16.782 25.0089 16.8726 24.959 16.9649C24.9105 17.0559 24.8357 17.1302 24.7444 17.1783C24.6521 17.2282 24.5606 17.2539 24.3078 17.2539H21.6299V17.54L19.0174 15.28V11.0395H15.0991L12.8287 9.02362H20.9879C21.6096 8.77953 21.8636 8.73046 22.0711 8.6315C22.1963 8.57162 22.2799 8.49636 22.3472 8.38409C22.4404 8.22774 22.4944 8.0402 22.5086 7.64975H22.509ZM4.85869 7.64975H3.59709H4.85828H4.85869ZM13.3992 2H13.9672C16.9449 2 19.3592 4.40303 19.3592 7.36699V7.64975H17.0888V7.36699C17.0888 5.6509 15.6912 4.25957 13.9672 4.25957H13.3996C12.7435 4.25867 12.1038 4.46453 11.5714 4.84791C11.0389 5.23129 10.6408 5.77269 10.4336 6.39522L8.72332 4.69327C9.19764 3.87324 9.87955 3.1926 10.7005 2.71981C11.5214 2.24701 12.4523 1.99875 13.3996 2H13.3992Z" fill="black"/>
</g>
</svg>
