<svg width="28" height="28" viewBox="0 0 28 28" fill="none" xmlns="http://www.w3.org/2000/svg">
<g id="Group 2085666725">
<path id="Vector" d="M14.0833 10.25V15.0833M14.0833 15.0833H10.4583C8.17942 15.0833 7.04117 15.0833 6.33308 15.7914C5.625 16.4995 5.625 17.6378 5.625 19.9167M14.0833 15.0833H17.7083C19.9873 15.0833 21.1255 15.0833 21.8336 15.7914C22.5417 16.4995 22.5417 17.6378 22.5417 19.9167M5.625 19.9167C3.91521 19.9167 3.06092 19.9167 2.53167 20.4483C2 20.9788 2 21.8331 2 23.5417C2 24.0033 2 24.402 2.01088 24.75M5.625 19.9167C7.33479 19.9167 8.18788 19.9167 8.71833 20.4483C9.25 20.9776 9.25 21.8319 9.25 23.5417C9.25 24.0033 9.25 24.402 9.23913 24.75M22.5417 19.9167C20.8319 19.9167 19.9776 19.9167 19.4483 20.4483C18.9167 20.9788 18.9167 21.8331 18.9167 23.5417C18.9167 24.0033 18.9167 24.402 18.9275 24.75M22.5417 19.9167C24.2515 19.9167 25.1045 19.9167 25.635 20.4483C26.1667 20.9788 26.1667 21.8331 26.1667 23.5417C26.1667 24.0033 26.1667 24.402 26.1558 24.75M12.0123 3H16.1544C18.6629 3 18.9167 4.34125 18.9167 6.625C18.9167 8.90875 18.6617 10.25 16.1544 10.25H12.0123C9.50375 10.25 9.25 8.90875 9.25 6.625C9.25 4.34125 9.50496 3 12.0123 3Z" stroke="black" stroke-width="2" stroke-linecap="round" stroke-linejoin="round"/>
</g>
</svg>
