<svg width="28" height="28" viewBox="0 0 28 28" fill="none" xmlns="http://www.w3.org/2000/svg">
<g id="Group 2085666726">
<path id="Vector" d="M17.8598 20.4926L17.8891 20.4633V20.4219V20.4203V20.3789L17.8598 20.3496L8.6504 11.1402L8.5797 11.0695L8.50899 11.1402L5.21837 14.4293L5.21833 14.4292L5.216 14.4317L4.94881 14.7177L4.94878 14.7176L4.94701 14.7196C3.93844 15.8586 3.35322 17.3103 3.28994 18.8303C3.22785 20.3214 3.67178 21.7889 4.54816 22.9948L1.92931 25.6121L1.85852 25.6828L1.92933 25.7536L3.24808 27.0708L3.31881 27.1414L3.38948 27.0707L6.00672 24.4519L6.25047 24.6225L6.25044 24.6226L6.25277 24.6241C7.52448 25.4625 9.04654 25.8364 10.562 25.6826C12.0774 25.5288 13.4933 24.8569 14.5707 23.7801L14.5 23.7094L14.5707 23.7801L17.8598 20.4926ZM8.5782 13.9806L15.0172 20.4211L13.1133 22.3234L12.8737 22.5475C12.0429 23.2666 10.98 23.6608 9.88117 23.6575C8.78221 23.6541 7.7216 23.2532 6.89515 22.5289L6.67569 22.3248L6.45279 22.0819C5.73439 21.2512 5.34054 20.1888 5.34391 19.0905C5.34728 17.9924 5.74759 16.9324 6.47099 16.1062L6.67816 15.8851L8.5782 13.9806ZM27.1 3.31562V3.0742L26.9993 3.17494L25.7551 1.92933L25.6844 1.85854L25.6137 1.92929L22.9948 4.54814C21.7341 3.63072 20.1887 3.18778 18.6316 3.29934C17.0457 3.41298 15.5538 4.09425 14.4293 5.21834L14.4293 5.21839L11.1418 8.50901L11.0711 8.57969L11.1418 8.65037L13.043 10.5531L11.798 11.798L11.7273 11.8687L11.798 11.9395L13.1137 13.2551L13.1844 13.3258L13.2551 13.2551L14.5 12.0102L16.9898 14.5L15.7449 15.7449L15.6742 15.8157L15.745 15.8864L17.0606 17.2004L17.1312 17.2709L17.2018 17.2005L18.4483 15.9585L20.3496 17.8598L20.4203 17.9305L20.491 17.8598L23.7816 14.5707L23.7817 14.5707C24.9058 13.4462 25.587 11.9543 25.7007 10.3684C25.8122 8.81131 25.3693 7.26594 24.4519 6.00519L26.9992 3.45787L27.1 3.55881V3.31719V3.31562ZM22.3231 13.1136L22.323 13.1137L20.4218 15.0164L13.9851 8.5796L15.8851 6.67508L16.1061 6.46954C16.9748 5.70814 18.1004 5.30549 19.255 5.34323C20.4004 5.38068 21.4893 5.84885 22.3043 6.65362L22.3221 6.67279L22.5289 6.89516C23.2901 7.76401 23.6925 8.8898 23.6544 10.0443C23.6164 11.1994 23.1404 12.2967 22.3231 13.1136Z" fill="black" stroke="black" stroke-width="0.2"/>
</g>
</svg>
