<svg width="84" height="85" viewBox="0 0 84 85" fill="none" xmlns="http://www.w3.org/2000/svg">
<g id="Group 8">
<rect id="Rectangle 6" y="0.0527344" width="84" height="84" rx="11.0268" fill="#F1F1F1" fill-opacity="0.49"/>
<g id="Group 2085666715">
<path id="Vector" d="M31.35 42.5001V42.5C31.35 36.349 36.349 31.35 42.5 31.35C48.436 31.35 53.2748 35.9767 53.6238 41.8196L49.8776 40.6957C49.5617 39.4004 48.9105 38.2107 47.9889 37.2463C47.054 36.268 45.8747 35.5571 44.573 35.1871C43.2714 34.8171 41.8945 34.8015 40.5848 35.1419C39.275 35.4822 38.0799 36.1662 37.1231 37.1231C36.1662 38.0799 35.4822 39.275 35.1419 40.5848C34.8015 41.8945 34.8171 43.2714 35.1871 44.573C35.5571 45.8747 36.268 47.054 37.2463 47.9889C38.2107 48.9105 39.4004 49.5617 40.6957 49.8776L41.8196 53.6238C39.0116 53.4553 36.3692 52.2299 34.4258 50.1912C32.4498 48.1183 31.3482 45.3639 31.35 42.5001ZM54.1496 50.3927L53.9958 50.444L54.1107 50.5584L62.0647 58.4752L58.4938 62.0461L50.5582 54.1105L50.4439 53.9962L50.3927 54.1496L48.1301 60.9191L42.6491 42.6491L60.9191 48.1301L54.1496 50.3927ZM61.15 42.5C61.15 43.0199 61.1339 43.5387 61.087 44.0568L57.5878 43.0088C57.6 42.8398 57.6 42.6621 57.6 42.5025V42.5C57.6 34.1573 50.8427 27.4 42.5 27.4C34.1573 27.4 27.4 34.1573 27.4 42.5C27.4 50.8427 34.1573 57.6 42.5 57.6H42.5026C42.6622 57.6 42.8399 57.6 43.0088 57.5878L44.0568 61.087C43.5387 61.1339 43.0199 61.15 42.5 61.15C32.2052 61.15 23.85 52.7948 23.85 42.5C23.85 32.2052 32.2052 23.85 42.5 23.85C52.7948 23.85 61.15 32.2052 61.15 42.5Z" fill="#5D34E0" stroke="#F6F6F7" stroke-width="0.2"/>
</g>
</g>
</svg>
