<svg width="84" height="85" viewBox="0 0 84 85" fill="none" xmlns="http://www.w3.org/2000/svg">
<g id="Group 8">
<rect id="Rectangle 6" y="0.0527344" width="84" height="84" rx="11.0268" fill="#F1F1F1" fill-opacity="0.49"/>
<g id="Frame" clip-path="url(#clip0_11465_134587)">
<path id="Vector" d="M53.25 23.3125H30.75C27.9166 23.3161 25.2003 24.4432 23.1967 26.4467C21.1932 28.4503 20.0661 31.1666 20.0625 34V52C20.0693 52.819 20.1705 53.6335 20.3663 54.4277C20.3888 54.5335 20.4202 54.637 20.463 54.736C21.0626 57.0093 22.396 59.021 24.2561 60.4588C26.1162 61.8966 28.399 62.68 30.75 62.6875H53.25C56.0834 62.6839 58.7997 61.5568 60.8033 59.5533C62.8068 57.5497 63.9339 54.8334 63.9375 52V34C63.9339 31.1666 62.8068 28.4503 60.8033 26.4467C58.7997 24.4432 56.0834 23.3161 53.25 23.3125ZM30.75 26.6875H53.25C55.1887 26.6899 57.0472 27.4611 58.4181 28.8319C59.7889 30.2028 60.5601 32.0613 60.5625 34V45.6752L51.54 36.6528C50.7996 35.9136 49.7962 35.4984 48.75 35.4984C47.7038 35.4984 46.7004 35.9136 45.96 36.6528L35.25 47.3627L33.54 45.6528C32.7996 44.9136 31.7962 44.4984 30.75 44.4984C29.7038 44.4984 28.7004 44.9136 27.96 45.6528L23.4375 50.1753V34C23.4399 32.0613 24.2111 30.2028 25.5819 28.8319C26.9528 27.4611 28.8113 26.6899 30.75 26.6875ZM53.25 59.3125H30.75C29.2508 59.3082 27.7892 58.8425 26.5638 57.9787C25.3385 57.1148 24.4088 55.8947 23.901 54.484L30.345 48.04C30.3898 47.9741 30.45 47.9202 30.5204 47.8829C30.5908 47.8456 30.6692 47.8261 30.7489 47.8261C30.8285 47.8261 30.907 47.8456 30.9774 47.8829C31.0478 47.9202 31.108 47.9741 31.1527 48.04L33.2678 50.155C33.794 50.6789 34.5063 50.973 35.2489 50.973C35.9914 50.973 36.7038 50.6789 37.23 50.155L48.345 39.04C48.57 38.8195 48.93 38.8195 49.1528 39.04L60.5602 50.4475V52C60.5591 53.9386 59.7886 55.7976 58.4179 57.1686C57.0473 58.5396 55.1886 59.3107 53.25 59.3125ZM30.75 36.25C30.75 35.9545 30.8081 35.6619 30.9212 35.3889C31.0342 35.1158 31.2 34.8678 31.4089 34.6588C31.6178 34.4498 31.8659 34.2841 32.1389 34.171C32.4119 34.0579 32.7045 33.9997 33 33.9997C33.2955 33.9997 33.5881 34.0579 33.8611 34.171C34.1341 34.2841 34.3822 34.4498 34.5911 34.6588C34.8 34.8678 34.9658 35.1158 35.0788 35.3889C35.1919 35.6619 35.25 35.9545 35.25 36.25C35.2499 36.8467 35.0128 37.4189 34.5909 37.8408C34.1689 38.2627 33.5967 38.4997 33 38.4997C32.4033 38.4997 31.8311 38.2627 31.4091 37.8408C30.9872 37.4189 30.7501 36.8467 30.75 36.25Z" fill="#5D34E0"/>
</g>
</g>
<defs>
<clipPath id="clip0_11465_134587">
<rect width="54" height="54" fill="white" transform="translate(15 16)"/>
</clipPath>
</defs>
</svg>
