<svg width="84" height="85" viewBox="0 0 84 85" fill="none" xmlns="http://www.w3.org/2000/svg">
<g id="Group 8">
<rect id="Rectangle 6" y="0.0527344" width="84" height="84" rx="11.0268" fill="#F1F1F1" fill-opacity="0.49"/>
<g id="Frame">
<path id="Vector" d="M26.6693 37.2493V56.8165C26.6691 56.9752 26.7084 57.1314 26.7835 57.2712C26.8586 57.4109 26.9673 57.5298 27.0997 57.6172C27.2322 57.7046 27.3842 57.7578 27.5422 57.7719C27.7003 57.786 27.8594 57.7607 28.0052 57.6982L34.7423 54.8098C35.2546 54.5903 35.8086 54.4851 36.3657 54.5017C36.9228 54.5182 37.4696 54.6561 37.968 54.9056L46.2864 59.0648C46.7847 59.3143 47.3315 59.4521 47.8887 59.4687C48.4458 59.4852 48.9998 59.3801 49.5121 59.1606L56.1744 56.3009C56.5194 56.153 56.8134 55.9071 57.0199 55.5936C57.2264 55.2802 57.3363 54.913 57.3359 54.5376V32.9559C57.3359 32.4476 57.5379 31.9601 57.8973 31.6007C58.2568 31.2412 58.7443 31.0393 59.2526 31.0393C59.7609 31.0393 60.2484 31.2412 60.6079 31.6007C60.9673 31.9601 61.1693 32.4476 61.1693 32.9559V55.8064C61.1692 56.5565 60.9491 57.2901 60.5361 57.9163C60.1232 58.5425 59.5357 59.0337 58.8463 59.3293L49.3875 63.3849C48.8752 63.6044 48.3212 63.7096 47.7641 63.693C47.207 63.6765 46.6602 63.5386 46.1618 63.2891L37.8434 59.1299C37.3451 58.8804 36.7983 58.7426 36.2411 58.726C35.684 58.7095 35.13 58.8146 34.6177 59.0341L26.8437 62.3672C26.4062 62.5547 25.929 62.6307 25.4549 62.5883C24.9808 62.5459 24.5246 62.3865 24.1273 62.1243C23.73 61.8621 23.4041 61.5054 23.1787 61.0861C22.9533 60.6668 22.8355 60.1982 22.8359 59.7222V37.2493C22.8359 36.7409 23.0379 36.2534 23.3973 35.894C23.7568 35.5345 24.2443 35.3326 24.7526 35.3326C25.2609 35.3326 25.7484 35.5345 26.1079 35.894C26.4673 36.2534 26.6693 36.7409 26.6693 37.2493ZM50.135 43.465L43.3577 50.2404C42.9983 50.5998 42.5108 50.8016 42.0026 50.8016C41.4944 50.8016 41.0069 50.5998 40.6475 50.2404L33.8702 43.465C32.2621 41.8566 31.167 39.8075 30.7234 37.5768C30.2799 35.3461 30.5077 33.0339 31.3782 30.9327C32.2486 28.8314 33.7226 27.0355 35.6138 25.7719C37.5049 24.5084 39.7282 23.834 42.0026 23.834C44.277 23.834 46.5003 24.5084 48.3915 25.7719C50.2826 27.0355 51.7566 28.8314 52.627 30.9327C53.4975 33.0339 53.7254 35.3461 53.2818 37.5768C52.8382 39.8075 51.7431 41.8566 50.135 43.465ZM43.3577 44.8201L47.4229 40.7529C48.4954 39.6808 49.2258 38.3148 49.5218 36.8275C49.8178 35.3403 49.6661 33.7986 49.0859 32.3976C48.5057 30.9966 47.523 29.7991 46.2622 28.9565C45.0014 28.114 43.519 27.6643 42.0026 27.6643C40.4862 27.6643 39.0038 28.114 37.743 28.9565C36.4822 29.7991 35.4995 30.9966 34.9193 32.3976C34.3391 33.7986 34.1874 35.3403 34.4834 36.8275C34.7794 38.3148 35.5098 39.6808 36.5823 40.7529L40.6475 44.8201C41.0069 45.1794 41.4944 45.3813 42.0026 45.3813C42.5108 45.3813 42.9983 45.1794 43.3577 44.8201Z" fill="#5D34E0"/>
</g>
</g>
</svg>
