<svg width="84" height="85" viewBox="0 0 84 85" fill="none" xmlns="http://www.w3.org/2000/svg">
<g id="Group 8">
<rect id="Rectangle 6" y="0.0527344" width="84" height="84" rx="11.0268" fill="#F1F1F1" fill-opacity="0.49"/>
<g id="Frame">
<path id="Vector" d="M58.478 57.7733H25.5234C24.7702 57.7727 24.0479 57.4732 23.5153 56.9405C22.9826 56.4079 22.6831 55.6856 22.6825 54.9324V32.2255L39.5632 45.3119C40.2605 45.8532 41.118 46.147 42.0007 46.147C42.8834 46.147 43.741 45.8532 44.4382 45.3119L61.3189 32.2255V54.9324C61.3189 56.4994 60.045 57.7733 58.478 57.7733ZM58.478 29.3642C58.7575 29.3642 59.0223 29.4176 59.278 29.4926L42.3496 42.6176C42.25 42.6955 42.1272 42.7379 42.0007 42.7379C41.8742 42.7379 41.7514 42.6955 41.6518 42.6176L24.7234 29.4926C24.9791 29.4176 25.2439 29.3642 25.5234 29.3642H58.478ZM58.478 25.9551H25.5234C23.8665 25.9572 22.278 26.6163 21.1063 27.788C19.9347 28.9596 19.2755 30.5481 19.2734 32.2051V54.9324C19.2734 58.3778 22.078 61.1824 25.5234 61.1824H58.478C61.9234 61.1824 64.728 58.3778 64.728 54.9324V32.2051C64.728 28.7596 61.9234 25.9551 58.478 25.9551Z" fill="#5D34E0"/>
</g>
</g>
</svg>
