<svg width="84" height="85" viewBox="0 0 84 85" fill="none" xmlns="http://www.w3.org/2000/svg">
<g id="Group 8">
<rect id="Rectangle 6" y="0.0527344" width="84" height="84" rx="11.0268" fill="#F1F1F1" fill-opacity="0.49"/>
<g id="Frame">
<g id="Group">
<path id="Vector" d="M41.4948 62.9154C52.7706 62.9154 61.9115 53.7745 61.9115 42.4987C61.9115 31.2229 52.7706 22.082 41.4948 22.082C30.219 22.082 21.0781 31.2229 21.0781 42.4987C21.0781 53.7745 30.219 62.9154 41.4948 62.9154Z" stroke="#5D34E0" stroke-width="3.0625" stroke-linecap="round" stroke-linejoin="round"/>
<path id="Vector_2" d="M41.4948 50.6654C46.0051 50.6654 49.6615 47.009 49.6615 42.4987C49.6615 37.9884 46.0051 34.332 41.4948 34.332C36.9845 34.332 33.3281 37.9884 33.3281 42.4987C33.3281 47.009 36.9845 50.6654 41.4948 50.6654Z" stroke="#5D34E0" stroke-width="3.0625" stroke-linecap="round" stroke-linejoin="round"/>
<path id="Vector_3" d="M41.4922 34.3314H59.8672M49.6589 42.498V60.873M33.3255 42.498V24.123M41.4922 50.6647H23.1172" stroke="#5D34E0" stroke-width="3.0625" stroke-linecap="round" stroke-linejoin="round"/>
</g>
</g>
</g>
</svg>
