<svg width="84" height="85" viewBox="0 0 84 85" fill="none" xmlns="http://www.w3.org/2000/svg">
<g id="Group 8">
<rect id="Rectangle 6" y="0.0527344" width="84" height="84" rx="11.0268" fill="#F1F1F1" fill-opacity="0.49"/>
<g id="Group 2085666712">
<path id="Vector" d="M57.7608 60.7316H24.1599C23.9717 60.7316 23.7853 60.6945 23.6114 60.6225C23.4375 60.5504 23.2795 60.4449 23.1464 60.3118C23.0133 60.1787 22.9077 60.0207 22.8357 59.8468C22.7636 59.6729 22.7266 59.4865 22.7266 59.2982V25.7009C22.7266 25.3208 22.8776 24.9562 23.1464 24.6874C23.4152 24.4186 23.7798 24.2676 24.1599 24.2676C24.54 24.2676 24.9046 24.4186 25.1734 24.6874C25.4422 24.9562 25.5932 25.3208 25.5932 25.7009V57.8649H57.7608C58.141 57.8649 58.5055 58.0159 58.7743 58.2847C59.0431 58.5535 59.1941 58.9181 59.1941 59.2982C59.1941 59.6784 59.0431 60.043 58.7743 60.3118C58.5055 60.5806 58.141 60.7316 57.7608 60.7316Z" fill="#5D34E0" stroke="#5D34E0" stroke-width="0.6"/>
<path id="Vector_2" d="M29.7051 51.7445C29.4236 51.7426 29.149 51.658 28.9153 51.501C28.6817 51.3441 28.4994 51.1218 28.3913 50.8619C28.2831 50.6021 28.2539 50.3161 28.3072 50.0398C28.3605 49.7634 28.494 49.5088 28.691 49.3078L38.6348 39.3677C38.768 39.2346 38.9261 39.1291 39.1001 39.0572C39.2741 38.9852 39.4606 38.9483 39.6488 38.9484C39.8374 38.9487 40.024 38.9863 40.198 39.0588C40.372 39.1314 40.53 39.2375 40.6629 39.3713L45.3893 44.1371L53.2727 36.2538C53.4046 36.1152 53.5629 36.0044 53.7383 35.928C53.9136 35.8515 54.1026 35.811 54.2939 35.8087C54.4852 35.8064 54.675 35.8425 54.8521 35.9147C55.0293 35.9869 55.1902 36.0939 55.3253 36.2293C55.4605 36.3647 55.5672 36.5258 55.6391 36.7031C55.711 36.8804 55.7467 37.0702 55.7441 37.2615C55.7415 37.4528 55.7006 37.6417 55.6239 37.8169C55.5471 37.9922 55.4361 38.1503 55.2973 38.2819L46.4106 47.1686C46.1424 47.4364 45.7791 47.5872 45.4001 47.5878C45.2093 47.5913 45.0197 47.5566 44.8425 47.4859C44.6653 47.4151 44.504 47.3097 44.3681 47.1758L39.6309 42.4135L30.7192 51.3253C30.586 51.4583 30.4278 51.5638 30.2538 51.6358C30.0798 51.7077 29.8934 51.7446 29.7051 51.7445Z" fill="#5D34E0" stroke="#5D34E0" stroke-width="0.6"/>
<path id="Vector_3" d="M58.8473 40.6353V33.3504C58.8473 33.1803 58.7797 33.0171 58.6594 32.8969C58.5391 32.7766 58.3759 32.709 58.2058 32.709H50.9209C50.7979 32.7123 50.6785 32.751 50.5768 32.8203C50.4752 32.8897 50.3956 32.9868 50.3476 33.1001C50.2997 33.2134 50.2853 33.3382 50.3062 33.4594C50.3272 33.5807 50.3826 33.6933 50.4658 33.784L57.7543 41.0689C57.8429 41.1568 57.9552 41.217 58.0775 41.242C58.1998 41.2671 58.3267 41.2559 58.4427 41.2099C58.5587 41.1639 58.6588 41.085 58.7307 40.9829C58.8025 40.8809 58.843 40.7601 58.8473 40.6353Z" fill="#5D34E0" stroke="#5D34E0" stroke-width="0.6"/>
</g>
</g>
</svg>
