<svg width="84" height="85" viewBox="0 0 84 85" fill="none" xmlns="http://www.w3.org/2000/svg">
<g id="Group 8">
<rect id="Rectangle 6" y="0.0527344" width="84" height="84" rx="11.0268" fill="#F1F1F1" fill-opacity="0.49"/>
<g id="Group 2085666713">
<path id="Vector" d="M50.6621 32.4726H33.7364V28.96C33.7364 27.6096 34.8585 26.6849 36.259 26.6849H48.1395C49.54 26.6849 50.6621 27.6096 50.6621 28.96V32.4726ZM28.5862 60.0987H55.8123C59.3879 60.0987 62.2 57.2865 62.2 53.7109V38.8604C62.2 35.2848 59.3879 32.4726 55.8123 32.4726H53.5372V28.96C53.5372 26.1206 51.2136 23.8098 48.1395 23.8098H36.259C33.1849 23.8098 30.8613 26.1206 30.8613 28.96V32.4726H28.5862C25.0106 32.4726 22.1984 35.2848 22.1984 38.8604V53.7109C22.1984 57.2865 25.0106 60.0987 28.5862 60.0987ZM25.0735 38.8604C25.0735 36.9907 26.7166 35.3477 28.5862 35.3477H55.8123C57.6819 35.3477 59.3249 36.9907 59.3249 38.8604V53.7109C59.3249 55.5806 57.6819 57.2236 55.8123 57.2236H28.5862C26.7166 57.2236 25.0735 55.5806 25.0735 53.7109V38.8604Z" fill="#5D34E0" stroke="#5D34E0" stroke-width="0.4"/>
<path id="Vector_2" d="M50.8601 42.5728H33.5344C32.7919 42.5728 32.2969 42.0777 32.2969 41.3352C32.2969 40.5927 32.7919 40.0977 33.5344 40.0977H50.8601C51.6026 40.0977 52.0977 40.5927 52.0977 41.3352C52.0977 42.0777 51.6026 42.5728 50.8601 42.5728Z" fill="#5D34E0" stroke="#5D34E0" stroke-width="0.6"/>
</g>
</g>
</svg>
