<svg width="84" height="85" viewBox="0 0 84 85" fill="none" xmlns="http://www.w3.org/2000/svg">
<g id="Group 8">
<rect id="Rectangle 6" y="0.0527344" width="84" height="84" rx="11.0268" fill="#F1F1F1" fill-opacity="0.49"/>
<g id="Frame">
<path id="Vector" d="M51.0965 48.8916L51.0322 48.9621L51.0996 49.0296L59.3377 57.2798C59.7156 57.7225 59.913 58.2914 59.8906 58.8732C59.8681 59.4562 59.6264 60.0093 59.2138 60.4219C58.8012 60.8345 58.2481 61.0762 57.6651 61.0987C57.0833 61.1212 56.5144 60.9238 56.0716 60.5458L47.4469 51.9332L47.3928 51.8791L47.3264 51.9172C43.9177 53.8726 39.8968 54.4702 36.0668 53.5907C32.2367 52.7112 28.8793 50.4193 26.6651 47.1728C24.4509 43.9262 23.5428 39.9639 24.1222 36.0771C24.7016 32.1902 26.7258 28.665 29.7906 26.2054C32.8554 23.7457 36.7352 22.5326 40.6553 22.8084C44.5754 23.0842 48.2472 24.8285 50.9374 27.6931C53.6276 30.5576 55.1384 34.3315 55.1678 38.2612C55.1973 42.1908 53.7434 45.987 51.0965 48.8916ZM30.4571 32.2765C29.2511 34.0814 28.6075 36.2033 28.6075 38.3739C28.6075 41.2847 29.7637 44.0762 31.822 46.1344C33.8802 48.1926 36.6717 49.3489 39.5825 49.3489C41.7531 49.3489 43.875 48.7052 45.6798 47.4993C47.4847 46.2933 48.8914 44.5793 49.722 42.5739C50.5527 40.5684 50.77 38.3617 50.3466 36.2328C49.9231 34.1039 48.8778 32.1483 47.343 30.6134C45.8081 29.0785 43.8525 28.0333 41.7236 27.6098C39.5946 27.1863 37.3879 27.4037 35.3825 28.2343C33.3771 29.065 31.663 30.4717 30.4571 32.2765Z" fill="#5D34E0" stroke="#F6F6F7" stroke-width="0.2"/>
</g>
</g>
</svg>
