<svg width="36" height="36" viewBox="0 0 36 36" fill="none" xmlns="http://www.w3.org/2000/svg">
<g id="Group 2085667139">
<g id="Group 2085667138">
<circle id="Ellipse 2" cx="18" cy="18" r="17" fill="white"/>
<path id="Vector" d="M18.4881 11C15.6749 11.0009 13.0992 12.5803 11.8197 15.0888C10.5401 17.5974 10.7723 20.6124 12.4209 22.8949L11.7468 24.9499C11.7005 25.084 11.7356 25.2329 11.8368 25.3325C11.9362 25.4333 12.0832 25.4709 12.2188 25.43L14.3536 24.7401C17.0249 26.5233 20.534 26.404 23.0782 24.443C25.6223 22.482 26.6354 19.1159 25.5968 16.0741C24.5577 13.032 21.6986 10.9912 18.4881 11ZM22.8474 21.5897C22.5356 22.1529 21.9839 22.5422 21.3492 22.6472C20.9597 22.7296 20.4429 22.7971 18.7275 22.0848C17.2026 21.3465 15.9077 20.2055 14.9823 18.7848C14.4745 18.1366 14.1649 17.3553 14.0909 16.5348C14.0672 15.8455 14.34 15.1793 14.8399 14.7048C15.0479 14.5257 15.3145 14.4294 15.5888 14.4347H15.8359C16.0532 14.4347 16.1655 14.4347 16.3152 14.8023C16.4651 15.1697 16.9294 16.3023 16.9819 16.4223C17.0617 16.5423 17.076 16.6948 17.0194 16.8273C16.9551 16.9543 16.8717 17.0705 16.7721 17.1722C16.6672 17.2997 16.5548 17.3972 16.4499 17.5321C16.3005 17.6415 16.2614 17.8481 16.36 18.0047C16.69 18.5606 17.0988 19.066 17.5735 19.5048C18.0863 19.9754 18.6837 20.3446 19.3336 20.5922C19.5083 20.6772 19.7177 20.6445 19.8579 20.5098C20.0683 20.2725 20.2634 20.022 20.4421 19.7599C20.5551 19.5769 20.7879 19.5087 20.9815 19.6023C21.1836 19.6698 22.2547 20.2022 22.4794 20.3072C22.7041 20.4122 22.8463 20.4722 22.8987 20.5623C22.9773 20.9029 22.9591 21.2588 22.8463 21.5897H22.8474Z" fill="black"/>
</g>
</g>
</svg>
