<svg width="34" height="34" viewBox="0 0 34 34" fill="none" xmlns="http://www.w3.org/2000/svg">
<g id="Group 11">
<g id="Group 6">
<circle id="Ellipse 1" cx="17" cy="17" r="17" fill="white"/>
</g>
<g id="Socials">
<path id="LinkedIn" d="M23.6842 10C24.2434 10 24.7368 10.4934 24.7368 11.0855V23.6842C24.7368 24.2763 24.2434 24.7368 23.6842 24.7368H11.0197C10.4605 24.7368 10 24.2763 10 23.6842V11.0855C10 10.4934 10.4605 10 11.0197 10H23.6842ZM14.4408 22.6316V15.625H12.2697V22.6316H14.4408ZM13.3553 14.6382C14.0461 14.6382 14.6053 14.0789 14.6053 13.3882C14.6053 12.6974 14.0461 12.1053 13.3553 12.1053C12.6316 12.1053 12.0724 12.6974 12.0724 13.3882C12.0724 14.0789 12.6316 14.6382 13.3553 14.6382ZM22.6316 22.6316V18.7829C22.6316 16.9079 22.2039 15.4276 20 15.4276C18.9474 15.4276 18.2237 16.0197 17.9276 16.5789H17.8947V15.625H15.8224V22.6316H17.9934V19.1776C17.9934 18.2566 18.1579 17.3684 19.3092 17.3684C20.4276 17.3684 20.4276 18.4211 20.4276 19.2105V22.6316H22.6316Z" fill="black"/>
</g>
</g>
</svg>
