<svg width="34" height="34" viewBox="0 0 34 34" fill="none" xmlns="http://www.w3.org/2000/svg">
<g id="Group 8">
<circle id="Ellipse 1" cx="17" cy="17" r="17" fill="white"/>
<g id="discord-icon-svgrepo-com 1">
<g id="Group">
<path id="Vector" d="M21.8593 12.4662C20.9531 12.0422 19.9841 11.7341 18.971 11.5586C18.8466 11.7835 18.7013 12.0861 18.601 12.3268C17.5241 12.1648 16.4571 12.1648 15.4 12.3268C15.2998 12.0861 15.1512 11.7835 15.0256 11.5586C14.0115 11.7341 13.0414 12.0433 12.1351 12.4685C10.3072 15.2307 9.81169 17.9243 10.0595 20.5796C11.2718 21.485 12.4467 22.035 13.6018 22.3948C13.887 22.0023 14.1414 21.5851 14.3605 21.1453C13.9432 20.9867 13.5435 20.7911 13.1658 20.5639C13.266 20.4896 13.364 20.412 13.4587 20.3322C15.7623 21.4096 18.2652 21.4096 20.5413 20.3322C20.6371 20.412 20.7351 20.4896 20.8342 20.5639C20.4554 20.7922 20.0546 20.9879 19.6372 21.1465C19.8563 21.5851 20.1096 22.0035 20.3959 22.396C21.5521 22.0361 22.7281 21.4861 23.9405 20.5796C24.2312 17.5014 23.4439 14.8325 21.8593 12.4662ZM14.6744 18.9466C13.9828 18.9466 13.4157 18.301 13.4157 17.5149C13.4157 16.7287 13.9707 16.082 14.6744 16.082C15.378 16.082 15.9451 16.7276 15.933 17.5149C15.9341 18.301 15.378 18.9466 14.6744 18.9466ZM19.3256 18.9466C18.6341 18.9466 18.067 18.301 18.067 17.5149C18.067 16.7287 18.622 16.082 19.3256 16.082C20.0292 16.082 20.5963 16.7276 20.5842 17.5149C20.5842 18.301 20.0292 18.9466 19.3256 18.9466Z" fill="black"/>
</g>
</g>
</g>
</svg>
