<svg width="36" height="36" viewBox="0 0 36 36" fill="none" xmlns="http://www.w3.org/2000/svg">
<g id="Group 2085667141">
<circle id="Ellipse 1" cx="18" cy="18" r="17" fill="white"/>
<g id="Vector">
<path d="M19.1861 15.5139C20.4352 15.2962 21.2928 14.2073 21.1498 13.0199C21.007 11.8328 19.9122 10.9517 18.6431 11.0021C17.3737 11.0524 16.362 12.0173 16.3261 13.2117H17.504C18.4331 13.2117 19.1861 13.9199 19.1861 14.7937V15.5139ZM14.8911 22.7915H17.5042C18.4333 22.7915 19.1863 22.0832 19.1863 21.2095V16.2504H21.9694C22.3552 16.2596 22.6604 16.5609 22.6514 16.9238V20.9623C22.7051 23.1396 20.8733 24.9465 18.5583 25C16.9403 24.9623 15.5582 24.0689 14.8913 22.7898L14.8911 22.7915ZM25.6283 13.9772C25.6283 14.847 24.8785 15.5521 23.9538 15.5521C23.029 15.5521 22.2792 14.847 22.2792 13.9772C22.2792 13.1075 23.029 12.4024 23.9538 12.4024C24.8785 12.4024 25.6283 13.1075 25.6283 13.9772ZM23.3902 22.9008C23.3501 22.9008 23.3101 22.9008 23.27 22.899C23.5371 22.2813 23.6668 21.6188 23.651 20.9521V16.9333C23.6551 16.6983 23.6039 16.4656 23.5009 16.2515H25.293C25.683 16.2515 26 16.5497 26 16.9164V20.4575C26 21.1055 25.7263 21.727 25.2391 22.1852C24.7519 22.6434 24.0911 22.9008 23.4021 22.9008H23.3902Z" fill="black"/>
<path d="M10.682 14.1523H17.504C17.881 14.1523 18.186 14.4391 18.186 14.7937V21.2098C18.186 21.564 17.8806 21.8511 17.504 21.8511H10.682C10.3053 21.8511 10 21.564 10 21.2098V14.7927C10 14.4381 10.3049 14.1514 10.682 14.1514V14.1523ZM15.8879 16.5938V15.9166H12.298V16.5938H13.6549V20.0878H14.525V16.5938H15.8879Z" fill="black"/>
</g>
</g>
</svg>
