<svg width="165" height="34" viewBox="0 0 165 34" fill="none" xmlns="http://www.w3.org/2000/svg">
<g clip-path="url(#clip0_10776_134673)">
<path d="M0.827458 21.973L0.652344 22.2737H1.00028H9.04619H9.15779L9.2164 22.1787L16.7522 9.96632L20.5464 16.0168C20.6514 16.1843 20.8951 16.1851 21.0011 16.0183L25.1698 9.46614C25.2252 9.37901 25.2259 9.26782 25.1714 9.18004L21.7229 3.61849C19.3371 -0.229346 13.7134 -0.150822 11.4347 3.76111L0.827458 21.973Z" fill="url(#paint0_linear_10776_134673)"/>
<path d="M21.0011 16.0183C20.8951 16.1851 20.6514 16.1843 20.5464 16.0168L16.7522 9.96632L9.2164 22.1787L9.15779 22.2737H9.04619H1.00028H0.652344L0.827458 21.973L11.4347 3.76111C13.7134 -0.150822 19.3371 -0.229346 21.7229 3.61849L25.1714 9.18004C25.2259 9.26782 25.2252 9.37901 25.1698 9.46614L21.0011 16.0183ZM21.0011 16.0183L20.8324 15.911" stroke="url(#paint1_linear_10776_134673)" stroke-width="0.4"/>
<path d="M38.021 11.6288L38.1961 11.3281H37.8482H29.8023H29.6907L29.6321 11.4231L22.0963 23.6355L18.3021 17.585C18.1971 17.4176 17.9534 17.4168 17.8474 17.5835L13.6787 24.1357C13.6233 24.2228 13.6226 24.334 13.6771 24.4218L17.1256 29.9833C19.5114 33.8312 25.1351 33.7526 27.4138 29.8407L38.021 11.6288Z" fill="url(#paint2_linear_10776_134673)"/>
<path d="M27.4138 29.8407C25.1351 33.7526 19.5114 33.8312 17.1256 29.9833L13.6771 24.4218C13.6226 24.334 13.6233 24.2228 13.6787 24.1357L17.8474 17.5835C17.9534 17.4168 18.1971 17.4176 18.3021 17.585L22.0963 23.6355L29.6321 11.4231L29.6907 11.3281H29.8023H37.8482H38.1961L38.021 11.6288L27.4138 29.8407ZM27.4138 29.8407L27.241 29.74" stroke="url(#paint3_linear_10776_134673)" stroke-width="0.4"/>
<path d="M92.0704 26.9665L92.096 27.0281H92.1627H92.1703H96.2928H96.3594L96.3851 26.9667L103.599 9.72649L103.657 9.58789H103.507H99.0134H98.944L98.9197 9.65278L94.2541 22.097L89.5661 9.65263L89.5417 9.58789H89.4725H85.0014H84.8516L84.9091 9.72625L92.0704 26.9665Z" fill="black" stroke="black" stroke-width="0.2"/>
<path d="M51.1945 14.8534L51.1966 14.8504C51.5872 14.2609 52.1256 13.8101 52.8156 13.4836C53.5051 13.1574 54.2934 12.993 55.1827 12.993C56.5391 12.993 57.4559 13.3526 57.9746 14.044C58.2304 14.3901 58.4294 14.9222 58.5637 15.6506C58.6976 16.3777 58.7657 17.2919 58.7657 18.3947V27.0414V27.1414H58.8657H62.7532H62.8532V27.0414V16.8261C62.8532 15.2874 62.7852 14.2023 62.6541 13.5699C62.5231 12.9459 62.3068 12.396 62.0039 11.9222C61.493 11.1248 60.788 10.5209 59.8917 10.1191C58.9969 9.71801 57.9137 9.51172 56.6453 9.51172C55.1408 9.51172 53.8589 9.77901 52.7958 10.3182C51.8139 10.8163 50.9598 11.5887 50.2205 12.6249V9.81633V9.71633H50.1205H46.4906H46.3906V9.81633V27.0338V27.1338H46.4906H50.3479V27.049H50.4479V27.0338V26.9338V19.3799C50.4479 17.9936 50.501 16.9934 50.613 16.3662C50.7249 15.7397 50.9176 15.2396 51.1945 14.8534Z" fill="black" stroke="black" stroke-width="0.2"/>
<path d="M78.4328 14.7487C79.385 15.82 79.855 17.1219 79.855 18.6683C79.855 20.2144 79.3778 21.5164 78.4253 22.588C77.4735 23.6588 76.3181 24.1837 74.9611 24.1837C73.6044 24.1837 72.4489 23.6515 71.4968 22.588C70.5443 21.5164 70.0671 20.2144 70.0671 18.6683C70.0671 17.1222 70.5443 15.8202 71.4968 14.7487C72.4486 13.6779 73.604 13.153 74.9611 13.153C76.3182 13.153 77.4887 13.6855 78.4328 14.7487ZM71.512 27.1722C72.6074 27.6318 73.7423 27.8697 74.9307 27.8697C76.1181 27.8697 77.2908 27.6399 78.3799 27.1722C79.4765 26.712 80.4646 26.0299 81.3595 25.1274C82.2103 24.2766 82.8544 23.2951 83.2989 22.1838C83.7435 21.08 83.9653 19.8927 83.9653 18.6305C83.9653 17.3673 83.7431 16.2555 83.291 15.1521C82.8391 14.049 82.1878 13.0529 81.3222 12.1796C80.4572 11.2917 79.484 10.6171 78.395 10.1569C77.3057 9.69667 76.148 9.47461 74.9156 9.47461C73.6821 9.47461 72.5779 9.70466 71.4824 10.1566C70.3866 10.6164 69.4201 11.2682 68.5847 12.119C67.7345 12.9845 67.0831 13.973 66.631 15.0841C66.1789 16.1952 65.9492 17.375 65.9492 18.6229C65.9492 19.8702 66.1712 21.0502 66.6235 22.1543L66.6266 22.1611L66.6325 22.1729C67.0844 23.2745 67.7351 24.2769 68.5994 25.1642C69.4498 26.0452 70.4233 26.7122 71.512 27.1722Z" fill="black" stroke="black" stroke-width="0.2"/>
<path d="M122.816 10.2112V10.1112H122.716H118.858H118.758V10.2112V12.5059C118.299 11.6021 117.625 10.8626 116.71 10.3512C115.661 9.7653 114.408 9.47461 112.955 9.47461C110.564 9.47461 108.619 10.3112 107.128 11.9939C105.639 13.6755 104.898 15.8758 104.898 18.5926C104.898 21.4512 105.622 23.7128 107.083 25.3728C108.544 27.0346 110.544 27.8621 113.069 27.8621C114.324 27.8621 115.446 27.6247 116.425 27.1393C117.321 26.6949 118.098 26.0255 118.758 25.1636V27.0422V27.1422H118.858H122.716H122.816V27.0422V10.2112ZM117.583 22.6671L117.578 22.6724C116.681 23.7102 115.527 24.2216 114.099 24.2216C112.576 24.2216 111.416 23.7449 110.59 22.7935C109.763 21.84 109.342 20.4873 109.342 18.7062C109.342 16.9264 109.777 15.5733 110.636 14.5888C111.493 13.6061 112.668 13.1151 114.175 13.1151C115.683 13.1151 116.843 13.5916 117.677 14.5435C118.511 15.4954 118.872 16.8464 118.872 18.5698C118.872 20.2879 118.475 21.6252 117.588 22.6622L117.583 22.6671Z" fill="black" stroke="black" stroke-width="0.2"/>
<path d="M138.585 22.672L138.561 22.7001V22.7075C137.675 23.7186 136.522 24.2212 135.092 24.2212C133.569 24.2212 132.409 23.7444 131.583 22.793C130.755 21.8395 130.334 20.4869 130.334 18.7058C130.334 16.9259 130.77 15.5728 131.628 14.5884C132.485 13.6057 133.661 13.1146 135.168 13.1146C136.675 13.1146 137.835 13.5912 138.669 14.5431C139.502 15.4937 139.819 16.8433 139.819 18.5694C139.819 20.2923 139.473 21.644 138.585 22.672ZM139.713 12.5012C139.263 11.6008 138.624 10.862 137.71 10.3507C136.661 9.76484 135.408 9.47415 133.955 9.47415C131.564 9.47415 129.619 10.3108 128.128 11.9934C126.639 13.6751 125.898 15.8753 125.898 18.5921C125.898 21.4507 126.622 23.7123 128.083 25.3724C129.544 27.0341 131.544 27.8616 134.069 27.8616C135.324 27.8616 136.446 27.6242 137.425 27.1389C138.322 26.694 139.061 26.0244 139.713 25.1644V27.0417V27.1417H139.813H143.67H143.77V27.0417V1.79141V1.69141H143.67H139.813H139.713V1.79141V12.5012Z" fill="#6B41DE" stroke="#6B41DE" stroke-width="0.2"/>
<path d="M164.725 10.2112V10.1112H164.625H160.767H160.667V10.2112V12.5265C160.157 11.6065 159.287 10.8623 158.4 10.3518C157.381 9.76545 156.159 9.47461 154.743 9.47461C152.412 9.47461 150.519 10.312 149.067 11.9949C147.616 13.6766 146.898 15.8766 146.898 18.5926C146.898 21.4504 147.599 23.7117 149.021 25.3718C150.445 27.0339 152.391 27.8621 154.849 27.8621C156.075 27.8621 157.167 27.6246 158.123 27.1389C158.992 26.6972 159.97 26.028 160.667 25.1577V27.0422V27.1422H160.767H164.625H164.725V27.0422V10.2112ZM152.448 22.7948L152.447 22.7945C151.642 21.8411 151.236 20.4881 151.236 18.7062C151.236 16.9256 151.656 15.5722 152.493 14.5879C153.327 13.6054 154.465 13.1151 155.933 13.1151C157.402 13.1151 158.531 13.5911 159.335 14.5422C160.147 15.5037 160.781 16.8606 160.781 18.5698C160.781 20.2771 160.126 21.6191 159.244 22.6658L159.22 22.6937V22.7013C158.356 23.7199 157.233 24.2216 155.857 24.2216C154.38 24.2216 153.243 23.7454 152.448 22.7948Z" fill="#6B41DE" stroke="#6B41DE" stroke-width="0.2"/>
</g>
<defs>
<linearGradient id="paint0_linear_10776_134673" x1="13.0123" y1="0.979299" x2="13.0123" y2="22.0737" gradientUnits="userSpaceOnUse">
<stop stop-color="#693FD9"/>
<stop offset="1" stop-color="#38208C"/>
</linearGradient>
<linearGradient id="paint1_linear_10776_134673" x1="13.0123" y1="0.979299" x2="13.0123" y2="22.0737" gradientUnits="userSpaceOnUse">
<stop stop-color="#683FD7"/>
<stop offset="1" stop-color="#3A218E"/>
</linearGradient>
<linearGradient id="paint2_linear_10776_134673" x1="25.8362" y1="11.5281" x2="25.8362" y2="32.6225" gradientUnits="userSpaceOnUse">
<stop stop-color="#693FD9"/>
<stop offset="1" stop-color="#38208C"/>
</linearGradient>
<linearGradient id="paint3_linear_10776_134673" x1="25.8362" y1="11.5281" x2="25.8362" y2="32.6225" gradientUnits="userSpaceOnUse">
<stop stop-color="#663ED4"/>
<stop offset="1" stop-color="#3C2291"/>
</linearGradient>
<clipPath id="clip0_10776_134673">
<rect width="165" height="34" fill="white"/>
</clipPath>
</defs>
</svg>
