<svg width="28" height="15" viewBox="0 0 28 15" fill="none" xmlns="http://www.w3.org/2000/svg">
<rect width="28" height="15" rx="3.75" fill="#FFFCFD" fill-opacity="0.13"/>
<path d="M7.95387 4.51904V7.85889L5.20299 4.05762C5.10784 3.93054 4.97697 3.83715 4.82843 3.79031C4.67989 3.74348 4.52098 3.74551 4.3736 3.79612C4.22622 3.84674 4.09763 3.94344 4.00553 4.07292C3.91343 4.20239 3.86237 4.35826 3.85938 4.51904V10.1733C3.86128 10.376 3.94036 10.5697 4.0794 10.7123C4.21844 10.8549 4.40621 10.9349 4.6019 10.9349C4.79758 10.9349 4.98536 10.8549 5.1244 10.7123C5.26344 10.5697 5.34251 10.376 5.34442 10.1733V6.8335L8.10237 10.6348C8.19764 10.7616 8.3285 10.8548 8.47697 10.9015C8.62544 10.9481 8.78423 10.946 8.9315 10.8955C9.07878 10.8449 9.20731 10.7483 9.29944 10.619C9.39156 10.4897 9.44276 10.334 9.44599 10.1733V4.51904C9.44228 4.31665 9.36204 4.12384 9.22253 3.98206C9.08302 3.84029 8.89538 3.76086 8.69993 3.76086C8.50447 3.76086 8.31683 3.84029 8.17732 3.98206C8.03781 4.12384 7.95757 4.31665 7.95387 4.51904ZM16.0156 9.4043H12.6707V8.11523H16.0156C16.2112 8.11326 16.3982 8.03136 16.5359 7.88735C16.6736 7.74335 16.7509 7.54886 16.7509 7.34619C16.7509 7.14352 16.6736 6.94904 16.5359 6.80503C16.3982 6.66102 16.2112 6.57913 16.0156 6.57715H12.6707V5.28809H16.0156C16.2125 5.28809 16.4014 5.20706 16.5406 5.06284C16.6799 4.91861 16.7581 4.723 16.7581 4.51904C16.7581 4.31508 16.6799 4.11947 16.5406 3.97525C16.4014 3.83102 16.2125 3.75 16.0156 3.75H11.9281C11.8306 3.74999 11.7341 3.76988 11.644 3.80852C11.5539 3.84717 11.472 3.90382 11.4031 3.97523C11.3341 4.04664 11.2794 4.13143 11.2421 4.22473C11.2048 4.31804 11.1856 4.41805 11.1856 4.51904V10.1733C11.1856 10.2743 11.2048 10.3743 11.2421 10.4677C11.2794 10.561 11.3341 10.6458 11.4031 10.7172C11.472 10.7886 11.5539 10.8452 11.644 10.8839C11.7341 10.9225 11.8306 10.9424 11.9281 10.9424H16.0156C16.2125 10.9424 16.4014 10.8614 16.5406 10.7171C16.6799 10.5729 16.7581 10.3773 16.7581 10.1733C16.7581 9.96938 16.6799 9.77377 16.5406 9.62955C16.4014 9.48532 16.2125 9.4043 16.0156 9.4043ZM22.5993 4.51904V7.85889L21.885 6.88477C21.813 6.79375 21.7223 6.72042 21.6196 6.67007C21.5169 6.61972 21.4047 6.59361 21.291 6.59361C21.1774 6.59361 21.0651 6.61972 20.9624 6.67007C20.8597 6.72042 20.769 6.79375 20.697 6.88477L19.9898 7.85889V4.51904C19.9861 4.31665 19.9059 4.12384 19.7664 3.98206C19.6269 3.84029 19.4392 3.76086 19.2438 3.76086C19.0483 3.76086 18.8607 3.84029 18.7212 3.98206C18.5817 4.12384 18.5014 4.31665 18.4977 4.51904V10.1733C18.5002 10.3344 18.551 10.4906 18.643 10.6204C18.7351 10.7502 18.8638 10.8472 19.0114 10.8979C19.159 10.9486 19.3182 10.9505 19.4669 10.9033C19.6156 10.8562 19.7464 10.7623 19.8413 10.6348L21.291 8.63525L22.7407 10.6348C22.8359 10.7618 22.9667 10.8552 23.1153 10.9021C23.2638 10.9489 23.4227 10.9469 23.5701 10.8962C23.7175 10.8456 23.8461 10.7489 23.9382 10.6195C24.0303 10.49 24.0813 10.3341 24.0843 10.1733V4.51904C24.0816 4.31692 24.0022 4.12402 23.8633 3.98207C23.7243 3.84012 23.537 3.76054 23.3418 3.76054C23.1466 3.76054 22.9593 3.84012 22.8203 3.98207C22.6814 4.12402 22.602 4.31692 22.5993 4.51904ZM22.5993 4.51904V7.85889L21.885 6.88477C21.813 6.79375 21.7223 6.72042 21.6196 6.67007C21.5169 6.61972 21.4047 6.59361 21.291 6.59361C21.1774 6.59361 21.0651 6.61972 20.9624 6.67007C20.8597 6.72042 20.769 6.79375 20.697 6.88477L19.9898 7.85889V4.51904C19.9861 4.31665 19.9059 4.12384 19.7664 3.98206C19.6269 3.84029 19.4392 3.76086 19.2438 3.76086C19.0483 3.76086 18.8607 3.84029 18.7212 3.98206C18.5817 4.12384 18.5014 4.31665 18.4977 4.51904V10.1733C18.5002 10.3344 18.551 10.4906 18.643 10.6204C18.7351 10.7502 18.8638 10.8472 19.0114 10.8979C19.159 10.9486 19.3182 10.9505 19.4669 10.9033C19.6156 10.8562 19.7464 10.7623 19.8413 10.6348L21.291 8.63525L22.7407 10.6348C22.8359 10.7618 22.9667 10.8552 23.1153 10.9021C23.2638 10.9489 23.4227 10.9469 23.5701 10.8962C23.7175 10.8456 23.8461 10.7489 23.9382 10.6195C24.0303 10.49 24.0813 10.3341 24.0843 10.1733V4.51904C24.0816 4.31692 24.0022 4.12402 23.8633 3.98207C23.7243 3.84012 23.537 3.76054 23.3418 3.76054C23.1466 3.76054 22.9593 3.84012 22.8203 3.98207C22.6814 4.12402 22.602 4.31692 22.5993 4.51904ZM16.0156 5.28809C16.2125 5.28809 16.4014 5.20706 16.5406 5.06284C16.6799 4.91861 16.7581 4.723 16.7581 4.51904C16.7581 4.31508 16.6799 4.11947 16.5406 3.97525C16.4014 3.83102 16.2125 3.75 16.0156 3.75H11.9281C11.8306 3.74999 11.7341 3.76988 11.644 3.80852C11.5539 3.84717 11.472 3.90382 11.4031 3.97523C11.3341 4.04664 11.2794 4.13143 11.2421 4.22473C11.2048 4.31804 11.1856 4.41805 11.1856 4.51904V10.1733C11.1856 10.2743 11.2048 10.3743 11.2421 10.4677C11.2794 10.561 11.3341 10.6458 11.4031 10.7172C11.472 10.7886 11.5539 10.8452 11.644 10.8839C11.7341 10.9225 11.8306 10.9424 11.9281 10.9424H16.0156C16.2125 10.9424 16.4014 10.8614 16.5406 10.7171C16.6799 10.5729 16.7581 10.3773 16.7581 10.1733C16.7581 9.96938 16.6799 9.77377 16.5406 9.62955C16.4014 9.48532 16.2125 9.4043 16.0156 9.4043H12.6707V8.11523H16.0156C16.2112 8.11326 16.3982 8.03136 16.5359 7.88735C16.6736 7.74335 16.7509 7.54886 16.7509 7.34619C16.7509 7.14352 16.6736 6.94904 16.5359 6.80503C16.3982 6.66102 16.2112 6.57913 16.0156 6.57715H12.6707V5.28809H16.0156ZM7.95387 4.51904V7.85889L5.20299 4.05762C5.10784 3.93054 4.97697 3.83715 4.82843 3.79031C4.67989 3.74348 4.52098 3.74551 4.3736 3.79612C4.22622 3.84674 4.09763 3.94344 4.00553 4.07292C3.91343 4.20239 3.86237 4.35826 3.85938 4.51904V10.1733C3.86128 10.376 3.94036 10.5697 4.0794 10.7123C4.21844 10.8549 4.40621 10.9349 4.6019 10.9349C4.79758 10.9349 4.98536 10.8549 5.1244 10.7123C5.26344 10.5697 5.34251 10.376 5.34442 10.1733V6.8335L8.10237 10.6348C8.19764 10.7616 8.3285 10.8548 8.47697 10.9015C8.62544 10.9481 8.78423 10.946 8.9315 10.8955C9.07878 10.8449 9.20731 10.7483 9.29944 10.619C9.39156 10.4897 9.44276 10.334 9.44599 10.1733V4.51904C9.44228 4.31665 9.36204 4.12384 9.22253 3.98206C9.08302 3.84029 8.89538 3.76086 8.69993 3.76086C8.50447 3.76086 8.31683 3.84029 8.17732 3.98206C8.03781 4.12384 7.95757 4.31665 7.95387 4.51904ZM22.5993 4.51904V7.85889L21.885 6.88477C21.813 6.79375 21.7223 6.72042 21.6196 6.67007C21.5169 6.61972 21.4047 6.59361 21.291 6.59361C21.1774 6.59361 21.0651 6.61972 20.9624 6.67007C20.8597 6.72042 20.769 6.79375 20.697 6.88477L19.9898 7.85889V4.51904C19.9861 4.31665 19.9059 4.12384 19.7664 3.98206C19.6269 3.84029 19.4392 3.76086 19.2438 3.76086C19.0483 3.76086 18.8607 3.84029 18.7212 3.98206C18.5817 4.12384 18.5014 4.31665 18.4977 4.51904V10.1733C18.5002 10.3344 18.551 10.4906 18.643 10.6204C18.7351 10.7502 18.8638 10.8472 19.0114 10.8979C19.159 10.9486 19.3182 10.9505 19.4669 10.9033C19.6156 10.8562 19.7464 10.7623 19.8413 10.6348L21.291 8.63525L22.7407 10.6348C22.8359 10.7618 22.9667 10.8552 23.1153 10.9021C23.2638 10.9489 23.4227 10.9469 23.5701 10.8962C23.7175 10.8456 23.8461 10.7489 23.9382 10.6195C24.0303 10.49 24.0813 10.3341 24.0843 10.1733V4.51904C24.0816 4.31692 24.0022 4.12402 23.8633 3.98207C23.7243 3.84012 23.537 3.76054 23.3418 3.76054C23.1466 3.76054 22.9593 3.84012 22.8203 3.98207C22.6814 4.12402 22.602 4.31692 22.5993 4.51904ZM16.0156 5.28809C16.2125 5.28809 16.4014 5.20706 16.5406 5.06284C16.6799 4.91861 16.7581 4.723 16.7581 4.51904C16.7581 4.31508 16.6799 4.11947 16.5406 3.97525C16.4014 3.83102 16.2125 3.75 16.0156 3.75H11.9281C11.8306 3.74999 11.7341 3.76988 11.644 3.80852C11.5539 3.84717 11.472 3.90382 11.4031 3.97523C11.3341 4.04664 11.2794 4.13143 11.2421 4.22473C11.2048 4.31804 11.1856 4.41805 11.1856 4.51904V10.1733C11.1856 10.2743 11.2048 10.3743 11.2421 10.4677C11.2794 10.561 11.3341 10.6458 11.4031 10.7172C11.472 10.7886 11.5539 10.8452 11.644 10.8839C11.7341 10.9225 11.8306 10.9424 11.9281 10.9424H16.0156C16.2125 10.9424 16.4014 10.8614 16.5406 10.7171C16.6799 10.5729 16.7581 10.3773 16.7581 10.1733C16.7581 9.96938 16.6799 9.77377 16.5406 9.62955C16.4014 9.48532 16.2125 9.4043 16.0156 9.4043H12.6707V8.11523H16.0156C16.2112 8.11326 16.3982 8.03136 16.5359 7.88735C16.6736 7.74335 16.7509 7.54886 16.7509 7.34619C16.7509 7.14352 16.6736 6.94904 16.5359 6.80503C16.3982 6.66102 16.2112 6.57913 16.0156 6.57715H12.6707V5.28809H16.0156ZM7.95387 4.51904V7.85889L5.20299 4.05762C5.10784 3.93054 4.97697 3.83715 4.82843 3.79031C4.67989 3.74348 4.52098 3.74551 4.3736 3.79612C4.22622 3.84674 4.09763 3.94344 4.00553 4.07292C3.91343 4.20239 3.86237 4.35826 3.85938 4.51904V10.1733C3.86128 10.376 3.94036 10.5697 4.0794 10.7123C4.21844 10.8549 4.40621 10.9349 4.6019 10.9349C4.79758 10.9349 4.98536 10.8549 5.1244 10.7123C5.26344 10.5697 5.34251 10.376 5.34442 10.1733V6.8335L8.10237 10.6348C8.19764 10.7616 8.3285 10.8548 8.47697 10.9015C8.62544 10.9481 8.78423 10.946 8.9315 10.8955C9.07878 10.8449 9.20731 10.7483 9.29944 10.619C9.39156 10.4897 9.44276 10.334 9.44599 10.1733V4.51904C9.44228 4.31665 9.36204 4.12384 9.22253 3.98206C9.08302 3.84029 8.89538 3.76086 8.69993 3.76086C8.50447 3.76086 8.31683 3.84029 8.17732 3.98206C8.03781 4.12384 7.95757 4.31665 7.95387 4.51904Z" fill="#FF4BDB"/>
<path d="M7.95387 4.51904V7.85889L5.20299 4.05762C5.10784 3.93054 4.97697 3.83715 4.82843 3.79031C4.67989 3.74348 4.52098 3.74551 4.3736 3.79612C4.22622 3.84674 4.09763 3.94344 4.00553 4.07292C3.91343 4.20239 3.86237 4.35826 3.85938 4.51904V10.1733C3.86128 10.376 3.94036 10.5697 4.0794 10.7123C4.21844 10.8549 4.40621 10.9349 4.6019 10.9349C4.79758 10.9349 4.98536 10.8549 5.1244 10.7123C5.26344 10.5697 5.34251 10.376 5.34442 10.1733V6.8335L8.10237 10.6348C8.19764 10.7616 8.3285 10.8548 8.47697 10.9015C8.62544 10.9481 8.78423 10.946 8.9315 10.8955C9.07878 10.8449 9.20731 10.7483 9.29944 10.619C9.39156 10.4897 9.44276 10.334 9.44599 10.1733V4.51904C9.44228 4.31665 9.36204 4.12384 9.22253 3.98206C9.08302 3.84029 8.89538 3.76086 8.69993 3.76086C8.50447 3.76086 8.31683 3.84029 8.17732 3.98206C8.03781 4.12384 7.95757 4.31665 7.95387 4.51904ZM16.0156 9.4043H12.6707V8.11523H16.0156C16.2112 8.11326 16.3982 8.03136 16.5359 7.88735C16.6736 7.74335 16.7509 7.54886 16.7509 7.34619C16.7509 7.14352 16.6736 6.94904 16.5359 6.80503C16.3982 6.66102 16.2112 6.57913 16.0156 6.57715H12.6707V5.28809H16.0156C16.2125 5.28809 16.4014 5.20706 16.5406 5.06284C16.6799 4.91861 16.7581 4.723 16.7581 4.51904C16.7581 4.31508 16.6799 4.11947 16.5406 3.97525C16.4014 3.83102 16.2125 3.75 16.0156 3.75H11.9281C11.8306 3.74999 11.7341 3.76988 11.644 3.80852C11.5539 3.84717 11.472 3.90382 11.4031 3.97523C11.3341 4.04664 11.2794 4.13143 11.2421 4.22473C11.2048 4.31804 11.1856 4.41805 11.1856 4.51904V10.1733C11.1856 10.2743 11.2048 10.3743 11.2421 10.4677C11.2794 10.561 11.3341 10.6458 11.4031 10.7172C11.472 10.7886 11.5539 10.8452 11.644 10.8839C11.7341 10.9225 11.8306 10.9424 11.9281 10.9424H16.0156C16.2125 10.9424 16.4014 10.8614 16.5406 10.7171C16.6799 10.5729 16.7581 10.3773 16.7581 10.1733C16.7581 9.96938 16.6799 9.77377 16.5406 9.62955C16.4014 9.48532 16.2125 9.4043 16.0156 9.4043ZM22.5993 4.51904V7.85889L21.885 6.88477C21.813 6.79375 21.7223 6.72042 21.6196 6.67007C21.5169 6.61972 21.4047 6.59361 21.291 6.59361C21.1774 6.59361 21.0651 6.61972 20.9624 6.67007C20.8597 6.72042 20.769 6.79375 20.697 6.88477L19.9898 7.85889V4.51904C19.9861 4.31665 19.9059 4.12384 19.7664 3.98206C19.6269 3.84029 19.4392 3.76086 19.2438 3.76086C19.0483 3.76086 18.8607 3.84029 18.7212 3.98206C18.5817 4.12384 18.5014 4.31665 18.4977 4.51904V10.1733C18.5002 10.3344 18.551 10.4906 18.643 10.6204C18.7351 10.7502 18.8638 10.8472 19.0114 10.8979C19.159 10.9486 19.3182 10.9505 19.4669 10.9033C19.6156 10.8562 19.7464 10.7623 19.8413 10.6348L21.291 8.63525L22.7407 10.6348C22.8359 10.7618 22.9667 10.8552 23.1153 10.9021C23.2638 10.9489 23.4227 10.9469 23.5701 10.8962C23.7175 10.8456 23.8461 10.7489 23.9382 10.6195C24.0303 10.49 24.0813 10.3341 24.0843 10.1733V4.51904C24.0816 4.31692 24.0022 4.12402 23.8633 3.98207C23.7243 3.84012 23.537 3.76054 23.3418 3.76054C23.1466 3.76054 22.9593 3.84012 22.8203 3.98207C22.6814 4.12402 22.602 4.31692 22.5993 4.51904Z" stroke="#FF4BDB" stroke-width="0.2"/>
</svg>
