<svg width="28" height="15" viewBox="0 0 28 15" fill="none" xmlns="http://www.w3.org/2000/svg">
<rect width="28" height="15" rx="3.75" fill="#DF3A87" fill-opacity="0.13"/>
<path d="M11.9316 3.84961H16.0195C16.1888 3.84963 16.3519 3.91984 16.4727 4.04492C16.5934 4.17002 16.662 4.34025 16.6621 4.51855C16.6621 4.65257 16.6231 4.78238 16.5527 4.8916L16.4727 4.99316C16.3519 5.11825 16.1888 5.18846 16.0195 5.18848H12.5742V6.67676H16.0186L16.1426 6.69141C16.2646 6.71775 16.3782 6.78029 16.4678 6.87402C16.5873 6.99907 16.6543 7.16928 16.6543 7.34668C16.6542 7.47968 16.6164 7.60811 16.5469 7.7168L16.4678 7.81836C16.3483 7.94326 16.1867 8.0139 16.0186 8.01562H12.5742V9.50391H16.0195C16.1888 9.50392 16.3519 9.57413 16.4727 9.69922C16.5935 9.82443 16.6621 9.99535 16.6621 10.1738C16.662 10.3077 16.623 10.4368 16.5527 10.5459L16.4727 10.6475C16.3519 10.7725 16.1888 10.8428 16.0195 10.8428H11.9316L11.8076 10.8301C11.7666 10.8217 11.7264 10.8087 11.6875 10.792L11.5762 10.7305C11.5413 10.7063 11.5084 10.6784 11.4785 10.6475L11.3984 10.5469C11.3749 10.5105 11.3552 10.4714 11.3389 10.4307L11.3018 10.3047L11.2891 10.1738V4.51855L11.3018 4.3877L11.3389 4.26172C11.3552 4.22096 11.3749 4.1819 11.3984 4.14551L11.4785 4.04492C11.5084 4.014 11.5413 3.98603 11.5762 3.96191L11.6875 3.90039C11.7264 3.88372 11.7666 3.87073 11.8076 3.8623L11.9316 3.84961ZM4.70508 3.86328L4.80273 3.88574C4.93 3.92597 5.04333 4.00566 5.12598 4.11523V4.11621L7.87695 7.91797L8.05762 8.16797V4.52051C8.06012 4.38754 8.10076 4.25989 8.17188 4.15234L8.25293 4.05176C8.37397 3.92898 8.53618 3.86133 8.7041 3.86133C8.83027 3.86138 8.95304 3.89945 9.05762 3.9707L9.15527 4.05176C9.27639 4.17484 9.34627 4.34335 9.34961 4.52051V10.1738C9.34713 10.2787 9.32173 10.3809 9.27539 10.4727L9.22168 10.5605C9.16148 10.645 9.08388 10.7135 8.99512 10.7607L8.90332 10.8008C8.80803 10.8335 8.70687 10.8426 8.6084 10.8281L8.51074 10.8057L8.41797 10.7686C8.32817 10.7238 8.24875 10.6579 8.18652 10.5752L5.42969 6.77441L5.24805 6.52539V10.1738C5.24653 10.3064 5.20792 10.4343 5.1377 10.542L5.05664 10.6426C4.93605 10.7662 4.77362 10.835 4.60547 10.835C4.43751 10.8349 4.27577 10.766 4.15527 10.6426L4.07422 10.542C4.00376 10.434 3.96423 10.3058 3.96289 10.1729V4.52051C3.96491 4.41505 3.99066 4.31209 4.03711 4.21973L4.09082 4.13086C4.15095 4.04633 4.22866 3.97791 4.31738 3.93066L4.41016 3.89062C4.50556 3.85789 4.60651 3.84873 4.70508 3.86328ZM23.3457 3.86035C23.4715 3.86035 23.5941 3.89862 23.6982 3.96973L23.7959 4.05176C23.9165 4.17499 23.9859 4.34357 23.9883 4.52051V10.1738C23.986 10.2786 23.9603 10.3808 23.9141 10.4727L23.8604 10.5615C23.8002 10.6461 23.7226 10.7145 23.6338 10.7617L23.542 10.8018C23.4467 10.8345 23.3455 10.8435 23.2471 10.8291L23.1494 10.8066L23.0557 10.7686C22.966 10.7236 22.8863 10.658 22.8242 10.5752L21.376 8.57617L21.2949 8.46484L21.2139 8.57617L19.7646 10.5752C19.7027 10.6584 19.6239 10.7254 19.5342 10.7705L19.4404 10.8076C19.3441 10.8381 19.2429 10.8452 19.1445 10.8281L19.0479 10.8037L18.9551 10.7627C18.8664 10.7154 18.7885 10.6472 18.7285 10.5625L18.6748 10.4736C18.6284 10.3809 18.6032 10.2776 18.6016 10.1719V4.52051C18.6041 4.38771 18.6439 4.2598 18.7148 4.15234L18.7959 4.05176C18.917 3.92871 19.0799 3.86133 19.248 3.86133C19.3739 3.8614 19.4962 3.89973 19.6006 3.9707L19.6992 4.05176C19.8203 4.17484 19.8902 4.34335 19.8936 4.52051V8.16699L20.0742 7.91797L20.7793 6.94727C20.8265 6.88761 20.8825 6.836 20.9453 6.7959L21.0107 6.75977C21.0998 6.7162 21.1968 6.69336 21.2949 6.69336C21.3931 6.69336 21.4901 6.7162 21.5791 6.75977C21.6682 6.80345 21.7476 6.86776 21.8105 6.94727L22.5225 7.91797L22.7031 8.16406V4.52051C22.7049 4.38774 22.7448 4.25996 22.8154 4.15234L22.8955 4.05176C23.016 3.92867 23.178 3.86035 23.3457 3.86035Z" fill="#C910A4" stroke="#F9E4EE" stroke-width="0.2"/>
</svg>
