<svg width="42" height="44" viewBox="0 0 42 44" fill="none" xmlns="http://www.w3.org/2000/svg">
<g id="Group 2085667467">
<g id="Group 2085667434">
<g id="Group 2085667433">
<circle id="Ellipse 4255063" cx="3.2" cy="3.2" r="2.2" fill="#6B41DE" fill-opacity="0.44"/>
<circle id="Ellipse 4255064" cx="11.2" cy="3.2" r="2.2" fill="#6B41DE" fill-opacity="0.44"/>
<circle id="Ellipse 4255065" cx="19.2" cy="3.2" r="2.2" fill="#6B41DE" fill-opacity="0.44"/>
<circle id="Ellipse 4255066" cx="26.2" cy="3.2" r="2.2" fill="#6B41DE" fill-opacity="0.44"/>
<circle id="Ellipse 4255067" cx="26.2" cy="11.2" r="2.2" fill="#6B41DE" fill-opacity="0.44"/>
<circle id="Ellipse 4255072" cx="3.2" cy="11.2" r="2.2" fill="#6B41DE" fill-opacity="0.44"/>
<circle id="Ellipse 4255073" cx="26.2" cy="18.2" r="2.2" fill="#6B41DE" fill-opacity="0.44"/>
<circle id="Ellipse 4255069" cx="19.2" cy="24.2" r="2.2" fill="#6B41DE" fill-opacity="0.44"/>
<circle id="Ellipse 4255070" cx="11.2" cy="27.2" r="2.2" fill="#6B41DE" fill-opacity="0.44"/>
<circle id="Ellipse 4255071" cx="3.2" cy="27.2" r="2.2" fill="#6B41DE" fill-opacity="0.44"/>
<circle id="Ellipse 4255074" cx="3.2" cy="19.2" r="2.2" fill="#6B41DE" fill-opacity="0.44"/>
</g>
<path id="Vector" d="M26.2891 42.9997C25.9249 42.9997 25.7238 42.9572 25.5958 42.8112C25.5189 42.7234 17.779 33.7813 15.7165 29.4509C14.9713 27.8997 14.5781 26.2153 14.5781 24.5716C14.5781 18.3727 19.8314 13.332 26.2891 13.332C32.7467 13.332 38 18.4076 38 24.6446C38 26.5289 37.6371 27.9526 36.7477 29.5582C34.2884 33.9944 27.065 42.7065 26.9929 42.7934C26.9066 42.8983 26.7527 42.9998 26.3071 42.9998H26.2891V42.9997ZM26.2891 20.2352C23.8056 20.2352 21.7848 22.2021 21.7848 24.6195C21.7848 27.0369 23.8056 29.0039 26.2891 29.0039C28.7725 29.0039 30.7933 27.0369 30.7933 24.6195C30.7933 22.2021 28.7725 20.2352 26.2891 20.2352Z" fill="#6B41DE"/>
</g>
</g>
</svg>
