<svg width="42" height="44" viewBox="0 0 42 44" fill="none" xmlns="http://www.w3.org/2000/svg">
<g id="Group 2085667467">
<g id="Group 2085667434">
<g id="Group 2085667433">
<circle id="Ellipse 4255063" cx="3.2" cy="3.2" r="2.2" fill="#6B41DE" fill-opacity="0.44"/>
<circle id="Ellipse 4255064" cx="11.2" cy="3.2" r="2.2" fill="#6B41DE" fill-opacity="0.44"/>
<circle id="Ellipse 4255065" cx="19.2" cy="3.2" r="2.2" fill="#6B41DE" fill-opacity="0.44"/>
<circle id="Ellipse 4255066" cx="26.2" cy="3.2" r="2.2" fill="#6B41DE" fill-opacity="0.44"/>
<circle id="Ellipse 4255067" cx="26.2" cy="11.2" r="2.2" fill="#6B41DE" fill-opacity="0.44"/>
<circle id="Ellipse 4255072" cx="3.2" cy="11.2" r="2.2" fill="#6B41DE" fill-opacity="0.44"/>
<circle id="Ellipse 4255070" cx="11.2" cy="27.2" r="2.2" fill="#6B41DE" fill-opacity="0.44"/>
<circle id="Ellipse 4255071" cx="3.2" cy="27.2" r="2.2" fill="#6B41DE" fill-opacity="0.44"/>
<circle id="Ellipse 4255074" cx="3.2" cy="19.2" r="2.2" fill="#6B41DE" fill-opacity="0.44"/>
</g>
<path id="Vector" d="M31.1458 14.8125C31.7868 14.8125 32.4015 15.0671 32.8547 15.5203C33.3079 15.9735 33.5625 16.5882 33.5625 17.2292V37.7708C33.5625 38.0882 33.5 38.4024 33.3785 38.6957C33.2571 38.9889 33.0791 39.2553 32.8547 39.4797C32.6303 39.7041 32.3639 39.8821 32.0707 40.0035C31.7774 40.125 31.4632 40.1875 31.1458 40.1875H17.8542C17.5368 40.1875 17.2226 40.125 16.9293 40.0035C16.6361 39.8821 16.3697 39.7041 16.1453 39.4797C15.9209 39.2553 15.7429 38.9889 15.6215 38.6957C15.5 38.4024 15.4375 38.0882 15.4375 37.7708V17.2292C15.4375 16.5882 15.6921 15.9735 16.1453 15.5203C16.5985 15.0671 17.2132 14.8125 17.8542 14.8125H31.1458ZM24.5 32.9375C24.2223 32.9375 23.9473 32.9921 23.6907 33.0984C23.4341 33.2046 23.201 33.3604 23.0046 33.5568C22.8082 33.7531 22.6524 33.9862 22.5462 34.2428C22.4399 34.4994 22.3852 34.7744 22.3852 35.0521C22.3852 35.3298 22.4399 35.6048 22.5462 35.8614C22.6524 36.1179 22.8082 36.351 23.0046 36.5474C23.201 36.7438 23.4341 36.8995 23.6907 37.0058C23.9473 37.112 24.2223 37.1667 24.5 37.1667C25.0608 37.1666 25.5986 36.9438 25.9951 36.5472C26.3916 36.1507 26.6143 35.6129 26.6143 35.0521C26.6143 34.4913 26.3916 33.9535 25.9951 33.5569C25.5986 33.1604 25.0608 32.9376 24.5 32.9375ZM29.3333 18.4375H19.6667C19.5873 18.4375 19.5088 18.4531 19.4355 18.4835C19.3622 18.5139 19.2956 18.5584 19.2395 18.6145C19.1834 18.6706 19.1389 18.7372 19.1085 18.8105C19.0781 18.8838 19.0625 18.9623 19.0625 19.0417V29.3125C19.0625 29.4727 19.1262 29.6264 19.2395 29.7397C19.3528 29.853 19.5064 29.9167 19.6667 29.9167H29.3333C29.4936 29.9167 29.6472 29.853 29.7605 29.7397C29.8738 29.6264 29.9375 29.4727 29.9375 29.3125V19.0417C29.9375 18.9623 29.9219 18.8838 29.8915 18.8105C29.8611 18.7372 29.8166 18.6706 29.7605 18.6145C29.7044 18.5584 29.6378 18.5139 29.5645 18.4835C29.4912 18.4531 29.4127 18.4375 29.3333 18.4375Z" fill="#6B41DE"/>
</g>
</g>
</svg>
