<svg width="20" height="20" viewBox="0 0 20 20" fill="none" xmlns="http://www.w3.org/2000/svg">
<g id="Group 2085667722">
<path id="Vector" d="M3.54492 1.9502C3.61245 1.9502 3.66164 1.97719 3.68848 1.99316C3.73347 2.00549 3.80203 2.02392 3.86914 2.08105H3.86816C3.92485 2.12821 3.95503 2.18147 3.97461 2.21582L3.98047 2.22656C3.99534 2.24287 4.01957 2.26868 4.03809 2.30762L4.05566 2.35645L4.05664 2.35742L4.46191 4.02246H17.5215C17.6402 4.02246 17.757 4.06599 17.8506 4.1416L17.9355 4.22754V4.22852L17.9414 4.23438V4.23535C18.0385 4.36997 18.0731 4.54021 18.0352 4.70117L15.9648 13.5283C15.9065 13.7714 15.6955 13.9434 15.4502 13.9434H6.13672C6.00193 13.9434 5.87368 13.9979 5.77637 14.0986C5.6769 14.2016 5.61377 14.3277 5.62891 14.46C5.64422 14.5935 5.73115 14.6834 5.83789 14.7412C5.94549 14.7995 6.0668 14.8213 6.13281 14.8213H15.543C16.4071 14.8213 17.1074 15.5477 17.1074 16.4375C17.1074 16.8666 16.9451 17.2715 16.6504 17.5771C16.3568 17.8817 15.9647 18.0498 15.5469 18.0498H15.542C14.6795 18.0497 13.9805 17.325 13.9805 16.4375C13.9805 16.2596 14.0146 16.0874 14.0801 15.915H7.59766C7.66364 16.0879 7.69824 16.2601 7.69824 16.4375C7.69927 16.8661 7.53721 17.2711 7.24219 17.5771C6.94649 17.8816 6.55364 18.0498 6.13672 18.0498H6.13379C5.27172 18.0498 4.57235 17.325 4.57129 16.4375C4.57132 16.0395 4.71008 15.663 4.96289 15.3662C4.845 15.2342 4.74915 15.1142 4.68262 14.9795C4.61011 14.8326 4.57229 14.672 4.57227 14.4648C4.57227 14.0323 4.73461 13.6266 5.0293 13.3232C5.15742 13.1912 5.31139 13.0886 5.49609 13.0098L3.13379 3.04297H1.47754C1.18484 3.04286 0.950197 2.79637 0.950195 2.49707C0.950195 2.19732 1.18474 1.9503 1.47754 1.9502H3.54492ZM6.1377 15.916C6.00004 15.916 5.8719 15.9702 5.77637 16.0684C5.68203 16.166 5.62988 16.2959 5.62988 16.4346C5.62993 16.7241 5.85698 16.957 6.13281 16.957H6.1377C6.27377 16.957 6.40057 16.9026 6.49609 16.8047C6.59083 16.7053 6.64322 16.5757 6.64258 16.4395L6.63184 16.333C6.58422 16.0943 6.37979 15.9161 6.1377 15.916ZM15.5479 15.916C15.4082 15.916 15.279 15.9703 15.1836 16.0684C15.0894 16.1659 15.0368 16.2961 15.0361 16.4355L15.0469 16.541C15.0945 16.7787 15.2988 16.9569 15.541 16.957H15.5469C15.6819 16.957 15.8087 16.903 15.9043 16.8047L15.9668 16.7256C16.0213 16.6414 16.0508 16.5424 16.0508 16.4385C16.0508 16.1489 15.8236 15.9161 15.5479 15.916ZM6.54883 12.8496H15.0361L16.1543 7.98047H5.35645L6.54883 12.8496ZM5.0918 6.88574H16.416L16.8428 5.11621H4.74023L5.0918 6.88574Z" fill="white" stroke="white" stroke-width="0.1"/>
</g>
</svg>
