<svg width="23" height="22" viewBox="0 0 23 22" fill="none" xmlns="http://www.w3.org/2000/svg">
<g id="Group 2085667665">
<g id="Frame 2085667456">
<g id="&#231;&#148;&#168;&#230;&#136;&#183;&#231;&#174;&#161;&#231;&#144;&#134; (1) 1" clip-path="url(#clip0_14030_111440)">
<path id="Vector" d="M7.3194 6.58711C7.3194 4.73965 8.84694 3.21387 10.6926 3.21387C12.5383 3.21387 14.0676 4.74141 14.0676 6.58711C14.0676 8.43281 12.5401 9.96211 10.6926 9.96211C8.84694 9.96211 7.3194 8.43457 7.3194 6.58711ZM5.16256 18.6105C4.61412 18.6193 4.15709 18.1816 4.1483 17.6227V17.5945C4.14654 14.2213 6.76217 11.4246 10.0721 11.1047H10.7665C11.5346 11.0414 12.6139 10.848 13.1799 10.3365L13.4366 10.1449C14.5159 9.24844 15.1557 7.97754 15.1557 6.57832C15.1557 4.09102 13.1167 2.0625 10.5749 2.0625C8.21588 2.0625 6.18561 4.10156 6.18561 6.57832C6.18561 7.97754 6.81666 9.24844 7.90475 10.1449L8.22467 10.3365L7.90475 10.4648C4.9692 11.6074 3.00397 14.4059 3.00397 17.5875C2.99518 18.7758 3.94615 19.7461 5.12565 19.7549H10.9493C11.1409 19.7549 11.452 19.5633 11.452 19.1783C11.452 18.7301 11.1321 18.6018 10.9493 18.6018H5.16256V18.6105ZM19.8544 16.0688C18.9034 16.1971 18.2003 16.9652 18.2003 17.9707C18.2003 18.1623 18.2635 18.4189 18.3286 18.5473L17.5059 18.9955L17.186 18.6756C16.8116 18.4189 16.4917 18.3012 16.1067 18.3012C15.7868 18.3012 15.4124 18.4295 15.0274 18.6756C14.8991 18.8039 14.7708 18.8672 14.7075 18.9955L13.9393 18.5473C13.9938 18.4189 14.0676 18.1729 14.0676 17.9707C14.0676 17.0109 13.3628 16.1971 12.4135 16.0688C12.4135 15.9404 12.3503 15.6943 12.3503 15.4289C12.3503 15.2373 12.4135 14.9807 12.4135 14.7891C13.3645 14.6607 14.0676 13.8926 14.0676 12.8783C14.0676 12.6867 14.0131 12.4301 13.9393 12.3018L14.762 11.8535C14.8165 11.9168 14.9448 12.0451 15.0819 12.1102C15.4563 12.3668 15.7762 12.4846 16.0962 12.4846C16.4161 12.4846 16.7272 12.3563 17.1104 12.1102C17.2387 11.9818 17.3671 11.9186 17.4303 11.8535L18.253 12.3018C18.1985 12.4301 18.1247 12.6762 18.1247 12.8783C18.1247 13.8381 18.8296 14.652 19.7893 14.7891C19.7893 14.9174 19.8438 15.1635 19.8438 15.4289C19.9282 15.6205 19.8544 15.8772 19.8544 16.0688ZM20.7508 14.4779C20.6876 14.158 20.4309 13.9014 20.1743 13.9014H20.111C19.5344 13.9014 19.0967 13.4531 19.0967 12.8871C19.0967 12.7588 19.1512 12.5672 19.1512 12.5127C19.2796 12.1928 19.1512 11.8184 18.8946 11.6162L17.752 10.9764H17.4409C17.2581 10.9764 16.9926 11.0309 16.8643 11.233C16.736 11.3613 16.3616 11.6813 16.0962 11.6813C15.8395 11.6813 15.4563 11.3613 15.2735 11.233C15.1452 11.1047 14.9536 10.9764 14.6969 10.9764C14.5686 10.9764 14.5053 10.9764 14.4403 11.0309L13.2344 11.6707C12.9778 11.8623 12.86 12.2473 12.9778 12.5672C12.9778 12.5672 13.0323 12.7588 13.0323 12.9416C13.0411 13.49 12.6034 13.9471 12.0532 13.9559H11.9512C11.6946 13.9559 11.4485 14.2125 11.3747 14.5324C11.3747 14.5957 11.2463 15.0352 11.2463 15.4834C11.2463 15.8578 11.3008 16.3799 11.3747 16.4344C11.438 16.7543 11.6946 17.0109 11.9512 17.0109H12.0145C12.5911 17.0109 13.0288 17.4592 13.0288 18.0252C13.0288 18.1535 12.9743 18.3451 12.9743 18.3996C12.846 18.7195 12.9743 19.0939 13.2309 19.2961L14.3735 19.9359C14.5018 19.8727 14.5651 19.8727 14.6934 19.8727C14.885 19.8727 15.1417 19.8182 15.27 19.616C15.3983 19.4877 15.7727 19.1133 16.0926 19.1133C16.3493 19.1133 16.787 19.4332 16.9153 19.616C17.0436 19.7443 17.2352 19.8727 17.4919 19.8727C17.6202 19.8727 17.6835 19.8727 17.8118 19.8182L18.9544 19.1783C19.211 18.9867 19.3288 18.6018 19.211 18.2818C19.211 18.2818 19.1565 18.099 19.1565 17.9074C19.1565 17.3309 19.6047 16.8932 20.1708 16.8932H20.2253C20.4819 16.8932 20.728 16.6365 20.8018 16.3166C20.8018 16.3166 20.9301 15.8139 20.9301 15.3656C20.8053 15.0545 20.7508 14.543 20.7508 14.4779ZM16.1067 16.2516C15.6585 16.2516 15.284 15.8772 15.284 15.4289C15.284 14.9807 15.6585 14.6063 16.1067 14.6063C16.5549 14.6063 16.9294 14.9807 16.9294 15.4289C16.9381 15.8772 16.5444 16.2516 16.1067 16.2516ZM16.4178 13.7098C15.2014 13.4531 14.1221 14.5324 14.3788 15.8033C14.5071 16.4977 15.0731 17.0742 15.778 17.2025C16.9944 17.4592 18.0737 16.3799 17.8171 15.1635C17.6975 14.4147 17.121 13.8381 16.4178 13.7098Z" fill="white"/>
</g>
</g>
</g>
<defs>
<clipPath id="clip0_14030_111440">
<rect width="18" height="18" fill="white" transform="translate(2.96875 2)"/>
</clipPath>
</defs>
</svg>
