<svg width="23" height="22" viewBox="0 0 23 22" fill="none" xmlns="http://www.w3.org/2000/svg">
<g id="Div [relative]">
<g id="Frame 2085667455">
<g id="Group 2085667437">
<path id="Vector" d="M12.1395 20.2305C11.8558 20.2305 11.5722 20.1151 11.366 19.9228C9.90925 18.5253 5.15234 13.6407 5.15234 9.19201C5.15234 5.35867 8.29783 2.23047 12.1523 2.23047C16.0069 2.23047 19.1523 5.35867 19.1523 9.19201C19.1523 13.1279 14.3954 18.3715 12.9516 19.8843C12.7453 20.1023 12.4617 20.2176 12.1652 20.2305H12.1395ZM12.1523 3.55098C9.03264 3.55098 6.49304 6.07662 6.49304 9.17919C6.49304 13.0125 10.8761 17.5638 12.1266 18.7946C14.8982 15.8715 17.7988 11.8715 17.7988 9.17919C17.8116 6.07662 15.272 3.55098 12.1523 3.55098Z" fill="white"/>
<path id="Vector_2" d="M12.1497 11.5381C10.7962 11.5381 9.6875 10.4355 9.6875 9.08934C9.6875 7.74319 10.7962 6.64062 12.1497 6.64062C13.5033 6.64062 14.612 7.74319 14.612 9.08934C14.612 10.4355 13.5033 11.5381 12.1497 11.5381ZM12.1497 7.97396C11.531 7.97396 11.0282 8.47396 11.0282 9.08934C11.0282 9.70473 11.531 10.2047 12.1497 10.2047C12.7685 10.2047 13.2713 9.70473 13.2713 9.08934C13.2713 8.47396 12.7685 7.97396 12.1497 7.97396Z" fill="white"/>
</g>
</g>
</g>
</svg>
