<svg width="21" height="20" viewBox="0 0 21 20" fill="none" xmlns="http://www.w3.org/2000/svg">
<g id="&#228;&#184;&#147;&#229;&#177;&#158;&#229;&#174;&#162;&#230;&#136;&#183;&#231;&#187;&#143;&#231;&#144;&#134;" clip-path="url(#clip0_2206_7635)">
<path id="Vector" d="M10.9675 9.00015C11.8341 8.99811 12.6646 8.6452 13.2776 8.01857C13.8906 7.39194 14.2362 6.54254 14.2389 5.656C14.2365 4.76947 13.8912 3.91993 13.2785 3.29306C12.6657 2.66618 11.8353 2.31296 10.9688 2.31057C10.1022 2.31296 9.27177 2.66618 8.65901 3.29306C8.04625 3.91993 7.70098 4.76947 7.69865 5.656C7.70131 6.54209 8.04656 7.3911 8.65901 8.01766C9.27146 8.64422 10.1014 8.99743 10.9675 9.00015ZM10.5765 12.2127C10.4681 12.1278 10.3882 12.0104 10.3481 11.8768C10.308 11.7433 10.3096 11.6002 10.3528 11.4677C10.396 11.3351 10.4786 11.2197 10.589 11.1374C10.6994 11.0552 10.8322 11.0103 10.9688 11.009C11.1049 11.0109 11.2371 11.0561 11.347 11.1384C11.4568 11.2206 11.539 11.3359 11.5819 11.468C11.6249 11.6002 11.6266 11.7428 11.5868 11.876C11.547 12.0092 11.4676 12.1264 11.3597 12.2114L12.2425 15.3891C12.2743 15.5004 12.2758 15.6184 12.2469 15.7305C12.218 15.8425 12.1598 15.9444 12.0785 16.0252L11.1958 16.9283C11.1663 16.9599 11.1309 16.9851 11.0917 17.0023C11.0524 17.0195 11.0102 17.0283 10.9675 17.0283C10.9248 17.0283 10.8826 17.0195 10.8433 17.0023C10.8041 16.9851 10.7687 16.9599 10.7392 16.9283L9.85644 16.0252C9.77516 15.9444 9.71694 15.8425 9.68805 15.7305C9.65917 15.6184 9.6607 15.5004 9.69249 15.3891L10.5753 12.2114L10.5765 12.2127ZM8.12239 9.3343C7.58274 8.89316 7.14694 8.33355 6.84722 7.69686C6.54751 7.06016 6.39154 6.36268 6.39086 5.656C6.39418 4.41495 6.87757 3.2257 7.73537 2.34814C8.59317 1.47058 9.75564 0.976061 10.9688 0.972656C12.1816 0.976401 13.3438 1.47107 14.2013 2.34859C15.0588 3.22612 15.5421 4.41517 15.5454 5.656C15.5454 7.12681 14.8593 8.46472 13.8126 9.3343C15.4424 9.81732 16.875 10.8285 17.895 12.2158C18.915 13.6032 19.4672 15.2917 19.4688 17.0276C19.4688 18.132 18.586 19.0352 17.5064 19.0352H4.4298C3.90999 19.0335 3.41197 18.8214 3.04452 18.4452C2.67708 18.0691 2.47008 17.5594 2.46875 17.0276C2.47012 15.292 3.02202 13.6037 4.0415 12.2164C5.06099 10.8292 6.493 9.81778 8.12239 9.3343ZM17.5052 17.696C17.6789 17.696 17.8455 17.6254 17.9684 17.4999C18.0914 17.3744 18.1606 17.2041 18.161 17.0263C18.161 13.348 15.2175 10.3368 11.6208 10.3368H10.3142C6.71749 10.3368 3.77528 13.348 3.77528 17.0263C3.77561 17.2036 3.8445 17.3735 3.96691 17.499C4.08931 17.6245 4.25527 17.6953 4.42854 17.696H17.5064H17.5052Z" fill="white"/>
</g>
<defs>
<clipPath id="clip0_2206_7635">
<rect width="20" height="20" fill="white" transform="translate(0.96875 0.00390625)"/>
</clipPath>
</defs>
</svg>
