<svg width="21" height="20" viewBox="0 0 21 20" fill="none" xmlns="http://www.w3.org/2000/svg">
<g id="Group 2085667480">
<g id="Group 2085667444">
<path id="Vector" d="M5.65722 12.3265L8.60822 14.2375C8.68622 14.2895 8.76422 14.3155 8.85522 14.3155C8.99822 14.3155 9.15422 14.2375 9.23222 14.1075C9.36222 13.8995 9.31022 13.6265 9.10222 13.4835L6.73622 11.9495L9.10222 10.4285C9.31022 10.2985 9.37522 10.0125 9.23222 9.80446C9.10222 9.59646 8.81622 9.53146 8.60822 9.67446L5.65722 11.5725C5.52722 11.6505 5.44922 11.7935 5.44922 11.9495C5.44922 12.0925 5.52722 12.2355 5.65722 12.3265ZM10.0902 15.8365C10.1292 15.8495 10.1552 15.8495 10.1942 15.8495C10.4022 15.8495 10.5842 15.7065 10.6362 15.4985L12.1182 8.81646C12.1702 8.56946 12.0142 8.33546 11.7802 8.28346C11.5332 8.23146 11.2992 8.38746 11.2472 8.62146L9.76522 15.3035C9.70022 15.5505 9.85622 15.7845 10.0902 15.8365ZM12.6252 14.0555C12.7162 14.1855 12.8592 14.2635 13.0022 14.2635C13.0802 14.2635 13.1712 14.2375 13.2492 14.1855L16.2002 12.2745C16.3302 12.1965 16.4082 12.0535 16.4082 11.8975C16.4082 11.7415 16.3302 11.5985 16.2002 11.5205L13.2492 9.62246C13.0412 9.49246 12.7682 9.54446 12.6252 9.75246C12.4952 9.96046 12.5472 10.2335 12.7552 10.3765L15.1212 11.8975L12.7552 13.4315C12.5602 13.5745 12.4952 13.8475 12.6252 14.0555Z" fill="white"/>
<path id="Vector_2" d="M17.7328 1.96484H4.18684C2.61384 1.96484 1.33984 3.23884 1.33984 4.81184V15.2638C1.33984 16.8368 2.61384 18.1108 4.18684 18.1108H17.7328C19.3058 18.1108 20.5798 16.8368 20.5798 15.2638V4.81184C20.5798 3.23884 19.3058 1.96484 17.7328 1.96484ZM19.2798 15.2638C19.2798 16.1218 18.5908 16.8108 17.7328 16.8108H4.18684C3.32884 16.8108 2.63984 16.1218 2.63984 15.2638V7.65884H19.2798V15.2638ZM19.2798 6.61884H2.63984V4.81184C2.63984 3.95384 3.32884 3.26484 4.18684 3.26484H17.7328C18.5908 3.26484 19.2798 3.95384 19.2798 4.81184V6.61884Z" fill="white"/>
<path id="Vector_3" d="M4.61719 4.84025C4.61719 4.98851 4.67608 5.13069 4.78091 5.23552C4.88575 5.34036 5.02793 5.39925 5.17619 5.39925C5.32444 5.39925 5.46663 5.34036 5.57146 5.23552C5.67629 5.13069 5.73519 4.98851 5.73519 4.84025C5.73519 4.69199 5.67629 4.54981 5.57146 4.44498C5.46663 4.34014 5.32444 4.28125 5.17619 4.28125C5.02793 4.28125 4.88575 4.34014 4.78091 4.44498C4.67608 4.54981 4.61719 4.69199 4.61719 4.84025Z" fill="white"/>
<path id="Vector_4" d="M6.83984 4.84025C6.83984 4.98851 6.89874 5.13069 7.00357 5.23552C7.1084 5.34036 7.25059 5.39925 7.39884 5.39925C7.5471 5.39925 7.68928 5.34036 7.79412 5.23552C7.89895 5.13069 7.95784 4.98851 7.95784 4.84025C7.95784 4.69199 7.89895 4.54981 7.79412 4.44498C7.68928 4.34014 7.5471 4.28125 7.39884 4.28125C7.25059 4.28125 7.1084 4.34014 7.00357 4.44498C6.89874 4.54981 6.83984 4.69199 6.83984 4.84025Z" fill="white"/>
<path id="Vector_5" d="M9.07422 4.84025C9.07422 4.98851 9.13311 5.13069 9.23795 5.23552C9.34278 5.34036 9.48496 5.39925 9.63322 5.39925C9.78147 5.39925 9.92366 5.34036 10.0285 5.23552C10.1333 5.13069 10.1922 4.98851 10.1922 4.84025C10.1922 4.69199 10.1333 4.54981 10.0285 4.44498C9.92366 4.34014 9.78147 4.28125 9.63322 4.28125C9.48496 4.28125 9.34278 4.34014 9.23795 4.44498C9.13311 4.54981 9.07422 4.69199 9.07422 4.84025Z" fill="white"/>
</g>
</g>
</svg>
