<svg width="42" height="44" viewBox="0 0 42 44" fill="none" xmlns="http://www.w3.org/2000/svg">
<g id="Group 2085667472">
<g id="Group 2085667436">
<g id="Group 2085667433">
<circle id="Ellipse 4255063" cx="3.2" cy="3.65313" r="2.2" fill="#6B41DE" fill-opacity="0.44"/>
<circle id="Ellipse 4255064" cx="11.0086" cy="3.65313" r="2.2" fill="#6B41DE" fill-opacity="0.44"/>
<circle id="Ellipse 4255065" cx="18.8133" cy="3.65313" r="2.2" fill="#6B41DE" fill-opacity="0.44"/>
<circle id="Ellipse 4255066" cx="26.6219" cy="3.65313" r="2.2" fill="#6B41DE" fill-opacity="0.44"/>
<circle id="Ellipse 4255067" cx="26.6219" cy="11.4617" r="2.2" fill="#6B41DE" fill-opacity="0.44"/>
<circle id="Ellipse 4255072" cx="3.2" cy="11.4617" r="2.2" fill="#6B41DE" fill-opacity="0.44"/>
<circle id="Ellipse 4255073" cx="26.6219" cy="17.7078" r="2.2" fill="#6B41DE" fill-opacity="0.44"/>
<circle id="Ellipse 4255070" cx="11.0086" cy="26.7469" r="2.2" fill="#6B41DE" fill-opacity="0.44"/>
<circle id="Ellipse 4255071" cx="3.2" cy="26.7" r="2.2" fill="#6B41DE" fill-opacity="0.44"/>
<circle id="Ellipse 4255074" cx="3.2" cy="19.0789" r="2.2" fill="#6B41DE" fill-opacity="0.44"/>
</g>
<g id="Frame">
<path id="Vector" d="M37.2595 19.1013C36.9348 18.8016 36.5097 18.6518 36.0867 18.6518C36.0365 18.6518 36.0114 18.6518 35.9619 18.6518C35.9369 18.6518 35.6623 18.6769 35.2379 18.6769C34.5139 18.6769 33.1418 18.6267 31.8198 18.3027C30.1223 17.904 28.1508 16.0323 27.5766 15.6574C27.3027 15.4825 26.9529 15.3828 26.6282 15.3828C26.3042 15.3828 25.9801 15.4825 25.6805 15.6574C25.6059 15.7075 23.5599 17.8281 21.5634 18.3027C20.2407 18.6267 18.8184 18.6769 18.1202 18.6769C17.6707 18.6769 17.3968 18.6518 17.3717 18.6518C17.3466 18.6518 17.2965 18.6518 17.2721 18.6518C16.8226 18.6518 16.4233 18.8016 16.0992 19.1013C15.7501 19.4009 15.5508 19.8497 15.5508 20.2992V24.4407C15.5508 39.7124 25.9055 41.6825 26.3299 41.7577C26.4296 41.7828 26.5299 41.7828 26.6289 41.7828C26.7285 41.7828 26.8295 41.7828 26.9292 41.7577C27.378 41.6825 37.7829 39.7117 37.7829 24.4407V20.2992C37.7829 19.8497 37.5822 19.4009 37.2595 19.1013ZM33.4163 25.0155L26.2547 31.9514C26.2045 32.0267 26.155 32.1019 26.0798 32.1521C25.8798 32.3514 25.6059 32.4511 25.3313 32.4511C25.0561 32.4511 24.7822 32.3514 24.5578 32.1521C24.5076 32.1019 24.4337 32.0273 24.408 31.9514L20.5655 28.2337C20.1662 27.8344 20.1662 27.2113 20.5655 26.812C20.9641 26.4121 21.638 26.4121 22.0373 26.812L25.3313 29.9807L31.9439 23.5932C32.3689 23.1939 33.0164 23.1939 33.4157 23.5932C33.84 23.9674 33.84 24.6162 33.4163 25.0155Z" fill="#6B41DE"/>
</g>
</g>
</g>
</svg>
