<svg width="23" height="22" viewBox="0 0 23 22" fill="none" xmlns="http://www.w3.org/2000/svg">
<g id="Group 2085667667">
<g id="cookie-bite-solid">
<path id="Vector" d="M11.9688 2C6.997 2 2.96875 6.02825 2.96875 11C2.96875 15.9718 6.997 20 11.9688 20C16.9405 20 20.9688 15.9718 20.9688 11C20.9688 10.637 20.9425 10.28 20.8983 9.9245C20.5879 10.1374 20.2201 10.2509 19.8438 10.25C19.4605 10.2492 19.0868 10.1308 18.7729 9.91086C18.4591 9.6909 18.2203 9.37996 18.0887 9.02C17.6058 9.33163 17.0435 9.49822 16.4688 9.5C14.8112 9.5 13.4688 8.1575 13.4688 6.5C13.4688 5.9495 13.6263 5.4395 13.888 4.994C13.8735 4.99745 13.8587 4.99946 13.8438 5C13.5974 5.0003 13.3535 4.952 13.1259 4.85788C12.8982 4.76375 12.6914 4.62565 12.5173 4.45149C12.3431 4.27732 12.205 4.0705 12.1109 3.84288C12.0168 3.61526 11.9685 3.37131 11.9688 3.125C11.9688 2.70575 12.1098 2.3255 12.3408 2.015C12.2178 2.009 12.0947 2 11.9688 2ZM17.5938 2C17.446 2 17.2997 2.0291 17.1632 2.08564C17.0267 2.14217 16.9027 2.22504 16.7983 2.3295C16.6938 2.43397 16.6109 2.55799 16.5544 2.69448C16.4978 2.83097 16.4688 2.97726 16.4688 3.125C16.4688 3.27274 16.4978 3.41903 16.5544 3.55552C16.6109 3.69201 16.6938 3.81603 16.7983 3.9205C16.9027 4.02496 17.0267 4.10783 17.1632 4.16436C17.2997 4.2209 17.446 4.25 17.5938 4.25C17.8921 4.25 18.1783 4.13147 18.3892 3.9205C18.6002 3.70952 18.7188 3.42337 18.7188 3.125C18.7188 2.82663 18.6002 2.54048 18.3892 2.3295C18.1783 2.11853 17.8921 2 17.5938 2ZM10.5063 3.641C10.5804 4.1099 10.752 4.55806 11.01 4.95658C11.2679 5.35509 11.6066 5.69513 12.004 5.95475C11.9805 6.13555 11.9687 6.31768 11.9688 6.5C11.9688 8.98175 13.987 11 16.4688 11C16.8407 11 17.2127 10.9528 17.5705 10.859C18.0867 11.3342 18.7376 11.6374 19.4335 11.7267C19.0675 15.5225 15.8598 18.5 11.9688 18.5C7.83175 18.5 4.46875 15.137 4.46875 11C4.46875 7.364 7.0705 4.3235 10.5063 3.64025V3.641ZM16.4688 5.75C16.0562 5.75 15.7188 6.0875 15.7188 6.5C15.7188 6.9125 16.0562 7.25 16.4688 7.25C16.8813 7.25 17.2188 6.9125 17.2188 6.5C17.2188 6.0875 16.8813 5.75 16.4688 5.75ZM10.4688 6.5C10.0562 6.5 9.71875 6.8375 9.71875 7.25C9.71875 7.6625 10.0562 8 10.4688 8C10.8813 8 11.2188 7.6625 11.2188 7.25C11.2188 6.8375 10.8813 6.5 10.4688 6.5ZM20.2188 6.5C19.8062 6.5 19.4688 6.8375 19.4688 7.25C19.4688 7.6625 19.8062 8 20.2188 8C20.6313 8 20.9688 7.6625 20.9688 7.25C20.9688 6.8375 20.6313 6.5 20.2188 6.5ZM8.21875 8.75C7.82093 8.75 7.43939 8.90804 7.15809 9.18934C6.87679 9.47064 6.71875 9.85218 6.71875 10.25C6.71875 10.6478 6.87679 11.0294 7.15809 11.3107C7.43939 11.592 7.82093 11.75 8.21875 11.75C8.61657 11.75 8.99811 11.592 9.27941 11.3107C9.56071 11.0294 9.71875 10.6478 9.71875 10.25C9.71875 9.85218 9.56071 9.47064 9.27941 9.18934C8.99811 8.90804 8.61657 8.75 8.21875 8.75ZM11.9688 10.25C11.5562 10.25 11.2188 10.5875 11.2188 11C11.2188 11.4125 11.5562 11.75 11.9688 11.75C12.3813 11.75 12.7188 11.4125 12.7188 11C12.7188 10.5875 12.3813 10.25 11.9688 10.25ZM9.34375 13.25C9.04538 13.25 8.75923 13.3685 8.54825 13.5795C8.33728 13.7905 8.21875 14.0766 8.21875 14.375C8.21875 14.6734 8.33728 14.9595 8.54825 15.1705C8.75923 15.3815 9.04538 15.5 9.34375 15.5C9.64212 15.5 9.92827 15.3815 10.1392 15.1705C10.3502 14.9595 10.4688 14.6734 10.4688 14.375C10.4688 14.0766 10.3502 13.7905 10.1392 13.5795C9.92827 13.3685 9.64212 13.25 9.34375 13.25ZM14.5938 14C14.2954 14 14.0092 14.1185 13.7983 14.3295C13.5873 14.5405 13.4688 14.8266 13.4688 15.125C13.4688 15.4234 13.5873 15.7095 13.7983 15.9205C14.0092 16.1315 14.2954 16.25 14.5938 16.25C14.8921 16.25 15.1783 16.1315 15.3892 15.9205C15.6002 15.7095 15.7188 15.4234 15.7188 15.125C15.7188 14.8266 15.6002 14.5405 15.3892 14.3295C15.1783 14.1185 14.8921 14 14.5938 14Z" fill="white"/>
</g>
</g>
</svg>
