<svg width="42" height="44" viewBox="0 0 42 44" fill="none" xmlns="http://www.w3.org/2000/svg">
<g id="Group 2085667467">
<g id="Group 2085667435">
<g id="Group 2085667433">
<circle id="Ellipse 4255063" cx="2.2" cy="3.65313" r="2.2" fill="#6B41DE" fill-opacity="0.44"/>
<circle id="Ellipse 4255064" cx="10.0086" cy="3.65313" r="2.2" fill="#6B41DE" fill-opacity="0.44"/>
<circle id="Ellipse 4255065" cx="17.8133" cy="3.65313" r="2.2" fill="#6B41DE" fill-opacity="0.44"/>
<circle id="Ellipse 4255066" cx="25.6219" cy="3.65313" r="2.2" fill="#6B41DE" fill-opacity="0.44"/>
<circle id="Ellipse 4255067" cx="25.6219" cy="11.4617" r="2.2" fill="#6B41DE" fill-opacity="0.44"/>
<circle id="Ellipse 4255072" cx="2.2" cy="11.4617" r="2.2" fill="#6B41DE" fill-opacity="0.44"/>
<circle id="Ellipse 4255070" cx="10.0086" cy="26.7469" r="2.2" fill="#6B41DE" fill-opacity="0.44"/>
<circle id="Ellipse 4255071" cx="2.2" cy="26.7" r="2.2" fill="#6B41DE" fill-opacity="0.44"/>
<circle id="Ellipse 4255074" cx="2.2" cy="19.0789" r="2.2" fill="#6B41DE" fill-opacity="0.44"/>
</g>
<path id="Vector" d="M37 22.5455V38.1433C37 39.1109 36.3509 39.9073 35.5273 39.9924L35.38 40H14.6189C13.7756 40 13.0807 39.2571 13.0065 38.3124L13 38.1433V22.5455H37ZM25.0829 24.9411L25.0425 25.0611L22.7844 33.4916C22.712 33.7605 22.7452 34.0469 22.8771 34.2921C23.0091 34.5374 23.2298 34.7228 23.4941 34.8105C23.7584 34.8983 24.0462 34.8816 24.2986 34.764C24.551 34.6463 24.7489 34.4366 24.8516 34.1778L24.892 34.0567L27.1502 25.6262C27.2216 25.3575 27.1878 25.0717 27.0557 24.8272C26.9235 24.5826 26.703 24.3977 26.4391 24.3103C26.1752 24.2228 25.8879 24.2394 25.6359 24.3567C25.3838 24.4739 25.186 24.683 25.0829 24.9411ZM30.0913 25.8531C29.9218 25.9032 29.7685 25.9971 29.6467 26.1252C29.5249 26.2533 29.439 26.4111 29.3975 26.5829C29.3584 26.735 29.3532 26.8939 29.3822 27.0483C29.4112 27.2027 29.4738 27.3488 29.5655 27.4764L29.6516 27.5789L31.5651 29.5895L29.6516 31.6C29.4657 31.7974 29.3626 32.0586 29.3636 32.3298C29.3636 32.6025 29.4673 32.8655 29.6516 33.0585C29.7405 33.1537 29.8479 33.2297 29.9672 33.2818C30.0865 33.334 30.2153 33.3612 30.3455 33.3618C30.563 33.361 30.7737 33.2856 30.9422 33.148L31.0393 33.0585L33.6465 30.3204C33.8165 30.1395 33.9181 29.9049 33.9336 29.6572C33.9491 29.4094 33.8777 29.164 33.7316 28.9633L33.6465 28.8607L31.0393 26.1204C30.9208 25.9934 30.7697 25.9014 30.6026 25.8543C30.4355 25.8072 30.2586 25.8068 30.0913 25.8531H30.0913ZM19.2695 26.0025L19.168 26.0876L16.5607 28.8258C16.3906 29.0064 16.289 29.2408 16.2735 29.4885C16.2579 29.7361 16.3294 29.9814 16.4756 30.1818L16.5607 30.2822L19.168 33.0215C19.2576 33.1141 19.365 33.1874 19.4838 33.2371C19.6027 33.2869 19.7304 33.3119 19.8592 33.3106C19.988 33.3094 20.1152 33.282 20.233 33.23C20.3509 33.1781 20.4569 33.1026 20.5447 33.0084C20.7112 32.8296 20.8116 32.5992 20.829 32.3555C20.8465 32.1118 20.78 31.8695 20.6407 31.6687L20.5556 31.5629L18.6433 29.5524L20.5556 27.5429C20.7257 27.3431 20.8163 27.0877 20.8103 26.8254C20.8043 26.5631 20.702 26.3122 20.5229 26.1204C20.3647 25.9502 20.1494 25.8442 19.9181 25.8225C19.6867 25.8008 19.4555 25.8649 19.2684 26.0026L19.2695 26.0025ZM13 17.8545C13 16.888 13.6469 16.0938 14.4716 16.0076L14.6189 16H35.38C36.2233 16.0011 36.916 16.7407 36.9934 17.6844L37 17.8545V20.3636H13V17.8545Z" fill="#6B41DE"/>
</g>
</g>
</svg>
