<svg width="21" height="20" viewBox="0 0 21 20" fill="none" xmlns="http://www.w3.org/2000/svg">
<g id="Clip path group">
<mask id="mask0_2206_7602" style="mask-type:luminance" maskUnits="userSpaceOnUse" x="0" y="0" width="21" height="20">
<g id="clip0_8706_5965">
<path id="Vector" d="M20.9688 0H0.96875V20H20.9688V0Z" fill="white"/>
</g>
</mask>
<g mask="url(#mask0_2206_7602)">
<g id="Group">
<g id="Clip path group_2">
<mask id="mask1_2206_7602" style="mask-type:luminance" maskUnits="userSpaceOnUse" x="0" y="-2" width="21" height="24">
<g id="clip1_8706_5965">
<path id="Vector_2" d="M20.8008 -1.10254H0.800781V21.3975H20.8008V-1.10254Z" fill="white"/>
</g>
</mask>
<g mask="url(#mask1_2206_7602)">
<g id="Group_2">
<g id="Mask group">
<mask id="mask2_2206_7602" style="mask-type:luminance" maskUnits="userSpaceOnUse" x="3" y="-2" width="16" height="12">
<g id="Group_3">
<path id="Vector_3" d="M4.94948 -1.58398L3.4375 6.51728L17.4811 9.52713L18.9931 1.4259L4.94948 -1.58398Z" fill="white"/>
</g>
</mask>
<g mask="url(#mask2_2206_7602)">
<g id="Group_4">
<path id="Vector_4" d="M16.599 14.288C16.5255 14.3766 16.4613 14.4602 16.3924 14.5389C16.0434 14.9424 15.6439 15.2819 15.2077 15.5723C14.6062 15.9757 13.968 16.2857 13.2838 16.4973C12.6318 16.6991 11.9613 16.8073 11.2818 16.8319C10.7629 16.8516 10.2486 16.8123 9.73434 16.7188C8.7058 16.5268 7.75071 16.1283 6.87367 15.528C6.05175 14.967 5.34921 14.2732 4.76606 13.4367C4.20586 12.6248 3.7926 11.7391 3.53088 10.7697C3.31506 9.97753 3.21405 9.1656 3.22323 8.33894C3.22323 7.98468 3.26455 7.63534 3.2921 7.28103C3.31506 7.0301 3.36557 6.78898 3.4069 6.54787C3.42527 6.45437 3.462 6.37074 3.48496 6.27724C3.59057 5.87864 3.71455 5.485 3.86608 5.10119C4.34821 3.88582 5.06452 2.84757 6.015 2.00123C6.63492 1.45012 7.31451 1.00234 8.05834 0.672666C8.81138 0.338062 9.592 0.13632 10.4048 0.0625109C10.8777 0.0182255 11.346 0.0182255 11.819 0.0625109C12.1083 0.0920344 12.3975 0.13632 12.6823 0.200288C13.8348 0.466 14.8771 0.977741 15.823 1.7306C15.9516 1.83393 16.0802 1.94218 16.2041 2.05535C16.2225 2.07011 16.2363 2.07504 16.2592 2.05535C16.6863 1.76504 17.1133 1.47473 17.5449 1.18933C17.577 1.16472 17.6092 1.14504 17.6551 1.11552C17.7791 2.86725 17.8893 4.61405 17.9857 6.36087C17.9857 6.36087 17.9765 6.37074 17.972 6.37565C16.498 5.59328 15.0286 4.81087 13.5455 4.01867C13.9358 3.72836 14.3169 3.44296 14.7026 3.15757C14.5878 3.07392 14.4776 2.99027 14.3674 2.91154C13.9037 2.58678 13.4123 2.34075 12.8843 2.16853C11.5848 1.74044 10.2945 1.76012 9.00884 2.24726C8.5313 2.42932 8.08592 2.67043 7.66346 2.9755C7.14917 3.34947 6.69917 3.79725 6.30888 4.31391C5.87267 4.88468 5.53746 5.51948 5.29413 6.21326C5.20228 6.47897 5.12422 6.75451 5.06911 7.0301C4.87167 8.03389 4.89004 9.02786 5.12422 10.0218C5.28492 10.7008 5.55125 11.3307 5.89563 11.9261C6.27675 12.5805 6.74971 13.1513 7.31909 13.6237C7.80121 14.0223 8.33384 14.3323 8.90321 14.5586C9.18334 14.6668 9.46342 14.7554 9.75271 14.8243C10.5425 15.0113 11.3323 15.0506 12.1313 14.8981C12.8475 14.7554 13.5134 14.4799 14.1333 14.0813C14.3812 13.9189 14.6154 13.7418 14.8588 13.5646C14.923 13.5203 14.9781 13.5105 15.047 13.5449C15.5383 13.7861 16.0343 14.0223 16.5255 14.2585C16.5393 14.2634 16.5531 14.2732 16.5807 14.288H16.599Z" fill="white"/>
</g>
</g>
</g>
<g id="Mask group_2">
<mask id="mask3_2206_7602" style="mask-type:luminance" maskUnits="userSpaceOnUse" x="0" y="10" width="17" height="12">
<g id="Group_5">
<path id="Vector_5" d="M14.0128 21.5847L0.96875 16.9948L3.48023 10.4736L16.5243 15.0636L14.0128 21.5847Z" fill="white" stroke="white" stroke-width="0.451251"/>
</g>
</mask>
<g mask="url(#mask3_2206_7602)">
<g id="Group_6">
<path id="Vector_6" d="M4.98282 6.11673C5.0677 6.05072 5.14782 5.98471 5.2327 5.92752C5.64757 5.62385 6.10013 5.38181 6.58571 5.19256C7.25517 4.92851 7.95289 4.74806 8.67419 4.66004C9.36717 4.57643 10.0602 4.58523 10.7532 4.66004C11.2812 4.72165 11.7998 4.83167 12.3042 4.99013C13.3178 5.31136 14.2277 5.80428 15.0291 6.46884C15.7787 7.08495 16.3916 7.8023 16.8536 8.62967C17.3015 9.43065 17.589 10.2756 17.7116 11.169C17.8106 11.9039 17.7918 12.6345 17.6644 13.365C17.6079 13.6775 17.5183 13.9812 17.4382 14.2892C17.3816 14.5049 17.292 14.7117 17.2119 14.923C17.1836 15.0022 17.1317 15.0726 17.094 15.1518C16.929 15.4907 16.7452 15.8163 16.533 16.1332C15.8636 17.1366 14.9867 17.9464 13.893 18.5537C13.1811 18.9498 12.4268 19.2402 11.6206 19.4251C10.8098 19.6099 9.98477 19.6715 9.15032 19.6144C8.66474 19.5835 8.18861 19.5131 7.71718 19.4031C7.42487 19.3327 7.14201 19.2535 6.85916 19.1522C5.73244 18.7474 4.74711 18.14 3.90325 17.3347C3.78539 17.2247 3.67696 17.1058 3.56382 16.9914C3.54496 16.9738 3.53553 16.9694 3.51196 16.9782C3.03581 17.1718 2.55966 17.3611 2.08351 17.5547C2.04579 17.5679 2.00808 17.5855 1.96094 17.6031C2.09766 16.0364 2.2438 14.4785 2.40409 12.9206C2.40409 12.9206 2.41352 12.9162 2.41823 12.9118C3.79482 13.8227 5.17139 14.7337 6.56214 15.6491C6.1237 15.8471 5.69471 16.0408 5.25627 16.2388C5.36001 16.3313 5.459 16.4193 5.56269 16.5029C5.98227 16.855 6.44899 17.1498 6.95815 17.3831C8.21218 17.9552 9.52747 18.1268 10.8993 17.8848C11.4085 17.7968 11.8988 17.6471 12.3702 17.4403C12.9454 17.1894 13.4687 16.855 13.9401 16.4589C14.4681 16.0188 14.9019 15.5083 15.2507 14.9318C15.3874 14.7117 15.5053 14.4785 15.5996 14.2408C15.9484 13.387 16.0804 12.5025 15.9861 11.5871C15.9249 10.9621 15.7457 10.368 15.4864 9.7915C15.1941 9.15338 14.8029 8.58127 14.2937 8.07957C13.8647 7.65706 13.3697 7.30499 12.8228 7.01894C12.5588 6.87809 12.2806 6.75928 11.9978 6.65805C11.2246 6.37199 10.4279 6.22236 9.59347 6.23997C8.8486 6.25758 8.1273 6.40278 7.43903 6.66687C7.16559 6.77246 6.89685 6.8957 6.62815 7.01455C6.55744 7.04534 6.49613 7.04094 6.43488 7.00572C5.96815 6.71967 5.50614 6.43801 5.03942 6.15635C5.02526 6.14756 5.01114 6.13873 4.98757 6.12116L4.98282 6.11673Z" fill="white"/>
</g>
</g>
</g>
<path id="Vector_7" fill-rule="evenodd" clip-rule="evenodd" d="M3.27252 9.59261C2.6498 8.9507 2.26172 8.06985 2.26172 7.09529C2.26172 5.14617 3.805 3.5625 5.70929 3.5625C7.61356 3.5625 9.15684 5.14149 9.15684 7.09529C9.15684 8.06985 8.76878 8.95537 8.14605 9.59261L5.70929 12.0899L3.27252 9.59261Z" fill="white"/>
<path id="Vector_8" fill-rule="evenodd" clip-rule="evenodd" d="M2.50698 10.3894C1.69021 9.55071 1.17578 8.38406 1.17578 7.09088C1.17578 4.50453 3.21544 2.43359 5.70635 2.43359C8.19728 2.43359 10.2369 4.50453 10.2369 7.09088C10.2369 8.37934 9.7225 9.55071 8.90572 10.3894L5.71087 13.6645L2.51149 10.3847L2.50698 10.3894ZM8.14311 9.59288C8.76584 8.95565 9.15394 8.07012 9.15394 7.09556C9.15394 5.14176 7.61062 3.56277 5.70635 3.56277C3.80207 3.56277 2.25879 5.14644 2.25879 7.09556C2.25879 8.07012 2.64686 8.95565 3.26959 9.59288L5.70635 12.0902L8.14311 9.59288Z" fill="#4528A4"/>
<path id="Vector_9" fill-rule="evenodd" clip-rule="evenodd" d="M13.171 14.618C12.5483 13.9761 12.1602 13.0953 12.1602 12.1207C12.1602 10.1716 13.7034 8.58789 15.6077 8.58789C17.512 8.58789 19.0553 10.1669 19.0553 12.1207C19.0553 13.0953 18.6672 13.9808 18.0445 14.618L15.6077 17.1153L13.171 14.618Z" fill="white"/>
<path id="Vector_10" fill-rule="evenodd" clip-rule="evenodd" d="M12.4132 15.4138C11.5965 14.5751 11.082 13.4084 11.082 12.1153C11.082 9.52893 13.1217 7.45801 15.6126 7.45801C18.1035 7.45801 20.1432 9.52893 20.1432 12.1153C20.1432 13.4037 19.6287 14.5751 18.812 15.4138L15.6171 18.6889L12.4177 15.4091L12.4132 15.4138ZM18.0494 14.6173C18.6721 13.9801 19.0602 13.0945 19.0602 12.12C19.0602 10.1662 17.5169 8.58715 15.6126 8.58715C13.7083 8.58715 12.1651 10.1708 12.1651 12.12C12.1651 13.0945 12.5531 13.9801 13.1758 14.6173L15.6126 17.1146L18.0494 14.6173Z" fill="#4528A4"/>
</g>
</g>
</g>
</g>
</g>
</g>
</svg>
