<svg width="23" height="23" viewBox="0 0 23 23" fill="none" xmlns="http://www.w3.org/2000/svg">
<g id="&#231;&#172;&#172;&#228;&#184;&#128;&#228;&#184;&#170;icon">
<g id="Frame" clip-path="url(#clip0_14030_111430)">
<path id="Vector" d="M10.9701 18.3451H3.88672C3.19636 18.3451 2.63672 17.7854 2.63672 17.0951V6.26172C2.63672 5.57136 3.19636 5.01172 3.88672 5.01172H18.0534C18.7438 5.01172 19.3034 5.57136 19.3034 6.26172V11.2862" stroke="white" stroke-width="1.3" stroke-linecap="round" stroke-linejoin="round"/>
<path id="Vector_2" d="M2.63672 6.26172C2.63672 5.57136 3.19636 5.01172 3.88672 5.01172H18.0534C18.7438 5.01172 19.3034 5.57136 19.3034 6.26172V10.0117H2.63672V6.26172Z" stroke="white" stroke-width="1.3"/>
<path id="Vector_3" d="M18.0508 15.4297H15.5508C14.8604 15.4297 14.3008 15.9893 14.3008 16.6797V17.513C14.3008 18.2034 14.8604 18.763 15.5508 18.763H18.0508C18.7411 18.763 19.3008 18.2034 19.3008 17.513V16.6797C19.3008 15.9893 18.7411 15.4297 18.0508 15.4297Z" stroke="white" stroke-width="1.3" stroke-linejoin="round"/>
<g id="Vector_4" filter="url(#filter0_d_14030_111430)">
<path d="M16.8008 12.9297C17.4912 12.9297 18.0508 13.4893 18.0508 14.1797V15.4297H15.5508V14.1797C15.5508 13.4893 16.1104 12.9297 16.8008 12.9297Z" stroke="white" stroke-width="1.3" stroke-linejoin="round" shape-rendering="crispEdges"/>
</g>
<path id="Vector_5" d="M4.30208 7.51432C4.30208 7.05409 4.67518 6.68099 5.13542 6.68099C5.59565 6.68099 5.96875 7.05409 5.96875 7.51432C5.96875 7.97456 5.59565 8.34766 5.13542 8.34766C4.67518 8.34766 4.30208 7.97456 4.30208 7.51432Z" fill="white"/>
<path id="Vector_6" d="M6.80208 7.51432C6.80208 7.05409 7.17518 6.68099 7.63542 6.68099C8.09565 6.68099 8.46875 7.05409 8.46875 7.51432C8.46875 7.97456 8.09565 8.34766 7.63542 8.34766C7.17518 8.34766 6.80208 7.97456 6.80208 7.51432Z" fill="white"/>
</g>
</g>
<defs>
<filter id="filter0_d_14030_111430" x="10.9023" y="12.2812" width="11.7969" height="11.7969" filterUnits="userSpaceOnUse" color-interpolation-filters="sRGB">
<feFlood flood-opacity="0" result="BackgroundImageFix"/>
<feColorMatrix in="SourceAlpha" type="matrix" values="0 0 0 0 0 0 0 0 0 0 0 0 0 0 0 0 0 0 127 0" result="hardAlpha"/>
<feOffset dy="4"/>
<feGaussianBlur stdDeviation="2"/>
<feComposite in2="hardAlpha" operator="out"/>
<feColorMatrix type="matrix" values="0 0 0 0 0 0 0 0 0 0 0 0 0 0 0 0 0 0 0.25 0"/>
<feBlend mode="normal" in2="BackgroundImageFix" result="effect1_dropShadow_14030_111430"/>
<feBlend mode="normal" in="SourceGraphic" in2="effect1_dropShadow_14030_111430" result="shape"/>
</filter>
<clipPath id="clip0_14030_111430">
<rect width="20" height="20" fill="white" transform="translate(0.96875 1.67969)"/>
</clipPath>
</defs>
</svg>
