<svg width="23" height="22" viewBox="0 0 23 22" fill="none" xmlns="http://www.w3.org/2000/svg">
<g id="Group 2085667666">
<g id="Frame 2085667458">
<g id="Group 2085667443">
<path id="Vector" d="M16.2437 2.50391H7.68626C7.45056 2.50384 7.21909 2.57051 7.01552 2.69708C6.81195 2.82365 6.6436 3.00559 6.5277 3.22427L3.64062 8.67289C3.50513 8.9286 3.44752 9.22284 3.47575 9.51496C3.50399 9.80707 3.61668 10.0826 3.79825 10.3035L10.9601 19.0202C11.0847 19.1719 11.2384 19.2936 11.4107 19.377C11.583 19.4604 11.77 19.5037 11.9593 19.5039C12.1486 19.5041 12.3357 19.4613 12.5082 19.3783C12.6807 19.2954 12.8346 19.1741 12.9596 19.0227L20.1371 10.3308C20.3194 10.1101 20.4328 9.83434 20.4615 9.54185C20.4902 9.24936 20.4329 8.95459 20.2973 8.6984L17.4026 3.22533C17.2868 3.0064 17.1185 2.82422 16.9148 2.69745C16.7112 2.57068 16.4796 2.50388 16.2437 2.50391ZM7.68626 3.92125H16.2437L19.1385 9.39431L11.961 18.0865L4.79885 9.36986L7.68626 3.92125Z" fill="white"/>
<path id="Vector_2" d="M15.6244 7.46484V8.17351C15.6244 8.36147 15.5543 8.54172 15.4296 8.67462C15.3049 8.80752 15.1357 8.88219 14.9593 8.88219H8.97367C8.79728 8.88219 8.62811 8.80752 8.50339 8.67462C8.37866 8.54172 8.30859 8.36147 8.30859 8.17351V7.46484H15.6244Z" fill="white"/>
</g>
</g>
</g>
</svg>
