<svg width="24" height="24" viewBox="0 0 24 24" fill="none" xmlns="http://www.w3.org/2000/svg">
<path d="M0 3.57422C0 1.60023 1.60023 0 3.57422 0H20.4258C22.3998 0 24 1.60023 24 3.57422V20.4258C24 22.3998 22.3998 24 20.4258 24H3.57422C1.60023 24 0 22.3998 0 20.4258V3.57422Z" fill="black"/>
<path d="M16.6797 9.42798V11.8108M16.6797 11.8108V14.1936M16.6797 11.8108H19.0625M16.6797 11.8108H14.2969M12.7083 7.83944C12.7083 8.68205 12.3736 9.49016 11.7778 10.086C11.182 10.6818 10.3739 11.0165 9.53125 11.0165C8.68863 11.0165 7.88053 10.6818 7.28471 10.086C6.68889 9.49016 6.35417 8.68205 6.35417 7.83944C6.35417 6.99682 6.68889 6.18872 7.28471 5.5929C7.88053 4.99708 8.68863 4.66235 9.53125 4.66235C10.3739 4.66235 11.182 4.99708 11.7778 5.5929C12.3736 6.18872 12.7083 6.99682 12.7083 7.83944ZM4.76562 18.165C4.76562 16.901 5.26772 15.6889 6.16144 14.7952C7.05517 13.9014 8.26733 13.3993 9.53125 13.3993C10.7952 13.3993 12.0073 13.9014 12.9011 14.7952C13.7948 15.6889 14.2969 16.901 14.2969 18.165V18.9592H4.76562V18.165Z" stroke="white" stroke-width="1.19141" stroke-linecap="round" stroke-linejoin="round"/>
</svg>
