<svg width="24" height="24" viewBox="0 0 24 24" fill="none" xmlns="http://www.w3.org/2000/svg">
<path d="M0 3.57422C0 1.60023 1.60023 0 3.57422 0H20.4258C22.3998 0 24 1.60023 24 3.57422V20.4258C24 22.3998 22.3998 24 20.4258 24H3.57422C1.60023 24 0 22.3998 0 20.4258V3.57422Z" fill="black"/>
<path d="M19.0039 12.5C19.0039 16.6421 15.6452 20 11.5019 20C7.35874 20 4 16.6421 4 12.5C4 8.35786 7.35874 5 11.5019 5C14.2787 5 16.7031 6.50824 18.0003 8.75M16.9459 13.323L18.8214 11.448L20.6969 13.323M14.3125 14.5451L11.5 13.6076V9.6875" stroke="white" stroke-width="1.4" stroke-linecap="round" stroke-linejoin="round"/>
</svg>
