<svg width="24" height="24" viewBox="0 0 24 24" fill="none" xmlns="http://www.w3.org/2000/svg">
<path d="M0 3.57422C0 1.60023 1.60023 0 3.57422 0H20.4258C22.3998 0 24 1.60023 24 3.57422V20.4258C24 22.3998 22.3998 24 20.4258 24H3.57422C1.60023 24 0 22.3998 0 20.4258V3.57422Z" fill="#090909"/>
<path d="M14.5858 4.58444L15.0101 4.16018V4.16018L14.5858 4.58444ZM17.4142 7.41287L16.99 7.83713V7.83713L17.4142 7.41287ZM10.2424 15.7563C10.4767 15.9906 10.8566 15.9906 11.0909 15.7563C11.3252 15.5219 11.3252 15.142 11.0909 14.9077L10.6667 15.332L10.2424 15.7563ZM9 13.6653L8.57574 13.2411C8.46321 13.3536 8.4 13.5062 8.4 13.6653C8.4 13.8245 8.46321 13.9771 8.57574 14.0896L9 13.6653ZM11.0909 12.4229C11.3252 12.1886 11.3252 11.8087 11.0909 11.5744C10.8566 11.3401 10.4767 11.3401 10.2424 11.5744L10.6667 11.9987L11.0909 12.4229ZM13.7576 11.5744C13.5233 11.3401 13.1434 11.3401 12.9091 11.5744C12.6748 11.8087 12.6748 12.1886 12.9091 12.4229L13.3333 11.9987L13.7576 11.5744ZM15 13.6653L15.4243 14.0896C15.5368 13.9771 15.6 13.8245 15.6 13.6653C15.6 13.5062 15.5368 13.3536 15.4243 13.2411L15 13.6653ZM12.9091 14.9077C12.6748 15.142 12.6748 15.5219 12.9091 15.7563C13.1434 15.9906 13.5233 15.9906 13.7576 15.7563L13.3333 15.332L12.9091 14.9077ZM16 19.9987V19.3987H8V19.9987V20.5987H16V19.9987ZM6 17.9987H6.6V5.99866H6H5.4V17.9987H6ZM8 3.99866V4.59866H13.1716V3.99866V3.39866H8V3.99866ZM18 8.82708H17.4V17.9987H18H18.6V8.82708H18ZM13.1716 3.99866V4.59866C13.5429 4.59866 13.899 4.74616 14.1615 5.00871L14.5858 4.58444L15.0101 4.16018C14.5225 3.67258 13.8611 3.39866 13.1716 3.39866V3.99866ZM8 19.9987V19.3987C7.2268 19.3987 6.6 18.7719 6.6 17.9987H6H5.4C5.4 19.4346 6.56406 20.5987 8 20.5987V19.9987ZM16 19.9987V20.5987C17.4359 20.5987 18.6 19.4346 18.6 17.9987H18H17.4C17.4 18.7719 16.7732 19.3987 16 19.3987V19.9987ZM17.4142 7.41287L16.99 7.83713C17.2525 8.09969 17.4 8.45578 17.4 8.82708H18H18.6C18.6 8.13752 18.3261 7.4762 17.8385 6.98861L17.4142 7.41287ZM6 5.99866H6.6C6.6 5.22546 7.2268 4.59866 8 4.59866V3.99866V3.39866C6.56406 3.39866 5.4 4.56272 5.4 5.99866H6ZM13 3.99866H12.4V7.99866H13H13.6V3.99866H13ZM14 8.99866V9.59866H18V8.99866V8.39866H14V8.99866ZM13 7.99866H12.4C12.4 8.88231 13.1163 9.59866 14 9.59866V8.99866V8.39866C13.7791 8.39866 13.6 8.21957 13.6 7.99866H13ZM14.5858 4.58444L14.1615 5.00871L16.99 7.83713L17.4142 7.41287L17.8385 6.98861L15.0101 4.16018L14.5858 4.58444ZM10.6667 15.332L11.0909 14.9077L9.42426 13.2411L9 13.6653L8.57574 14.0896L10.2424 15.7563L10.6667 15.332ZM9 13.6653L9.42426 14.0896L11.0909 12.4229L10.6667 11.9987L10.2424 11.5744L8.57574 13.2411L9 13.6653ZM13.3333 11.9987L12.9091 12.4229L14.5757 14.0896L15 13.6653L15.4243 13.2411L13.7576 11.5744L13.3333 11.9987ZM15 13.6653L14.5757 13.2411L12.9091 14.9077L13.3333 15.332L13.7576 15.7563L15.4243 14.0896L15 13.6653Z" fill="white"/>
</svg>
