<svg width="24" height="24" viewBox="0 0 24 24" fill="none" xmlns="http://www.w3.org/2000/svg">
<rect width="24" height="24" rx="3.57422" fill="#090909"/>
<mask id="path-2-inside-1_1859_10803" fill="white">
<path d="M16.0156 7.72314V7.82656L16.005 7.8369L15.9944 7.84724L15.9839 7.85759L15.9733 7.86793L15.9627 7.87827L15.9521 7.88861L15.9415 7.89895L15.9309 7.9093H14.6708L14.6602 7.89895L14.6496 7.88861L14.6391 7.87827L14.6285 7.86793L14.6179 7.85759L14.6073 7.84724L14.5967 7.8369V7.82656V7.81622V7.80588V7.79553V7.78519V7.77485V7.76451V7.75417V7.74382V7.73348V7.72314V7.7128C14.5967 7.46459 14.5755 7.23706 14.5226 7.01988C14.4696 6.8027 14.3955 6.61654 14.3002 6.43038C14.2049 6.26491 14.0884 6.10978 13.9614 5.98567C13.8237 5.85123 13.6755 5.73746 13.506 5.65473C13.326 5.56165 13.1248 5.48926 12.9025 5.43755C12.6801 5.38584 12.4471 5.36515 12.193 5.36515H11.9071C11.653 5.36515 11.42 5.38584 11.1976 5.43755C10.9753 5.48926 10.7847 5.56165 10.594 5.65473L10.5305 5.68575C10.5093 5.6961 10.4882 5.70644 10.467 5.72712C10.4458 5.73746 10.4246 5.74781 10.4034 5.76849C10.3823 5.77883 10.3611 5.79952 10.3399 5.80986C10.3187 5.8202 10.2976 5.84089 10.287 5.85123C10.2658 5.86157 10.2552 5.88225 10.234 5.8926C10.2128 5.90294 10.2023 5.92362 10.1811 5.94431L10.1281 5.99602L10.0752 6.04773L10.0222 6.09944C10.0117 6.12012 9.99048 6.13046 9.97989 6.15115C9.9693 6.17183 9.94812 6.19252 9.93753 6.20286C9.92694 6.22354 9.90576 6.24423 9.89518 6.26491C9.88459 6.28559 9.86341 6.30628 9.85282 6.32696C9.84223 6.34765 9.83164 6.36833 9.81046 6.38901L9.7787 6.45107C9.68339 6.62688 9.60927 6.82338 9.55633 7.04056C9.50338 7.25775 9.4822 7.48527 9.4822 7.73348V7.85759L9.47162 7.86793L9.46103 7.87827L9.45044 7.88861L9.43985 7.89895L9.42926 7.9093L9.41867 7.91964L9.40808 7.92998L9.39749 7.94032H8.12681L8.11622 7.92998L8.10563 7.91964L8.09504 7.9093L8.08445 7.89895L8.07386 7.88861L8.06328 7.87827L8.05269 7.86793L8.0421 7.85759V7.84724V7.8369V7.82656V7.81622V7.80588V7.79553V7.78519V7.77485V7.76451V7.75417V7.74382V7.73348C8.0421 7.37151 8.08445 7.03022 8.15858 6.70962C8.24329 6.38901 8.35977 6.07875 8.5186 5.79952C8.53978 5.76849 8.56096 5.72712 8.58214 5.6961C8.60332 5.66507 8.62449 5.6237 8.64567 5.59268C8.66685 5.56165 8.68803 5.53062 8.70921 5.48926C8.73038 5.45823 8.75156 5.4272 8.78333 5.39618C8.80451 5.36515 8.83627 5.33412 8.85745 5.3031C8.87863 5.27207 8.9104 5.24105 8.93158 5.21002C8.96334 5.17899 8.98452 5.14797 9.01629 5.11694C9.04805 5.08592 9.06923 5.05489 9.101 5.03421L9.18571 4.95147C9.21748 4.92044 9.24925 4.89976 9.28101 4.86873C9.31278 4.83771 9.34455 4.81702 9.37631 4.79634C9.40808 4.77565 9.43985 4.74463 9.47162 4.72394C9.50338 4.70326 9.53515 4.67223 9.56692 4.65155C9.59868 4.63087 9.63045 4.61018 9.67281 4.5895C9.70457 4.56881 9.73634 4.54813 9.7787 4.52744C9.81046 4.50676 9.85282 4.48608 9.88459 4.46539C10.1705 4.31026 10.4882 4.1965 10.8164 4.11376C11.1447 4.03103 11.4941 4 11.8647 4H12.1506C12.5213 4 12.8601 4.04137 13.1989 4.11376C13.5272 4.1965 13.8449 4.31026 14.1308 4.45505C14.1625 4.47573 14.2049 4.49642 14.2367 4.5171C14.2684 4.53779 14.3108 4.55847 14.3426 4.57915C14.3743 4.59984 14.4061 4.62052 14.4485 4.64121C14.4802 4.66189 14.512 4.68258 14.5438 4.7136C14.5755 4.73429 14.6073 4.76531 14.6391 4.786C14.6708 4.80668 14.7026 4.83771 14.7344 4.85839C14.7661 4.87907 14.7979 4.9101 14.8297 4.94113C14.8614 4.97215 14.8932 4.99284 14.9144 5.02386L14.9991 5.1066C15.0308 5.13763 15.052 5.16865 15.0838 5.19968C15.1156 5.2307 15.1367 5.26173 15.1579 5.29276C15.1791 5.32378 15.2109 5.35481 15.232 5.38584C15.2532 5.41686 15.285 5.44789 15.3062 5.47891C15.3273 5.50994 15.3485 5.54097 15.3697 5.58233C15.3909 5.61336 15.4121 5.64439 15.4332 5.68575C15.4544 5.71678 15.4756 5.75815 15.4968 5.78918C15.6556 6.06841 15.7721 6.37867 15.8568 6.69928C15.9415 7.01988 15.9733 7.36117 15.9733 7.72314C16.0156 7.70246 16.0156 7.7128 16.0156 7.72314Z"/>
</mask>
<path d="M16.0156 7.72314V7.82656L16.005 7.8369L15.9944 7.84724L15.9839 7.85759L15.9733 7.86793L15.9627 7.87827L15.9521 7.88861L15.9415 7.89895L15.9309 7.9093H14.6708L14.6602 7.89895L14.6496 7.88861L14.6391 7.87827L14.6285 7.86793L14.6179 7.85759L14.6073 7.84724L14.5967 7.8369V7.82656V7.81622V7.80588V7.79553V7.78519V7.77485V7.76451V7.75417V7.74382V7.73348V7.72314V7.7128C14.5967 7.46459 14.5755 7.23706 14.5226 7.01988C14.4696 6.8027 14.3955 6.61654 14.3002 6.43038C14.2049 6.26491 14.0884 6.10978 13.9614 5.98567C13.8237 5.85123 13.6755 5.73746 13.506 5.65473C13.326 5.56165 13.1248 5.48926 12.9025 5.43755C12.6801 5.38584 12.4471 5.36515 12.193 5.36515H11.9071C11.653 5.36515 11.42 5.38584 11.1976 5.43755C10.9753 5.48926 10.7847 5.56165 10.594 5.65473L10.5305 5.68575C10.5093 5.6961 10.4882 5.70644 10.467 5.72712C10.4458 5.73746 10.4246 5.74781 10.4034 5.76849C10.3823 5.77883 10.3611 5.79952 10.3399 5.80986C10.3187 5.8202 10.2976 5.84089 10.287 5.85123C10.2658 5.86157 10.2552 5.88225 10.234 5.8926C10.2128 5.90294 10.2023 5.92362 10.1811 5.94431L10.1281 5.99602L10.0752 6.04773L10.0222 6.09944C10.0117 6.12012 9.99048 6.13046 9.97989 6.15115C9.9693 6.17183 9.94812 6.19252 9.93753 6.20286C9.92694 6.22354 9.90576 6.24423 9.89518 6.26491C9.88459 6.28559 9.86341 6.30628 9.85282 6.32696C9.84223 6.34765 9.83164 6.36833 9.81046 6.38901L9.7787 6.45107C9.68339 6.62688 9.60927 6.82338 9.55633 7.04056C9.50338 7.25775 9.4822 7.48527 9.4822 7.73348V7.85759L9.47162 7.86793L9.46103 7.87827L9.45044 7.88861L9.43985 7.89895L9.42926 7.9093L9.41867 7.91964L9.40808 7.92998L9.39749 7.94032H8.12681L8.11622 7.92998L8.10563 7.91964L8.09504 7.9093L8.08445 7.89895L8.07386 7.88861L8.06328 7.87827L8.05269 7.86793L8.0421 7.85759V7.84724V7.8369V7.82656V7.81622V7.80588V7.79553V7.78519V7.77485V7.76451V7.75417V7.74382V7.73348C8.0421 7.37151 8.08445 7.03022 8.15858 6.70962C8.24329 6.38901 8.35977 6.07875 8.5186 5.79952C8.53978 5.76849 8.56096 5.72712 8.58214 5.6961C8.60332 5.66507 8.62449 5.6237 8.64567 5.59268C8.66685 5.56165 8.68803 5.53062 8.70921 5.48926C8.73038 5.45823 8.75156 5.4272 8.78333 5.39618C8.80451 5.36515 8.83627 5.33412 8.85745 5.3031C8.87863 5.27207 8.9104 5.24105 8.93158 5.21002C8.96334 5.17899 8.98452 5.14797 9.01629 5.11694C9.04805 5.08592 9.06923 5.05489 9.101 5.03421L9.18571 4.95147C9.21748 4.92044 9.24925 4.89976 9.28101 4.86873C9.31278 4.83771 9.34455 4.81702 9.37631 4.79634C9.40808 4.77565 9.43985 4.74463 9.47162 4.72394C9.50338 4.70326 9.53515 4.67223 9.56692 4.65155C9.59868 4.63087 9.63045 4.61018 9.67281 4.5895C9.70457 4.56881 9.73634 4.54813 9.7787 4.52744C9.81046 4.50676 9.85282 4.48608 9.88459 4.46539C10.1705 4.31026 10.4882 4.1965 10.8164 4.11376C11.1447 4.03103 11.4941 4 11.8647 4H12.1506C12.5213 4 12.8601 4.04137 13.1989 4.11376C13.5272 4.1965 13.8449 4.31026 14.1308 4.45505C14.1625 4.47573 14.2049 4.49642 14.2367 4.5171C14.2684 4.53779 14.3108 4.55847 14.3426 4.57915C14.3743 4.59984 14.4061 4.62052 14.4485 4.64121C14.4802 4.66189 14.512 4.68258 14.5438 4.7136C14.5755 4.73429 14.6073 4.76531 14.6391 4.786C14.6708 4.80668 14.7026 4.83771 14.7344 4.85839C14.7661 4.87907 14.7979 4.9101 14.8297 4.94113C14.8614 4.97215 14.8932 4.99284 14.9144 5.02386L14.9991 5.1066C15.0308 5.13763 15.052 5.16865 15.0838 5.19968C15.1156 5.2307 15.1367 5.26173 15.1579 5.29276C15.1791 5.32378 15.2109 5.35481 15.232 5.38584C15.2532 5.41686 15.285 5.44789 15.3062 5.47891C15.3273 5.50994 15.3485 5.54097 15.3697 5.58233C15.3909 5.61336 15.4121 5.64439 15.4332 5.68575C15.4544 5.71678 15.4756 5.75815 15.4968 5.78918C15.6556 6.06841 15.7721 6.37867 15.8568 6.69928C15.9415 7.01988 15.9733 7.36117 15.9733 7.72314C16.0156 7.70246 16.0156 7.7128 16.0156 7.72314Z" fill="white" stroke="#090909" stroke-width="0.219846" mask="url(#path-2-inside-1_1859_10803)"/>
<mask id="path-3-inside-2_1859_10803" fill="white">
<path d="M4.30708 11.8895H6.93316V10.2245C5.53541 10.2038 4.41297 9.08683 4.41297 7.72168C4.41297 7.61826 4.49768 7.53552 4.60357 7.53552H5.70483C5.81072 7.53552 5.89543 7.61826 5.89543 7.72168C5.89543 8.31118 6.38253 8.78691 6.9861 8.78691H17.1304C17.734 8.78691 18.221 8.31118 18.221 7.72168C18.221 7.61826 18.3058 7.53552 18.4116 7.53552H19.5023C19.6082 7.53552 19.6929 7.61826 19.6929 7.72168V7.84578C19.6929 7.88715 19.6929 7.92852 19.6823 7.96989C19.6823 8.01126 19.6717 8.05263 19.6717 8.09399C19.6612 8.13536 19.6612 8.17673 19.6506 8.2181L19.6188 8.3422C19.6082 8.38357 19.5976 8.42494 19.587 8.45596C19.5764 8.49733 19.5659 8.5387 19.5447 8.56973C19.5341 8.6111 19.5129 8.64212 19.5023 8.68349C19.4811 8.72486 19.4705 8.75588 19.4494 8.79725C19.4282 8.83862 19.4176 8.86965 19.3964 8.91102C19.3752 8.94204 19.3541 8.98341 19.3329 9.01444C19.3117 9.04546 19.2905 9.08683 19.2694 9.11786C19.2482 9.14888 19.227 9.19025 19.1952 9.22128C19.1741 9.2523 19.1423 9.28333 19.1211 9.31436C19.0893 9.34538 19.0682 9.37641 19.0364 9.40743C19.0046 9.43846 18.9835 9.46949 18.9517 9.50051C18.9199 9.53154 18.8882 9.56256 18.8564 9.58325C18.8246 9.61427 18.7929 9.63496 18.7611 9.66598C18.7293 9.69701 18.6976 9.7177 18.6658 9.73838C18.634 9.75906 18.6023 9.79009 18.5599 9.81077C18.5281 9.83146 18.4858 9.85214 18.454 9.87283C18.4222 9.89351 18.3799 9.91419 18.3481 9.93488C18.3163 9.95556 18.274 9.97625 18.2316 9.98659C18.1893 10.0073 18.1575 10.0176 18.1152 10.0383C18.0728 10.059 18.041 10.0693 17.9987 10.0797C17.9563 10.09 17.9246 10.1107 17.8822 10.121C17.8398 10.1314 17.7975 10.1417 17.7657 10.1521L17.6386 10.1831C17.5963 10.1934 17.5539 10.1934 17.5116 10.2038C17.4692 10.2141 17.4269 10.2141 17.3845 10.2141C17.3422 10.2141 17.2998 10.2245 17.2574 10.2245H17.1833V11.8895H19.8094C19.9153 11.8895 20 11.9723 20 12.0757V13.1926L19.9894 13.203L19.9788 13.2133L19.9682 13.2237L19.9576 13.234L19.9471 13.2443L19.9365 13.2547L19.9259 13.265H17.1621V14.9094C17.1621 15.0128 17.1621 15.1162 17.1516 15.2197C17.1833 15.23 17.2045 15.2404 17.2363 15.261C17.2786 15.2817 17.3104 15.3024 17.3527 15.3127C17.3951 15.3334 17.4269 15.3541 17.4692 15.3748C17.5116 15.3955 17.5433 15.4162 17.5751 15.4369C17.6069 15.4575 17.6492 15.4782 17.681 15.5092C17.7128 15.5299 17.7551 15.561 17.7869 15.5816C17.8187 15.6023 17.861 15.6333 17.8928 15.654C17.9246 15.6747 17.9563 15.7057 17.9881 15.7368C18.0199 15.7678 18.0516 15.7885 18.0834 15.8195C18.1152 15.8505 18.1469 15.8712 18.1787 15.9022L18.274 15.9953C18.3058 16.0263 18.3375 16.0574 18.3587 16.0884C18.3905 16.1194 18.4116 16.1505 18.4434 16.1815C18.4752 16.2125 18.4964 16.2435 18.5281 16.2746C18.5493 16.3056 18.5811 16.3366 18.6023 16.378C18.6234 16.409 18.6552 16.4504 18.6764 16.4814C18.6976 16.5124 18.7187 16.5538 18.7505 16.5848C18.7717 16.6158 18.7929 16.6572 18.814 16.6882C18.8352 16.7296 18.8564 16.7606 18.8776 16.802C18.8987 16.8434 18.9199 16.8744 18.9305 16.9158C18.9517 16.9571 18.9623 16.9882 18.9835 17.0295C19.0046 17.0709 19.0152 17.1019 19.0364 17.1433C19.047 17.1847 19.0682 17.226 19.0788 17.2571C19.0893 17.2984 19.1105 17.3398 19.1211 17.3812L19.1529 17.5053L19.1846 17.6294C19.1952 17.6707 19.2058 17.7121 19.2058 17.7535C19.2164 17.7948 19.2164 17.8362 19.227 17.8776C19.2376 17.9189 19.2376 17.9603 19.2482 18.0017C19.2588 18.043 19.2588 18.0844 19.2588 18.1258C19.2588 18.1672 19.2694 18.2085 19.2694 18.2499V18.4981C19.2694 18.4981 19.2694 18.5084 19.2588 18.5084L19.2482 18.5188L19.2376 18.5291L19.227 18.5395L19.2164 18.5498L19.2058 18.5601L19.1952 18.5705L19.1846 18.5808H17.914C17.914 18.5808 17.9034 18.5808 17.9034 18.5705L17.8928 18.5601L17.8822 18.5498L17.8716 18.5395L17.861 18.5291L17.8504 18.5188L17.8398 18.5084L17.8293 18.4981V18.4878V18.4774V18.4671V18.4567V18.4464V18.436V18.4257V18.4154V18.405V18.3947V18.3843V18.374V18.3016V18.2292C17.8293 18.2085 17.8293 18.1878 17.8187 18.1568C17.8187 18.1361 17.8187 18.1154 17.8081 18.0948C17.8081 18.0741 17.7975 18.0534 17.7975 18.0327C17.7975 18.012 17.7869 17.9913 17.7869 17.9707C17.7869 17.95 17.7763 17.9293 17.7763 17.9086C17.7763 17.8879 17.7657 17.8672 17.7551 17.8465C17.7445 17.8259 17.7445 17.8052 17.734 17.7845C17.7234 17.7638 17.7234 17.7431 17.7128 17.7224C17.7022 17.7018 17.7022 17.6811 17.6916 17.6604C17.681 17.6397 17.6704 17.619 17.6704 17.5983L17.6386 17.5363L17.6069 17.4742L17.5751 17.4122L17.5433 17.3501L17.5116 17.2881C17.501 17.2674 17.4904 17.2467 17.4692 17.2364C17.4586 17.2157 17.448 17.195 17.4269 17.1847C17.4163 17.164 17.3951 17.1433 17.3845 17.1329C17.3739 17.1123 17.3527 17.1019 17.3422 17.0812C17.3316 17.0606 17.3104 17.0502 17.2998 17.0295C17.2892 17.0088 17.268 16.9985 17.2574 16.9778C17.2469 16.9571 17.2257 16.9468 17.2045 16.9261L17.1516 16.8744C17.1304 16.8641 17.1198 16.8434 17.0986 16.833C17.0774 16.8227 17.0668 16.802 17.0457 16.7917C17.0245 16.7813 17.0139 16.7606 16.9927 16.7503C16.9715 16.7399 16.961 16.7193 16.9398 16.7089C16.9186 16.6986 16.8974 16.6779 16.8868 16.6676C16.8657 16.6572 16.8445 16.6469 16.8339 16.6262H16.8233C16.8127 16.6469 16.8127 16.6572 16.8021 16.6779C16.7915 16.7089 16.7704 16.7503 16.7598 16.7813C16.7492 16.8123 16.728 16.8537 16.7174 16.8847C16.7068 16.9158 16.6856 16.9468 16.675 16.9882C16.6645 17.0192 16.6433 17.0502 16.6221 17.0916C16.6009 17.1226 16.5903 17.1536 16.5692 17.195C16.548 17.226 16.5374 17.2571 16.5162 17.2881C16.495 17.3191 16.4844 17.3501 16.4633 17.3812C16.4421 17.4122 16.4209 17.4432 16.4103 17.4742L16.3468 17.5673L16.2833 17.6604L16.2197 17.7535L16.1562 17.8465L16.0927 17.9396C16.0715 17.9707 16.0503 18.0017 16.0185 18.0224C15.9974 18.0534 15.9762 18.0844 15.9444 18.1051C15.9232 18.1361 15.8915 18.1568 15.8703 18.1878C15.8491 18.2189 15.8173 18.2395 15.7962 18.2706C15.775 18.3016 15.7432 18.3223 15.722 18.3533C15.7009 18.3843 15.6691 18.405 15.6479 18.436L15.5632 18.5188C15.5314 18.5395 15.5103 18.5705 15.4785 18.5912C15.4467 18.6119 15.4255 18.6429 15.3938 18.6636C15.362 18.6843 15.3408 18.7153 15.3091 18.736C15.2773 18.7566 15.2561 18.7877 15.2244 18.8084C15.1926 18.829 15.1714 18.8497 15.1396 18.8808C15.1079 18.9014 15.0761 18.9221 15.0549 18.9428L14.9596 19.0049L14.8643 19.0669L14.769 19.129L14.6737 19.191C14.642 19.2117 14.6102 19.2324 14.5784 19.2427C14.5255 19.2738 14.4831 19.2944 14.4302 19.3255C14.3772 19.3565 14.3349 19.3772 14.2819 19.3979C14.229 19.4185 14.176 19.4496 14.1337 19.4703L13.9749 19.5323L13.816 19.5944C13.7631 19.615 13.7101 19.6357 13.6572 19.6461C13.6042 19.6667 13.5513 19.6771 13.4983 19.6978C13.4454 19.7185 13.3925 19.7288 13.3395 19.7391C13.2866 19.7495 13.2336 19.7702 13.1807 19.7805C13.1277 19.7909 13.0748 19.8012 13.0113 19.8115C12.9583 19.8219 12.9054 19.8322 12.8418 19.8426C12.7889 19.8529 12.7253 19.8632 12.6724 19.8632C12.6195 19.8736 12.5559 19.8736 12.503 19.8839C12.45 19.8943 12.3865 19.8943 12.3336 19.8943C12.2806 19.8943 12.2171 19.9046 12.1641 19.9046H11.8253C11.7723 19.9046 11.7088 19.9046 11.6559 19.8943C11.6029 19.8943 11.5394 19.8839 11.4864 19.8839C11.4335 19.8736 11.37 19.8736 11.317 19.8632C11.2641 19.8529 11.2005 19.8529 11.1476 19.8426C11.0946 19.8322 11.0417 19.8219 10.9782 19.8115C10.9252 19.8012 10.8723 19.7909 10.8087 19.7805C10.7558 19.7702 10.7028 19.7495 10.6499 19.7391C10.597 19.7288 10.544 19.7081 10.4911 19.6978C10.4381 19.6771 10.3852 19.6667 10.3322 19.6461C10.2793 19.6254 10.2263 19.6047 10.1734 19.5944L10.0146 19.5323L9.85573 19.4703C9.80278 19.4496 9.74983 19.4185 9.70748 19.3979C9.65453 19.3772 9.61218 19.3461 9.55923 19.3255C9.50629 19.2944 9.46393 19.2738 9.41099 19.2427C9.37922 19.222 9.34745 19.2014 9.31569 19.191L9.22038 19.129L9.12508 19.0669L9.02978 19.0049L8.93448 18.9428C8.90271 18.9221 8.87095 18.9014 8.84977 18.8808C8.818 18.8601 8.78623 18.8394 8.76506 18.8084C8.73329 18.7877 8.71211 18.7566 8.68034 18.736C8.64858 18.7153 8.6274 18.6843 8.59563 18.6636C8.56386 18.6429 8.54269 18.6119 8.51092 18.5912C8.47915 18.5705 8.45797 18.5395 8.42621 18.5188L8.3415 18.436C8.30973 18.405 8.28855 18.3843 8.26737 18.3533C8.24619 18.3223 8.21443 18.3016 8.19325 18.2706C8.17207 18.2395 8.1403 18.2189 8.11913 18.1878C8.09795 18.1568 8.06618 18.1361 8.045 18.1051C8.02383 18.0741 8.00265 18.0534 7.97088 18.0224C7.9497 17.9913 7.92852 17.9603 7.89676 17.9396L7.83322 17.8465L7.76969 17.7535L7.70615 17.6604L7.64262 17.5673L7.57909 17.4742C7.55791 17.4432 7.53673 17.4122 7.52614 17.3812C7.50496 17.3501 7.49437 17.3191 7.4732 17.2881C7.45202 17.2571 7.44143 17.226 7.42025 17.195C7.39907 17.164 7.38848 17.1329 7.36731 17.0916C7.34613 17.0606 7.33554 17.0295 7.31436 16.9882C7.30377 16.9571 7.28259 16.9261 7.27201 16.8847C7.26142 16.8537 7.24024 16.8123 7.22965 16.7813C7.21906 16.7503 7.19788 16.7089 7.18729 16.6779C7.1767 16.6572 7.1767 16.6469 7.16611 16.6262C7.02846 16.7089 6.90139 16.8123 6.78491 16.9158C6.65784 17.0399 6.54136 17.1847 6.45665 17.3398C6.36135 17.4949 6.28723 17.6604 6.24487 17.8362C6.19193 18.012 6.17075 18.1982 6.17075 18.3843V18.5084C6.17075 18.5084 6.17075 18.5188 6.16016 18.5188L6.14957 18.5291L6.13898 18.5395L6.12839 18.5498L6.1178 18.5601L6.10721 18.5705L6.09663 18.5808L6.08604 18.5912H4.81535L4.80477 18.5808L4.79418 18.5705L4.78359 18.5601L4.773 18.5498L4.76241 18.5395L4.75182 18.5291L4.74123 18.5188L4.73064 18.5084V18.4981V18.4878V18.4774V18.4671V18.4567V18.4464V18.436V18.4257V18.4154V18.405V18.3947V18.3843V18.2602C4.73064 18.2189 4.73064 18.1775 4.74123 18.1361C4.74123 18.0948 4.75182 18.0534 4.75182 18.012C4.75182 17.9707 4.76241 17.9293 4.773 17.8879C4.78359 17.8465 4.78359 17.8052 4.79418 17.7638C4.80476 17.7224 4.81535 17.6811 4.81535 17.6397L4.84712 17.5156L4.87889 17.3915C4.88948 17.3501 4.90007 17.3088 4.92124 17.2674C4.93183 17.226 4.95301 17.1847 4.9636 17.1536C4.97419 17.1123 4.99537 17.0709 5.01655 17.0399C5.03772 16.9985 5.04831 16.9675 5.06949 16.9261C5.09067 16.8847 5.10126 16.8537 5.12244 16.8123C5.14361 16.771 5.16479 16.7399 5.18597 16.6986C5.20715 16.6572 5.22832 16.6262 5.2495 16.5952C5.27068 16.5641 5.29186 16.5228 5.32363 16.4917C5.3448 16.4607 5.37657 16.4193 5.39775 16.3883C5.41893 16.3573 5.4507 16.3159 5.47187 16.2849C5.49305 16.2539 5.52482 16.2228 5.55659 16.1918C5.58835 16.1608 5.60953 16.1298 5.6413 16.0987C5.67306 16.0677 5.69424 16.0367 5.72601 16.0057L5.82131 15.9126C5.85308 15.8816 5.88484 15.8505 5.91661 15.8298C5.94838 15.7988 5.98015 15.7781 6.01191 15.7471C6.04368 15.7161 6.07545 15.6954 6.10721 15.6644C6.13898 15.6437 6.17075 15.6127 6.2131 15.592C6.24487 15.5713 6.28723 15.5403 6.31899 15.5196C6.35076 15.4989 6.39312 15.4782 6.42488 15.4472C6.45665 15.4265 6.49901 15.4058 6.53078 15.3851C6.57313 15.3645 6.6049 15.3438 6.64725 15.3231C6.68961 15.3024 6.72138 15.2817 6.76373 15.2714C6.7955 15.261 6.81668 15.2507 6.84844 15.23C6.83786 15.1059 6.83786 15.0025 6.83786 14.9197V13.2754H4.08471L4.07412 13.265L4.06353 13.2547L4.05294 13.2443L4.04236 13.234L4.03177 13.2237L4.02118 13.2133L4.01059 13.203L4 13.1926V13.1823V13.1719V13.1616V13.1513V13.1409V13.1306V13.1202V13.1099V13.0995V13.0892V13.0789V12.0757C4.11648 11.9826 4.20119 11.8895 4.30708 11.8895ZM8.41562 14.9094C8.41562 15.23 8.45797 15.5403 8.54269 15.8402C8.6274 16.1401 8.75447 16.4297 8.9133 16.6986L8.97684 16.7917L9.04037 16.8847L9.1039 16.9778C9.12508 17.0088 9.14626 17.0399 9.17803 17.0709C9.19921 17.1019 9.23097 17.1329 9.25215 17.164C9.27333 17.195 9.3051 17.226 9.32627 17.2467C9.34745 17.2777 9.37922 17.2984 9.4004 17.3294L9.48511 17.4122L9.56982 17.4949C9.60159 17.5259 9.62277 17.5466 9.65453 17.5673C9.6863 17.588 9.71807 17.619 9.73925 17.6397C9.77101 17.6604 9.80278 17.6914 9.83455 17.7121C9.86631 17.7328 9.89808 17.7535 9.92985 17.7845L10.0251 17.8465L10.1205 17.9086L10.2158 17.9707C10.4911 18.1258 10.7876 18.2499 11.0946 18.3326C11.4017 18.4154 11.73 18.4567 12.0582 18.4567C12.3865 18.4567 12.7042 18.4154 13.0113 18.3326C13.3183 18.2499 13.6148 18.1258 13.8901 17.9707L13.9854 17.9086L14.0807 17.8465L14.176 17.7845C14.2078 17.7638 14.2396 17.7431 14.2713 17.7121C14.3031 17.6914 14.3349 17.6604 14.3666 17.6397C14.3984 17.619 14.4302 17.588 14.4514 17.5673C14.4831 17.5466 14.5149 17.5156 14.5361 17.4949L14.6208 17.4122L14.7055 17.3294C14.7373 17.2984 14.7584 17.2777 14.7796 17.2467C14.8008 17.2157 14.8326 17.1847 14.8537 17.164C14.8749 17.1329 14.9067 17.1019 14.9279 17.0709C14.949 17.0399 14.9702 17.0088 15.002 16.9778L15.0655 16.8847L15.1291 16.7917L15.1926 16.6986C15.3514 16.4297 15.4785 16.1401 15.5632 15.8402C15.6479 15.5403 15.6903 15.2197 15.6903 14.9094V10.2245H8.40503V14.9094H8.41562Z"/>
</mask>
<path d="M4.30708 11.8895H6.93316V10.2245C5.53541 10.2038 4.41297 9.08683 4.41297 7.72168C4.41297 7.61826 4.49768 7.53552 4.60357 7.53552H5.70483C5.81072 7.53552 5.89543 7.61826 5.89543 7.72168C5.89543 8.31118 6.38253 8.78691 6.9861 8.78691H17.1304C17.734 8.78691 18.221 8.31118 18.221 7.72168C18.221 7.61826 18.3058 7.53552 18.4116 7.53552H19.5023C19.6082 7.53552 19.6929 7.61826 19.6929 7.72168V7.84578C19.6929 7.88715 19.6929 7.92852 19.6823 7.96989C19.6823 8.01126 19.6717 8.05263 19.6717 8.09399C19.6612 8.13536 19.6612 8.17673 19.6506 8.2181L19.6188 8.3422C19.6082 8.38357 19.5976 8.42494 19.587 8.45596C19.5764 8.49733 19.5659 8.5387 19.5447 8.56973C19.5341 8.6111 19.5129 8.64212 19.5023 8.68349C19.4811 8.72486 19.4705 8.75588 19.4494 8.79725C19.4282 8.83862 19.4176 8.86965 19.3964 8.91102C19.3752 8.94204 19.3541 8.98341 19.3329 9.01444C19.3117 9.04546 19.2905 9.08683 19.2694 9.11786C19.2482 9.14888 19.227 9.19025 19.1952 9.22128C19.1741 9.2523 19.1423 9.28333 19.1211 9.31436C19.0893 9.34538 19.0682 9.37641 19.0364 9.40743C19.0046 9.43846 18.9835 9.46949 18.9517 9.50051C18.9199 9.53154 18.8882 9.56256 18.8564 9.58325C18.8246 9.61427 18.7929 9.63496 18.7611 9.66598C18.7293 9.69701 18.6976 9.7177 18.6658 9.73838C18.634 9.75906 18.6023 9.79009 18.5599 9.81077C18.5281 9.83146 18.4858 9.85214 18.454 9.87283C18.4222 9.89351 18.3799 9.91419 18.3481 9.93488C18.3163 9.95556 18.274 9.97625 18.2316 9.98659C18.1893 10.0073 18.1575 10.0176 18.1152 10.0383C18.0728 10.059 18.041 10.0693 17.9987 10.0797C17.9563 10.09 17.9246 10.1107 17.8822 10.121C17.8398 10.1314 17.7975 10.1417 17.7657 10.1521L17.6386 10.1831C17.5963 10.1934 17.5539 10.1934 17.5116 10.2038C17.4692 10.2141 17.4269 10.2141 17.3845 10.2141C17.3422 10.2141 17.2998 10.2245 17.2574 10.2245H17.1833V11.8895H19.8094C19.9153 11.8895 20 11.9723 20 12.0757V13.1926L19.9894 13.203L19.9788 13.2133L19.9682 13.2237L19.9576 13.234L19.9471 13.2443L19.9365 13.2547L19.9259 13.265H17.1621V14.9094C17.1621 15.0128 17.1621 15.1162 17.1516 15.2197C17.1833 15.23 17.2045 15.2404 17.2363 15.261C17.2786 15.2817 17.3104 15.3024 17.3527 15.3127C17.3951 15.3334 17.4269 15.3541 17.4692 15.3748C17.5116 15.3955 17.5433 15.4162 17.5751 15.4369C17.6069 15.4575 17.6492 15.4782 17.681 15.5092C17.7128 15.5299 17.7551 15.561 17.7869 15.5816C17.8187 15.6023 17.861 15.6333 17.8928 15.654C17.9246 15.6747 17.9563 15.7057 17.9881 15.7368C18.0199 15.7678 18.0516 15.7885 18.0834 15.8195C18.1152 15.8505 18.1469 15.8712 18.1787 15.9022L18.274 15.9953C18.3058 16.0263 18.3375 16.0574 18.3587 16.0884C18.3905 16.1194 18.4116 16.1505 18.4434 16.1815C18.4752 16.2125 18.4964 16.2435 18.5281 16.2746C18.5493 16.3056 18.5811 16.3366 18.6023 16.378C18.6234 16.409 18.6552 16.4504 18.6764 16.4814C18.6976 16.5124 18.7187 16.5538 18.7505 16.5848C18.7717 16.6158 18.7929 16.6572 18.814 16.6882C18.8352 16.7296 18.8564 16.7606 18.8776 16.802C18.8987 16.8434 18.9199 16.8744 18.9305 16.9158C18.9517 16.9571 18.9623 16.9882 18.9835 17.0295C19.0046 17.0709 19.0152 17.1019 19.0364 17.1433C19.047 17.1847 19.0682 17.226 19.0788 17.2571C19.0893 17.2984 19.1105 17.3398 19.1211 17.3812L19.1529 17.5053L19.1846 17.6294C19.1952 17.6707 19.2058 17.7121 19.2058 17.7535C19.2164 17.7948 19.2164 17.8362 19.227 17.8776C19.2376 17.9189 19.2376 17.9603 19.2482 18.0017C19.2588 18.043 19.2588 18.0844 19.2588 18.1258C19.2588 18.1672 19.2694 18.2085 19.2694 18.2499V18.4981C19.2694 18.4981 19.2694 18.5084 19.2588 18.5084L19.2482 18.5188L19.2376 18.5291L19.227 18.5395L19.2164 18.5498L19.2058 18.5601L19.1952 18.5705L19.1846 18.5808H17.914C17.914 18.5808 17.9034 18.5808 17.9034 18.5705L17.8928 18.5601L17.8822 18.5498L17.8716 18.5395L17.861 18.5291L17.8504 18.5188L17.8398 18.5084L17.8293 18.4981V18.4878V18.4774V18.4671V18.4567V18.4464V18.436V18.4257V18.4154V18.405V18.3947V18.3843V18.374V18.3016V18.2292C17.8293 18.2085 17.8293 18.1878 17.8187 18.1568C17.8187 18.1361 17.8187 18.1154 17.8081 18.0948C17.8081 18.0741 17.7975 18.0534 17.7975 18.0327C17.7975 18.012 17.7869 17.9913 17.7869 17.9707C17.7869 17.95 17.7763 17.9293 17.7763 17.9086C17.7763 17.8879 17.7657 17.8672 17.7551 17.8465C17.7445 17.8259 17.7445 17.8052 17.734 17.7845C17.7234 17.7638 17.7234 17.7431 17.7128 17.7224C17.7022 17.7018 17.7022 17.6811 17.6916 17.6604C17.681 17.6397 17.6704 17.619 17.6704 17.5983L17.6386 17.5363L17.6069 17.4742L17.5751 17.4122L17.5433 17.3501L17.5116 17.2881C17.501 17.2674 17.4904 17.2467 17.4692 17.2364C17.4586 17.2157 17.448 17.195 17.4269 17.1847C17.4163 17.164 17.3951 17.1433 17.3845 17.1329C17.3739 17.1123 17.3527 17.1019 17.3422 17.0812C17.3316 17.0606 17.3104 17.0502 17.2998 17.0295C17.2892 17.0088 17.268 16.9985 17.2574 16.9778C17.2469 16.9571 17.2257 16.9468 17.2045 16.9261L17.1516 16.8744C17.1304 16.8641 17.1198 16.8434 17.0986 16.833C17.0774 16.8227 17.0668 16.802 17.0457 16.7917C17.0245 16.7813 17.0139 16.7606 16.9927 16.7503C16.9715 16.7399 16.961 16.7193 16.9398 16.7089C16.9186 16.6986 16.8974 16.6779 16.8868 16.6676C16.8657 16.6572 16.8445 16.6469 16.8339 16.6262H16.8233C16.8127 16.6469 16.8127 16.6572 16.8021 16.6779C16.7915 16.7089 16.7704 16.7503 16.7598 16.7813C16.7492 16.8123 16.728 16.8537 16.7174 16.8847C16.7068 16.9158 16.6856 16.9468 16.675 16.9882C16.6645 17.0192 16.6433 17.0502 16.6221 17.0916C16.6009 17.1226 16.5903 17.1536 16.5692 17.195C16.548 17.226 16.5374 17.2571 16.5162 17.2881C16.495 17.3191 16.4844 17.3501 16.4633 17.3812C16.4421 17.4122 16.4209 17.4432 16.4103 17.4742L16.3468 17.5673L16.2833 17.6604L16.2197 17.7535L16.1562 17.8465L16.0927 17.9396C16.0715 17.9707 16.0503 18.0017 16.0185 18.0224C15.9974 18.0534 15.9762 18.0844 15.9444 18.1051C15.9232 18.1361 15.8915 18.1568 15.8703 18.1878C15.8491 18.2189 15.8173 18.2395 15.7962 18.2706C15.775 18.3016 15.7432 18.3223 15.722 18.3533C15.7009 18.3843 15.6691 18.405 15.6479 18.436L15.5632 18.5188C15.5314 18.5395 15.5103 18.5705 15.4785 18.5912C15.4467 18.6119 15.4255 18.6429 15.3938 18.6636C15.362 18.6843 15.3408 18.7153 15.3091 18.736C15.2773 18.7566 15.2561 18.7877 15.2244 18.8084C15.1926 18.829 15.1714 18.8497 15.1396 18.8808C15.1079 18.9014 15.0761 18.9221 15.0549 18.9428L14.9596 19.0049L14.8643 19.0669L14.769 19.129L14.6737 19.191C14.642 19.2117 14.6102 19.2324 14.5784 19.2427C14.5255 19.2738 14.4831 19.2944 14.4302 19.3255C14.3772 19.3565 14.3349 19.3772 14.2819 19.3979C14.229 19.4185 14.176 19.4496 14.1337 19.4703L13.9749 19.5323L13.816 19.5944C13.7631 19.615 13.7101 19.6357 13.6572 19.6461C13.6042 19.6667 13.5513 19.6771 13.4983 19.6978C13.4454 19.7185 13.3925 19.7288 13.3395 19.7391C13.2866 19.7495 13.2336 19.7702 13.1807 19.7805C13.1277 19.7909 13.0748 19.8012 13.0113 19.8115C12.9583 19.8219 12.9054 19.8322 12.8418 19.8426C12.7889 19.8529 12.7253 19.8632 12.6724 19.8632C12.6195 19.8736 12.5559 19.8736 12.503 19.8839C12.45 19.8943 12.3865 19.8943 12.3336 19.8943C12.2806 19.8943 12.2171 19.9046 12.1641 19.9046H11.8253C11.7723 19.9046 11.7088 19.9046 11.6559 19.8943C11.6029 19.8943 11.5394 19.8839 11.4864 19.8839C11.4335 19.8736 11.37 19.8736 11.317 19.8632C11.2641 19.8529 11.2005 19.8529 11.1476 19.8426C11.0946 19.8322 11.0417 19.8219 10.9782 19.8115C10.9252 19.8012 10.8723 19.7909 10.8087 19.7805C10.7558 19.7702 10.7028 19.7495 10.6499 19.7391C10.597 19.7288 10.544 19.7081 10.4911 19.6978C10.4381 19.6771 10.3852 19.6667 10.3322 19.6461C10.2793 19.6254 10.2263 19.6047 10.1734 19.5944L10.0146 19.5323L9.85573 19.4703C9.80278 19.4496 9.74983 19.4185 9.70748 19.3979C9.65453 19.3772 9.61218 19.3461 9.55923 19.3255C9.50629 19.2944 9.46393 19.2738 9.41099 19.2427C9.37922 19.222 9.34745 19.2014 9.31569 19.191L9.22038 19.129L9.12508 19.0669L9.02978 19.0049L8.93448 18.9428C8.90271 18.9221 8.87095 18.9014 8.84977 18.8808C8.818 18.8601 8.78623 18.8394 8.76506 18.8084C8.73329 18.7877 8.71211 18.7566 8.68034 18.736C8.64858 18.7153 8.6274 18.6843 8.59563 18.6636C8.56386 18.6429 8.54269 18.6119 8.51092 18.5912C8.47915 18.5705 8.45797 18.5395 8.42621 18.5188L8.3415 18.436C8.30973 18.405 8.28855 18.3843 8.26737 18.3533C8.24619 18.3223 8.21443 18.3016 8.19325 18.2706C8.17207 18.2395 8.1403 18.2189 8.11913 18.1878C8.09795 18.1568 8.06618 18.1361 8.045 18.1051C8.02383 18.0741 8.00265 18.0534 7.97088 18.0224C7.9497 17.9913 7.92852 17.9603 7.89676 17.9396L7.83322 17.8465L7.76969 17.7535L7.70615 17.6604L7.64262 17.5673L7.57909 17.4742C7.55791 17.4432 7.53673 17.4122 7.52614 17.3812C7.50496 17.3501 7.49437 17.3191 7.4732 17.2881C7.45202 17.2571 7.44143 17.226 7.42025 17.195C7.39907 17.164 7.38848 17.1329 7.36731 17.0916C7.34613 17.0606 7.33554 17.0295 7.31436 16.9882C7.30377 16.9571 7.28259 16.9261 7.27201 16.8847C7.26142 16.8537 7.24024 16.8123 7.22965 16.7813C7.21906 16.7503 7.19788 16.7089 7.18729 16.6779C7.1767 16.6572 7.1767 16.6469 7.16611 16.6262C7.02846 16.7089 6.90139 16.8123 6.78491 16.9158C6.65784 17.0399 6.54136 17.1847 6.45665 17.3398C6.36135 17.4949 6.28723 17.6604 6.24487 17.8362C6.19193 18.012 6.17075 18.1982 6.17075 18.3843V18.5084C6.17075 18.5084 6.17075 18.5188 6.16016 18.5188L6.14957 18.5291L6.13898 18.5395L6.12839 18.5498L6.1178 18.5601L6.10721 18.5705L6.09663 18.5808L6.08604 18.5912H4.81535L4.80477 18.5808L4.79418 18.5705L4.78359 18.5601L4.773 18.5498L4.76241 18.5395L4.75182 18.5291L4.74123 18.5188L4.73064 18.5084V18.4981V18.4878V18.4774V18.4671V18.4567V18.4464V18.436V18.4257V18.4154V18.405V18.3947V18.3843V18.2602C4.73064 18.2189 4.73064 18.1775 4.74123 18.1361C4.74123 18.0948 4.75182 18.0534 4.75182 18.012C4.75182 17.9707 4.76241 17.9293 4.773 17.8879C4.78359 17.8465 4.78359 17.8052 4.79418 17.7638C4.80476 17.7224 4.81535 17.6811 4.81535 17.6397L4.84712 17.5156L4.87889 17.3915C4.88948 17.3501 4.90007 17.3088 4.92124 17.2674C4.93183 17.226 4.95301 17.1847 4.9636 17.1536C4.97419 17.1123 4.99537 17.0709 5.01655 17.0399C5.03772 16.9985 5.04831 16.9675 5.06949 16.9261C5.09067 16.8847 5.10126 16.8537 5.12244 16.8123C5.14361 16.771 5.16479 16.7399 5.18597 16.6986C5.20715 16.6572 5.22832 16.6262 5.2495 16.5952C5.27068 16.5641 5.29186 16.5228 5.32363 16.4917C5.3448 16.4607 5.37657 16.4193 5.39775 16.3883C5.41893 16.3573 5.4507 16.3159 5.47187 16.2849C5.49305 16.2539 5.52482 16.2228 5.55659 16.1918C5.58835 16.1608 5.60953 16.1298 5.6413 16.0987C5.67306 16.0677 5.69424 16.0367 5.72601 16.0057L5.82131 15.9126C5.85308 15.8816 5.88484 15.8505 5.91661 15.8298C5.94838 15.7988 5.98015 15.7781 6.01191 15.7471C6.04368 15.7161 6.07545 15.6954 6.10721 15.6644C6.13898 15.6437 6.17075 15.6127 6.2131 15.592C6.24487 15.5713 6.28723 15.5403 6.31899 15.5196C6.35076 15.4989 6.39312 15.4782 6.42488 15.4472C6.45665 15.4265 6.49901 15.4058 6.53078 15.3851C6.57313 15.3645 6.6049 15.3438 6.64725 15.3231C6.68961 15.3024 6.72138 15.2817 6.76373 15.2714C6.7955 15.261 6.81668 15.2507 6.84844 15.23C6.83786 15.1059 6.83786 15.0025 6.83786 14.9197V13.2754H4.08471L4.07412 13.265L4.06353 13.2547L4.05294 13.2443L4.04236 13.234L4.03177 13.2237L4.02118 13.2133L4.01059 13.203L4 13.1926V13.1823V13.1719V13.1616V13.1513V13.1409V13.1306V13.1202V13.1099V13.0995V13.0892V13.0789V12.0757C4.11648 11.9826 4.20119 11.8895 4.30708 11.8895ZM8.41562 14.9094C8.41562 15.23 8.45797 15.5403 8.54269 15.8402C8.6274 16.1401 8.75447 16.4297 8.9133 16.6986L8.97684 16.7917L9.04037 16.8847L9.1039 16.9778C9.12508 17.0088 9.14626 17.0399 9.17803 17.0709C9.19921 17.1019 9.23097 17.1329 9.25215 17.164C9.27333 17.195 9.3051 17.226 9.32627 17.2467C9.34745 17.2777 9.37922 17.2984 9.4004 17.3294L9.48511 17.4122L9.56982 17.4949C9.60159 17.5259 9.62277 17.5466 9.65453 17.5673C9.6863 17.588 9.71807 17.619 9.73925 17.6397C9.77101 17.6604 9.80278 17.6914 9.83455 17.7121C9.86631 17.7328 9.89808 17.7535 9.92985 17.7845L10.0251 17.8465L10.1205 17.9086L10.2158 17.9707C10.4911 18.1258 10.7876 18.2499 11.0946 18.3326C11.4017 18.4154 11.73 18.4567 12.0582 18.4567C12.3865 18.4567 12.7042 18.4154 13.0113 18.3326C13.3183 18.2499 13.6148 18.1258 13.8901 17.9707L13.9854 17.9086L14.0807 17.8465L14.176 17.7845C14.2078 17.7638 14.2396 17.7431 14.2713 17.7121C14.3031 17.6914 14.3349 17.6604 14.3666 17.6397C14.3984 17.619 14.4302 17.588 14.4514 17.5673C14.4831 17.5466 14.5149 17.5156 14.5361 17.4949L14.6208 17.4122L14.7055 17.3294C14.7373 17.2984 14.7584 17.2777 14.7796 17.2467C14.8008 17.2157 14.8326 17.1847 14.8537 17.164C14.8749 17.1329 14.9067 17.1019 14.9279 17.0709C14.949 17.0399 14.9702 17.0088 15.002 16.9778L15.0655 16.8847L15.1291 16.7917L15.1926 16.6986C15.3514 16.4297 15.4785 16.1401 15.5632 15.8402C15.6479 15.5403 15.6903 15.2197 15.6903 14.9094V10.2245H8.40503V14.9094H8.41562Z" fill="white" stroke="#090909" stroke-width="0.219846" mask="url(#path-3-inside-2_1859_10803)"/>
</svg>
