<svg width="24" height="24" viewBox="0 0 24 24" fill="none" xmlns="http://www.w3.org/2000/svg">
<path d="M0 3.57422C0 1.60023 1.60023 0 3.57422 0H20.4258C22.3998 0 24 1.60023 24 3.57422V20.4258C24 22.3998 22.3998 24 20.4258 24H3.57422C1.60023 24 0 22.3998 0 20.4258V3.57422Z" fill="black"/>
<path d="M7.33667 19.237H6.86784C5.57321 19.237 4.5237 18.1875 4.5237 16.8928V12.2045C4.5237 11.4824 3 11.1497 3 11.1497C3 11.1497 4.5237 10.8716 4.5237 10.0948V6.34415C4.5237 5.04951 5.57321 4 6.86784 4H7.33667M16.4203 4H16.8891C18.1837 4 19.2332 5.04951 19.2332 6.34415V11.0324C19.2332 11.7546 20.7569 12.0873 20.7569 12.0873C20.7569 12.0873 19.2332 12.3654 19.2332 13.1422L19.2332 16.8928C19.2332 18.1875 18.1837 19.237 16.8891 19.237H16.4203M7.99413 11.7687V11.6852M11.8785 11.7687V11.6852M15.7628 11.7687V11.6852" stroke="white" stroke-width="1.10981" stroke-linecap="round" stroke-linejoin="round"/>
</svg>
