<svg width="24" height="24" viewBox="0 0 24 24" fill="none" xmlns="http://www.w3.org/2000/svg">
<path d="M0 3.57422C0 1.60023 1.60023 0 3.57422 0H20.4258C22.3998 0 24 1.60023 24 3.57422V20.4258C24 22.3998 22.3998 24 20.4258 24H3.57422C1.60023 24 0 22.3998 0 20.4258V3.57422Z" fill="black"/>
<path d="M7.2 12C7.2 12.8837 6.48366 13.6 5.6 13.6C4.71634 13.6 4 12.8837 4 12C4 11.1163 4.71634 10.4 5.6 10.4C6.48366 10.4 7.2 11.1163 7.2 12ZM7.2 12H16.8M16.8 12C16.8 12.8837 17.5163 13.6 18.4 13.6C19.2837 13.6 20 12.8837 20 12C20 11.1163 19.2837 10.4 18.4 10.4C17.5163 10.4 16.8 11.1163 16.8 12ZM16.8 5.6C16.8 6.48366 17.5163 7.2 18.4 7.2C19.2837 7.2 20 6.48366 20 5.6C20 4.71634 19.2837 4 18.4 4C17.5163 4 16.8 4.71634 16.8 5.6ZM16.8 5.6H12.2C11.7582 5.6 11.4 5.95817 11.4 6.4V17.6C11.4 18.0418 11.7582 18.4 12.2 18.4H16.8M16.8 18.4C16.8 19.2837 17.5163 20 18.4 20C19.2837 20 20 19.2837 20 18.4C20 17.5163 19.2837 16.8 18.4 16.8C17.5163 16.8 16.8 17.5163 16.8 18.4Z" stroke="white" stroke-width="1.2" stroke-linecap="round"/>
</svg>
