<svg width="22" height="20" viewBox="0 0 22 20" fill="none" xmlns="http://www.w3.org/2000/svg">
<g id="Icon">
<path id="Vector" fill-rule="evenodd" clip-rule="evenodd" d="M12.0195 4.54306C12.0937 4.46874 12.1818 4.40977 12.2788 4.36954C12.3758 4.3293 12.4798 4.30859 12.5849 4.30859C12.6899 4.30859 12.7939 4.3293 12.8909 4.36954C12.9879 4.40977 13.0761 4.46874 13.1503 4.54306L17.946 9.33874C18.0204 9.41296 18.0795 9.50116 18.1198 9.59826C18.1602 9.69537 18.1809 9.79948 18.1809 9.90463C18.1809 10.0098 18.1602 10.1139 18.1198 10.211C18.0795 10.3081 18.0204 10.3963 17.946 10.4705L13.1503 15.2662C13.076 15.3404 12.9878 15.3993 12.8907 15.4395C12.7936 15.4796 12.6896 15.5003 12.5845 15.5002C12.4795 15.5002 12.3755 15.4795 12.2784 15.4392C12.1814 15.399 12.0932 15.34 12.019 15.2657C11.9447 15.1914 11.8858 15.1032 11.8457 15.0061C11.8055 14.909 11.7849 14.805 11.7849 14.7C11.785 14.5949 11.8057 14.4909 11.8459 14.3939C11.8862 14.2968 11.9452 14.2087 12.0195 14.1344L15.4513 10.7036H4.59193C4.38003 10.7036 4.17681 10.6194 4.02698 10.4696C3.87714 10.3197 3.79297 10.1165 3.79297 9.90463C3.79297 9.69273 3.87714 9.48951 4.02698 9.33968C4.17681 9.18984 4.38003 9.10567 4.59193 9.10567H15.4513L12.0195 5.67388C11.8696 5.52405 11.7855 5.32084 11.7855 5.10895C11.7855 4.89707 11.8696 4.6929 12.0195 4.54306Z" fill="#202020"/>
</g>
</svg>
