<svg width="20" height="20" viewBox="0 0 20 20" fill="none" xmlns="http://www.w3.org/2000/svg">
<g id="Group 2085667479">
<g id="Group 2085667443">
<path id="Vector" d="M14.7463 1.42969H5.31054C5.05066 1.42962 4.79542 1.4986 4.57096 1.62958C4.3465 1.76056 4.16087 1.94883 4.03307 2.17512L0.849672 7.81335C0.700267 8.07797 0.636742 8.38245 0.667876 8.68473C0.69901 8.98701 0.823266 9.27215 1.02347 9.50075L8.92037 18.5208C9.05784 18.6778 9.22724 18.8036 9.41724 18.89C9.60724 18.9763 9.81348 19.0211 10.0222 19.0213C10.2309 19.0215 10.4372 18.9772 10.6274 18.8914C10.8176 18.8055 10.9873 18.68 11.1251 18.5233L19.0393 9.52899C19.2403 9.30055 19.3654 9.01523 19.397 8.71256C19.4287 8.40989 19.3654 8.10486 19.216 7.83975L16.0242 2.17622C15.8965 1.94967 15.7109 1.76115 15.4863 1.62997C15.2618 1.49878 15.0064 1.42966 14.7463 1.42969ZM5.31054 2.89635H14.7463L17.9382 8.55989L10.024 17.5546L2.12677 8.53459L5.31054 2.89635Z" fill="white"/>
<path id="Vector_2" d="M14.0628 6.5625V7.29583C14.0628 7.49033 13.9855 7.67685 13.848 7.81438C13.7104 7.9519 13.5239 8.02917 13.3294 8.02917H6.72943C6.53493 8.02917 6.34841 7.9519 6.21088 7.81438C6.07336 7.67685 5.99609 7.49033 5.99609 7.29583V6.5625H14.0628Z" fill="white"/>
</g>
</g>
</svg>
