<svg width="20" height="20" viewBox="0 0 20 20" fill="none" xmlns="http://www.w3.org/2000/svg">
<g id="Group 2085667477">
<g id="Group 2085667440">
<path id="Vector" d="M8.93164 18.9612C8.48339 18.9612 7.92308 18.7371 7.58689 18.4009L1.53553 12.3495C0.863157 11.6772 0.863157 10.4445 1.53553 9.66004L9.37989 1.81569C9.71607 1.4795 10.1643 1.25537 10.7246 1.25537L17.2242 1.03125C17.7846 1.03125 18.2328 1.25537 18.569 1.59156C18.9052 1.92775 19.0172 2.376 19.0172 2.93631L18.7931 9.21179C18.7931 9.66004 18.569 10.2204 18.2328 10.5565L10.3884 18.4009C9.9402 18.7371 9.49195 18.9612 8.93164 18.9612ZM17.2242 2.15187L10.9488 2.376C10.7246 2.376 10.5005 2.48806 10.3884 2.60012L2.54409 10.4445C2.2079 10.7807 2.2079 11.2289 2.54409 11.5651L8.59545 17.6165C8.81958 17.8406 9.37989 17.8406 9.71607 17.6165L17.5604 9.77211C17.6725 9.66004 17.7846 9.43592 17.7846 9.21179L17.8966 2.93631C17.8966 2.71218 17.7846 2.60012 17.6725 2.376C17.5604 2.26393 17.3363 2.15187 17.2242 2.15187Z" fill="white"/>
<path id="Vector_2" d="M13.3013 9.2093C12.6289 9.2093 12.0686 8.98518 11.6204 8.53693C11.1721 7.97662 10.8359 7.41631 10.8359 6.74393C10.8359 6.07156 11.1721 5.51125 11.6204 5.063C12.0686 4.61475 12.6289 4.39062 13.3013 4.39062C13.9737 4.39062 14.534 4.61475 14.9822 5.063C15.8787 5.9595 15.8787 7.52837 14.9822 8.42487C14.534 8.87312 13.9737 9.2093 13.3013 9.2093ZM13.3013 5.51125C12.9651 5.51125 12.6289 5.62331 12.4048 5.84743C12.1807 6.07156 11.9566 6.40775 11.9566 6.74393C11.9566 7.08012 12.0686 7.41631 12.2927 7.64043C12.741 8.08868 13.6375 8.08868 14.0857 7.64043C14.534 7.19218 14.534 6.29568 14.0857 5.84743C13.9737 5.62331 13.6375 5.51125 13.3013 5.51125Z" fill="white"/>
</g>
</g>
</svg>
