<svg width="20" height="20" viewBox="0 0 20 20" fill="none" xmlns="http://www.w3.org/2000/svg">
<g id="Group 2085667473">
<g id="Group 2085667437">
<path id="Vector" d="M9.65781 18.5266C9.38281 18.5266 9.10781 18.4141 8.90781 18.2266C7.49531 16.8641 2.88281 12.1016 2.88281 7.76406C2.88281 4.02656 5.93281 0.976562 9.67031 0.976562C13.4078 0.976562 16.4578 4.02656 16.4578 7.76406C16.4578 11.6016 11.8453 16.7141 10.4453 18.1891C10.2453 18.4016 9.97031 18.5141 9.68281 18.5266H9.65781ZM9.67031 2.26406C6.64531 2.26406 4.18281 4.72656 4.18281 7.75156C4.18281 11.4891 8.43281 15.9266 9.64531 17.1266C12.3328 14.2766 15.1453 10.3766 15.1453 7.75156C15.1578 4.72656 12.6953 2.26406 9.67031 2.26406Z" fill="white"/>
<path id="Vector_2" d="M9.66875 10.0523C8.35625 10.0523 7.28125 8.97734 7.28125 7.66484C7.28125 6.35234 8.35625 5.27734 9.66875 5.27734C10.9813 5.27734 12.0563 6.35234 12.0563 7.66484C12.0563 8.97734 10.9813 10.0523 9.66875 10.0523ZM9.66875 6.57734C9.06875 6.57734 8.58125 7.06484 8.58125 7.66484C8.58125 8.26484 9.06875 8.75234 9.66875 8.75234C10.2688 8.75234 10.7563 8.26484 10.7563 7.66484C10.7563 7.06484 10.2688 6.57734 9.66875 6.57734Z" fill="white"/>
</g>
</g>
</svg>
