<svg width="39" height="41" viewBox="0 0 39 41" fill="none" xmlns="http://www.w3.org/2000/svg">
<g id="Group 2085667076">
<g id="Group 2085666370">
<rect id="Rectangle 161126262" x="0.90625" y="1.54297" width="36.3443" height="36.3407" rx="4.63523" fill="url(#paint0_linear_13418_127907)"/>
<path id="Vector" d="M10.6162 14.2578C10.1361 14.2578 9.80273 14.6622 9.80273 15.0742V28.7783L9.80664 28.8584C9.8256 29.0448 9.90861 29.2197 10.042 29.3535C10.1945 29.5065 10.4012 29.5934 10.6172 29.5947H24.3066C24.7558 29.5922 25.1182 29.2278 25.1182 28.7783V15.0703C25.1179 14.5901 24.7131 14.2578 24.3047 14.2578H10.6162ZM16.248 19.332C16.316 19.335 16.3825 19.3516 16.4434 19.3809L16.502 19.4141L16.5029 19.415L20.5 22.0801L20.501 22.0811C20.5691 22.1269 20.6245 22.1893 20.6631 22.2617C20.7017 22.3343 20.7226 22.4149 20.7227 22.4971C20.7227 22.5794 20.7018 22.6608 20.6631 22.7334C20.6244 22.8058 20.5691 22.8682 20.501 22.9141L20.1992 23.1162V23.1123L16.5029 25.5781H16.502C16.4263 25.6279 16.3385 25.6571 16.248 25.6611C16.1577 25.6651 16.0679 25.6443 15.9883 25.6016C15.9086 25.5586 15.8414 25.4947 15.7949 25.417C15.7485 25.3392 15.7236 25.2498 15.7236 25.1592V19.833C15.7237 19.7426 15.7486 19.6538 15.7949 19.5762C15.8414 19.4984 15.9085 19.4346 15.9883 19.3916C16.0679 19.3488 16.1577 19.328 16.248 19.332ZM26.4893 28.875C26.4866 29.4534 26.2554 30.0077 25.8467 30.417C25.4381 30.8261 24.8848 31.0579 24.3066 31.0615H10.6162C9.40414 31.0615 8.43164 30.0853 8.43164 28.874V15.166C8.43129 14.8793 8.48814 14.5951 8.59766 14.3301C8.70725 14.0651 8.86753 13.8239 9.07031 13.6211C9.27316 13.4182 9.51419 13.2571 9.7793 13.1475C10.0445 13.0378 10.3292 12.982 10.6162 12.9824H24.3086C25.5174 12.9841 26.3847 13.8591 26.4883 15.0537L26.4893 15.0625V28.875ZM30.4248 24.8887L30.415 25.1035C30.3946 25.3172 30.3418 25.5274 30.2598 25.7266C30.1504 25.992 29.9899 26.2334 29.7871 26.4365C29.5841 26.6398 29.3426 26.8013 29.0771 26.9111C28.8118 27.0208 28.5273 27.0766 28.2402 27.0762H27.7373C27.5352 27.0761 27.3575 27.0053 27.2305 26.874C27.1044 26.7435 27.041 26.5666 27.041 26.3799C27.0411 26.1832 27.1021 26.0039 27.2324 25.873C27.3628 25.7421 27.5416 25.6807 27.7373 25.6807H28.2393C28.4548 25.6794 28.6611 25.5929 28.8135 25.4404C28.9655 25.2884 29.052 25.0831 29.0537 24.8682V11.1572C29.0537 10.6768 28.6488 10.3438 28.2402 10.3438H14.5479C14.0676 10.344 13.7354 10.7488 13.7354 11.1572V11.6631C13.7354 11.8484 13.6741 12.0405 13.5596 12.1895C13.4431 12.3409 13.2642 12.455 13.0391 12.4551C12.8435 12.4551 12.6642 12.3943 12.5332 12.2646C12.402 12.1346 12.3398 11.9554 12.3398 11.7588V11.2559L12.3496 11.042C12.37 10.8282 12.4218 10.6182 12.5039 10.4189C12.6133 10.1533 12.7746 9.91226 12.9775 9.70898C13.1805 9.50574 13.4211 9.3442 13.6865 9.23438C13.9518 9.1246 14.2363 9.06797 14.5234 9.06836H28.2158C29.4044 9.06836 30.2938 9.94595 30.4238 11.1357L30.4248 11.1465V24.8887Z" fill="white" stroke="white" stroke-width="0.386269"/>
</g>
</g>
<defs>
<linearGradient id="paint0_linear_13418_127907" x1="15.2926" y1="1.54297" x2="33.4617" y2="42.0491" gradientUnits="userSpaceOnUse">
<stop stop-color="#6F67F3"/>
<stop offset="1" stop-color="#5A52E5"/>
</linearGradient>
</defs>
</svg>
