<svg width="20" height="20" viewBox="0 0 20 20" fill="none" xmlns="http://www.w3.org/2000/svg">
<g id="Group 2085667475">
<g id="Group 2085667484">
<path id="Vector" d="M9.5 1C9.06962 1 8.74684 1.32278 8.74684 1.75316V4.87342C8.74684 5.3038 9.06962 5.73418 9.6076 5.73418C10.038 5.73418 10.4684 5.41139 10.4684 4.87342V2.61392C13.8038 3.0443 16.4937 5.94937 16.4937 9.5C16.4937 13.3734 13.3734 16.4937 9.5 16.4937C5.62658 16.4937 2.50633 13.3734 2.50633 9.5C2.50633 7.99367 3.0443 6.48734 3.90506 5.3038C4.12025 4.98101 4.12025 4.44304 3.79747 4.22785C3.47468 3.90506 3.0443 4.01266 2.72152 4.33544C1.64557 5.84177 1 7.67089 1 9.5C1 14.1266 4.76582 18 9.5 18C14.1266 18 18 14.2342 18 9.5C18 4.87342 14.1266 1 9.5 1Z" fill="white"/>
<path id="Vector_2" d="M10.1441 11.5429C10.3592 11.8657 10.682 11.9732 11.0048 11.9732C11.5428 11.9732 11.9732 11.5429 11.9732 11.0049C11.9732 10.6821 11.8656 10.4669 11.6504 10.2517C11.6504 10.2517 11.6504 10.1441 11.5428 10.1441L7.56177 7.13148C7.45418 7.02388 7.23899 7.02388 7.13139 7.13148C6.9162 7.23907 6.9162 7.45426 7.0238 7.56186L10.1441 11.5429Z" fill="white"/>
</g>
</g>
</svg>
