<svg width="20" height="20" viewBox="0 0 20 20" fill="none" xmlns="http://www.w3.org/2000/svg">
<g id="Group 2085667474">
<path id="Vector" d="M10.5526 12.6102L10.6695 12.1457C10.6695 12.0295 10.6695 12.0295 10.5526 12.0295H9.84931C9.73233 12.0295 9.73233 12.0295 9.73233 12.1454L9.84931 12.6099V12.8425L9.0294 17.3712C9.0294 17.4872 9.0294 17.603 9.14636 17.7193L9.96662 18.3002C10.084 18.4161 10.201 18.4161 10.318 18.3002L11.1382 17.7193C11.2555 17.603 11.3725 17.4872 11.3725 17.3708L10.5526 12.8421L10.5526 12.6102ZM18 18.3478C18 17.2993 17.7885 15.1213 17.3706 14.1628C16.968 13.2383 16.386 12.4 15.657 11.6945C14.8623 10.9242 13.9214 10.3328 12.8991 9.94626C14.2227 9.05839 15.091 7.58083 15.091 5.91108C15.091 3.20321 12.8072 1 10.0001 1C7.19303 1 4.90927 3.20338 4.90927 5.91108C4.90927 7.58083 5.77746 9.05829 7.10082 9.94616C6.0785 10.3327 5.13764 10.9241 4.34311 11.6946C3.61376 12.4 3.03149 13.2384 2.62891 14.1628C2.21156 15.1206 2 17.2993 2 18.3478C2 18.7085 2.30054 19 2.67139 19C3.04261 19 3.34311 17.5466 3.34311 17.1865C3.34311 13.8761 5.92092 11.1383 9.22965 10.7667C9.48452 10.8041 9.74184 10.8228 9.99951 10.8228H10.0001C10.2616 10.8228 10.5186 10.8036 10.7696 10.7667C14.0791 11.1386 16.6561 13.8762 16.6561 17.1865C16.6561 17.5472 16.9572 18.9995 17.3282 19C17.6996 18.9998 18 18.7078 18 18.3478ZM10 9.41938C7.99517 9.41938 6.36343 7.84545 6.36394 5.91105C6.36394 3.97712 7.99515 2.40349 9.99949 2.40349H10C12.0052 2.40349 13.6364 3.97712 13.6364 5.91103C13.6364 7.84568 12.005 9.41938 10 9.41938ZM17.3284 19L17.3282 19L17.3278 19H17.3284Z" fill="white"/>
</g>
</svg>
