<svg width="20" height="20" viewBox="0 0 20 20" fill="none" xmlns="http://www.w3.org/2000/svg">
<g id="Group 2085667475">
<path id="Vector" d="M10.7175 1.49332C11.729 0.355316 13.5866 1.34882 13.2022 2.8221L11.9509 7.61591L14.022 8.44416C14.2381 8.53037 14.4302 8.66736 14.5822 8.84354C14.7341 9.01971 14.8414 9.2299 14.895 9.45631C14.9485 9.68272 14.9467 9.91869 14.8898 10.1443C14.8329 10.3699 14.7224 10.5784 14.5679 10.7523L8.56331 17.5067C7.5528 18.6447 5.69514 17.6512 6.07953 16.1779L7.32991 11.3841L5.25882 10.5558C5.0428 10.4695 4.85075 10.3325 4.6989 10.1562C4.54705 9.98001 4.43986 9.76982 4.38642 9.54342C4.33297 9.31702 4.33482 9.08108 4.39183 8.85555C4.44883 8.63001 4.55931 8.42153 4.71391 8.24772L10.7175 1.49332ZM11.7998 2.45661L5.79618 9.21008L9.05438 10.5134L7.481 16.5434L13.4846 9.78992L10.2274 8.48664L11.7998 2.45661Z" fill="white"/>
</g>
</svg>
