<svg width="42" height="44" viewBox="0 0 42 44" fill="none" xmlns="http://www.w3.org/2000/svg">
<g id="Group 2085667471">
<g id="Group 2085667434">
<g id="Group 2085667433">
<circle id="Ellipse 4255063" cx="3.2" cy="3.65313" r="2.2" fill="#6B41DE" fill-opacity="0.44"/>
<circle id="Ellipse 4255064" cx="11.0086" cy="3.65313" r="2.2" fill="#6B41DE" fill-opacity="0.44"/>
<circle id="Ellipse 4255065" cx="18.8133" cy="3.65313" r="2.2" fill="#6B41DE" fill-opacity="0.44"/>
<circle id="Ellipse 4255066" cx="26.6219" cy="3.65313" r="2.2" fill="#6B41DE" fill-opacity="0.44"/>
<circle id="Ellipse 4255067" cx="26.6219" cy="11.4617" r="2.2" fill="#6B41DE" fill-opacity="0.44"/>
<circle id="Ellipse 4255072" cx="3.2" cy="11.4617" r="2.2" fill="#6B41DE" fill-opacity="0.44"/>
<circle id="Ellipse 4255070" cx="11.0086" cy="26.7469" r="2.2" fill="#6B41DE" fill-opacity="0.44"/>
<circle id="Ellipse 4255071" cx="3.2" cy="26.7" r="2.2" fill="#6B41DE" fill-opacity="0.44"/>
<circle id="Ellipse 4255074" cx="3.2" cy="19.0789" r="2.2" fill="#6B41DE" fill-opacity="0.44"/>
</g>
<path id="Vector" d="M27.5113 42C27.25 41.9982 26.9997 41.8947 26.8136 41.7114C26.6274 41.5281 26.5201 41.2795 26.5143 41.0184V39.439C23.6901 39.2023 21.041 37.9734 19.0367 35.9704C17.0325 33.9673 15.8026 31.3194 15.5651 28.4963H14.0081C13.7432 28.4988 13.4883 28.396 13.2992 28.2106C13.1102 28.0252 13.0026 27.7723 13 27.5076C12.9975 27.2429 13.1003 26.988 13.2858 26.799C13.4713 26.61 13.7243 26.5025 13.9891 26.4999H15.5659C15.8032 23.6768 17.0331 21.029 19.0374 19.026C21.0417 17.023 23.6909 15.7944 26.5151 15.558V14.0173C26.5101 13.7526 26.6105 13.4967 26.7942 13.3059C26.9779 13.1152 27.2299 13.0052 27.4947 13.0002C27.7595 12.9952 28.0155 13.0955 28.2063 13.2791C28.3971 13.4628 28.5072 13.7147 28.5122 13.9794V15.558C31.3363 15.794 33.9855 17.0226 35.9895 19.0257C37.9935 21.0288 39.2227 23.6769 39.459 26.4999H41.0184C41.279 26.5048 41.5274 26.6111 41.7107 26.7962C41.894 26.9814 41.9978 27.2307 42 27.4912C42.0021 27.7517 41.9025 28.0028 41.7223 28.1909C41.542 28.3791 41.2955 28.4895 41.035 28.4987H39.4551C39.2186 31.3217 37.9894 33.9698 35.9854 35.973C33.9815 37.9763 31.3324 39.2051 28.5082 39.4414V40.9813C28.5123 41.2459 28.4111 41.5013 28.2271 41.6916C28.043 41.8818 27.791 41.9913 27.5263 41.996H27.5184L27.5113 42ZM27.4836 22.4946C26.4958 22.4948 25.5301 22.7877 24.7088 23.3365C23.8875 23.8852 23.2474 24.665 22.8694 25.5774C22.4915 26.4898 22.3926 27.4937 22.5854 28.4622C22.7781 29.4307 23.2538 30.3203 23.9524 31.0186C24.6509 31.7169 25.5409 32.1924 26.5097 32.3851C27.4786 32.5778 28.4829 32.479 29.3956 32.1011C30.3083 31.7233 31.0884 31.0834 31.6373 30.2624C32.1863 29.4414 32.4793 28.4761 32.4795 27.4886C32.4778 26.1647 31.9509 24.8954 31.0144 23.9592C30.0778 23.023 28.8081 22.4963 27.4836 22.4946ZM27.4836 30.4839C26.891 30.4839 26.3117 30.3083 25.8189 29.9791C25.3262 29.65 24.9421 29.1822 24.7153 28.6349C24.4885 28.0876 24.4292 27.4853 24.5448 26.9043C24.6604 26.3233 24.9458 25.7895 25.3648 25.3706C25.7839 24.9517 26.3178 24.6665 26.8991 24.5509C27.4803 24.4353 28.0828 24.4946 28.6303 24.7213C29.1778 24.9481 29.6458 25.332 29.9751 25.8245C30.3043 26.3171 30.48 26.8962 30.48 27.4886C30.4786 28.2826 30.1624 29.0436 29.6008 29.605C29.0392 30.1664 28.2779 30.4825 27.4836 30.4839Z" fill="#6B41DE"/>
</g>
</g>
</svg>
