<svg width="20" height="20" viewBox="0 0 20 20" fill="none" xmlns="http://www.w3.org/2000/svg">
<g id="Group 2085667479">
<path id="Vector" d="M9.99269 15.4175C10.451 15.4175 10.8225 15.789 10.8225 16.2473C10.8225 16.7056 10.451 17.077 9.99269 17.077C9.53441 17.077 9.1629 16.7056 9.1629 16.2473C9.1629 15.789 9.53441 15.4175 9.99269 15.4175ZM6.63112 12.339C8.6473 10.9083 11.3459 10.9083 13.362 12.339C13.7381 12.6065 13.8234 13.1261 13.5598 13.4983C13.2922 13.8744 12.7727 13.9636 12.4004 13.6961C10.962 12.6724 9.03118 12.6724 7.59263 13.6961C7.21663 13.9597 6.70094 13.8705 6.4334 13.4983C6.16978 13.1223 6.25894 12.6027 6.63112 12.339ZM3.64958 9.42335C7.34457 6.34481 12.7068 6.34481 16.4057 9.42335C16.7585 9.71795 16.809 10.2414 16.5143 10.5942C16.2196 10.9432 15.6962 10.9936 15.3434 10.6989C12.2648 8.13609 7.79426 8.13609 4.7157 10.6989C4.36288 10.9936 3.83948 10.9471 3.5448 10.5942C3.25018 10.2414 3.29661 9.71795 3.64945 9.42335H3.64958ZM0.656312 6.4882C5.99142 1.78518 13.9902 1.78518 19.3253 6.4882C19.6703 6.79448 19.7052 7.31799 19.3951 7.65912C19.0927 8.00424 18.5692 8.0352 18.2242 7.73281C13.5171 3.58411 6.46057 3.58411 1.75354 7.73281C1.41228 8.0352 0.884992 8.00424 0.582599 7.65912C0.280099 7.31799 0.311165 6.79072 0.656312 6.4882Z" fill="white"/>
</g>
</svg>
