<svg width="42" height="44" viewBox="0 0 42 44" fill="none" xmlns="http://www.w3.org/2000/svg">
<g id="Group 2085667469">
<g id="Group 2085667434">
<g id="Group 2085667433">
<circle id="Ellipse 4255063" cx="2.2" cy="3.65313" r="2.2" fill="#6B41DE" fill-opacity="0.44"/>
<circle id="Ellipse 4255064" cx="10.0086" cy="3.65313" r="2.2" fill="#6B41DE" fill-opacity="0.44"/>
<circle id="Ellipse 4255065" cx="17.8133" cy="3.65313" r="2.2" fill="#6B41DE" fill-opacity="0.44"/>
<circle id="Ellipse 4255066" cx="25.6219" cy="3.65313" r="2.2" fill="#6B41DE" fill-opacity="0.44"/>
<circle id="Ellipse 4255067" cx="25.6219" cy="11.4617" r="2.2" fill="#6B41DE" fill-opacity="0.44"/>
<circle id="Ellipse 4255072" cx="2.2" cy="11.4617" r="2.2" fill="#6B41DE" fill-opacity="0.44"/>
<circle id="Ellipse 4255073" cx="25.6219" cy="17.7078" r="2.2" fill="#6B41DE" fill-opacity="0.44"/>
<circle id="Ellipse 4255070" cx="10.0086" cy="26.7469" r="2.2" fill="#6B41DE" fill-opacity="0.44"/>
<circle id="Ellipse 4255071" cx="2.2" cy="26.7" r="2.2" fill="#6B41DE" fill-opacity="0.44"/>
<circle id="Ellipse 4255074" cx="2.2" cy="19.0789" r="2.2" fill="#6B41DE" fill-opacity="0.44"/>
</g>
<g id="Frame">
<path id="Vector" d="M21.752 15.332C16.836 16.9707 13.1346 21.4667 12.668 26.6654H19.376C19.524 22.08 20.352 18.0134 21.752 15.332ZM30.168 15.332C31.568 18.0134 32.396 22.08 32.544 26.6654H39.2106C38.728 21.4054 35.132 17 30.168 15.332ZM12.7093 29.332C13.1893 34.6747 16.8986 39.052 21.7933 40.6654C20.3946 37.984 19.524 33.9174 19.376 29.332H12.7093ZM32.544 29.332C32.396 33.9174 31.5253 37.984 30.1266 40.6654C35.1546 38.9547 38.72 34.5054 39.2106 29.332H32.544Z" fill="#6B41DE"/>
<path id="Vector_2" d="M25.963 14.668C24.2376 14.668 22.2936 19.9346 22.0443 26.668H29.879C29.6296 19.936 27.6856 14.668 25.9616 14.668H25.963ZM22.043 29.3346C22.2923 36.0666 24.2363 41.3346 25.9603 41.3346C27.6843 41.3346 29.6283 36.068 29.8776 29.3346H22.0443H22.043Z" fill="#6B41DE"/>
</g>
</g>
</g>
</svg>
