<svg width="20" height="20" viewBox="0 0 20 20" fill="none" xmlns="http://www.w3.org/2000/svg">
<g id="Group 2085667476">
<g id="Group 2085667439">
<path id="Vector" d="M10.0287 0.484375L17.5337 2.97937C17.6987 6.30062 17.5737 9.21688 17.1587 11.7244C15.9162 15.8344 11.2925 17.9794 10.0337 17.9794C8.77498 17.9794 4.15498 15.9394 2.90873 11.7419C2.49623 9.22937 2.37123 6.30687 2.53373 2.97937L10.0287 0.484375ZM10.0287 1.80187L3.74623 3.89187L3.72873 4.50937C3.67248 6.90937 3.78248 9.06312 4.05498 10.9719L4.12873 11.4506L4.20998 11.7006C4.69248 13.0569 5.63748 14.2444 6.89123 15.1969L7.18623 15.4131C8.31123 16.2069 9.59623 16.7294 10.0337 16.7294C10.4537 16.7294 11.7412 16.1881 12.875 15.3769C14.2787 14.3731 15.3412 13.1044 15.86 11.6719L15.9387 11.4294L16.0137 10.9544C16.2875 9.04937 16.3962 6.89937 16.3387 4.50688L16.32 3.89187L10.0287 1.80187ZM14.0112 6.65312C14.1284 6.77033 14.1942 6.92927 14.1942 7.095C14.1942 7.26073 14.1284 7.41967 14.0112 7.53687L9.59123 11.9569C9.47402 12.074 9.31508 12.1399 9.14935 12.1399C8.98363 12.1399 8.82468 12.074 8.70748 11.9569L6.05623 9.30562C5.94238 9.18775 5.87938 9.02987 5.88081 8.866C5.88223 8.70213 5.94796 8.54537 6.06384 8.42949C6.17972 8.31361 6.33648 8.24788 6.50035 8.24645C6.66423 8.24503 6.8221 8.30803 6.93998 8.42187L9.14998 10.6294L13.1275 6.65187C13.2447 6.53471 13.4036 6.46888 13.5694 6.46888C13.7351 6.46888 13.894 6.53471 14.0112 6.65187V6.65312Z" fill="white"/>
</g>
</g>
</svg>
