<svg width="42" height="44" viewBox="0 0 42 44" fill="none" xmlns="http://www.w3.org/2000/svg">
<g id="Group 2085667467">
<g id="Group 2085667435">
<g id="Group 2085667433">
<circle id="Ellipse 4255063" cx="3.2" cy="3.65313" r="2.2" fill="#6B41DE" fill-opacity="0.44"/>
<circle id="Ellipse 4255064" cx="11.0086" cy="3.65313" r="2.2" fill="#6B41DE" fill-opacity="0.44"/>
<circle id="Ellipse 4255065" cx="18.8133" cy="3.65313" r="2.2" fill="#6B41DE" fill-opacity="0.44"/>
<circle id="Ellipse 4255066" cx="26.6219" cy="3.65313" r="2.2" fill="#6B41DE" fill-opacity="0.44"/>
<circle id="Ellipse 4255067" cx="26.6219" cy="11.4617" r="2.2" fill="#6B41DE" fill-opacity="0.44"/>
<circle id="Ellipse 4255072" cx="3.2" cy="11.4617" r="2.2" fill="#6B41DE" fill-opacity="0.44"/>
<circle id="Ellipse 4255073" cx="26.6219" cy="17.7078" r="2.2" fill="#6B41DE" fill-opacity="0.44"/>
<circle id="Ellipse 4255070" cx="11.0086" cy="27.2" r="2.2" fill="#6B41DE" fill-opacity="0.44"/>
<circle id="Ellipse 4255071" cx="3.2" cy="26.7" r="2.2" fill="#6B41DE" fill-opacity="0.44"/>
<circle id="Ellipse 4255074" cx="3.2" cy="19.0789" r="2.2" fill="#6B41DE" fill-opacity="0.44"/>
</g>
<path id="Vector" d="M20.2928 30.9691C21.8421 32.5438 22.0215 34.2365 20.3041 35.9818C19.2401 37.0625 17.5175 37.7118 15.1468 37.9898C15.0241 38.0045 14.9001 38.0038 14.7768 37.9891C13.9435 37.8878 13.3348 37.1471 13.3748 36.3011L13.3835 36.1905L13.4175 35.9105C13.7081 33.6504 14.3375 31.9958 15.3595 30.9571C17.0768 29.2124 18.7428 29.3951 20.2928 30.9691ZM34.4868 14.427L34.7548 14.509L35.0168 14.5963C35.3393 14.7094 35.6318 14.8944 35.8721 15.1373C36.1125 15.3802 36.2944 15.6747 36.4041 15.9983C37.4488 19.0503 37.1168 22.1424 35.4328 25.2077C34.7388 26.4704 33.8508 27.6657 32.7701 28.7931L32.4708 29.0991L32.1874 29.3764L32.1794 29.4624C31.9828 31.2984 30.5901 33.7264 28.0241 36.8658L27.8014 37.1371L27.3914 37.6271C26.9274 38.1778 26.0635 38.0245 25.7928 37.3738L25.7608 37.2865L24.3261 32.7078L24.1961 32.6178C23.39 32.0435 22.6221 31.4173 21.8975 30.7431L21.5408 30.4031L21.1915 30.0564C20.1596 29.0064 19.2309 27.8598 18.4181 26.6324L18.3388 26.5091L13.6668 24.9984C13.0095 24.785 12.7975 23.9724 13.2148 23.4617L13.2701 23.399L13.3301 23.343C17.1728 19.9857 20.0081 18.321 22.0388 18.4597L22.1695 18.471L22.2455 18.4803L22.4168 18.307C23.3381 17.391 24.3028 16.6117 25.3115 15.971L25.6488 15.7623L25.9588 15.581C28.7734 13.985 31.6308 13.5916 34.4868 14.427ZM25.8741 20.8744C24.7055 22.0437 24.7095 23.943 25.8835 25.1171C27.0574 26.2911 28.9568 26.2951 30.1261 25.1264C31.2948 23.957 31.2908 22.0577 30.1168 20.8837C28.9428 19.7097 27.0434 19.7057 25.8741 20.8744Z" fill="#6B41DE"/>
</g>
</g>
</svg>
