<svg width="28" height="28" viewBox="0 0 28 28" fill="none" xmlns="http://www.w3.org/2000/svg">
<g id=".PricingCheck">
<mask id="path-1-inside-1_13418_126820" fill="white">
<path d="M0 14C0 6.26801 6.26801 0 14 0C21.732 0 28 6.26801 28 14C28 21.732 21.732 28 14 28C6.26801 28 0 21.732 0 14Z"/>
</mask>
<path d="M14 28V27C6.8203 27 1 21.1797 1 14H0H-1C-1 22.2843 5.71573 29 14 29V28ZM28 14H27C27 21.1797 21.1797 27 14 27V28V29C22.2843 29 29 22.2843 29 14H28ZM14 0V1C21.1797 1 27 6.8203 27 14H28H29C29 5.71573 22.2843 -1 14 -1V0ZM14 0V-1C5.71573 -1 -1 5.71573 -1 14H0H1C1 6.8203 6.8203 1 14 1V0Z" fill="url(#paint0_linear_13418_126820)" mask="url(#path-1-inside-1_13418_126820)"/>
<path id="Icon" fill-rule="evenodd" clip-rule="evenodd" d="M18.9862 9.38197C19.4481 8.90831 20.2384 8.86991 20.7516 9.29621C21.2647 9.72251 21.3063 10.4521 20.8445 10.9257L13.3445 18.618C12.8654 19.1094 12.0379 19.1295 11.5315 18.662L8.19815 15.5851C7.70999 15.1345 7.70999 14.4039 8.19815 13.9533C8.6863 13.5027 9.47776 13.5027 9.96591 13.9533L12.3676 16.1703L18.9862 9.38197Z" fill="#149041"/>
</g>
<defs>
<linearGradient id="paint0_linear_13418_126820" x1="14" y1="0" x2="14" y2="28" gradientUnits="userSpaceOnUse">
<stop stop-color="#F4F4F5"/>
<stop offset="1" stop-color="#C8D6E5"/>
</linearGradient>
</defs>
</svg>
