<svg width="20" height="20" viewBox="0 0 20 20" fill="none" xmlns="http://www.w3.org/2000/svg">
<g id="Group 2085667480">
<g id="Group 2085667444">
<path id="Vector" d="M4.68847 12.3226L7.63947 14.2336C7.71747 14.2856 7.79547 14.3116 7.88647 14.3116C8.02947 14.3116 8.18547 14.2336 8.26347 14.1036C8.39347 13.8956 8.34147 13.6226 8.13347 13.4796L5.76747 11.9456L8.13347 10.4246C8.34147 10.2946 8.40647 10.0086 8.26347 9.80055C8.13347 9.59255 7.84747 9.52755 7.63947 9.67055L4.68847 11.5686C4.55847 11.6466 4.48047 11.7896 4.48047 11.9456C4.48047 12.0886 4.55847 12.2316 4.68847 12.3226ZM9.12147 15.8326C9.16047 15.8456 9.18647 15.8456 9.22547 15.8456C9.43347 15.8456 9.61547 15.7026 9.66747 15.4946L11.1495 8.81255C11.2015 8.56555 11.0455 8.33155 10.8115 8.27955C10.5645 8.22755 10.3305 8.38355 10.2785 8.61755L8.79647 15.2996C8.73147 15.5466 8.88747 15.7806 9.12147 15.8326ZM11.6565 14.0516C11.7475 14.1816 11.8905 14.2596 12.0335 14.2596C12.1115 14.2596 12.2025 14.2336 12.2805 14.1816L15.2315 12.2706C15.3615 12.1926 15.4395 12.0496 15.4395 11.8936C15.4395 11.7376 15.3615 11.5946 15.2315 11.5166L12.2805 9.61855C12.0725 9.48855 11.7995 9.54055 11.6565 9.74855C11.5265 9.95655 11.5785 10.2296 11.7865 10.3726L14.1525 11.8936L11.7865 13.4276C11.5915 13.5706 11.5265 13.8436 11.6565 14.0516Z" fill="white"/>
<path id="Vector_2" d="M16.7641 1.96094H3.21809C1.64509 1.96094 0.371094 3.23494 0.371094 4.80794V15.2599C0.371094 16.8329 1.64509 18.1069 3.21809 18.1069H16.7641C18.3371 18.1069 19.6111 16.8329 19.6111 15.2599V4.80794C19.6111 3.23494 18.3371 1.96094 16.7641 1.96094ZM18.3111 15.2599C18.3111 16.1179 17.6221 16.8069 16.7641 16.8069H3.21809C2.36009 16.8069 1.67109 16.1179 1.67109 15.2599V7.65494H18.3111V15.2599ZM18.3111 6.61494H1.67109V4.80794C1.67109 3.94994 2.36009 3.26094 3.21809 3.26094H16.7641C17.6221 3.26094 18.3111 3.94994 18.3111 4.80794V6.61494Z" fill="white"/>
<path id="Vector_3" d="M3.64844 4.83634C3.64844 4.9846 3.70733 5.12678 3.81216 5.23162C3.917 5.33645 4.05918 5.39534 4.20744 5.39534C4.35569 5.39534 4.49788 5.33645 4.60271 5.23162C4.70754 5.12678 4.76644 4.9846 4.76644 4.83634C4.76644 4.68809 4.70754 4.5459 4.60271 4.44107C4.49788 4.33624 4.35569 4.27734 4.20744 4.27734C4.05918 4.27734 3.917 4.33624 3.81216 4.44107C3.70733 4.5459 3.64844 4.68809 3.64844 4.83634Z" fill="white"/>
<path id="Vector_4" d="M5.87109 4.83634C5.87109 4.9846 5.92999 5.12678 6.03482 5.23162C6.13965 5.33645 6.28184 5.39534 6.43009 5.39534C6.57835 5.39534 6.72053 5.33645 6.82537 5.23162C6.9302 5.12678 6.98909 4.9846 6.98909 4.83634C6.98909 4.68809 6.9302 4.5459 6.82537 4.44107C6.72053 4.33624 6.57835 4.27734 6.43009 4.27734C6.28184 4.27734 6.13965 4.33624 6.03482 4.44107C5.92999 4.5459 5.87109 4.68809 5.87109 4.83634Z" fill="white"/>
<path id="Vector_5" d="M8.10547 4.83634C8.10547 4.9846 8.16436 5.12678 8.2692 5.23162C8.37403 5.33645 8.51621 5.39534 8.66447 5.39534C8.81272 5.39534 8.95491 5.33645 9.05974 5.23162C9.16457 5.12678 9.22347 4.9846 9.22347 4.83634C9.22347 4.68809 9.16457 4.5459 9.05974 4.44107C8.95491 4.33624 8.81272 4.27734 8.66447 4.27734C8.51621 4.27734 8.37403 4.33624 8.2692 4.44107C8.16436 4.5459 8.10547 4.68809 8.10547 4.83634Z" fill="white"/>
</g>
</g>
</svg>
