<svg width="39" height="41" viewBox="0 0 39 41" fill="none" xmlns="http://www.w3.org/2000/svg">
<g id="Group 2085667076">
<g id="Group 2085664668">
<path id="Vector 8054" d="M1.05078 34.2679V17.9081C1.05078 16.3042 1.80642 14.794 3.09011 13.8324L16.1816 4.02544C17.9913 2.66976 20.4782 2.66976 22.288 4.02544L35.3795 13.8324C36.6632 14.794 37.4188 16.3042 37.4188 17.9081V34.2679C37.4188 37.0804 35.1388 39.3604 32.3263 39.3604H6.14329C3.33077 39.3604 1.05078 37.0804 1.05078 34.2679Z" fill="url(#paint0_linear_13418_127446)"/>
<path id="Vector" d="M18.9336 14.5625H18.9375C23.3336 14.5641 26.9632 17.6636 27.4141 21.5781C27.6968 24.0284 26.9133 25.9063 25.0098 28.0938L25.0049 28.0996C22.9764 30.4658 21.9871 31.4479 19.6084 33.8086C19.5162 33.9 19.4196 33.9325 19.3125 33.9307C19.1928 33.9286 19.0244 33.8792 18.8457 33.7373C15.5168 31.0942 14.7133 30.0334 12.3818 27.5537C8.65547 23.5905 10.3664 17.1056 15.7305 15.1406L15.9883 15.0508C16.8345 14.7704 17.6872 14.6038 18.5586 14.5693L18.9336 14.5625Z" stroke="white" stroke-width="1.9217"/>
<path id="Ellipse 2916" d="M21.6436 22.1323C21.6436 23.5904 20.4615 24.7725 19.0034 24.7725C17.5453 24.7725 16.3633 23.5904 16.3633 22.1323C16.3633 20.6742 17.5453 19.4922 19.0034 19.4922C20.4615 19.4922 21.6436 20.6742 21.6436 22.1323Z" fill="white"/>
</g>
</g>
<defs>
<linearGradient id="paint0_linear_13418_127446" x1="17.3537" y1="38.7333" x2="24.2511" y2="8.00863" gradientUnits="userSpaceOnUse">
<stop stop-color="#9360EF"/>
<stop offset="1" stop-color="#6A3EE1"/>
</linearGradient>
</defs>
</svg>
