<svg width="42" height="44" viewBox="0 0 42 44" fill="none" xmlns="http://www.w3.org/2000/svg">
<g id="Group 2085667468">
<g id="Group 2085667434">
<g id="Group 2085667433">
<circle id="Ellipse 4255063" cx="3.2" cy="3.65313" r="2.2" fill="#6B41DE" fill-opacity="0.44"/>
<circle id="Ellipse 4255064" cx="11.0086" cy="3.65313" r="2.2" fill="#6B41DE" fill-opacity="0.44"/>
<circle id="Ellipse 4255065" cx="18.8133" cy="3.65313" r="2.2" fill="#6B41DE" fill-opacity="0.44"/>
<circle id="Ellipse 4255066" cx="26.6219" cy="3.65313" r="2.2" fill="#6B41DE" fill-opacity="0.44"/>
<circle id="Ellipse 4255067" cx="26.6219" cy="11.4617" r="2.2" fill="#6B41DE" fill-opacity="0.44"/>
<circle id="Ellipse 4255072" cx="3.2" cy="11.4617" r="2.2" fill="#6B41DE" fill-opacity="0.44"/>
<circle id="Ellipse 4255073" cx="26.6219" cy="17.7078" r="2.2" fill="#6B41DE" fill-opacity="0.44"/>
<circle id="Ellipse 4255069" cx="18.8133" cy="23.9539" r="2.2" fill="#6B41DE" fill-opacity="0.44"/>
<circle id="Ellipse 4255070" cx="11.0086" cy="26.7469" r="2.2" fill="#6B41DE" fill-opacity="0.44"/>
<circle id="Ellipse 4255071" cx="3.2" cy="26.7" r="2.2" fill="#6B41DE" fill-opacity="0.44"/>
<circle id="Ellipse 4255074" cx="3.2" cy="19.0789" r="2.2" fill="#6B41DE" fill-opacity="0.44"/>
</g>
<g id="Frame">
<path id="Vector" d="M34.9296 15.8835L34.7461 15.8462C28.8609 14.6502 22.7855 14.6502 16.9 15.8462L16.7165 15.8835C15.0726 16.2175 13.8945 17.6301 13.8945 19.2673V23.9406C13.8945 30.0072 16.9046 35.6993 21.9738 39.2178L23.5242 40.2939C24.9143 41.2586 26.7793 41.2568 28.1673 40.2893L29.7022 39.2195C34.7538 35.6993 37.7519 30.0174 37.7519 23.9631V19.2673C37.7519 17.6304 36.5735 16.2175 34.9296 15.8835ZM30.7832 27.9544L24.6576 33.2672C23.9939 33.8427 22.9821 33.2299 23.1849 32.3749L24.0765 28.6181C24.1359 28.3678 23.9812 28.1168 23.7309 28.0571L21.245 27.464C20.5285 27.2931 20.306 26.3833 20.8621 25.9009L26.9878 20.5881C27.6515 20.0126 28.6633 20.6254 28.4605 21.4804L27.5689 25.2372C27.5095 25.4875 27.6642 25.7385 27.9145 25.7983L30.4004 26.3913C31.1169 26.5622 31.3394 27.4721 30.7832 27.9544Z" fill="#6B41DE"/>
</g>
</g>
</g>
</svg>
