<svg width="42" height="44" viewBox="0 0 42 44" fill="none" xmlns="http://www.w3.org/2000/svg">
<g id="Group 2085667472">
<g id="Group 2085667434">
<g id="Group 2085667433">
<circle id="Ellipse 4255063" cx="3.2" cy="3.65313" r="2.2" fill="#6B41DE" fill-opacity="0.44"/>
<circle id="Ellipse 4255064" cx="11.0086" cy="3.65313" r="2.2" fill="#6B41DE" fill-opacity="0.44"/>
<circle id="Ellipse 4255065" cx="18.8133" cy="3.65313" r="2.2" fill="#6B41DE" fill-opacity="0.44"/>
<circle id="Ellipse 4255066" cx="26.6219" cy="3.65313" r="2.2" fill="#6B41DE" fill-opacity="0.44"/>
<circle id="Ellipse 4255067" cx="26.6219" cy="11.4617" r="2.2" fill="#6B41DE" fill-opacity="0.44"/>
<circle id="Ellipse 4255072" cx="3.2" cy="11.4617" r="2.2" fill="#6B41DE" fill-opacity="0.44"/>
<circle id="Ellipse 4255073" cx="26.6219" cy="17.7078" r="2.2" fill="#6B41DE" fill-opacity="0.44"/>
<circle id="Ellipse 4255069" cx="18.8133" cy="23.9539" r="2.2" fill="#6B41DE" fill-opacity="0.44"/>
<circle id="Ellipse 4255070" cx="11.0086" cy="26.7469" r="2.2" fill="#6B41DE" fill-opacity="0.44"/>
<circle id="Ellipse 4255071" cx="3.2" cy="26.7" r="2.2" fill="#6B41DE" fill-opacity="0.44"/>
<circle id="Ellipse 4255074" cx="3.2" cy="19.0789" r="2.2" fill="#6B41DE" fill-opacity="0.44"/>
</g>
<g id="Group 2085667483">
<path id="Vector" d="M35.9473 15H17.0674C16.7192 14.9992 16.3743 15.0671 16.0525 15.1998C15.7306 15.3325 15.438 15.5274 15.1916 15.7733C14.9451 16.0192 14.7496 16.3113 14.6162 16.6328C14.4827 16.9544 14.4141 17.2992 14.4141 17.6473V31.5032C14.4141 31.8514 14.4827 32.1963 14.6161 32.5179C14.7495 32.8396 14.945 33.1318 15.1915 33.3778C15.4379 33.6238 15.7305 33.8189 16.0523 33.9517C16.3742 34.0846 16.7192 34.1526 17.0674 34.152H35.9473C36.6498 34.152 37.3236 33.873 37.8203 33.3762C38.3171 32.8795 38.5961 32.2057 38.5961 31.5032V17.6473C38.5961 17.2995 38.5276 16.9552 38.3945 16.6339C38.2613 16.3126 38.0662 16.0207 37.8202 15.7749C37.5742 15.529 37.2822 15.334 36.9609 15.2011C36.6395 15.0681 36.2951 14.9998 35.9473 15ZM33.7164 21.7107L28.9314 26.4236C28.7524 26.6012 28.5116 26.7027 28.2595 26.7069C28.0073 26.7111 27.7633 26.6177 27.5785 26.4461L24.7222 23.8184L20.6753 27.8682C20.4919 28.052 20.243 28.1555 19.9833 28.1557C19.7237 28.156 19.4746 28.0532 19.2908 27.8698C19.107 27.6863 19.0035 27.4374 19.0033 27.1778C19.003 26.9181 19.1059 26.669 19.2893 26.4852L24.0021 21.7739C24.1802 21.5951 24.4206 21.4922 24.6728 21.4869C24.9251 21.4816 25.1696 21.5742 25.3551 21.7453L28.2219 24.3806L32.3439 20.3217C32.5285 20.1397 32.7778 20.0385 33.0371 20.0403C33.2963 20.0421 33.5442 20.1469 33.7262 20.3315C33.9082 20.5161 34.0094 20.7654 34.0076 21.0246C34.0058 21.2839 33.901 21.5317 33.7164 21.7137V21.7107Z" fill="#6B41DE"/>
<path id="Vector_2" d="M19.2702 35.5703H33.741C34.8795 35.5703 35.4488 36.1396 35.4488 37.2781C35.4488 38.4166 34.8795 38.9858 33.741 38.9858H19.2702C18.1317 38.9858 17.5625 38.4166 17.5625 37.2781C17.5625 36.1396 18.1317 35.5703 19.2702 35.5703Z" fill="#6B41DE"/>
</g>
</g>
</g>
</svg>
