<svg width="44" height="46" viewBox="0 0 44 46" fill="none" xmlns="http://www.w3.org/2000/svg">
<circle cx="2.9692" cy="3.43795" r="2.18013" fill="#6B41DE" fill-opacity="0.44"/>
<circle cx="10.7973" cy="3.43795" r="2.18013" fill="#6B41DE" fill-opacity="0.44"/>
<circle cx="18.602" cy="3.43795" r="2.18013" fill="#6B41DE" fill-opacity="0.44"/>
<circle cx="26.4106" cy="3.43795" r="2.18013" fill="#6B41DE" fill-opacity="0.44"/>
<circle cx="26.4106" cy="11.0864" r="2.18013" fill="#6B41DE" fill-opacity="0.44"/>
<circle cx="2.98873" cy="11.0864" r="2.18013" fill="#6B41DE" fill-opacity="0.44"/>
<circle cx="26.4106" cy="17.2192" r="2.18013" fill="#6B41DE" fill-opacity="0.44"/>
<circle cx="18.602" cy="23.354" r="2.18013" fill="#6B41DE" fill-opacity="0.44"/>
<circle cx="10.7973" cy="26.0297" r="2.18013" fill="#6B41DE" fill-opacity="0.44"/>
<circle cx="2.98873" cy="26.0297" r="2.18013" fill="#6B41DE" fill-opacity="0.44"/>
<circle cx="2.98873" cy="18.5669" r="2.18013" fill="#6B41DE" fill-opacity="0.44"/>
<path d="M37.2595 19.1003C36.9348 18.8006 36.5097 18.6508 36.0867 18.6508C36.0365 18.6508 36.0114 18.6508 35.9619 18.6508C35.9369 18.6508 35.6623 18.6759 35.2379 18.6759C34.5139 18.6759 33.1418 18.6257 31.8198 18.3017C30.1223 17.903 28.1508 16.0313 27.5766 15.6564C27.3027 15.4815 26.9529 15.3818 26.6282 15.3818C26.3042 15.3818 25.9801 15.4815 25.6805 15.6564C25.6059 15.7066 23.5599 17.8271 21.5634 18.3017C20.2407 18.6257 18.8184 18.6759 18.1202 18.6759C17.6707 18.6759 17.3968 18.6508 17.3717 18.6508C17.3466 18.6508 17.2965 18.6508 17.2721 18.6508C16.8226 18.6508 16.4233 18.8006 16.0992 19.1003C15.7501 19.3999 15.5508 19.8487 15.5508 20.2982V24.4397C15.5508 39.7114 25.9055 41.6815 26.3299 41.7568C26.4296 41.7818 26.5299 41.7818 26.6289 41.7818C26.7285 41.7818 26.8295 41.7818 26.9292 41.7568C27.378 41.6815 37.7829 39.7108 37.7829 24.4397V20.2982C37.7829 19.8487 37.5822 19.3999 37.2595 19.1003ZM33.4163 25.0145L26.2547 31.9505C26.2045 32.0257 26.155 32.101 26.0798 32.1511C25.8798 32.3504 25.6059 32.4501 25.3313 32.4501C25.0561 32.4501 24.7822 32.3504 24.5578 32.1511C24.5076 32.101 24.4337 32.0264 24.408 31.9505L20.5655 28.2327C20.1662 27.8334 20.1662 27.2104 20.5655 26.8111C20.9641 26.4111 21.638 26.4111 22.0373 26.8111L25.3313 29.9797L31.9439 23.5922C32.3689 23.1929 33.0164 23.1929 33.4157 23.5922C33.84 23.9665 33.84 24.6152 33.4163 25.0145Z" fill="#6B41DE"/>
</svg>
