<svg width="39" height="41" viewBox="0 0 39 41" fill="none" xmlns="http://www.w3.org/2000/svg">
<g id="Group 2085667076">
<g id="Group 2085667081">
<g id="Group 2085667465">
<rect id="Rectangle 161126351" x="0.496094" y="2.27344" width="37.8587" height="34.8265" rx="4.63523" fill="#524AE0"/>
<path id="Rectangle 161126352" d="M0.496094 6.90867C0.496094 4.3487 2.57136 2.27344 5.13133 2.27344H33.7196C36.2795 2.27344 38.3548 4.3487 38.3548 6.90867V11.3586H0.496094L0.496094 6.90867Z" fill="#766FF4"/>
<path id="Vector" d="M23.2109 6.81498C23.2109 7.21657 23.3705 7.60171 23.6545 7.88568C23.9385 8.16964 24.3237 8.32918 24.7253 8.32918C25.1269 8.32918 25.5121 8.16964 25.7961 7.88568C26.0801 7.60171 26.2396 7.21657 26.2396 6.81498C26.2396 6.41339 26.0801 6.02825 25.7961 5.74428C25.5121 5.46031 25.1269 5.30078 24.7253 5.30078C24.3237 5.30078 23.9385 5.46031 23.6545 5.74428C23.3705 6.02825 23.2109 6.41339 23.2109 6.81498Z" fill="white"/>
<path id="Vector_2" d="M28.7266 6.83842C28.7266 7.24001 28.8861 7.62515 29.1701 7.90912C29.4541 8.19308 29.8393 8.35261 30.2409 8.35261C30.6425 8.35261 31.0277 8.19308 31.3117 7.90912C31.5957 7.62515 31.7553 7.24001 31.7553 6.83842C31.7553 6.43683 31.5957 6.05168 31.3117 5.76772C31.0277 5.48375 30.6425 5.32422 30.2409 5.32422C29.8393 5.32422 29.4541 5.48375 29.1701 5.76772C28.8861 6.05168 28.7266 6.43683 28.7266 6.83842Z" fill="white"/>
<path id="API" d="M7.59305 28.4102L11.9038 17.641H13.3562L17.6515 28.4102H15.5502L14.7004 26.0616H10.5751L9.69436 28.4102H7.59305ZM11.1776 24.4084H14.0824L12.63 20.4839L11.1776 24.4084ZM19.0758 28.4102V17.641H22.5985C25.1634 17.641 26.2604 18.8152 26.2604 20.7466C26.2604 22.8479 24.9471 23.9449 22.5985 23.9449H20.9917V28.4102H19.0758ZM20.9917 22.168H22.3977C23.6492 22.168 24.329 21.8281 24.329 20.7775C24.329 19.7268 23.6492 19.4178 22.3977 19.4178H20.9917V22.168ZM28.0988 28.4102V17.641H30.0301V28.4102H28.0988Z" fill="white"/>
</g>
</g>
</g>
</svg>
