<svg width="42" height="44" viewBox="0 0 42 44" fill="none" xmlns="http://www.w3.org/2000/svg">
<circle cx="2.2" cy="3.65288" r="2.2" fill="#6B41DE" fill-opacity="0.44"/>
<circle cx="10.0086" cy="3.65288" r="2.2" fill="#6B41DE" fill-opacity="0.44"/>
<circle cx="17.8133" cy="3.65288" r="2.2" fill="#6B41DE" fill-opacity="0.44"/>
<circle cx="25.6219" cy="3.65288" r="2.2" fill="#6B41DE" fill-opacity="0.44"/>
<circle cx="25.6219" cy="11.4615" r="2.2" fill="#6B41DE" fill-opacity="0.44"/>
<circle cx="2.2" cy="11.4615" r="2.2" fill="#6B41DE" fill-opacity="0.44"/>
<circle cx="25.6219" cy="17.7056" r="2.2" fill="#6B41DE" fill-opacity="0.44"/>
<circle cx="10.0086" cy="26.7447" r="2.2" fill="#6B41DE" fill-opacity="0.44"/>
<circle cx="2.2" cy="26.6978" r="2.2" fill="#6B41DE" fill-opacity="0.44"/>
<circle cx="2.2" cy="19.0787" r="2.2" fill="#6B41DE" fill-opacity="0.44"/>
<path d="M31.317 38.1518C31.7238 38.1518 32.0536 38.4816 32.0536 38.8884C32.0536 39.2952 31.7238 39.625 31.317 39.625H18.058C17.6512 39.625 17.3214 39.2952 17.3214 38.8884C17.3214 38.4816 17.6512 38.1518 18.058 38.1518H31.317ZM32.7902 19C34.0106 19 35 19.9894 35 21.2098V34.4688C35 35.6892 34.0106 36.6786 32.7902 36.6786H16.5848C15.3644 36.6786 14.375 35.6892 14.375 34.4688V21.2098C14.375 19.9894 15.3644 19 16.5848 19H32.7902ZM31.5371 25.923C31.2983 25.6056 30.8502 25.5349 30.5252 25.7633L30.5154 25.7703L27.0627 28.2814C27.0048 28.3235 26.936 28.3478 26.8645 28.3514C26.7931 28.355 26.7222 28.3377 26.6604 28.3016L26.653 28.2972L22.9305 26.0064C22.4124 25.6876 21.7523 25.7203 21.2685 26.087L21.2539 26.0982L18.3424 28.3628L18.3329 28.3703C18.0233 28.6192 17.967 29.0694 18.2059 29.3869L18.2132 29.3964L18.2208 29.406C18.4697 29.7155 18.9198 29.7718 19.2373 29.533L19.2469 29.5256L21.9567 27.4179C22.0148 27.3728 22.0851 27.346 22.1585 27.3412C22.2319 27.3363 22.3051 27.3535 22.3686 27.3906L22.3759 27.395L26.091 29.6812C26.5945 29.9911 27.2338 29.9697 27.7151 29.6284L27.7296 29.618L31.3819 26.9618L31.3917 26.9546C31.7091 26.7157 31.7798 26.2676 31.5514 25.9426L31.5444 25.9328L31.5371 25.923Z" fill="#6B41DE"/>
</svg>
