<svg width="42" height="46" viewBox="0 0 42 46" fill="none" xmlns="http://www.w3.org/2000/svg">
<circle cx="2.2" cy="3.653" r="2.2" fill="#6B41DE" fill-opacity="0.44"/>
<circle cx="10.0086" cy="3.653" r="2.2" fill="#6B41DE" fill-opacity="0.44"/>
<circle cx="17.8133" cy="3.653" r="2.2" fill="#6B41DE" fill-opacity="0.44"/>
<circle cx="25.6219" cy="3.653" r="2.2" fill="#6B41DE" fill-opacity="0.44"/>
<circle cx="25.6219" cy="11.4616" r="2.2" fill="#6B41DE" fill-opacity="0.44"/>
<circle cx="2.2" cy="11.4616" r="2.2" fill="#6B41DE" fill-opacity="0.44"/>
<circle cx="25.6219" cy="17.7057" r="2.2" fill="#6B41DE" fill-opacity="0.44"/>
<circle cx="2.2" cy="26.6979" r="2.2" fill="#6B41DE" fill-opacity="0.44"/>
<circle cx="2.2" cy="19.0788" r="2.2" fill="#6B41DE" fill-opacity="0.44"/>
<path d="M31.8387 20.3672C30.0144 20.3672 28.0497 21.2092 25.8044 23.1738C24.8221 23.8755 23.8398 24.8578 22.9978 25.6998C22.1558 24.8578 21.1735 23.8755 20.3315 23.1738C18.0862 21.2092 16.1215 20.3672 14.2972 20.3672C10.2276 20.3672 7 24.1561 7 28.7871C7 33.418 10.2276 37.207 14.2972 37.207C16.1215 37.207 18.0862 36.365 20.3315 34.4003C21.3138 33.5584 22.1558 32.7164 22.9978 31.8744C23.8398 32.7164 24.8221 33.6987 25.6641 34.4003C27.9094 36.365 29.874 37.207 31.6984 37.207C35.768 37.207 38.9956 33.418 38.9956 28.7871C39.1359 24.1561 35.9083 20.3672 31.8387 20.3672ZM17.5249 31.1727C15.7006 32.7164 14.7182 32.997 14.1569 32.997C12.4729 32.997 11.0696 31.0324 11.0696 28.7871C11.0696 26.5418 12.4729 24.5771 14.1569 24.5771C14.7182 24.5771 15.7006 24.8578 17.5249 26.4014C18.3669 27.1031 19.2088 27.9451 20.0508 28.7871C19.3492 29.6291 18.3669 30.4711 17.5249 31.1727ZM31.8387 32.997C31.2774 32.997 30.295 32.7164 28.4707 31.1727C27.6287 30.4711 26.7867 29.6291 25.9448 28.7871C26.7867 27.9451 27.6287 27.1031 28.4707 26.4014C30.295 24.8578 31.2774 24.5771 31.8387 24.5771C33.5227 24.5771 34.926 26.5418 34.926 28.7871C34.926 31.0324 33.5227 32.997 31.8387 32.997Z" fill="#6B41DE"/>
</svg>
