<svg width="42" height="44" viewBox="0 0 42 44" fill="none" xmlns="http://www.w3.org/2000/svg">
<circle cx="3.2" cy="3.65288" r="2.2" fill="#6B41DE" fill-opacity="0.44"/>
<circle cx="11.0086" cy="3.65288" r="2.2" fill="#6B41DE" fill-opacity="0.44"/>
<circle cx="18.8133" cy="3.65288" r="2.2" fill="#6B41DE" fill-opacity="0.44"/>
<circle cx="26.6219" cy="3.65288" r="2.2" fill="#6B41DE" fill-opacity="0.44"/>
<circle cx="26.6219" cy="11.4615" r="2.2" fill="#6B41DE" fill-opacity="0.44"/>
<circle cx="3.2" cy="11.4615" r="2.2" fill="#6B41DE" fill-opacity="0.44"/>
<circle cx="3.2" cy="26.6978" r="2.2" fill="#6B41DE" fill-opacity="0.44"/>
<circle cx="11.4109" cy="26.6978" r="2.2" fill="#6B41DE" fill-opacity="0.44"/>
<circle cx="3.2" cy="19.0787" r="2.2" fill="#6B41DE" fill-opacity="0.44"/>
<path d="M26.6003 40.7215L35.9721 26.6637C36.3401 26.1114 36.1909 25.3649 35.6381 24.9969C35.4409 24.8654 35.2092 24.7953 34.9721 24.7954H27.6034V15.9454C27.6034 15.2817 27.0655 14.7434 26.4018 14.7434C25.9999 14.7434 25.6249 14.9442 25.4018 15.2786L16.0299 29.3364C15.662 29.8887 15.8112 30.6348 16.3635 31.0032C16.5609 31.1348 16.7927 31.2051 17.0299 31.2051H24.3987V40.0547C24.3987 40.7184 24.9366 41.2567 25.6003 41.2567C26.0022 41.2567 26.3776 41.0559 26.6003 40.7215Z" fill="#6B41DE"/>
</svg>
