<svg width="42" height="44" viewBox="0 0 42 44" fill="none" xmlns="http://www.w3.org/2000/svg">
<circle cx="3.2" cy="3.653" r="2.2" fill="#6B41DE" fill-opacity="0.44"/>
<circle cx="11.0086" cy="3.653" r="2.2" fill="#6B41DE" fill-opacity="0.44"/>
<circle cx="18.8133" cy="3.653" r="2.2" fill="#6B41DE" fill-opacity="0.44"/>
<circle cx="26.6219" cy="3.653" r="2.2" fill="#6B41DE" fill-opacity="0.44"/>
<circle cx="26.6219" cy="11.4616" r="2.2" fill="#6B41DE" fill-opacity="0.44"/>
<circle cx="3.2" cy="11.4616" r="2.2" fill="#6B41DE" fill-opacity="0.44"/>
<circle cx="26.6219" cy="17.7057" r="2.2" fill="#6B41DE" fill-opacity="0.44"/>
<circle cx="11.0086" cy="26.7448" r="2.2" fill="#6B41DE" fill-opacity="0.44"/>
<circle cx="3.2" cy="26.6979" r="2.2" fill="#6B41DE" fill-opacity="0.44"/>
<circle cx="3.2" cy="19.0788" r="2.2" fill="#6B41DE" fill-opacity="0.44"/>
<path d="M24.3379 15.0039C31.2414 15.0039 36.8379 20.6003 36.8379 27.5039V37.002C36.8379 37.6923 36.2782 38.252 35.5879 38.252H14.8398C14.1495 38.252 13.5898 37.6923 13.5898 37.002V16.2539C13.5898 15.5636 14.1495 15.0039 14.8398 15.0039H24.3379ZM35.9141 13.832C36.4318 13.832 36.8516 14.2518 36.8516 14.7695V15.707H37.7891C38.3068 15.707 38.7266 16.1268 38.7266 16.6445C38.7266 17.1623 38.3068 17.582 37.7891 17.582H36.8516V18.5195C36.8516 19.0373 36.4318 19.457 35.9141 19.457C35.3963 19.457 34.9766 19.0373 34.9766 18.5195V17.582H34.0391C33.5213 17.582 33.1016 17.1623 33.1016 16.6445C33.1016 16.1268 33.5213 15.707 34.0391 15.707H34.9766V14.7695C34.9766 14.2518 35.3963 13.832 35.9141 13.832Z" fill="#6B41DE"/>
<path d="M19.2344 30.8598C19.6132 29.9277 20.1274 28.6625 20.4504 27.8676M26.8529 30.8598L25.6366 27.8676M25.6366 27.8676H20.4504M25.6366 27.8676L23.4413 22.6993C23.3733 22.5394 23.2164 22.4355 23.0426 22.4355C22.8692 22.4355 22.7126 22.539 22.6443 22.6984C21.9069 24.4187 21.1551 26.1336 20.4504 27.8676" stroke="white" stroke-width="1.875" stroke-linecap="round" stroke-linejoin="round"/>
<path d="M30.0156 22.4355L30.0156 30.8608" stroke="white" stroke-width="1.875" stroke-linecap="round" stroke-linejoin="round"/>
</svg>
