<svg width="42" height="44" viewBox="0 0 42 44" fill="none" xmlns="http://www.w3.org/2000/svg">
<circle cx="3.2" cy="3.653" r="2.2" fill="#6B41DE" fill-opacity="0.44"/>
<circle cx="11.0086" cy="3.653" r="2.2" fill="#6B41DE" fill-opacity="0.44"/>
<circle cx="18.8133" cy="3.653" r="2.2" fill="#6B41DE" fill-opacity="0.44"/>
<circle cx="26.6219" cy="3.653" r="2.2" fill="#6B41DE" fill-opacity="0.44"/>
<circle cx="26.6219" cy="11.4616" r="2.2" fill="#6B41DE" fill-opacity="0.44"/>
<circle cx="3.2" cy="11.4616" r="2.2" fill="#6B41DE" fill-opacity="0.44"/>
<circle cx="26.6219" cy="17.7057" r="2.2" fill="#6B41DE" fill-opacity="0.44"/>
<circle cx="11.0086" cy="27.1979" r="2.2" fill="#6B41DE" fill-opacity="0.44"/>
<circle cx="3.2" cy="26.6979" r="2.2" fill="#6B41DE" fill-opacity="0.44"/>
<circle cx="3.2" cy="19.0788" r="2.2" fill="#6B41DE" fill-opacity="0.44"/>
<g clip-path="url(#clip0_1859_8705)">
<path d="M26.4722 14.9023C20.1049 14.9023 14.9219 20.0824 14.9219 26.4497C14.9248 32.8199 20.1049 38 26.4722 38C32.8394 38 38.0195 32.8199 38.0195 26.4526C38.0195 20.0853 32.8394 14.9023 26.4722 14.9023ZM32.7931 29.0615V29.1107C32.7931 29.1252 32.7902 29.1397 32.7902 29.157C32.7902 29.1657 32.7902 29.1744 32.7873 29.1831C32.7873 29.1976 32.7844 29.2121 32.7815 29.2265C32.7815 29.2352 32.7786 29.2468 32.7786 29.2555C32.7757 29.2671 32.7757 29.2787 32.7728 29.2902C32.7699 29.3018 32.767 29.3163 32.767 29.3279C32.7641 29.3366 32.7641 29.3453 32.7612 29.351C32.7584 29.3684 32.7526 29.3858 32.7497 29.4032C32.7497 29.4061 32.7468 29.409 32.7468 29.4119C32.6831 29.658 32.5557 29.8925 32.3617 30.0865L28.9826 33.4656C28.4035 34.0447 27.4566 34.0447 26.8804 33.4656C26.3013 32.8865 26.3013 31.9397 26.8804 31.3634L27.7172 30.5266H21.6366C20.8172 30.5266 20.1483 29.8578 20.1483 29.0383C20.1483 28.2189 20.8172 27.55 21.6366 27.55H31.3077C31.6899 27.55 32.0721 27.6948 32.3617 27.9844C32.6512 28.2739 32.796 28.6561 32.796 29.0383C32.796 29.047 32.7931 29.0557 32.7931 29.0615ZM32.796 23.864C32.796 24.6834 32.1271 25.3523 31.3077 25.3523H21.6366C21.2544 25.3523 20.8722 25.2075 20.5826 24.918C20.2931 24.6284 20.1483 24.2462 20.1483 23.864V23.8408V23.7945C20.1483 23.78 20.1512 23.7627 20.1512 23.7482C20.1512 23.7395 20.1512 23.7308 20.1541 23.7221C20.1541 23.7077 20.157 23.6932 20.1599 23.6787C20.1599 23.67 20.1628 23.6584 20.1628 23.6497C20.1657 23.6382 20.1657 23.6266 20.1686 23.615C20.1715 23.6034 20.1744 23.5889 20.1744 23.5774C20.1773 23.5687 20.1773 23.56 20.1802 23.5542C20.1831 23.5368 20.1888 23.5194 20.1917 23.5021C20.1917 23.4992 20.1946 23.4963 20.1946 23.4934C20.2583 23.2473 20.3857 23.0127 20.5797 22.8187L23.9559 19.4425C24.535 18.8634 25.4819 18.8634 26.0581 19.4425C26.6372 20.0216 26.6372 20.9685 26.0581 21.5447L25.2271 22.3786H31.3077C32.1242 22.3786 32.796 23.0475 32.796 23.864Z" fill="#6B41DE"/>
</g>
<defs>
<clipPath id="clip0_1859_8705">
<rect width="26" height="26" fill="white" transform="translate(12 12)"/>
</clipPath>
</defs>
</svg>
