<svg width="42" height="44" viewBox="0 0 42 44" fill="none" xmlns="http://www.w3.org/2000/svg">
<g id="Group 2085667470">
<g id="Group 2085667434">
<g id="Group 2085667433">
<circle id="Ellipse 4255063" cx="3.2" cy="3.65313" r="2.2" fill="#6B41DE" fill-opacity="0.44"/>
<circle id="Ellipse 4255064" cx="11.0086" cy="3.65313" r="2.2" fill="#6B41DE" fill-opacity="0.44"/>
<circle id="Ellipse 4255065" cx="18.8133" cy="3.65313" r="2.2" fill="#6B41DE" fill-opacity="0.44"/>
<circle id="Ellipse 4255066" cx="26.6219" cy="3.65313" r="2.2" fill="#6B41DE" fill-opacity="0.44"/>
<circle id="Ellipse 4255067" cx="26.6219" cy="11.4617" r="2.2" fill="#6B41DE" fill-opacity="0.44"/>
<circle id="Ellipse 4255072" cx="3.2" cy="11.4617" r="2.2" fill="#6B41DE" fill-opacity="0.44"/>
<circle id="Ellipse 4255073" cx="26.6219" cy="17.7078" r="2.2" fill="#6B41DE" fill-opacity="0.44"/>
<circle id="Ellipse 4255070" cx="11.0086" cy="26.7469" r="2.2" fill="#6B41DE" fill-opacity="0.44"/>
<circle id="Ellipse 4255071" cx="3.2" cy="26.7" r="2.2" fill="#6B41DE" fill-opacity="0.44"/>
<circle id="Ellipse 4255074" cx="3.2" cy="19.0789" r="2.2" fill="#6B41DE" fill-opacity="0.44"/>
</g>
<g id="Frame">
<path id="Vector" d="M35.8065 21.0058C35.2012 21.6881 34.5692 22.4211 33.8574 22.8695C32.5868 23.6687 32.1876 23.8636 30.2917 24.0469C28.8049 23.9182 28.0565 23.8247 26.4533 22.9006C25.6883 22.4601 25.6117 22.0195 26.2404 21.2983C27.2782 20.1013 28.5987 19.6296 29.9558 19.2553C31.1532 18.9278 32.3639 18.7913 33.5647 19.2241C34.2998 19.4892 35.0282 19.7777 35.7267 20.1481C35.7866 20.1793 35.913 20.3586 35.9296 20.5497C35.9496 20.7368 35.8631 20.9396 35.8065 21.0058ZM19.5514 22.9006C17.9482 23.8208 17.1998 23.9182 15.713 24.0469C13.8171 23.8636 13.4179 23.6687 12.1473 22.8695C11.4322 22.4211 10.8035 21.6881 10.1982 21.0058C10.135 20.9357 10.0285 20.7212 10.0551 20.5185C10.0784 20.3431 10.2214 20.1754 10.278 20.1442C10.9765 19.7738 11.7083 19.4853 12.44 19.2202C13.6408 18.7874 14.8515 18.9239 16.0489 19.2514C17.4094 19.6218 18.7299 20.0974 19.7643 21.2944C20.3896 22.0195 20.3164 22.4601 19.5514 22.9006ZM38.7502 15.9062C38.6438 15.0056 38.2979 14.7795 37.5594 15.1499C37.2601 15.3019 36.8942 15.4813 36.5982 15.415C35.4041 15.1421 34.2066 14.8497 33.0425 14.4364C30.6975 13.606 28.4956 13.9997 26.3568 15.2863C25.5452 15.7737 24.7436 16.417 23.8788 16.6041C23.5861 16.6665 23.2934 16.7133 23.004 16.7406C22.7146 16.7094 22.4219 16.6665 22.1292 16.6041C21.2578 16.417 20.4561 15.7737 19.6446 15.2863C17.5058 13.9997 15.3039 13.606 12.9556 14.4364C11.7914 14.8497 10.594 15.1421 9.39988 15.415C9.10385 15.4813 8.74129 15.3019 8.43861 15.1499C7.70685 14.7795 7.36092 15.0095 7.25116 15.9062C6.99171 18.0662 6.85534 20.23 7.23453 22.386C7.7767 25.466 8.84108 28.1835 11.3191 29.7859C11.9411 30.1875 12.583 30.5267 13.2682 30.7918C13.6607 30.9438 14.1696 31.0413 14.5522 30.9828C15.5034 30.8425 16.4714 30.6553 17.3761 30.2966C18.6068 29.8093 19.7477 28.9905 20.995 28.6007C21.6503 28.394 22.3155 28.2108 23.0007 28.1484C23.6859 28.2069 24.3478 28.394 25.0064 28.6007C26.2537 28.9905 27.3946 29.8093 28.6253 30.2966C29.53 30.6553 30.4979 30.8425 31.4492 30.9828C31.8317 31.0413 32.3373 30.9438 32.7331 30.7918C33.4183 30.5306 34.0603 30.1914 34.6823 29.7859C37.1603 28.1835 38.2247 25.4699 38.7668 22.386C39.1427 20.23 39.0097 18.0701 38.7502 15.9062Z" fill="#6B41DE"/>
</g>
</g>
</g>
</svg>
