<svg width="20" height="20" viewBox="0 0 20 20" fill="none" xmlns="http://www.w3.org/2000/svg">
<path d="M9.80566 6.7959C9.01702 6.79609 8.37598 7.44438 8.37598 8.23828C8.37598 8.80069 8.70144 9.31311 9.20996 9.5498L9.21191 9.55176L9.21875 9.55566C9.25893 9.57576 9.28851 9.59799 9.30566 9.61133L9.30859 9.61328C9.34244 9.63653 9.38563 9.66407 9.42969 9.70996H9.43066C9.46223 9.74153 9.48295 9.7748 9.49707 9.79883V9.83594H9.51953L9.56934 9.92676C9.5811 9.95482 9.58944 9.98219 9.59473 10.0068L9.60449 10.0713L9.60547 10.0771C9.61136 10.1007 9.62011 10.1365 9.62012 10.1826V13.8271C9.6202 13.9224 9.64955 13.987 9.68945 14.0283C9.72772 14.0678 9.77349 14.0829 9.80371 14.083C9.83395 14.083 9.88054 14.068 9.91895 14.0283C9.9588 13.987 9.98722 13.9223 9.9873 13.8271V10.1826C9.98732 10.129 9.99862 10.0881 10.0059 10.0645L10.0078 10.0557C10.0116 10.0269 10.019 9.98077 10.0391 9.92969L10.0381 9.92871C10.0601 9.87597 10.0888 9.83601 10.1064 9.81055L10.1152 9.79785V9.7959C10.1275 9.77549 10.1465 9.74195 10.1797 9.70703C10.2018 9.68406 10.2246 9.6653 10.2461 9.64941L10.3057 9.61035L10.3105 9.60645C10.3301 9.59081 10.3544 9.57211 10.3887 9.55664L10.3906 9.55566L10.3926 9.55371L10.3936 9.55469C10.9048 9.31791 11.2363 8.80214 11.2363 8.23828C11.2363 7.44426 10.5945 6.7959 9.80566 6.7959ZM8.24902 10.5771L8.22754 10.5625C7.4682 10.0396 7.00495 9.16861 7.00293 8.23828L7.01758 7.9502C7.16158 6.53006 8.35818 5.41717 9.80566 5.41699C11.3519 5.41699 12.6094 6.68333 12.6094 8.23828L12.6035 8.41113C12.5481 9.27406 12.0941 10.0722 11.3838 10.5625L11.3623 10.5771V13.8242C11.3623 14.7637 10.6604 15.5205 9.80566 15.5205C8.95106 15.5203 8.24902 14.7636 8.24902 13.8242V10.5771Z" fill="white" stroke="#4528A4" stroke-width="0.1"/>
<path d="M9.84863 1.0498C10.0003 1.04983 10.149 1.0922 10.2793 1.16895L10.4033 1.25684C10.5299 1.36266 13.0605 3.46191 16.71 3.46191C17.1777 3.46211 17.5596 3.84405 17.5615 4.31641V10.791C17.5615 11.4256 17.319 12.2561 16.8896 13.1523C16.4608 14.0475 15.8483 15.0043 15.1152 15.8906C14.3469 16.8202 13.5006 17.5994 12.668 18.1465C11.6883 18.7902 10.7406 19.1133 9.85254 19.1133C8.99703 19.1133 8.06778 18.794 7.0918 18.1621C6.24684 17.6149 5.38594 16.8377 4.60547 15.916C3.82803 14.9984 3.189 14.0159 2.74414 13.0879C2.29889 12.1591 2.04985 11.2884 2.0498 10.5928V4.28223C2.0498 4.08502 2.12036 3.89166 2.24414 3.74023L2.30078 3.67773C2.43038 3.54625 2.61285 3.46408 2.8623 3.43066H2.86523L2.88086 3.42773H2.90234C3.2909 3.42773 4.67381 3.39524 6.20117 2.99512C7.596 2.63017 8.62913 2.07032 9.18164 1.37305L9.18555 1.36914C9.32773 1.19364 9.52957 1.08206 9.75195 1.05566L9.84863 1.0498ZM16.1865 4.82715L16.1396 4.8252C13.1362 4.66606 10.867 3.29151 9.9502 2.63867L9.91602 2.61426L9.88672 2.64355C9.15814 3.35011 8.09573 3.90106 6.71875 4.28613C5.72317 4.56422 4.55761 4.74555 3.4707 4.79395L3.42285 4.79688V10.5928C3.4229 11.1081 3.64136 11.8229 4.03516 12.6064V12.6055C4.43568 13.4065 4.98828 14.2337 5.63184 14.9971C6.35152 15.8518 7.10465 16.5362 7.82715 17.0068C8.54879 17.4769 9.24443 17.7363 9.84863 17.7363C10.4995 17.7363 11.2217 17.4675 11.9912 16.9443C12.6877 16.4697 13.4055 15.795 14.0693 14.9912C14.6815 14.2481 15.2101 13.4365 15.5859 12.6934C15.9608 11.952 16.1865 11.2716 16.1865 10.793V4.82715Z" fill="white" stroke="#4528A4" stroke-width="0.1"/>
</svg>
