<svg width="42" height="44" viewBox="0 0 42 44" fill="none" xmlns="http://www.w3.org/2000/svg">
<g id="Group 2085667471">
<g id="Group 2085667434">
<g id="Group 2085667433">
<circle id="Ellipse 4255063" cx="3.2" cy="3.65313" r="2.2" fill="#6B41DE" fill-opacity="0.44"/>
<circle id="Ellipse 4255064" cx="11.0086" cy="3.65313" r="2.2" fill="#6B41DE" fill-opacity="0.44"/>
<circle id="Ellipse 4255065" cx="18.8133" cy="3.65313" r="2.2" fill="#6B41DE" fill-opacity="0.44"/>
<circle id="Ellipse 4255066" cx="26.6219" cy="3.65313" r="2.2" fill="#6B41DE" fill-opacity="0.44"/>
<circle id="Ellipse 4255067" cx="26.6219" cy="11.4617" r="2.2" fill="#6B41DE" fill-opacity="0.44"/>
<circle id="Ellipse 4255072" cx="3.2" cy="11.4617" r="2.2" fill="#6B41DE" fill-opacity="0.44"/>
<circle id="Ellipse 4255070" cx="11.0086" cy="26.7469" r="2.2" fill="#6B41DE" fill-opacity="0.44"/>
<circle id="Ellipse 4255071" cx="3.2" cy="26.7" r="2.2" fill="#6B41DE" fill-opacity="0.44"/>
<circle id="Ellipse 4255074" cx="3.2" cy="19.0789" r="2.2" fill="#6B41DE" fill-opacity="0.44"/>
</g>
<g id="Frame">
<path id="Vector" d="M26.0576 15.3516C19.6152 15.3516 14.3711 20.5928 14.3711 27.0352C14.374 33.4805 19.6152 38.7217 26.0576 38.7217C32.5 38.7217 37.7412 33.4805 37.7412 27.0381C37.7412 20.5957 32.5 15.3516 26.0576 15.3516ZM32.4531 29.6777V29.7275C32.4531 29.7422 32.4502 29.7568 32.4502 29.7744C32.4502 29.7832 32.4502 29.792 32.4473 29.8008C32.4473 29.8154 32.4443 29.8301 32.4414 29.8447C32.4414 29.8535 32.4385 29.8652 32.4385 29.874C32.4355 29.8857 32.4355 29.8975 32.4326 29.9092C32.4297 29.9209 32.4268 29.9355 32.4268 29.9473C32.4238 29.9561 32.4238 29.9648 32.4209 29.9707C32.418 29.9883 32.4121 30.0059 32.4092 30.0234C32.4092 30.0264 32.4062 30.0293 32.4062 30.0322C32.3418 30.2812 32.2129 30.5186 32.0166 30.7148L28.5977 34.1338C28.0117 34.7197 27.0537 34.7197 26.4707 34.1338C25.8848 33.5478 25.8848 32.5898 26.4707 32.0068L27.3174 31.1602H21.165C20.3359 31.1602 19.6592 30.4834 19.6592 29.6543C19.6592 28.8252 20.3359 28.1484 21.165 28.1484H30.9502C31.3369 28.1484 31.7236 28.2949 32.0166 28.5879C32.3096 28.8809 32.4561 29.2676 32.4561 29.6543C32.4561 29.6631 32.4531 29.6719 32.4531 29.6777ZM32.4561 24.4189C32.4561 25.248 31.7793 25.9248 30.9502 25.9248H21.165C20.7783 25.9248 20.3916 25.7783 20.0986 25.4854C19.8057 25.1924 19.6592 24.8057 19.6592 24.4189V24.3955V24.3486C19.6592 24.334 19.6621 24.3164 19.6621 24.3018C19.6621 24.293 19.6621 24.2842 19.665 24.2754C19.665 24.2607 19.668 24.2461 19.6709 24.2314C19.6709 24.2227 19.6738 24.2109 19.6738 24.2021C19.6768 24.1904 19.6768 24.1787 19.6797 24.167C19.6826 24.1553 19.6855 24.1406 19.6855 24.1289C19.6885 24.1201 19.6885 24.1113 19.6914 24.1055C19.6943 24.0879 19.7002 24.0703 19.7031 24.0527C19.7031 24.0498 19.7061 24.0469 19.7061 24.0439C19.7705 23.7949 19.8994 23.5576 20.0957 23.3613L23.5117 19.9453C24.0977 19.3594 25.0557 19.3594 25.6387 19.9453C26.2246 20.5312 26.2246 21.4893 25.6387 22.0723L24.7978 22.916H30.9502C31.7764 22.916 32.4561 23.5928 32.4561 24.4189Z" fill="#6B41DE"/>
</g>
</g>
</g>
</svg>
