<svg width="20" height="20" viewBox="0 0 20 20" fill="none" xmlns="http://www.w3.org/2000/svg">
<g id="Group 2085667476">
<g id="Group 2085667494">
<path id="Vector" d="M3.39344 16.6066H17.6066V2.81148C17.6066 2.70061 17.5625 2.59428 17.4841 2.51588C17.4057 2.43749 17.2994 2.39344 17.1885 2.39344H10.5C10.3891 2.39344 10.2828 2.43749 10.2044 2.51588C10.126 2.59428 10.082 2.70061 10.082 2.81148V9.08197H3.81148C3.70061 9.08197 3.59428 9.12601 3.51588 9.20441C3.43749 9.2828 3.39344 9.38913 3.39344 9.5V16.6066ZM8.68852 7.68852V2.81148C8.68852 1.81154 9.50006 1 10.5 1H17.1885C18.1885 1 19 1.81154 19 2.81148V16.7459C19 17.4382 18.4382 18 17.7459 18H3.2541C3.08941 18 2.92633 17.9676 2.77418 17.9045C2.62202 17.8415 2.48377 17.7491 2.36732 17.6327C2.25086 17.5162 2.15849 17.378 2.09546 17.2258C2.03244 17.0737 2 16.9106 2 16.7459V9.5C2 8.50006 2.81154 7.68852 3.81148 7.68852H8.68852Z" fill="white"/>
<path id="Vector_2" d="M8.69141 7.26851H10.0848V17.3013H8.69141V7.26851ZM14.9619 5.45703C15.1467 5.45703 15.3239 5.53044 15.4546 5.6611C15.5852 5.79176 15.6586 5.96897 15.6586 6.15375C15.6586 6.33853 15.5852 6.51575 15.4546 6.64641C15.3239 6.77707 15.1467 6.85047 14.9619 6.85047H12.7324C12.5476 6.85047 12.3704 6.77707 12.2397 6.64641C12.1091 6.51575 12.0357 6.33853 12.0357 6.15375C12.0357 5.96897 12.1091 5.79176 12.2397 5.6611C12.3704 5.53044 12.5476 5.45703 12.7324 5.45703H14.9619ZM14.9619 8.80129C15.1467 8.80129 15.3239 8.8747 15.4546 9.00536C15.5852 9.13602 15.6586 9.31323 15.6586 9.49801C15.6586 9.6828 15.5852 9.86001 15.4546 9.99067C15.3239 10.1213 15.1467 10.1947 14.9619 10.1947H12.7324C12.5476 10.1947 12.3704 10.1213 12.2397 9.99067C12.1091 9.86001 12.0357 9.6828 12.0357 9.49801C12.0357 9.31323 12.1091 9.13602 12.2397 9.00536C12.3704 8.8747 12.5476 8.80129 12.7324 8.80129H14.9619ZM14.9619 12.1456C15.1467 12.1456 15.3239 12.219 15.4546 12.3496C15.5852 12.4803 15.6586 12.6575 15.6586 12.8423C15.6586 13.0271 15.5852 13.2043 15.4546 13.3349C15.3239 13.4656 15.1467 13.539 14.9619 13.539H12.7324C12.5476 13.539 12.3704 13.4656 12.2397 13.3349C12.1091 13.2043 12.0357 13.0271 12.0357 12.8423C12.0357 12.6575 12.1091 12.4803 12.2397 12.3496C12.3704 12.219 12.5476 12.1456 12.7324 12.1456H14.9619Z" fill="white"/>
</g>
</g>
</svg>
