<svg width="20" height="20" viewBox="0 0 20 20" fill="none" xmlns="http://www.w3.org/2000/svg">
<g id="Group 2085667474">
<g id="Group 2085667442">
<path id="Vector" d="M18.0375 2.60938H2.025C1.24453 2.60938 0.609375 3.24453 0.609375 4.025V15.9664C0.609375 16.7469 1.24453 17.382 2.025 17.382H18.0398C18.8203 17.382 19.4555 16.7469 19.4555 15.9664V4.025C19.4531 3.24453 18.818 2.60938 18.0375 2.60938ZM2.025 3.78125H18.0398C18.1734 3.78125 18.2836 3.89141 18.2836 4.025V5.86953H1.78125V4.025C1.78125 3.88906 1.89141 3.78125 2.025 3.78125ZM18.0375 16.2078H2.025C1.89141 16.2078 1.78125 16.0977 1.78125 15.9641V7.04141H18.2812V15.9641C18.2812 16.1 18.1711 16.2078 18.0375 16.2078ZM3.64453 14.2086C3.64453 14.2803 3.65853 14.3513 3.68574 14.4176C3.71295 14.4838 3.75283 14.544 3.80311 14.5947C3.85338 14.6454 3.91306 14.6857 3.97875 14.7131C4.04444 14.7406 4.11484 14.7547 4.18594 14.7547C4.25704 14.7547 4.32744 14.7406 4.39312 14.7131C4.45881 14.6857 4.5185 14.6454 4.56877 14.5947C4.61904 14.544 4.65892 14.4838 4.68613 14.4176C4.71334 14.3513 4.72734 14.2803 4.72734 14.2086C4.72734 14.1369 4.71334 14.0659 4.68613 13.9996C4.65892 13.9334 4.61904 13.8732 4.56877 13.8224C4.5185 13.7717 4.45881 13.7315 4.39312 13.7041C4.32744 13.6766 4.25704 13.6625 4.18594 13.6625C4.11484 13.6625 4.04444 13.6766 3.97875 13.7041C3.91306 13.7315 3.85338 13.7717 3.80311 13.8224C3.75283 13.8732 3.71295 13.9334 3.68574 13.9996C3.65853 14.0659 3.64453 14.1369 3.64453 14.2086ZM6.58828 13.8078C6.33516 13.8078 6.19922 13.632 6.19922 13.3062V12.1555C6.19922 11.8273 6.3375 11.6609 6.58828 11.6609C6.83437 11.6609 6.95625 11.8273 6.97031 12.1555H7.95937C7.93125 11.2531 7.46953 10.7141 6.56719 10.7141C5.70937 10.7141 5.20312 11.2531 5.20312 12.1555V13.3062C5.20312 14.2156 5.70937 14.7547 6.56719 14.7547C7.44141 14.7547 7.96641 14.2156 7.98984 13.3062H7.00078C6.97969 13.6344 6.85547 13.8078 6.58828 13.8078ZM9.81562 10.7141C8.92031 10.7141 8.39297 11.2602 8.39297 12.2422V13.2242C8.39297 14.2063 8.92031 14.7594 9.81562 14.7594C10.7109 14.7594 11.2383 14.2063 11.2383 13.2242V12.2422C11.2359 11.2602 10.7086 10.7141 9.81562 10.7141ZM10.2328 13.2266C10.2328 13.6273 10.0875 13.8008 9.81328 13.8008C9.53906 13.8008 9.39375 13.625 9.39375 13.2266V12.2445C9.39375 11.8438 9.53906 11.6773 9.81328 11.6773C10.0875 11.6773 10.2328 11.8438 10.2328 12.2445V13.2266ZM15.1969 10.7141C14.8148 10.7141 14.5125 10.8734 14.3227 11.1734C14.1352 10.8687 13.8469 10.7141 13.4719 10.7141C13.0758 10.7141 12.7711 10.8805 12.5766 11.2016L12.5109 10.8078H11.8687V14.6656H12.8437V12.2281C12.8437 11.8484 13.0031 11.6609 13.2398 11.6609C13.4719 11.6609 13.5937 11.8273 13.5937 12.3008V14.668H14.5687V12.2281C14.5687 11.8484 14.7211 11.6609 14.9648 11.6609C15.1969 11.6609 15.3187 11.8273 15.3187 12.3008V14.668H16.2937V12.3008C16.2937 11.2531 15.8906 10.7141 15.1969 10.7141Z" fill="white"/>
</g>
</g>
</svg>
