<svg width="27" height="25" viewBox="0 0 27 25" fill="none" xmlns="http://www.w3.org/2000/svg">
<g id="Group 2085667670">
<g id="Frame 2085667463">
<g id="Frame">
<path id="Vector" d="M17.9923 8.00209L17.9986 8.25209H7.99859C8.00276 8.05293 8.00943 7.90459 8.01859 7.80709C8.12937 6.54465 8.71539 5.37137 9.65817 4.52449C10.6009 3.67761 11.8301 3.22033 13.0972 3.2451C14.3642 3.26987 15.5746 3.77484 16.4836 4.65792C17.3925 5.541 17.9322 6.73629 17.9936 8.00209H17.9923ZM16.5361 7.00209L16.4636 6.81209C16.1932 6.16291 15.7458 5.60275 15.1726 5.19544C14.5993 4.78813 13.9231 4.55006 13.2211 4.50834L12.9986 4.50209C12.2648 4.50182 11.547 4.71687 10.9342 5.1206C10.3214 5.52432 9.84047 6.09897 9.55109 6.77334L9.46109 7.00209H16.5361ZM6.74859 10.5346C6.05597 10.287 5.45145 9.84122 5.01027 9.25268C4.56909 8.66414 4.31073 7.95885 4.26734 7.22459L4.26109 7.00459H5.51109C5.51359 7.10459 5.51693 7.17959 5.52109 7.22959C5.62984 8.44209 6.60484 9.40459 7.82234 9.49584L8.01109 9.50209H18.0061C18.6348 9.50007 19.2397 9.26096 19.6999 8.83253C20.1601 8.40409 20.4417 7.81784 20.4886 7.19084L20.4961 7.00334H21.7461C21.7444 7.10334 21.7423 7.17834 21.7398 7.22834C21.6954 7.96357 21.4355 8.66943 20.9924 9.25785C20.5494 9.84627 19.9429 10.2912 19.2486 10.5371V13.2396H21.7486V14.4896H19.2486V14.5021C19.2486 15.4158 19.0523 16.2846 18.6986 17.0671C19.5186 17.2234 20.263 17.6489 20.8139 18.276C21.3647 18.9032 21.6906 19.6963 21.7398 20.5296L21.7461 20.7496H20.4961C20.4944 20.6604 20.4919 20.5938 20.4886 20.5496C20.4405 19.956 20.182 19.399 19.7596 18.9792C19.3372 18.5593 18.7787 18.3041 18.1848 18.2596L17.9986 18.2521C17.4169 19.0288 16.6621 19.6592 15.7941 20.0932C14.9262 20.5272 13.969 20.7528 12.9986 20.7521C12.0282 20.7528 11.071 20.5272 10.203 20.0932C9.33509 19.6592 8.58029 19.0288 7.99859 18.2521H7.99359C7.36333 18.2519 6.75631 18.49 6.29427 18.9187C5.83223 19.3473 5.54934 19.9348 5.50234 20.5633L5.49609 20.7508H4.24609C4.24693 20.6567 4.24859 20.5867 4.25109 20.5408C4.29788 19.7046 4.62325 18.9081 5.17534 18.2784C5.72743 17.6486 6.47445 17.2217 7.29734 17.0658C6.93457 16.2599 6.74751 15.3859 6.74859 14.5021V14.4896H4.24859V13.2396H6.74859V10.5346ZM7.99859 10.7521V14.5021C7.99818 15.7202 8.44246 16.8966 9.24803 17.8104C10.0536 18.7241 11.165 19.3123 12.3736 19.4646V13.2521H13.6236V19.4646C14.7894 19.3175 15.8661 18.7645 16.665 17.9028C17.4638 17.0411 17.9338 15.9257 17.9923 14.7521L17.9986 14.5021V10.7521H7.99859Z" fill="white"/>
</g>
</g>
</g>
</svg>
