<svg width="20" height="20" viewBox="0 0 20 20" fill="none" xmlns="http://www.w3.org/2000/svg">
<path d="M2.2933 5.55759C2.3522 5.45547 2.44993 5.38054 2.565 5.34928C2.68007 5.31803 2.80304 5.33302 2.90688 5.39095C3.01071 5.44888 3.08689 5.54501 3.11866 5.65819C3.15044 5.77137 3.1352 5.89233 3.0763 5.99445C2.3113 7.32053 1.9 8.844 1.9 10.4321C1.90003 10.6621 1.90874 10.8919 1.9261 11.1213C1.93493 11.2383 1.89611 11.3541 1.81817 11.443C1.74024 11.532 1.62957 11.5868 1.51053 11.5955C1.39148 11.6042 1.27379 11.566 1.18337 11.4894C1.09294 11.4127 1.03718 11.3039 1.02835 11.1868C1.00941 10.9356 0.999958 10.6839 1 10.4321C1 8.69041 1.45135 7.01645 2.2933 5.55759ZM18.6445 13.067C18.6131 13.1803 18.5373 13.2766 18.4336 13.3349C18.33 13.3932 18.2071 13.4086 18.0919 13.3777C17.9767 13.3468 17.8787 13.2722 17.8195 13.1703C17.7603 13.0684 17.7446 12.9474 17.776 12.8342C17.9907 12.0609 18.1005 11.254 18.1005 10.4321C18.1005 8.70015 17.6118 7.04655 16.7113 5.64435C16.6516 5.54525 16.6335 5.42715 16.6609 5.31516C16.6883 5.20316 16.759 5.10608 16.858 5.04454C16.957 4.983 17.0765 4.96185 17.1911 4.98558C17.3057 5.00931 17.4064 5.07606 17.4718 5.17164C18.4631 6.71503 19 8.5324 19 10.4321C19 11.3333 18.8794 12.2176 18.6445 13.067ZM16.143 3.53839C16.186 3.57913 16.2204 3.6279 16.2441 3.68185C16.2678 3.7358 16.2803 3.79385 16.2809 3.85261C16.2816 3.91138 16.2703 3.96968 16.2478 4.02412C16.2253 4.07855 16.192 4.12804 16.1498 4.16968C16.1077 4.21132 16.0575 4.24429 16.0023 4.26666C15.947 4.28903 15.8878 4.30036 15.828 4.29997C15.7683 4.29959 15.7092 4.28751 15.6543 4.26444C15.5993 4.24136 15.5496 4.20775 15.508 4.16557C14.0185 2.70849 12.07 1.88523 10 1.88523C7.78195 1.88523 5.7061 2.83021 4.18915 4.47806C4.1495 4.52116 4.1016 4.55615 4.0482 4.58105C3.9948 4.60594 3.93693 4.62025 3.87791 4.62314C3.81888 4.62604 3.75986 4.61748 3.7042 4.59794C3.64854 4.5784 3.59734 4.54827 3.55353 4.50926C3.50971 4.47026 3.47413 4.42315 3.44882 4.37063C3.42351 4.3181 3.40897 4.26119 3.40602 4.20313C3.40307 4.14508 3.41178 4.08702 3.43165 4.03228C3.45151 3.97753 3.48215 3.92717 3.5218 3.88407C5.20615 2.05431 7.5223 1 10 1C12.313 1 14.4883 1.91842 16.1425 3.53839H16.143ZM7.34455 3.67781C7.45447 3.63203 7.57838 3.63107 7.68901 3.67515C7.79965 3.71923 7.88796 3.80473 7.9345 3.91284C7.98105 4.02096 7.98202 4.14283 7.93721 4.25165C7.8924 4.36047 7.80547 4.44733 7.69555 4.49311C5.52565 5.39693 4.08565 7.49403 4.08385 9.893C3.92185 11.6174 3.40885 12.8789 2.52145 13.6596C2.43198 13.7341 2.31651 13.7713 2.19958 13.7634C2.08265 13.7554 1.9735 13.7028 1.89535 13.6169C1.8172 13.531 1.77622 13.4185 1.78112 13.3033C1.78602 13.1881 1.83642 13.0793 1.9216 13.0001C2.61505 12.3898 3.04525 11.3328 3.1861 9.85228C3.18582 8.53508 3.58008 7.24699 4.31965 6.14888C5.05922 5.05077 6.11132 4.1913 7.34455 3.67781ZM15.706 17.0054C15.6799 17.0578 15.6434 17.1047 15.5988 17.1432C15.5542 17.1817 15.5022 17.2112 15.446 17.2299C15.3897 17.2486 15.3302 17.2562 15.271 17.2522C15.2117 17.2482 15.1539 17.2326 15.1008 17.2065C15.0476 17.1804 15.0003 17.1442 14.9614 17.1C14.9226 17.0558 14.8931 17.0045 14.8745 16.949C14.8559 16.8935 14.8487 16.835 14.8532 16.7767C14.8578 16.7185 14.874 16.6617 14.901 16.6097C15.0769 16.2635 15.2295 15.9024 15.3591 15.527C15.8914 13.9854 16.0039 12.5535 15.9342 10.5631L15.9207 10.1758C15.9162 10.0413 15.9144 9.94036 15.9144 9.85228C15.9144 9.73489 15.9618 9.62231 16.0462 9.5393C16.1305 9.4563 16.245 9.40966 16.3644 9.40966C16.4837 9.40966 16.5982 9.4563 16.6825 9.5393C16.7669 9.62231 16.8144 9.73489 16.8144 9.85228C16.8144 9.92929 16.8161 10.0222 16.8202 10.1479L16.8337 10.5326C16.9066 12.6217 16.7869 14.1439 16.2109 15.8116C16.0687 16.2241 15.9004 16.6225 15.706 17.0054ZM16.4301 7.6277C16.4697 7.73846 16.4629 7.86016 16.4113 7.96603C16.3597 8.07191 16.2675 8.15328 16.1549 8.19225C16.0423 8.23123 15.9185 8.22461 15.8109 8.17385C15.7033 8.12309 15.6205 8.03235 15.5809 7.9216C15.1554 6.73314 14.3491 5.71264 13.2834 5.01346C12.2177 4.31427 10.9501 3.97418 9.67105 4.0443C9.55182 4.05075 9.43487 4.01036 9.34592 3.932C9.25697 3.85364 9.20331 3.74374 9.19675 3.62647C9.19019 3.5092 9.23125 3.39417 9.31092 3.30668C9.39059 3.21919 9.50232 3.16641 9.62155 3.15996C11.0952 3.07929 12.5556 3.47124 13.7834 4.2769C15.0112 5.08256 15.9399 6.2584 16.4301 7.6277ZM11.1349 5.24245C11.2526 5.26182 11.3577 5.3264 11.4271 5.42198C11.4964 5.51756 11.5243 5.63632 11.5046 5.75212C11.4849 5.86793 11.4192 5.97129 11.3221 6.03948C11.2249 6.10767 11.1041 6.1351 10.9864 6.11573C9.7003 5.9046 8.53255 6.21798 7.45255 7.06779C6.7753 7.6007 6.48235 8.17698 6.3334 9.05557C6.30505 9.22377 6.2875 9.35301 6.2479 9.67523C6.1381 10.556 6.0517 10.9579 5.806 11.4413C5.77987 11.4937 5.74344 11.5406 5.69881 11.5791C5.65418 11.6176 5.60223 11.6471 5.54597 11.6658C5.4897 11.6845 5.43023 11.6921 5.37098 11.6881C5.31173 11.6841 5.25388 11.6685 5.20075 11.6424C5.14763 11.6163 5.10028 11.5801 5.06145 11.5359C5.02261 11.4917 4.99305 11.4404 4.97448 11.3849C4.95591 11.3294 4.94868 11.2709 4.95323 11.2126C4.95777 11.1544 4.97399 11.0976 5.00095 11.0456C5.18545 10.6826 5.25745 10.3498 5.3542 9.56723C5.39605 9.23262 5.4145 9.09541 5.446 8.90995C5.62825 7.83263 6.02065 7.06115 6.8905 6.37687C8.16715 5.37214 9.5923 4.98972 11.1349 5.24245ZM4.2697 12.8421C4.30863 12.7322 4.39 12.6419 4.49619 12.5905C4.60238 12.5392 4.72484 12.5311 4.83708 12.5679C4.94931 12.6048 5.04227 12.6836 5.09585 12.7873C5.14943 12.8911 5.15931 13.0114 5.12335 13.1223C4.8637 13.8885 4.35385 14.6405 3.60055 15.3819C3.51617 15.4649 3.40171 15.5116 3.28233 15.5116C3.16296 15.5117 3.04846 15.4651 2.96403 15.3821C2.87959 15.2991 2.83213 15.1865 2.83208 15.0691C2.83204 14.9517 2.87942 14.839 2.9638 14.756C3.62485 14.1058 4.05775 13.4671 4.2697 12.8421ZM12.8638 7.38294C12.822 7.34181 12.7889 7.293 12.7663 7.23928C12.7437 7.18556 12.7321 7.12799 12.7321 7.06985C12.7321 7.01171 12.7438 6.95415 12.7664 6.90045C12.789 6.84674 12.8222 6.79795 12.864 6.75686C12.9058 6.71576 12.9555 6.68317 13.0101 6.66094C13.0647 6.63871 13.1232 6.62728 13.1823 6.6273C13.2414 6.62732 13.3 6.6388 13.3546 6.66106C13.4092 6.68333 13.4588 6.71596 13.5006 6.75708C14.3016 7.54493 14.693 8.70015 14.693 10.2002C14.693 13.9261 13.8907 16.7323 12.1137 18.8298C12.0373 18.92 11.9276 18.9767 11.8087 18.9874C11.6898 18.998 11.5715 18.9618 11.4798 18.8867C11.3881 18.8116 11.3305 18.7037 11.3196 18.5868C11.3088 18.4698 11.3456 18.3535 11.422 18.2633C13.0465 16.3454 13.7931 13.7362 13.7931 10.2002C13.7931 8.91748 13.4772 7.98666 12.8638 7.38294ZM12.5713 9.85715C12.57 9.97453 12.5213 10.0866 12.436 10.1687C12.3507 10.2508 12.2357 10.2962 12.1164 10.2949C11.997 10.2936 11.8831 10.2457 11.7996 10.1618C11.7161 10.0779 11.67 9.9648 11.6713 9.84741C11.6848 8.70369 11.1808 8.20841 10 8.20841C8.8192 8.20841 8.31565 8.70414 8.32735 9.88149C8.08255 13.495 6.715 16.063 4.22065 17.5347C4.16996 17.5667 4.11328 17.5883 4.05395 17.5983C3.99462 17.6083 3.93386 17.6065 3.87525 17.5929C3.81665 17.5794 3.76139 17.5545 3.71276 17.5196C3.66413 17.4847 3.62311 17.4406 3.59213 17.3898C3.56114 17.3391 3.54083 17.2827 3.53239 17.2241C3.52394 17.1655 3.52754 17.1058 3.54297 17.0486C3.5584 16.9913 3.58535 16.9377 3.62221 16.8909C3.65908 16.8441 3.70512 16.8051 3.7576 16.7761C5.9779 15.4659 7.20325 13.1652 7.4287 9.85715C7.4098 8.21859 8.3206 7.32318 10 7.32318C11.6794 7.32318 12.5902 8.21859 12.5713 9.85715ZM9.55 9.85228C9.55 9.73489 9.59741 9.62231 9.6818 9.5393C9.76619 9.4563 9.88065 9.40966 10 9.40966C10.1193 9.40966 10.2338 9.4563 10.3182 9.5393C10.4026 9.62231 10.45 9.73489 10.45 9.85228C10.45 13.4516 9.2206 16.3543 6.7654 18.5275C6.67631 18.6033 6.56055 18.6418 6.44297 18.6346C6.32539 18.6273 6.21537 18.5751 6.13654 18.489C6.05771 18.4029 6.01636 18.2898 6.02136 18.174C6.02636 18.0582 6.07733 17.949 6.1633 17.8698C8.4223 15.8696 9.55 13.2082 9.55 9.85228ZM11.6767 11.8715C11.6948 11.7554 11.7591 11.6512 11.8554 11.5818C11.9516 11.5124 12.072 11.4834 12.1899 11.5012C12.3079 11.5191 12.4138 11.5823 12.4844 11.677C12.555 11.7716 12.5845 11.89 12.5663 12.006C12.0794 15.1167 10.9729 17.4148 9.23185 18.8825C9.1874 18.9229 9.13512 18.954 9.07814 18.9741C9.02115 18.9942 8.96064 19.0027 8.90023 18.9992C8.83981 18.9958 8.78072 18.9803 8.7265 18.9539C8.67229 18.9274 8.62405 18.8905 8.58468 18.8453C8.54532 18.8001 8.51563 18.7475 8.49739 18.6908C8.47915 18.634 8.47275 18.5742 8.47855 18.5149C8.48435 18.4557 8.50225 18.3982 8.53117 18.3459C8.56009 18.2936 8.59943 18.2476 8.64685 18.2106C10.2057 16.896 11.2204 14.7892 11.6767 11.8715Z" fill="white"/>
</svg>
