<svg width="26" height="25" viewBox="0 0 26 25" fill="none" xmlns="http://www.w3.org/2000/svg">
<g id="Group 2085667672">
<g id="Frame 2085667456">
<path id="Vector" d="M11.7628 21.4C9.57135 21.4 7.46968 20.515 5.92011 18.9397C4.37054 17.3644 3.5 15.2278 3.5 13C3.5 10.7722 4.37054 8.63561 5.92011 7.06031C7.46968 5.48501 9.57135 4.60001 11.7628 4.60001V4H12.9432V9.56801C13.4387 9.63073 13.941 9.5321 14.378 9.28629C14.8149 9.04048 15.1639 8.66016 15.3748 8.19999C15.2081 8.04855 15.0739 7.86386 14.9805 7.65742C14.8871 7.45098 14.8365 7.2272 14.8318 7.00001C14.8318 6.66774 14.9287 6.34294 15.1103 6.06666C15.2919 5.79039 15.55 5.57506 15.8519 5.44791C16.1539 5.32075 16.4862 5.28748 16.8067 5.3523C17.1273 5.41712 17.4217 5.57713 17.6529 5.81207C17.884 6.04702 18.0414 6.34637 18.1051 6.67225C18.1689 6.99814 18.1362 7.33593 18.0111 7.6429C17.886 7.94988 17.6742 8.21226 17.4025 8.39686C17.1307 8.58147 16.8112 8.68 16.4844 8.68H16.2247C15.929 9.29205 15.456 9.79729 14.8693 10.1277C14.2826 10.4581 13.6104 10.5978 12.9432 10.528V11.728H14.7138C15.18 11.7802 15.6516 11.7119 16.085 11.5294C16.5183 11.3469 16.8993 11.0561 17.1926 10.684V10.6C17.1926 10.2677 17.2895 9.94292 17.4711 9.66665C17.6527 9.39038 17.9108 9.17506 18.2128 9.0479C18.5147 8.92075 18.847 8.88749 19.1675 8.95231C19.4881 9.01714 19.7826 9.17714 20.0137 9.41209C20.2448 9.64705 20.4022 9.94639 20.4659 10.2723C20.5297 10.5982 20.497 10.936 20.3719 11.2429C20.2468 11.5499 20.035 11.8123 19.7632 11.9969C19.4915 12.1815 19.172 12.28 18.8451 12.28C18.6069 12.2818 18.3711 12.23 18.1548 12.1283C17.9385 12.0267 17.747 11.8777 17.5939 11.692C16.8003 12.3965 15.7654 12.7544 14.7138 12.688H12.9432V13.888H14.7138C15.654 13.8408 16.5889 14.0566 17.4169 14.512C17.5692 14.2676 17.7803 14.0666 18.0302 13.928C18.28 13.7895 18.5605 13.7179 18.8452 13.72C19.1645 13.7195 19.4772 13.8132 19.7454 13.9896C20.0135 14.166 20.2256 14.4177 20.356 14.7141C20.4864 15.0105 20.5295 15.3389 20.4801 15.6597C20.4308 15.9805 20.291 16.2799 20.0778 16.5216C19.8645 16.7633 19.587 16.9371 19.2786 17.0218C18.9703 17.1065 18.6444 17.0986 18.3404 16.9989C18.0365 16.8993 17.7674 16.7123 17.5658 16.4605C17.3642 16.2086 17.2386 15.9028 17.2044 15.58C16.4846 15.0489 15.5995 14.8016 14.7138 14.884H12.9432V15.832C13.5499 15.7815 14.1587 15.8988 14.7052 16.1713C15.2517 16.4438 15.7155 16.8614 16.0476 17.38C16.1902 17.3416 16.3369 17.3214 16.4844 17.32C16.8592 17.3222 17.222 17.4548 17.5124 17.6957C17.8027 17.9366 18.0032 18.2714 18.0805 18.6443C18.1577 19.0171 18.107 19.4056 17.9369 19.7452C17.7667 20.0847 17.4874 20.3547 17.1453 20.5104C16.8032 20.6661 16.4189 20.698 16.0565 20.6008C15.6941 20.5037 15.3753 20.2833 15.1532 19.9763C14.9311 19.6694 14.8191 19.2944 14.8358 18.9137C14.8525 18.533 14.9969 18.1696 15.245 17.884C14.9966 17.505 14.6506 17.2026 14.2446 17.01C13.8387 16.8174 13.3885 16.742 12.9432 16.792V22H11.7628V21.4ZM11.7628 20.2V16.36C10.8436 16.3521 9.92964 16.5022 9.05965 16.804C9.29635 18.1167 9.95678 19.3117 10.9365 20.2C11.2116 20.2183 11.4876 20.2183 11.7628 20.2ZM11.7628 15.4V13.36H8.5757C8.59755 14.2016 8.68438 15.0402 8.8354 15.868C9.77953 15.5507 10.7684 15.3926 11.7628 15.4ZM11.7628 12.4V10.6C10.7684 10.6074 9.77953 10.4493 8.8354 10.132C8.69518 10.8804 8.6123 11.6386 8.58751 12.4H11.7628ZM11.7628 9.64V5.80001C11.4876 5.78174 11.2116 5.78174 10.9365 5.80001C9.95678 6.68831 9.29635 7.88331 9.05965 9.196C9.92964 9.4978 10.8436 9.6479 11.7628 9.64ZM9.30754 19.756C8.78867 18.9742 8.3906 18.1163 8.12714 17.212C7.64236 17.4642 7.23429 17.8458 6.94675 18.316C7.63139 18.9512 8.43406 19.4408 9.30754 19.756ZM6.32114 17.608C6.74617 17.0267 7.30568 16.5609 7.95009 16.252C7.76177 15.2992 7.65514 14.3316 7.63138 13.36H4.6804C4.75372 14.9207 5.3303 16.4135 6.32114 17.608ZM4.6804 12.4H7.64317C7.67509 11.509 7.77774 10.6221 7.95011 9.74798C7.3057 9.43904 6.7462 8.97329 6.32116 8.39199C5.37762 9.52206 4.80408 10.9231 4.6804 12.4ZM7.04118 7.684C7.32872 8.15415 7.7368 8.53581 8.22159 8.788C8.48504 7.88374 8.88311 7.0258 9.40197 6.24401C8.52849 6.55923 7.72582 7.04882 7.04118 7.684ZM16.4844 7.684C16.6244 7.684 16.7614 7.64176 16.8778 7.56265C16.9943 7.48353 17.0851 7.37108 17.1387 7.23952C17.1923 7.10796 17.2063 6.96319 17.179 6.82353C17.1516 6.68387 17.0842 6.55558 16.9851 6.45489C16.8861 6.3542 16.7599 6.28563 16.6225 6.25785C16.4851 6.23007 16.3427 6.24433 16.2133 6.29882C16.0839 6.35332 15.9733 6.4456 15.8955 6.564C15.8176 6.6824 15.7761 6.82161 15.7761 6.96401C15.7713 7.06155 15.7861 7.15906 15.8195 7.25061C15.8529 7.34217 15.9044 7.42585 15.9706 7.49657C16.0369 7.56729 16.1166 7.62356 16.2049 7.66197C16.2932 7.70039 16.3883 7.72013 16.4844 7.72001V7.684ZM18.8451 11.284C18.9852 11.284 19.1221 11.2418 19.2386 11.1627C19.3551 11.0836 19.4459 10.9711 19.4995 10.8396C19.5531 10.708 19.5671 10.5632 19.5398 10.4236C19.5124 10.2839 19.445 10.1556 19.3459 10.0549C19.2469 9.95423 19.1207 9.88566 18.9833 9.85787C18.8459 9.83009 18.7035 9.84435 18.5741 9.89885C18.4447 9.95334 18.3341 10.0456 18.2563 10.164C18.1784 10.2824 18.1369 10.4216 18.1369 10.564C18.1321 10.6616 18.1469 10.7591 18.1803 10.8506C18.2137 10.9422 18.2651 11.0259 18.3314 11.0966C18.3976 11.1673 18.4774 11.2236 18.5657 11.262C18.654 11.3004 18.7491 11.3202 18.8451 11.32V11.284ZM18.8451 16.084C18.9852 16.084 19.1221 16.0418 19.2386 15.9627C19.3551 15.8836 19.4459 15.7711 19.4995 15.6395C19.5531 15.508 19.5671 15.3632 19.5398 15.2236C19.5124 15.0839 19.445 14.9556 19.3459 14.8549C19.2469 14.7542 19.1207 14.6856 18.9833 14.6579C18.8459 14.6301 18.7035 14.6443 18.5741 14.6988C18.4447 14.7533 18.3341 14.8456 18.2563 14.964C18.1784 15.0824 18.1369 15.2216 18.1369 15.364C18.1321 15.4616 18.1469 15.5591 18.1803 15.6506C18.2137 15.7422 18.2651 15.8258 18.3314 15.8966C18.3976 15.9673 18.4774 16.0236 18.5657 16.062C18.654 16.1004 18.7491 16.1201 18.8451 16.12V16.084ZM16.4844 19.684C16.6244 19.684 16.7614 19.6418 16.8778 19.5626C16.9943 19.4835 17.0851 19.3711 17.1387 19.2395C17.1923 19.108 17.2063 18.9632 17.179 18.8235C17.1516 18.6839 17.0842 18.5556 16.9851 18.4549C16.8861 18.3542 16.7599 18.2856 16.6225 18.2578C16.4851 18.2301 16.3427 18.2443 16.2133 18.2988C16.0839 18.3533 15.9733 18.4456 15.8955 18.564C15.8176 18.6824 15.7761 18.8216 15.7761 18.964C15.7713 19.0615 15.7861 19.1591 15.8195 19.2506C15.8529 19.3422 15.9044 19.4258 15.9706 19.4966C16.0369 19.5673 16.1166 19.6236 16.2049 19.662C16.2932 19.7004 16.3883 19.7201 16.4844 19.72V19.684Z" fill="white"/>
</g>
</g>
</svg>
