<svg width="25" height="25" viewBox="0 0 25 25" fill="none" xmlns="http://www.w3.org/2000/svg">
<g id="Group 2085667673">
<g id="Group 2085667475">
<g id="Group 2085667438">
<path id="Vector" d="M7.25 17.6133C4.37223 17.6133 2 15.241 2 12.3633C2 9.48552 4.37223 7.11328 7.25 7.11328C8.26112 7.11328 9.23335 7.38549 10.0889 7.92993C10.4389 8.16328 10.5556 8.62993 10.3222 9.01884C10.0889 9.36884 9.62223 9.48549 9.23335 9.25216C8.65 8.86328 7.95 8.66884 7.25 8.66884C5.22779 8.66884 3.55559 10.341 3.55559 12.3633C3.55559 14.3855 5.22779 16.0577 7.25 16.0577C9.27221 16.0577 10.9444 14.3855 10.9444 12.3633C10.9444 11.9355 11.2944 11.5855 11.7222 11.5855C12.15 11.5855 12.5 11.9355 12.5 12.3633C12.5 15.241 10.1278 17.6133 7.25 17.6133Z" fill="white"/>
<path id="Vector_2" d="M16.1914 17.6133C15.1025 17.6133 14.0525 17.3022 13.197 16.6799C12.847 16.4466 12.7692 15.941 13.0025 15.591C13.2358 15.241 13.7414 15.1633 14.0914 15.3966C14.7136 15.8244 15.4525 16.0577 16.1914 16.0577C18.2136 16.0577 19.8858 14.3855 19.8858 12.3633C19.8858 10.3411 18.2136 8.66884 16.1914 8.66884C14.1692 8.66884 12.497 10.341 12.497 12.3633C12.497 12.791 12.147 13.141 11.7192 13.141C11.2914 13.141 10.9414 12.791 10.9414 12.3633C10.9414 9.48549 13.3136 7.11328 16.1914 7.11328C19.0692 7.11328 21.4414 9.44661 21.4414 12.3633C21.4414 15.241 19.0692 17.6133 16.1914 17.6133Z" fill="white"/>
</g>
</g>
</g>
</svg>
