<svg width="20" height="20" viewBox="0 0 20 20" fill="none" xmlns="http://www.w3.org/2000/svg">
<g id="Group 2085667479">
<g id="Group 2085667438">
<path id="Vector" d="M5.22266 15.4141C2.34489 15.4141 -0.0273438 13.0418 -0.0273438 10.1641C-0.0273438 7.2863 2.34489 4.91406 5.22266 4.91406C6.23377 4.91406 7.20601 5.18627 8.06154 5.73071C8.41154 5.96406 8.52822 6.43071 8.29489 6.81962C8.06154 7.16962 7.59489 7.28627 7.20601 7.05295C6.62266 6.66406 5.92266 6.46962 5.22266 6.46962C3.20045 6.46962 1.52824 8.14183 1.52824 10.164C1.52824 12.1862 3.20045 13.8585 5.22266 13.8585C7.24486 13.8585 8.9171 12.1863 8.9171 10.1641C8.9171 9.73627 9.2671 9.38627 9.69489 9.38627C10.1227 9.38627 10.4727 9.73627 10.4727 10.1641C10.4727 13.0418 8.10045 15.4141 5.22266 15.4141Z" fill="white"/>
<path id="Vector_2" d="M14.1641 15.4141C13.0752 15.4141 12.0252 15.1029 11.1696 14.4807C10.8196 14.2474 10.7419 13.7418 10.9752 13.3918C11.2085 13.0418 11.7141 12.9641 12.0641 13.1974C12.6863 13.6252 13.4252 13.8585 14.1641 13.8585C16.1863 13.8585 17.8585 12.1863 17.8585 10.1641C17.8585 8.14186 16.1863 6.46962 14.1641 6.46962C12.1419 6.46962 10.4696 8.14183 10.4696 10.164C10.4696 10.5918 10.1196 10.9418 9.69185 10.9418C9.26409 10.9418 8.91406 10.5918 8.91406 10.1641C8.91406 7.28627 11.2863 4.91406 14.1641 4.91406C17.0418 4.91406 19.4141 7.24739 19.4141 10.1641C19.4141 13.0418 17.0419 15.4141 14.1641 15.4141Z" fill="white"/>
</g>
</g>
</svg>
