<svg width="20" height="20" viewBox="0 0 20 20" fill="none" xmlns="http://www.w3.org/2000/svg">
<g id="Group 2085667477">
<path id="Vector" d="M15.8971 2.40609C14.472 2.40609 13.3141 3.56397 13.3141 4.98906C13.3151 5.53875 13.4911 6.07384 13.8165 6.51687C14.1418 6.95991 14.5998 7.28787 15.124 7.45328V9.66454L6.21245 12.5836V6.02819C6.79013 5.82979 7.27886 5.43319 7.59195 4.90873C7.90503 4.38427 8.02222 3.76586 7.92273 3.16322C7.82324 2.56057 7.5135 2.01265 7.04845 1.61665C6.58341 1.22066 5.99313 1.00219 5.38233 1C4.77164 1.00246 4.18155 1.22113 3.71672 1.61722C3.25188 2.01332 2.94235 2.56123 2.84301 3.1638C2.74368 3.76637 2.86096 4.38465 3.17405 4.90898C3.48714 5.43332 3.97582 5.82983 4.55341 6.02819V14.9718C3.97572 15.1702 3.48699 15.5668 3.17391 16.0913C2.86082 16.6157 2.74363 17.2341 2.84312 17.8368C2.94262 18.4394 3.25236 18.9873 3.7174 19.3833C4.18244 19.7793 4.77272 19.9978 5.38352 20C5.99422 19.9975 6.58431 19.7789 7.04914 19.3828C7.51397 18.9867 7.8235 18.4388 7.92284 17.8362C8.02218 17.2336 7.9049 16.6154 7.5918 16.091C7.27871 15.5667 6.79004 15.1702 6.21245 14.9718V14.3305L15.9779 11.1336C16.2128 11.0587 16.4171 10.9095 16.5598 10.7084C16.7065 10.5098 16.7844 10.2689 16.7819 10.022V7.41409C17.2788 7.23183 17.708 6.90169 18.0116 6.46812C18.3152 6.03456 18.4787 5.51837 18.4801 4.98906C18.4801 3.56397 17.3222 2.40609 15.8971 2.40609ZM4.2767 3.58179C4.2775 3.43792 4.30736 3.29569 4.3645 3.16365C4.42164 3.03161 4.50488 2.91249 4.60922 2.81343C4.71024 2.71152 4.83077 2.63102 4.96361 2.57675C5.09644 2.52247 5.23885 2.49553 5.38233 2.49753C5.68398 2.49753 5.94287 2.60323 6.15782 2.81343C6.26216 2.91249 6.3454 3.03161 6.40254 3.16365C6.45968 3.29569 6.48955 3.43792 6.49034 3.58179C6.48955 3.72566 6.45968 3.86788 6.40254 3.99992C6.3454 4.13196 6.26216 4.25109 6.15782 4.35015C6.05652 4.45234 5.9356 4.53301 5.80234 4.58729C5.66907 4.64158 5.52621 4.66837 5.38233 4.66604C5.23865 4.66821 5.09602 4.64134 4.96297 4.58706C4.82992 4.53278 4.7092 4.4522 4.60803 4.35015C4.5037 4.25109 4.42046 4.13196 4.36332 3.99992C4.30617 3.86788 4.27631 3.72566 4.27551 3.58179H4.2767ZM6.48915 17.417C6.4882 17.5607 6.45826 17.7027 6.40112 17.8345C6.34398 17.9663 6.26083 18.0853 6.15663 18.1842C6.05547 18.2863 5.93475 18.3668 5.8017 18.4211C5.66865 18.4754 5.52601 18.5023 5.38233 18.5001C5.23865 18.5023 5.09602 18.4754 4.96297 18.4211C4.82992 18.3668 4.7092 18.2863 4.60803 18.1842C4.5037 18.0851 4.42046 17.966 4.36332 17.834C4.30617 17.7019 4.27631 17.5597 4.27551 17.4158C4.27647 17.2722 4.30641 17.1302 4.36355 16.9983C4.42068 16.8665 4.50384 16.7476 4.60803 16.6487C4.7091 16.5464 4.82977 16.4656 4.96283 16.4111C5.09588 16.3566 5.23857 16.3296 5.38233 16.3316C5.68398 16.3316 5.94287 16.4373 6.15782 16.6487C6.26201 16.7476 6.34517 16.8665 6.40231 16.9983C6.45944 17.1302 6.48939 17.2722 6.49034 17.4158L6.48915 17.417ZM15.8971 6.09469C15.7532 6.0939 15.611 6.06403 15.479 6.00689C15.3469 5.94975 15.2278 5.86651 15.1288 5.76217C15.0269 5.66111 14.9464 5.54057 14.8922 5.40775C14.8379 5.27492 14.8109 5.13253 14.8129 4.98906C14.8106 4.84519 14.8374 4.70235 14.8917 4.5691C14.946 4.43584 15.0266 4.31492 15.1288 4.21358C15.2278 4.10924 15.3469 4.026 15.479 3.96886C15.611 3.91171 15.7532 3.88185 15.8971 3.88106C16.041 3.88192 16.1832 3.91181 16.3152 3.96895C16.4472 4.02609 16.5664 4.10929 16.6655 4.21358C16.7676 4.31492 16.8482 4.43584 16.9025 4.5691C16.9568 4.70235 16.9836 4.84519 16.9814 4.98906C16.9835 5.13273 16.9566 5.27535 16.9023 5.40839C16.848 5.54143 16.7675 5.66216 16.6655 5.76336C16.5664 5.86764 16.4472 5.95085 16.3152 6.00799C16.1832 6.06512 16.041 6.09502 15.8971 6.09588V6.09469Z" fill="white"/>
</g>
</svg>
