<svg width="24" height="24" viewBox="0 0 24 24" fill="none" xmlns="http://www.w3.org/2000/svg">
<g id="Group 2085667671">
<g id="Frame" clip-path="url(#clip0_2208_8575)">
<path id="Vector" d="M17.2188 6.00488H6.71875C6.30454 6.00488 5.96875 6.34067 5.96875 6.75488V17.2549C5.96875 17.6691 6.30454 18.0049 6.71875 18.0049H17.2188C17.633 18.0049 17.9688 17.6691 17.9688 17.2549V6.75488C17.9688 6.34067 17.633 6.00488 17.2188 6.00488Z" stroke="white" stroke-width="1.26" stroke-linejoin="round"/>
<path id="Vector_2" d="M14.2188 9.75391H9.71875V14.2539H14.2188V9.75391Z" stroke="white" stroke-width="1.26" stroke-linejoin="round"/>
<path id="Vector_3" d="M8.55859 3.75488V6.00488" stroke="white" stroke-width="1.26" stroke-linecap="round" stroke-linejoin="round"/>
<path id="Vector_4" d="M8.55859 18.0029V20.2529" stroke="white" stroke-width="1.26" stroke-linecap="round" stroke-linejoin="round"/>
<path id="Vector_5" d="M11.9688 3.75488V6.00488" stroke="white" stroke-width="1.26" stroke-linecap="round" stroke-linejoin="round"/>
<path id="Vector_6" d="M11.9688 18.0029V20.2529" stroke="white" stroke-width="1.26" stroke-linecap="round" stroke-linejoin="round"/>
<path id="Vector_7" d="M15.3789 3.75488V6.00488" stroke="white" stroke-width="1.26" stroke-linecap="round" stroke-linejoin="round"/>
<path id="Vector_8" d="M15.3789 18.0029V20.2529" stroke="white" stroke-width="1.26" stroke-linecap="round" stroke-linejoin="round"/>
<path id="Vector_9" d="M3.71875 8.5957H5.96875" stroke="white" stroke-width="1.26" stroke-linecap="round" stroke-linejoin="round"/>
<path id="Vector_10" d="M17.9688 8.5957H20.2188" stroke="white" stroke-width="1.26" stroke-linecap="round" stroke-linejoin="round"/>
<path id="Vector_11" d="M3.71875 12.0039H5.96875" stroke="white" stroke-width="1.26" stroke-linecap="round" stroke-linejoin="round"/>
<path id="Vector_12" d="M17.9688 12.0039H20.2188" stroke="white" stroke-width="1.26" stroke-linecap="round" stroke-linejoin="round"/>
<path id="Vector_13" d="M3.71875 15.4121H5.96875" stroke="white" stroke-width="1.26" stroke-linecap="round" stroke-linejoin="round"/>
<path id="Vector_14" d="M17.9688 15.4121H20.2188" stroke="white" stroke-width="1.26" stroke-linecap="round" stroke-linejoin="round"/>
</g>
</g>
<defs>
<clipPath id="clip0_2208_8575">
<rect width="18" height="18" fill="white" transform="translate(2.96875 3.00391)"/>
</clipPath>
</defs>
</svg>
