<svg width="42" height="44" viewBox="0 0 42 44" fill="none" xmlns="http://www.w3.org/2000/svg">
<g id="Group 2085667472">
<g id="Group 2085667434">
<g id="Group 2085667433">
<circle id="Ellipse 4255063" cx="3.2" cy="3.65313" r="2.2" fill="#6B41DE" fill-opacity="0.44"/>
<circle id="Ellipse 4255064" cx="11.0086" cy="3.65313" r="2.2" fill="#6B41DE" fill-opacity="0.44"/>
<circle id="Ellipse 4255065" cx="18.8133" cy="3.65313" r="2.2" fill="#6B41DE" fill-opacity="0.44"/>
<circle id="Ellipse 4255066" cx="26.6219" cy="3.65313" r="2.2" fill="#6B41DE" fill-opacity="0.44"/>
<circle id="Ellipse 4255067" cx="26.6219" cy="11.4617" r="2.2" fill="#6B41DE" fill-opacity="0.44"/>
<circle id="Ellipse 4255072" cx="3.2" cy="11.4617" r="2.2" fill="#6B41DE" fill-opacity="0.44"/>
<circle id="Ellipse 4255073" cx="26.6219" cy="17.7078" r="2.2" fill="#6B41DE" fill-opacity="0.44"/>
<circle id="Ellipse 4255069" cx="18.8133" cy="23.9539" r="2.2" fill="#6B41DE" fill-opacity="0.44"/>
<circle id="Ellipse 4255071" cx="3.2" cy="26.7" r="2.2" fill="#6B41DE" fill-opacity="0.44"/>
<circle id="Ellipse 4255074" cx="3.2" cy="19.0789" r="2.2" fill="#6B41DE" fill-opacity="0.44"/>
</g>
<g id="Frame">
<path id="Vector" d="M33.9742 19.2891C31.9159 19.2891 29.6992 20.2391 27.1659 22.4557C26.0576 23.2474 24.9492 24.3557 23.9992 25.3057C23.0492 24.3557 21.9409 23.2474 20.9909 22.4557C18.4576 20.2391 16.2409 19.2891 14.1826 19.2891C9.59088 19.2891 5.94922 23.5641 5.94922 28.7891C5.94922 34.0141 9.59088 38.2891 14.1826 38.2891C16.2409 38.2891 18.4576 37.3391 20.9909 35.1224C22.0992 34.1724 23.0492 33.2224 23.9992 32.2724C24.9492 33.2224 26.0576 34.3307 27.0076 35.1224C29.5409 37.3391 31.7575 38.2891 33.8159 38.2891C38.4076 38.2891 42.0492 34.0141 42.0492 28.7891C42.2076 23.5641 38.5659 19.2891 33.9742 19.2891ZM17.8242 31.4807C15.7659 33.2224 14.6576 33.5391 14.0242 33.5391C12.1242 33.5391 10.5409 31.3224 10.5409 28.7891C10.5409 26.2557 12.1242 24.0391 14.0242 24.0391C14.6576 24.0391 15.7659 24.3557 17.8242 26.0974C18.7742 26.8891 19.7242 27.8391 20.6742 28.7891C19.8826 29.7391 18.7742 30.6891 17.8242 31.4807ZM33.9742 33.5391C33.3409 33.5391 32.2326 33.2224 30.1742 31.4807C29.2242 30.6891 28.2742 29.7391 27.3242 28.7891C28.2742 27.8391 29.2242 26.8891 30.1742 26.0974C32.2326 24.3557 33.3409 24.0391 33.9742 24.0391C35.8742 24.0391 37.4576 26.2557 37.4576 28.7891C37.4576 31.3224 35.8742 33.5391 33.9742 33.5391Z" fill="#6B41DE"/>
</g>
</g>
</g>
</svg>
