<svg width="39" height="41" viewBox="0 0 39 41" fill="none" xmlns="http://www.w3.org/2000/svg">
<g id="Group 2085667076">
<g id="Group 2085666370">
<rect id="Rectangle 161126262" x="1.10938" y="2.03125" width="36.3443" height="36.3407" rx="4.57542" fill="url(#paint0_linear_13559_119130)"/>
<g id="Group 2085666369">
<path id="Vector" d="M19.2695 21.7559C19.5269 21.7559 19.774 21.8581 19.9561 22.04C20.1381 22.2221 20.2412 22.4691 20.2412 22.7266V24.9814C20.2412 25.239 20.1382 25.4859 19.9561 25.668C19.7739 25.85 19.527 25.9521 19.2695 25.9521C19.0121 25.9521 18.7651 25.85 18.583 25.668C18.401 25.4859 18.2988 25.2389 18.2988 24.9814V22.7266C18.2989 22.4691 18.401 22.2221 18.583 22.04C18.7651 21.858 19.0121 21.7559 19.2695 21.7559Z" fill="white" stroke="white" stroke-width="0.152514"/>
<path id="Vector_2" d="M19.7588 9.52539C20.7029 9.5276 21.6363 9.73009 22.4961 10.1201C23.356 10.5102 24.1236 11.079 24.7471 11.7881L24.8066 11.8633C24.8627 11.9414 24.9066 12.0277 24.9375 12.1191C24.9786 12.2409 24.9954 12.3698 24.9863 12.498C24.9773 12.6262 24.9425 12.7514 24.8848 12.8662C24.827 12.9809 24.7469 13.0824 24.6494 13.166C24.4549 13.3346 24.202 13.4196 23.9453 13.4014C23.6886 13.3832 23.449 13.2637 23.2803 13.0693C22.8414 12.5671 22.3005 12.164 21.6934 11.8877C21.0859 11.6113 20.4261 11.4686 19.7588 11.4678H18.8105C17.5659 11.4678 16.3723 11.9619 15.4922 12.8418C14.612 13.7219 14.1172 14.9156 14.1172 16.1602V17.4707H26.8916C27.5041 17.4733 28.0913 17.7173 28.5244 18.1504C28.9576 18.5835 29.2016 19.1707 29.2041 19.7832V28.6865C29.2041 29.3 28.9602 29.8885 28.5264 30.3223C28.0925 30.756 27.5041 31 26.8906 31H11.6787C11.0652 31 10.4768 30.756 10.043 30.3223C9.60913 29.8885 9.36523 29.3 9.36523 28.6865V19.7832C9.36776 19.1707 9.61175 18.5835 10.0449 18.1504C10.4781 17.7173 11.0652 17.4733 11.6777 17.4707H12.1748V16.1602C12.1772 14.4014 12.8774 12.7154 14.1211 11.4717C15.3649 10.228 17.0515 9.52779 18.8105 9.52539H19.7588ZM11.6787 19.4131C11.63 19.4131 11.5812 19.4228 11.5361 19.4414C11.4913 19.4601 11.4504 19.4871 11.416 19.5215C11.3817 19.5559 11.3546 19.5967 11.3359 19.6416C11.3173 19.6866 11.3076 19.7354 11.3076 19.7842V28.6865C11.3076 28.7353 11.3173 28.7841 11.3359 28.8291C11.3546 28.8739 11.3817 28.9149 11.416 28.9492C11.4504 28.9836 11.4913 29.0107 11.5361 29.0293C11.5812 29.0479 11.63 29.0576 11.6787 29.0576H26.8906C26.989 29.0576 27.0837 29.0188 27.1533 28.9492C27.2229 28.8796 27.2617 28.7849 27.2617 28.6865V19.7842C27.2617 19.6858 27.2229 19.5911 27.1533 19.5215C27.0837 19.4519 26.9891 19.4131 26.8906 19.4131H11.6787Z" fill="white" stroke="white" stroke-width="0.152514"/>
</g>
</g>
</g>
<defs>
<linearGradient id="paint0_linear_13559_119130" x1="15.4957" y1="2.03125" x2="33.6649" y2="42.5374" gradientUnits="userSpaceOnUse">
<stop stop-color="#37D586"/>
<stop offset="1" stop-color="#2EBF79"/>
</linearGradient>
</defs>
</svg>
